G04*
G04 #@! TF.GenerationSoftware,Altium Limited,Altium NEXUS,4.7.2 (13)*
G04*
G04 Layer_Color=32896*
%FSLAX25Y25*%
%MOIN*%
G70*
G04*
G04 #@! TF.SameCoordinates,2623A66C-A178-4ADA-913C-0C76BB464C87*
G04*
G04*
G04 #@! TF.FilePolarity,Positive*
G04*
G01*
G75*
%ADD179C,0.02000*%
D179*
X314961Y275591D02*
X314961Y0D01*
X0Y-0D02*
X314961Y0D01*
X0Y-0D02*
Y94488D01*
X24016D02*
X24366Y94527D01*
X24699Y94643D01*
X24998Y94831D01*
X25248Y95081D01*
X25435Y95379D01*
X25552Y95712D01*
X25591Y96063D01*
X25591Y179527D02*
X25591Y96063D01*
X25552Y179878D02*
X25591Y179527D01*
X25435Y180211D02*
X25552Y179878D01*
X25248Y180510D02*
X25435Y180211D01*
X24998Y180759D02*
X25248Y180510D01*
X24699Y180947D02*
X24998Y180759D01*
X24366Y181063D02*
X24699Y180947D01*
X24016Y181102D02*
X24366Y181063D01*
X0Y181102D02*
X24016D01*
X0Y275590D02*
X0Y181102D01*
X0Y275590D02*
X22799Y275587D01*
X23434Y275005D01*
X24177Y274571D01*
X24994Y274303D01*
X25850Y274213D01*
X65220D01*
X66077Y274303D01*
X66895Y274571D01*
X67638Y275007D01*
X68272Y275590D01*
X152067Y275587D01*
X152384Y275590D02*
X314961Y275591D01*
X0Y94488D02*
X24016D01*
M02*
