G04*
G04 #@! TF.GenerationSoftware,Altium Limited,Altium NEXUS,4.7.2 (13)*
G04*
G04 Layer_Color=65535*
%FSLAX25Y25*%
%MOIN*%
G70*
G04*
G04 #@! TF.SameCoordinates,2623A66C-A178-4ADA-913C-0C76BB464C87*
G04*
G04*
G04 #@! TF.FilePolarity,Positive*
G04*
G01*
G75*
%ADD10C,0.00984*%
%ADD11C,0.00787*%
%ADD12C,0.00600*%
%ADD13C,0.01000*%
%ADD14C,0.00394*%
%ADD15C,0.00500*%
%ADD16C,0.00800*%
G36*
X119565Y84174D02*
Y84081D01*
Y73095D01*
X125524D01*
Y51961D01*
X119565D01*
Y47027D01*
X83815D01*
Y51961D01*
X77856D01*
Y73095D01*
X83815D01*
Y92273D01*
X119565D01*
Y84174D01*
D02*
G37*
G36*
X45310Y67293D02*
X45402Y67275D01*
X45411D01*
X45421Y67266D01*
X45476Y67247D01*
X45550Y67210D01*
X45633Y67164D01*
X45643D01*
X45652Y67155D01*
X45689Y67118D01*
X45744Y67062D01*
X45800Y66988D01*
X45809Y66970D01*
X45837Y66923D01*
X45865Y66849D01*
X45874Y66757D01*
Y66748D01*
Y66720D01*
X45865Y66683D01*
X45855Y66637D01*
Y66618D01*
X45846Y66590D01*
X45828Y66544D01*
Y66535D01*
X45809Y66516D01*
X45787Y66494D01*
X45781Y66461D01*
X45754Y66405D01*
X45735Y66387D01*
X45717Y66378D01*
X45689D01*
X45633Y66368D01*
X45615D01*
X45569Y66378D01*
X45513Y66387D01*
X45448Y66415D01*
X45439Y66424D01*
X45411Y66452D01*
X45374Y66489D01*
X45328Y66526D01*
X45319Y66535D01*
X45291Y66563D01*
X45226Y66618D01*
X45217Y66627D01*
X45199Y66637D01*
X45180Y66646D01*
X45143Y66655D01*
X45060D01*
X45032Y66646D01*
X44986Y66637D01*
X44930Y66618D01*
X44856Y66590D01*
X44773Y66553D01*
X44588Y66470D01*
X44579Y66461D01*
X44542Y66442D01*
X44496Y66415D01*
X44431Y66378D01*
X44357Y66331D01*
X44264Y66276D01*
X44079Y66137D01*
X44070Y66128D01*
X44033Y66109D01*
X43987Y66063D01*
X43922Y66017D01*
X43848Y65952D01*
X43774Y65878D01*
X43598Y65712D01*
X43589Y65702D01*
X43561Y65675D01*
X43515Y65619D01*
X43460Y65564D01*
X43395Y65480D01*
X43330Y65397D01*
X43182Y65212D01*
X43173Y65203D01*
X43154Y65166D01*
X43117Y65120D01*
X43080Y65055D01*
X43034Y64972D01*
X42988Y64888D01*
X42905Y64694D01*
Y64685D01*
X42886Y64648D01*
X42877Y64602D01*
X42858Y64537D01*
X42840Y64463D01*
X42821Y64370D01*
X42812Y64287D01*
X42803Y64195D01*
Y64185D01*
Y64167D01*
X42812Y64130D01*
Y64084D01*
X42840Y63982D01*
X42886Y63880D01*
Y63871D01*
X42905Y63852D01*
X42923Y63825D01*
X42951Y63788D01*
X42988Y63732D01*
X43034Y63667D01*
X43090Y63593D01*
X43154Y63510D01*
X43164Y63519D01*
X43191Y63538D01*
X43238D01*
X43302Y63529D01*
X43312D01*
X43321Y63519D01*
X43367Y63510D01*
X43432Y63501D01*
X43506Y63492D01*
X43524D01*
X43571Y63501D01*
X43635Y63510D01*
X43709Y63529D01*
X43719D01*
X43728Y63538D01*
X43783Y63556D01*
X43857Y63584D01*
X43950Y63621D01*
X43959D01*
X43968Y63630D01*
X44033Y63667D01*
X44107Y63704D01*
X44200Y63760D01*
X44209D01*
X44218Y63769D01*
X44283Y63806D01*
X44366Y63852D01*
X44468Y63908D01*
X44477Y63917D01*
X44514Y63945D01*
X44560Y63982D01*
X44616Y64037D01*
X44690Y64102D01*
X44773Y64176D01*
X44847Y64269D01*
X44930Y64361D01*
X44940Y64370D01*
X44967Y64407D01*
X45004Y64463D01*
X45051Y64537D01*
X45106Y64629D01*
X45171Y64722D01*
X45260Y64899D01*
X45254Y64898D01*
X45245D01*
X45208Y64879D01*
X45143Y64861D01*
X45069Y64833D01*
X45051Y64824D01*
X45004Y64805D01*
X44921Y64777D01*
X44819Y64740D01*
X44810D01*
X44792Y64731D01*
X44773Y64722D01*
X44736Y64713D01*
X44653Y64685D01*
X44560Y64657D01*
X44551D01*
X44542Y64648D01*
X44496Y64639D01*
X44431Y64611D01*
X44357Y64583D01*
X44348D01*
X44311Y64565D01*
X44274Y64555D01*
X44237Y64546D01*
X44227D01*
X44190Y64528D01*
X44172Y64518D01*
X44126Y64500D01*
X44107Y64491D01*
X44061Y64472D01*
X44052D01*
X44042Y64463D01*
X43987Y64454D01*
X43941D01*
X43894Y64463D01*
X43848Y64481D01*
X43839Y64491D01*
X43811Y64509D01*
X43737Y64565D01*
X43728Y64574D01*
X43719Y64602D01*
X43691Y64639D01*
X43672Y64685D01*
Y64694D01*
X43663Y64731D01*
X43654Y64768D01*
Y64824D01*
Y64833D01*
Y64851D01*
X43663Y64907D01*
X43691Y64981D01*
X43737Y65055D01*
X43756Y65073D01*
X43793Y65101D01*
X43848Y65138D01*
X43922Y65175D01*
X43931D01*
X43941Y65184D01*
X43987Y65203D01*
X44052Y65221D01*
X44126Y65231D01*
X44144D01*
X44190Y65240D01*
X44255D01*
X44311Y65249D01*
X44329Y65258D01*
X44338D01*
X44348Y65268D01*
X44385Y65277D01*
X44394D01*
X44403Y65286D01*
X44449Y65295D01*
X44459D01*
X44477Y65305D01*
X44496Y65314D01*
X44523D01*
X44542Y65323D01*
X44588Y65342D01*
X44616Y65360D01*
X44662Y65379D01*
X44671D01*
X44690Y65388D01*
X44708Y65397D01*
X44745Y65416D01*
X44829Y65443D01*
X44921Y65480D01*
X44930D01*
X44940Y65490D01*
X44995Y65508D01*
X45078Y65536D01*
X45180Y65564D01*
X45189D01*
X45208Y65573D01*
X45236D01*
X45263Y65582D01*
X45347Y65591D01*
X45430Y65601D01*
X45504D01*
X45569Y65582D01*
X45643Y65564D01*
X45652D01*
X45661Y65554D01*
X45698Y65536D01*
X45754Y65499D01*
X45809Y65453D01*
X45818Y65443D01*
X45846Y65406D01*
X45883Y65351D01*
X45911Y65286D01*
X45920Y65268D01*
X45929Y65231D01*
X45939Y65166D01*
X45948Y65092D01*
Y65083D01*
Y65064D01*
X45939Y64999D01*
Y64990D01*
Y64972D01*
X45920Y64907D01*
Y64888D01*
X45902Y64842D01*
X45883Y64777D01*
X45855Y64694D01*
X45809Y64592D01*
X45763Y64481D01*
X45643Y64250D01*
X45633Y64241D01*
X45606Y64204D01*
X45569Y64148D01*
X45522Y64074D01*
X45458Y63991D01*
X45374Y63908D01*
X45291Y63815D01*
X45199Y63723D01*
X45189Y63714D01*
X45152Y63686D01*
X45106Y63640D01*
X45032Y63584D01*
X44958Y63510D01*
X44856Y63445D01*
X44755Y63371D01*
X44644Y63297D01*
X44634Y63288D01*
X44588Y63270D01*
X44533Y63242D01*
X44449Y63205D01*
X44348Y63159D01*
X44237Y63122D01*
X44116Y63075D01*
X43987Y63048D01*
X43941Y63001D01*
X43950D01*
Y62992D01*
X43941Y62974D01*
X43931Y62964D01*
X43904Y62955D01*
X43894D01*
X43857Y62946D01*
X43802Y62937D01*
X43746Y62918D01*
X43737D01*
X43700Y62909D01*
X43645Y62900D01*
X43589Y62881D01*
X43543D01*
X43497Y62872D01*
X43302D01*
X43238Y62881D01*
X43228D01*
X43191Y62890D01*
X43145D01*
X43099Y62900D01*
X43090D01*
X43062Y62909D01*
X42988Y62927D01*
X42979D01*
X42969Y62937D01*
X42923Y62964D01*
X42914D01*
X42895Y62974D01*
X42858Y62992D01*
X42821Y63020D01*
X42720Y63075D01*
X42599Y63149D01*
X42590Y63159D01*
X42572Y63168D01*
X42544Y63196D01*
X42516Y63233D01*
X42433Y63316D01*
X42350Y63418D01*
Y63427D01*
X42331Y63445D01*
X42313Y63473D01*
X42294Y63519D01*
X42239Y63621D01*
X42183Y63751D01*
Y63760D01*
X42174Y63788D01*
X42165Y63825D01*
X42155Y63871D01*
X42146Y63926D01*
X42137Y64000D01*
X42128Y64148D01*
Y64158D01*
Y64185D01*
Y64232D01*
X42137Y64296D01*
X42146Y64361D01*
X42155Y64444D01*
X42192Y64620D01*
Y64629D01*
X42211Y64666D01*
X42220Y64713D01*
X42248Y64768D01*
X42276Y64842D01*
X42313Y64925D01*
X42396Y65110D01*
X42405Y65120D01*
X42424Y65157D01*
X42442Y65203D01*
X42479Y65268D01*
X42525Y65342D01*
X42572Y65425D01*
X42692Y65601D01*
X42701Y65610D01*
X42720Y65638D01*
X42757Y65693D01*
X42803Y65749D01*
X42858Y65823D01*
X42923Y65897D01*
X43062Y66063D01*
X43071Y66072D01*
X43099Y66100D01*
X43136Y66146D01*
X43191Y66202D01*
X43256Y66257D01*
X43321Y66331D01*
X43478Y66470D01*
X43487Y66479D01*
X43515Y66498D01*
X43561Y66535D01*
X43608Y66581D01*
X43672Y66637D01*
X43746Y66692D01*
X43904Y66803D01*
X43913D01*
X43922Y66822D01*
X43950Y66831D01*
X43987Y66859D01*
X44079Y66914D01*
X44181Y66979D01*
X44190D01*
X44209Y66997D01*
X44237Y67016D01*
X44283Y67034D01*
X44385Y67090D01*
X44496Y67145D01*
X44505D01*
X44523Y67155D01*
X44551Y67173D01*
X44597Y67192D01*
X44699Y67229D01*
X44819Y67266D01*
X44829D01*
X44847Y67275D01*
X44884Y67284D01*
X44921Y67293D01*
X45023Y67303D01*
X45143Y67312D01*
X45226D01*
X45310Y67293D01*
D02*
G37*
G36*
X46956Y65804D02*
X47012Y65795D01*
X47067Y65767D01*
X47076Y65758D01*
X47104Y65739D01*
X47141Y65702D01*
X47169Y65656D01*
X47178Y65647D01*
X47187Y65610D01*
X47206Y65564D01*
X47215Y65508D01*
Y65499D01*
X47224Y65462D01*
Y65406D01*
Y65351D01*
Y65342D01*
Y65332D01*
Y65323D01*
X47215Y65305D01*
Y65277D01*
Y65249D01*
X47224Y65240D01*
Y65258D01*
Y65268D01*
Y65305D01*
Y65323D01*
X47252Y65351D01*
X47280Y65388D01*
X47289Y65397D01*
X47298Y65406D01*
X47345Y65453D01*
X47409Y65508D01*
X47493Y65564D01*
X47502D01*
X47511Y65582D01*
X47567Y65610D01*
X47641Y65656D01*
X47733Y65693D01*
X47742D01*
X47752Y65702D01*
X47779Y65712D01*
X47816Y65721D01*
X47900Y65739D01*
X48001Y65749D01*
X48066D01*
X48103Y65739D01*
X48112D01*
X48140Y65730D01*
X48214Y65712D01*
X48223D01*
X48251Y65702D01*
X48297Y65693D01*
X48344Y65665D01*
X48353Y65656D01*
X48390Y65647D01*
X48436Y65619D01*
X48482Y65591D01*
X48492D01*
X48501Y65573D01*
X48547Y65536D01*
X48612Y65471D01*
X48667Y65379D01*
Y65369D01*
X48677Y65360D01*
X48704Y65305D01*
X48732Y65231D01*
X48741Y65138D01*
Y65129D01*
Y65101D01*
X48732Y65064D01*
X48714Y65018D01*
Y65009D01*
X48704Y64981D01*
X48686Y64944D01*
X48658Y64907D01*
X48649Y64898D01*
X48640Y64879D01*
X48612Y64851D01*
X48575Y64824D01*
X48566Y64814D01*
X48538Y64805D01*
X48501Y64796D01*
X48445Y64787D01*
X48399D01*
X48353Y64796D01*
X48297Y64814D01*
X48288Y64824D01*
X48251Y64833D01*
X48205Y64861D01*
X48159Y64888D01*
Y64898D01*
X48140Y64907D01*
X48103Y64953D01*
Y64962D01*
X48085Y64972D01*
X48057Y65018D01*
Y65027D01*
X48048Y65036D01*
X48020Y65073D01*
Y65083D01*
Y65092D01*
X47946D01*
X47909Y65083D01*
X47816Y65064D01*
X47724Y65018D01*
X47715D01*
X47705Y65009D01*
X47650Y64972D01*
X47576Y64916D01*
X47493Y64842D01*
X47483D01*
X47474Y64824D01*
X47428Y64777D01*
X47354Y64703D01*
X47280Y64611D01*
Y64602D01*
X47261Y64592D01*
X47224Y64537D01*
X47169Y64463D01*
X47113Y64398D01*
Y64389D01*
X47104Y64361D01*
X47095Y64324D01*
X47076Y64269D01*
X47058Y64204D01*
X47039Y64121D01*
X47012Y64028D01*
X46984Y63926D01*
Y63917D01*
X46975Y63880D01*
X46956Y63825D01*
X46947Y63751D01*
X46919Y63658D01*
X46901Y63556D01*
X46845Y63334D01*
Y63270D01*
Y63260D01*
Y63223D01*
Y63159D01*
X46836Y63085D01*
Y63066D01*
Y63020D01*
X46817Y62964D01*
X46799Y62900D01*
X46790Y62890D01*
X46771Y62863D01*
X46725Y62835D01*
X46679Y62807D01*
X46669Y62798D01*
X46632Y62789D01*
X46577Y62779D01*
X46503Y62770D01*
X46475D01*
X46447Y62779D01*
X46410D01*
X46336Y62807D01*
X46262Y62863D01*
Y62872D01*
X46253Y62881D01*
X46225Y62927D01*
X46198Y63001D01*
X46188Y63094D01*
Y63103D01*
Y63131D01*
X46198Y63168D01*
X46207Y63214D01*
Y63223D01*
X46216Y63251D01*
X46225Y63297D01*
X46235Y63353D01*
X46244Y63418D01*
X46262Y63501D01*
X46290Y63677D01*
Y63686D01*
X46299Y63723D01*
X46309Y63769D01*
X46327Y63834D01*
X46346Y63917D01*
X46364Y64000D01*
X46401Y64176D01*
Y64185D01*
X46410Y64222D01*
X46420Y64269D01*
X46438Y64333D01*
X46447Y64407D01*
X46466Y64481D01*
X46503Y64657D01*
Y64666D01*
X46512Y64694D01*
X46521Y64740D01*
X46531Y64805D01*
X46540Y64870D01*
X46558Y64953D01*
X46586Y65110D01*
Y65120D01*
Y65129D01*
Y65157D01*
Y65166D01*
Y65175D01*
Y65212D01*
Y65221D01*
Y65231D01*
Y65277D01*
Y65342D01*
X46595Y65406D01*
Y65425D01*
X46605Y65462D01*
X46614Y65517D01*
X46632Y65582D01*
Y65591D01*
X46642Y65601D01*
X46660Y65656D01*
X46688Y65712D01*
X46725Y65758D01*
X46734Y65767D01*
X46771Y65786D01*
X46817Y65804D01*
X46891Y65813D01*
X46910D01*
X46956Y65804D01*
D02*
G37*
G36*
X54634Y65943D02*
X54689Y65934D01*
X54698D01*
X54735Y65915D01*
X54772Y65897D01*
X54809Y65860D01*
X54819Y65850D01*
X54837Y65823D01*
X54865Y65776D01*
X54883Y65721D01*
X54893Y65712D01*
X54902Y65665D01*
X54911Y65610D01*
Y65527D01*
Y65517D01*
Y65508D01*
Y65471D01*
X54902Y65434D01*
Y65388D01*
X54893Y65332D01*
X54865Y65194D01*
Y65184D01*
X54856Y65157D01*
Y65120D01*
X54837Y65073D01*
X54819Y64953D01*
X54782Y64824D01*
Y64814D01*
Y64805D01*
X54763Y64750D01*
X54745Y64676D01*
X54726Y64583D01*
Y64574D01*
Y64565D01*
X54708Y64509D01*
X54698Y64435D01*
X54680Y64352D01*
Y64343D01*
Y64333D01*
X54671Y64287D01*
X54661Y64213D01*
X54643Y64130D01*
Y64121D01*
Y64111D01*
Y64065D01*
X54634Y64000D01*
Y63926D01*
Y63917D01*
Y63899D01*
Y63871D01*
Y63825D01*
Y63732D01*
X54643Y63612D01*
Y63603D01*
Y63584D01*
Y63556D01*
X54652Y63519D01*
Y63418D01*
Y63307D01*
Y63297D01*
Y63270D01*
Y63223D01*
X54643Y63168D01*
Y63159D01*
Y63131D01*
Y63094D01*
X54634Y63066D01*
Y63057D01*
X54624Y63048D01*
X54606Y62992D01*
X54569Y62927D01*
X54523Y62863D01*
X54513Y62853D01*
X54476Y62835D01*
X54402Y62807D01*
X54310Y62798D01*
X54254D01*
X54199Y62807D01*
X54143Y62826D01*
X54134D01*
X54106Y62844D01*
X54069Y62853D01*
X54042Y62881D01*
X54032Y62890D01*
X54023Y62909D01*
X54005Y62937D01*
X53995Y62974D01*
Y62983D01*
X53986Y63011D01*
X53977Y63075D01*
X53954Y63485D01*
X53903Y63427D01*
X53820Y63316D01*
X53810Y63307D01*
X53801Y63288D01*
X53773Y63260D01*
X53746Y63223D01*
X53662Y63122D01*
X53561Y63020D01*
X53551Y63011D01*
X53533Y63001D01*
X53505Y62974D01*
X53468Y62937D01*
X53366Y62863D01*
X53237Y62789D01*
X53228D01*
X53209Y62770D01*
X53172Y62761D01*
X53126Y62742D01*
X53070Y62724D01*
X53006Y62715D01*
X52858Y62696D01*
X52821D01*
X52784Y62705D01*
X52737Y62724D01*
X52728D01*
X52700Y62733D01*
X52654Y62752D01*
X52599Y62770D01*
X52589Y62779D01*
X52562Y62789D01*
X52515Y62807D01*
X52469Y62835D01*
X52460Y62844D01*
X52432Y62863D01*
X52395Y62881D01*
X52367Y62909D01*
X52358Y62918D01*
X52340Y62937D01*
X52312Y62974D01*
X52275Y63020D01*
X52192Y63131D01*
X52145Y63196D01*
X52118Y63270D01*
Y63279D01*
X52108Y63307D01*
X52099Y63344D01*
X52081Y63399D01*
X52071Y63455D01*
X52053Y63529D01*
X52044Y63677D01*
Y63686D01*
Y63695D01*
Y63751D01*
X52053Y63825D01*
X52062Y63908D01*
Y63917D01*
Y63926D01*
X52071Y63973D01*
X52090Y64047D01*
X52099Y64121D01*
Y64130D01*
X52108Y64139D01*
X52118Y64185D01*
X52136Y64250D01*
X52155Y64315D01*
X52164Y64333D01*
X52173Y64370D01*
X52182Y64426D01*
X52201Y64481D01*
Y64491D01*
X52210Y64509D01*
X52219Y64537D01*
X52238Y64583D01*
X52247Y64629D01*
X52266Y64694D01*
X52303Y64833D01*
Y64842D01*
X52312Y64870D01*
X52321Y64907D01*
X52330Y64953D01*
X52358Y65064D01*
X52377Y65166D01*
Y65175D01*
X52386Y65184D01*
X52395Y65240D01*
X52414Y65314D01*
X52432Y65388D01*
X52441Y65406D01*
X52451Y65443D01*
X52460Y65490D01*
X52478Y65545D01*
Y65554D01*
X52488Y65582D01*
X52525Y65638D01*
X52534Y65647D01*
X52543Y65665D01*
X52580Y65712D01*
X52589Y65721D01*
X52599Y65730D01*
X52645Y65749D01*
X52654D01*
X52663Y65758D01*
X52710Y65767D01*
X52737D01*
X52793Y65758D01*
X52821D01*
X52876Y65749D01*
X52885D01*
X52913Y65739D01*
X52969Y65730D01*
X52987D01*
X53033Y65712D01*
X53080Y65684D01*
X53126Y65638D01*
X53135Y65628D01*
X53154Y65591D01*
X53163Y65536D01*
X53172Y65462D01*
Y65453D01*
Y65416D01*
X53163Y65360D01*
X53144Y65305D01*
Y65286D01*
X53126Y65240D01*
X53107Y65175D01*
X53080Y65083D01*
X53052Y64990D01*
X53024Y64879D01*
X52987Y64768D01*
X52959Y64666D01*
Y64657D01*
X52950Y64620D01*
X52932Y64574D01*
X52913Y64509D01*
X52867Y64370D01*
X52821Y64213D01*
Y64204D01*
X52811Y64185D01*
X52802Y64148D01*
X52793Y64102D01*
X52765Y64010D01*
X52737Y63908D01*
Y63899D01*
Y63889D01*
X52728Y63843D01*
X52719Y63788D01*
X52710Y63732D01*
Y63723D01*
Y63695D01*
Y63649D01*
X52719Y63593D01*
Y63584D01*
X52728Y63556D01*
X52747Y63519D01*
X52765Y63473D01*
X52774Y63464D01*
X52784Y63445D01*
X52830Y63381D01*
X52839D01*
X52858Y63371D01*
X52885Y63362D01*
X52913Y63353D01*
X52932D01*
X52978Y63362D01*
X53043Y63381D01*
X53126Y63418D01*
X53135D01*
X53144Y63427D01*
X53200Y63464D01*
X53274Y63519D01*
X53357Y63593D01*
X53366Y63603D01*
X53376Y63612D01*
X53431Y63667D01*
X53496Y63741D01*
X53561Y63825D01*
Y63834D01*
X53579Y63843D01*
X53616Y63899D01*
X53662Y63963D01*
X53709Y64028D01*
X53792Y64185D01*
Y64195D01*
X53801Y64204D01*
X53829Y64269D01*
X53866Y64352D01*
X53912Y64454D01*
Y64463D01*
X53921Y64481D01*
X53940Y64509D01*
X53949Y64555D01*
X53986Y64657D01*
X54023Y64768D01*
Y64777D01*
X54032Y64796D01*
X54042Y64833D01*
X54051Y64870D01*
X54079Y64972D01*
X54097Y65083D01*
Y65092D01*
X54106Y65110D01*
X54116Y65166D01*
X54134Y65249D01*
X54153Y65323D01*
X54227Y65702D01*
Y65712D01*
X54236Y65721D01*
X54245Y65776D01*
X54282Y65841D01*
X54319Y65897D01*
X54328Y65906D01*
X54375Y65924D01*
X54439Y65943D01*
X54532Y65952D01*
X54587D01*
X54634Y65943D01*
D02*
G37*
G36*
X56178Y65776D02*
X56262Y65767D01*
X56336Y65739D01*
X56354Y65730D01*
X56391Y65712D01*
X56428Y65665D01*
X56465Y65619D01*
X56474Y65610D01*
X56493Y65573D01*
X56511Y65517D01*
X56521Y65453D01*
Y65443D01*
X56530Y65406D01*
Y65379D01*
Y65360D01*
X56548Y65388D01*
X56567Y65406D01*
X56585Y65425D01*
X56622Y65453D01*
X56669Y65471D01*
X56678D01*
X56696Y65480D01*
X56724Y65490D01*
X56761Y65508D01*
X56854Y65545D01*
X56965Y65573D01*
X56974D01*
X56992Y65582D01*
X57020D01*
X57057Y65591D01*
X57150Y65610D01*
X57261Y65628D01*
X57288D01*
X57316Y65638D01*
X57353D01*
X57455Y65647D01*
X57640D01*
X57686Y65638D01*
X57816Y65610D01*
X57954Y65564D01*
X57964D01*
X57982Y65554D01*
X58019Y65536D01*
X58056Y65508D01*
X58149Y65443D01*
X58241Y65351D01*
X58250Y65342D01*
X58260Y65323D01*
X58278Y65295D01*
X58306Y65258D01*
X58371Y65157D01*
X58417Y65036D01*
Y65027D01*
X58426Y65009D01*
X58435Y64972D01*
X58445Y64925D01*
X58463Y64814D01*
X58472Y64685D01*
Y64676D01*
Y64648D01*
Y64611D01*
X58463Y64555D01*
X58445Y64426D01*
X58398Y64278D01*
Y64269D01*
X58389Y64241D01*
X58371Y64204D01*
X58352Y64158D01*
X58297Y64047D01*
X58213Y63926D01*
X58204Y63917D01*
X58195Y63899D01*
X58167Y63871D01*
X58139Y63834D01*
X58056Y63732D01*
X57945Y63621D01*
X57936Y63612D01*
X57917Y63593D01*
X57890Y63575D01*
X57853Y63538D01*
X57742Y63455D01*
X57612Y63362D01*
X57603Y63353D01*
X57584Y63344D01*
X57547Y63325D01*
X57501Y63297D01*
X57381Y63233D01*
X57242Y63159D01*
X57233D01*
X57214Y63140D01*
X57177Y63122D01*
X57131Y63103D01*
X57011Y63048D01*
X56881Y62992D01*
X56872D01*
X56863Y62983D01*
X56798Y62964D01*
X56724Y62937D01*
X56632Y62909D01*
X56613D01*
X56567Y62900D01*
X56502Y62890D01*
X56428Y62881D01*
X56345D01*
X56262Y62890D01*
X56169Y62909D01*
X56160D01*
X56151Y62918D01*
X56104Y62927D01*
X56049Y62964D01*
X56012Y63001D01*
Y62992D01*
X56003Y62974D01*
Y62946D01*
X55993Y62900D01*
X55966Y62798D01*
X55938Y62678D01*
Y62668D01*
X55929Y62650D01*
Y62613D01*
X55919Y62567D01*
X55892Y62465D01*
X55873Y62345D01*
Y62335D01*
X55864Y62298D01*
X55855Y62243D01*
X55836Y62169D01*
Y62160D01*
Y62150D01*
X55827Y62104D01*
X55808Y62039D01*
X55790Y61965D01*
Y61947D01*
X55781Y61910D01*
X55771Y61854D01*
X55753Y61790D01*
Y61780D01*
X55744Y61743D01*
X55734Y61688D01*
X55725Y61642D01*
Y61632D01*
X55707Y61614D01*
X55688Y61586D01*
X55660Y61558D01*
X55651Y61549D01*
X55633Y61540D01*
X55596Y61521D01*
X55559Y61503D01*
X55549D01*
X55522Y61494D01*
X55485Y61484D01*
X55448Y61475D01*
X55420D01*
X55355Y61466D01*
X55309D01*
X55263Y61475D01*
X55216Y61494D01*
X55161Y61521D01*
X55115Y61568D01*
X55078Y61623D01*
X55068Y61697D01*
Y61706D01*
Y61734D01*
X55078Y61799D01*
Y61808D01*
X55087Y61845D01*
X55105Y61891D01*
X55115Y61956D01*
X55133Y62030D01*
X55152Y62113D01*
X55189Y62271D01*
Y62280D01*
X55198Y62308D01*
X55207Y62345D01*
X55216Y62391D01*
X55244Y62511D01*
X55272Y62650D01*
Y62659D01*
X55281Y62678D01*
X55290Y62715D01*
X55300Y62761D01*
X55327Y62872D01*
X55346Y62983D01*
Y62992D01*
X55355Y63011D01*
Y63038D01*
X55364Y63075D01*
X55392Y63177D01*
X55411Y63297D01*
Y63307D01*
X55420Y63325D01*
X55429Y63362D01*
X55438Y63399D01*
X55457Y63510D01*
X55485Y63640D01*
Y63649D01*
X55494Y63677D01*
X55503Y63714D01*
X55512Y63760D01*
X55522Y63815D01*
X55540Y63889D01*
X55568Y64037D01*
X55707Y64731D01*
Y64740D01*
X55716Y64759D01*
Y64787D01*
X55725Y64833D01*
X55744Y64925D01*
X55753Y65018D01*
Y65027D01*
Y65036D01*
X55762Y65092D01*
X55771Y65166D01*
Y65249D01*
Y65258D01*
Y65268D01*
Y65323D01*
Y65388D01*
Y65462D01*
Y65480D01*
X55781Y65517D01*
X55790Y65573D01*
X55808Y65628D01*
X55818Y65638D01*
X55836Y65675D01*
X55864Y65702D01*
X55910Y65739D01*
X55919Y65749D01*
X55966Y65767D01*
X56021Y65776D01*
X56095Y65786D01*
X56123D01*
X56178Y65776D01*
D02*
G37*
G36*
X50804Y65869D02*
X50860Y65860D01*
X50998Y65823D01*
X51072Y65795D01*
X51137Y65749D01*
X51146Y65739D01*
X51165Y65730D01*
X51202Y65702D01*
X51239Y65665D01*
X51285Y65610D01*
X51331Y65554D01*
X51378Y65490D01*
X51424Y65406D01*
X51433Y65397D01*
X51442Y65369D01*
X51470Y65323D01*
X51489Y65277D01*
X51498Y65268D01*
X51507Y65240D01*
X51516Y65194D01*
X51535Y65138D01*
X51544Y65129D01*
X51553Y65092D01*
X51563Y65036D01*
X51572Y64981D01*
Y64962D01*
X51581Y64925D01*
Y64870D01*
Y64796D01*
Y64787D01*
Y64750D01*
Y64703D01*
X51572Y64639D01*
X51563Y64565D01*
X51553Y64481D01*
X51507Y64296D01*
Y64287D01*
X51498Y64250D01*
X51479Y64204D01*
X51452Y64139D01*
X51424Y64065D01*
X51387Y63982D01*
X51285Y63806D01*
X51276Y63797D01*
X51257Y63769D01*
X51230Y63723D01*
X51193Y63667D01*
X51146Y63593D01*
X51091Y63519D01*
X50952Y63353D01*
X50943Y63344D01*
X50915Y63316D01*
X50878Y63279D01*
X50823Y63223D01*
X50758Y63168D01*
X50684Y63103D01*
X50508Y62964D01*
X50499Y62955D01*
X50480Y62946D01*
X50443Y62927D01*
X50397Y62900D01*
X50342Y62872D01*
X50286Y62844D01*
X50138Y62789D01*
X50129D01*
X50101Y62779D01*
X50064Y62770D01*
X50009Y62761D01*
X49935Y62742D01*
X49861Y62733D01*
X49685Y62724D01*
X49592D01*
X49537Y62733D01*
X49398Y62752D01*
X49259Y62789D01*
X49250D01*
X49232Y62798D01*
X49195Y62816D01*
X49158Y62835D01*
X49056Y62890D01*
X48954Y62964D01*
X48945Y62974D01*
X48936Y62983D01*
X48917Y63011D01*
X48889Y63048D01*
X48834Y63140D01*
X48778Y63251D01*
Y63260D01*
X48769Y63279D01*
X48760Y63316D01*
X48751Y63362D01*
X48741Y63418D01*
X48732Y63482D01*
X48723Y63630D01*
Y63640D01*
Y63667D01*
Y63704D01*
X48732Y63751D01*
Y63815D01*
X48751Y63880D01*
X48778Y64037D01*
Y64047D01*
X48788Y64074D01*
X48797Y64111D01*
X48815Y64158D01*
X48834Y64213D01*
X48852Y64278D01*
X48917Y64426D01*
Y64435D01*
X48936Y64463D01*
X48954Y64509D01*
X48982Y64555D01*
X49019Y64620D01*
X49065Y64694D01*
X49167Y64851D01*
X49176Y64861D01*
X49195Y64888D01*
X49232Y64925D01*
X49269Y64981D01*
X49324Y65046D01*
X49389Y65120D01*
X49537Y65268D01*
X49546Y65277D01*
X49574Y65305D01*
X49620Y65342D01*
X49685Y65388D01*
X49759Y65453D01*
X49842Y65517D01*
X49944Y65582D01*
X50046Y65647D01*
X50055Y65656D01*
X50083Y65665D01*
X50129Y65693D01*
X50194Y65712D01*
X50203D01*
X50212Y65721D01*
X50258Y65730D01*
X50314Y65739D01*
X50369Y65749D01*
X50379Y65758D01*
X50388Y65767D01*
X50416Y65786D01*
X50462Y65813D01*
X50508Y65841D01*
X50564Y65860D01*
X50638Y65869D01*
X50712Y65878D01*
X50758D01*
X50804Y65869D01*
D02*
G37*
G36*
X56900Y60065D02*
X56937Y60047D01*
X56946D01*
X56965Y60028D01*
X57011Y60001D01*
X57020Y59991D01*
X57029Y59982D01*
X57057Y59945D01*
X57066D01*
X57103Y59936D01*
X57131Y59908D01*
X57168Y59862D01*
X57177Y59853D01*
X57187Y59825D01*
X57196Y59779D01*
X57205Y59723D01*
Y59714D01*
Y59686D01*
X57187Y59621D01*
Y59612D01*
Y59603D01*
X57177Y59557D01*
X57168Y59547D01*
X57159Y59510D01*
X57131Y59464D01*
X57094Y59418D01*
X57085Y59409D01*
X57057Y59381D01*
X57020Y59353D01*
X56965Y59316D01*
X56955Y59307D01*
X56918Y59298D01*
X56863Y59270D01*
X56807Y59251D01*
X56798D01*
X56761Y59242D01*
X56715Y59233D01*
X56613D01*
X56567Y59242D01*
X56521Y59261D01*
X56511Y59270D01*
X56493Y59288D01*
X56456Y59325D01*
X56419Y59381D01*
X56410Y59390D01*
X56391Y59409D01*
X56373Y59436D01*
X56363Y59464D01*
Y59473D01*
Y59483D01*
Y59529D01*
Y59538D01*
Y59557D01*
Y59603D01*
Y59612D01*
X56373Y59621D01*
X56382Y59649D01*
Y59658D01*
X56391Y59695D01*
X56410Y59751D01*
X56437Y59816D01*
Y59825D01*
X56447Y59834D01*
X56474Y59880D01*
X56521Y59936D01*
X56595Y60001D01*
X56604Y60010D01*
X56632Y60019D01*
X56669Y60038D01*
X56724Y60056D01*
X56743Y60065D01*
X56770Y60075D01*
X56807Y60084D01*
X56872D01*
X56900Y60065D01*
D02*
G37*
G36*
X64568Y58835D02*
X64624Y58817D01*
X64633Y58807D01*
X64670Y58798D01*
X64707Y58770D01*
X64744Y58733D01*
X64753Y58724D01*
X64772Y58706D01*
X64790Y58669D01*
X64809Y58622D01*
Y58613D01*
X64818Y58585D01*
X64827Y58548D01*
Y58502D01*
Y58484D01*
Y58447D01*
X64818Y58391D01*
X64799Y58336D01*
Y58326D01*
X64790Y58289D01*
X64772Y58243D01*
X64753Y58197D01*
X64365Y56634D01*
Y56624D01*
Y56615D01*
X64355Y56560D01*
Y56486D01*
X64346Y56402D01*
Y56393D01*
Y56384D01*
X64337Y56338D01*
X64328Y56273D01*
X64309Y56199D01*
Y56190D01*
X64300Y56180D01*
X64281Y56125D01*
Y56116D01*
X64272Y56097D01*
X64226Y56032D01*
X64217Y56023D01*
X64207Y56005D01*
X64180Y55986D01*
X64133Y55958D01*
X64124D01*
X64096Y55949D01*
X64050Y55940D01*
X63985Y55931D01*
X63930D01*
X63874Y55940D01*
X63819Y55949D01*
X63810D01*
X63782Y55958D01*
X63708Y55986D01*
X63699Y55995D01*
X63689Y56005D01*
X63652Y56051D01*
Y56060D01*
Y56079D01*
X63643Y56116D01*
Y56153D01*
Y56171D01*
Y56217D01*
X63652Y56282D01*
X63662Y56365D01*
Y56375D01*
X63671Y56384D01*
X63680Y56439D01*
X63689Y56513D01*
Y56587D01*
X63680Y56560D01*
X63643Y56504D01*
X63615Y56476D01*
X63578Y56439D01*
X63569D01*
X63560Y56421D01*
X63504Y56375D01*
X63421Y56319D01*
X63329Y56245D01*
X63319D01*
X63310Y56236D01*
X63282Y56217D01*
X63245Y56199D01*
X63162Y56143D01*
X63060Y56097D01*
X63051D01*
X63033Y56088D01*
X63014Y56079D01*
X62977Y56069D01*
X62894Y56042D01*
X62801Y56032D01*
X62737D01*
X62681Y56042D01*
X62607Y56060D01*
X62589Y56069D01*
X62552Y56079D01*
X62505Y56106D01*
X62450Y56134D01*
X62441Y56143D01*
X62422Y56162D01*
X62394Y56190D01*
X62357Y56217D01*
X62274Y56310D01*
X62209Y56402D01*
Y56412D01*
X62200Y56430D01*
X62191Y56458D01*
X62172Y56495D01*
X62145Y56597D01*
X62135Y56726D01*
Y56745D01*
Y56782D01*
Y56828D01*
X62145Y56883D01*
Y56902D01*
X62154Y56930D01*
X62172Y56985D01*
X62182Y57031D01*
Y57041D01*
X62191Y57059D01*
Y57087D01*
X62209Y57124D01*
X62237Y57216D01*
X62274Y57346D01*
X62330Y57494D01*
X62404Y57651D01*
X62487Y57808D01*
X62579Y57966D01*
Y57975D01*
X62589Y57984D01*
X62635Y58030D01*
X62690Y58114D01*
X62774Y58206D01*
X62875Y58317D01*
X62996Y58428D01*
X63134Y58548D01*
X63282Y58659D01*
X63292Y58669D01*
X63310Y58678D01*
X63347Y58696D01*
X63384Y58724D01*
X63495Y58770D01*
X63615Y58807D01*
X63625D01*
X63643Y58817D01*
X63680D01*
X63726Y58826D01*
X63828Y58835D01*
X63948Y58844D01*
X64041D01*
X64096Y58835D01*
X64115D01*
X64152Y58826D01*
X64198D01*
X64244Y58817D01*
X64254D01*
X64281Y58826D01*
X64355Y58835D01*
X64365D01*
X64383Y58844D01*
X64513D01*
X64568Y58835D01*
D02*
G37*
G36*
X55013D02*
X55068Y58817D01*
X55078Y58807D01*
X55115Y58798D01*
X55152Y58770D01*
X55189Y58733D01*
X55198Y58724D01*
X55216Y58706D01*
X55235Y58669D01*
X55253Y58622D01*
Y58613D01*
X55263Y58585D01*
X55272Y58548D01*
Y58502D01*
Y58484D01*
Y58447D01*
X55263Y58391D01*
X55244Y58336D01*
Y58326D01*
X55235Y58289D01*
X55216Y58243D01*
X55198Y58197D01*
X54809Y56634D01*
Y56624D01*
Y56615D01*
X54800Y56560D01*
Y56486D01*
X54791Y56402D01*
Y56393D01*
Y56384D01*
X54782Y56338D01*
X54772Y56273D01*
X54754Y56199D01*
Y56190D01*
X54745Y56180D01*
X54726Y56125D01*
Y56116D01*
X54717Y56097D01*
X54671Y56032D01*
X54661Y56023D01*
X54652Y56005D01*
X54624Y55986D01*
X54578Y55958D01*
X54569D01*
X54541Y55949D01*
X54495Y55940D01*
X54430Y55931D01*
X54375D01*
X54319Y55940D01*
X54264Y55949D01*
X54254D01*
X54227Y55958D01*
X54153Y55986D01*
X54143Y55995D01*
X54134Y56005D01*
X54097Y56051D01*
Y56060D01*
Y56079D01*
X54088Y56116D01*
Y56153D01*
Y56171D01*
Y56217D01*
X54097Y56282D01*
X54106Y56365D01*
Y56375D01*
X54116Y56384D01*
X54125Y56439D01*
X54134Y56513D01*
Y56587D01*
X54125Y56560D01*
X54088Y56504D01*
X54060Y56476D01*
X54023Y56439D01*
X54014D01*
X54005Y56421D01*
X53949Y56375D01*
X53866Y56319D01*
X53773Y56245D01*
X53764D01*
X53755Y56236D01*
X53727Y56217D01*
X53690Y56199D01*
X53607Y56143D01*
X53505Y56097D01*
X53496D01*
X53477Y56088D01*
X53459Y56079D01*
X53422Y56069D01*
X53339Y56042D01*
X53246Y56032D01*
X53181D01*
X53126Y56042D01*
X53052Y56060D01*
X53033Y56069D01*
X52996Y56079D01*
X52950Y56106D01*
X52895Y56134D01*
X52885Y56143D01*
X52867Y56162D01*
X52839Y56190D01*
X52802Y56217D01*
X52719Y56310D01*
X52654Y56402D01*
Y56412D01*
X52645Y56430D01*
X52636Y56458D01*
X52617Y56495D01*
X52589Y56597D01*
X52580Y56726D01*
Y56745D01*
Y56782D01*
Y56828D01*
X52589Y56883D01*
Y56902D01*
X52599Y56930D01*
X52617Y56985D01*
X52626Y57031D01*
Y57041D01*
X52636Y57059D01*
Y57087D01*
X52654Y57124D01*
X52682Y57216D01*
X52719Y57346D01*
X52774Y57494D01*
X52848Y57651D01*
X52932Y57808D01*
X53024Y57966D01*
Y57975D01*
X53033Y57984D01*
X53080Y58030D01*
X53135Y58114D01*
X53218Y58206D01*
X53320Y58317D01*
X53440Y58428D01*
X53579Y58548D01*
X53727Y58659D01*
X53736Y58669D01*
X53755Y58678D01*
X53792Y58696D01*
X53829Y58724D01*
X53940Y58770D01*
X54060Y58807D01*
X54069D01*
X54088Y58817D01*
X54125D01*
X54171Y58826D01*
X54273Y58835D01*
X54393Y58844D01*
X54486D01*
X54541Y58835D01*
X54560D01*
X54597Y58826D01*
X54643D01*
X54689Y58817D01*
X54698D01*
X54726Y58826D01*
X54800Y58835D01*
X54809D01*
X54828Y58844D01*
X54957D01*
X55013Y58835D01*
D02*
G37*
G36*
X61479Y58965D02*
X61497D01*
X61543Y58955D01*
X61617Y58946D01*
X61691Y58918D01*
X61701D01*
X61710Y58909D01*
X61747Y58891D01*
X61802Y58854D01*
X61858Y58798D01*
X61867Y58789D01*
X61895Y58743D01*
X61923Y58678D01*
X61932Y58595D01*
Y58585D01*
Y58567D01*
Y58539D01*
X61923Y58502D01*
Y58493D01*
X61913Y58465D01*
X61904Y58428D01*
X61886Y58382D01*
Y58373D01*
X61867Y58345D01*
X61849Y58308D01*
X61821Y58271D01*
X61812Y58262D01*
X61793Y58243D01*
X61747Y58225D01*
X61701Y58215D01*
X61654D01*
X61608Y58225D01*
X61562Y58243D01*
X61553Y58252D01*
X61534Y58262D01*
X61469Y58308D01*
X61460Y58317D01*
X61451Y58326D01*
X61405Y58363D01*
X61386Y58373D01*
X61340Y58382D01*
X61303D01*
X61257Y58373D01*
X61201Y58354D01*
X61183D01*
X61146Y58336D01*
X61090Y58317D01*
X61025Y58289D01*
X61007Y58280D01*
X60970Y58262D01*
X60914Y58234D01*
X60850Y58197D01*
X60840Y58188D01*
X60803Y58169D01*
X60748Y58132D01*
X60692Y58095D01*
X60683Y58086D01*
X60655Y58058D01*
X60618Y58021D01*
X60591Y57984D01*
X60581Y57975D01*
X60572Y57956D01*
X60563Y57938D01*
X60554Y57910D01*
Y57892D01*
X60572Y57864D01*
X60591Y57855D01*
X60609Y57845D01*
X60637Y57827D01*
X60646Y57818D01*
X60683Y57808D01*
X60720Y57781D01*
X60776Y57753D01*
X60794D01*
X60831Y57734D01*
X60877Y57716D01*
X60933Y57688D01*
X60942Y57679D01*
X60979Y57670D01*
X61035Y57642D01*
X61109Y57614D01*
X61118D01*
X61127Y57605D01*
X61164Y57596D01*
X61220Y57568D01*
X61266Y57549D01*
X61284Y57540D01*
X61321Y57522D01*
X61368Y57494D01*
X61414Y57457D01*
X61423Y57448D01*
X61451Y57429D01*
X61488Y57401D01*
X61534Y57364D01*
X61543Y57355D01*
X61562Y57327D01*
X61590Y57290D01*
X61617Y57235D01*
X61627Y57226D01*
X61636Y57189D01*
X61645Y57142D01*
Y57078D01*
Y57068D01*
Y57050D01*
X61636Y56994D01*
Y56985D01*
X61627Y56967D01*
Y56939D01*
X61617Y56902D01*
Y56893D01*
X61608Y56874D01*
X61599Y56837D01*
X61580Y56791D01*
Y56782D01*
X61571Y56754D01*
X61553Y56708D01*
X61534Y56661D01*
Y56652D01*
X61516Y56624D01*
X61497Y56587D01*
X61479Y56550D01*
Y56541D01*
X61460Y56523D01*
X61423Y56476D01*
X61414D01*
X61405Y56458D01*
X61377Y56439D01*
X61340Y56412D01*
X61247Y56347D01*
X61136Y56273D01*
X61127D01*
X61109Y56254D01*
X61081Y56236D01*
X61035Y56217D01*
X60933Y56162D01*
X60803Y56106D01*
X60794D01*
X60776Y56097D01*
X60739Y56079D01*
X60692Y56069D01*
X60581Y56032D01*
X60452Y55995D01*
X60443D01*
X60424Y55986D01*
X60387D01*
X60341Y55977D01*
X60239Y55968D01*
X60119Y55958D01*
X60073D01*
X60017Y55968D01*
X59943Y55986D01*
X59925Y55995D01*
X59888Y56005D01*
X59832Y56032D01*
X59767Y56060D01*
X59758Y56069D01*
X59721Y56097D01*
X59675Y56134D01*
X59629Y56180D01*
X59619Y56190D01*
X59601Y56227D01*
X59582Y56282D01*
X59573Y56338D01*
Y56347D01*
Y56365D01*
X59592Y56430D01*
X59601Y56439D01*
X59610Y56458D01*
X59647Y56513D01*
X59656Y56523D01*
X59675Y56532D01*
X59721Y56578D01*
X59730Y56587D01*
X59749Y56597D01*
X59777Y56606D01*
X59832D01*
X59869Y56597D01*
X59888D01*
X59925Y56587D01*
X59934D01*
X59943Y56578D01*
X59971Y56569D01*
X60119D01*
X60211Y56578D01*
X60332Y56597D01*
X60341D01*
X60359Y56606D01*
X60396D01*
X60433Y56615D01*
X60535Y56643D01*
X60646Y56671D01*
X60655D01*
X60674Y56680D01*
X60729Y56698D01*
X60803Y56726D01*
X60877Y56763D01*
X60896Y56772D01*
X60924Y56800D01*
X60961Y56828D01*
X60979Y56865D01*
Y56874D01*
X60988Y56883D01*
Y56911D01*
Y56920D01*
Y56930D01*
X60970Y56948D01*
X60951Y56967D01*
X60942Y56976D01*
X60924Y56994D01*
X60896Y57013D01*
X60850Y57041D01*
X60840Y57050D01*
X60803Y57068D01*
X60757Y57096D01*
X60692Y57115D01*
X60683Y57124D01*
X60646Y57133D01*
X60591Y57161D01*
X60535Y57179D01*
X60433Y57226D01*
X60415Y57235D01*
X60378Y57244D01*
X60332Y57272D01*
X60267Y57300D01*
X60258Y57309D01*
X60221Y57327D01*
X60174Y57364D01*
X60119Y57411D01*
X60110Y57420D01*
X60082Y57457D01*
X60045Y57503D01*
X59999Y57559D01*
X59989Y57577D01*
X59971Y57614D01*
X59952Y57670D01*
X59925Y57744D01*
Y57753D01*
X59915Y57771D01*
X59906Y57827D01*
Y57836D01*
Y57864D01*
X59897Y57929D01*
Y57947D01*
X59906Y57993D01*
X59925Y58058D01*
X59952Y58132D01*
Y58141D01*
X59962Y58151D01*
X59989Y58197D01*
X60036Y58271D01*
X60100Y58345D01*
Y58354D01*
X60119Y58363D01*
X60165Y58410D01*
X60230Y58474D01*
X60304Y58539D01*
X60313D01*
X60322Y58558D01*
X60378Y58595D01*
X60461Y58641D01*
X60554Y58696D01*
X60572Y58706D01*
X60609Y58733D01*
X60655Y58761D01*
X60720Y58798D01*
X60739Y58807D01*
X60776Y58835D01*
X60831Y58863D01*
X60896Y58891D01*
X60914Y58900D01*
X60951Y58918D01*
X61016Y58937D01*
X61081Y58955D01*
X61099D01*
X61146Y58965D01*
X61210Y58974D01*
X61405D01*
X61479Y58965D01*
D02*
G37*
G36*
X58953D02*
X58972D01*
X59018Y58955D01*
X59092Y58946D01*
X59166Y58918D01*
X59175D01*
X59185Y58909D01*
X59222Y58891D01*
X59277Y58854D01*
X59333Y58798D01*
X59342Y58789D01*
X59370Y58743D01*
X59397Y58678D01*
X59407Y58595D01*
Y58585D01*
Y58567D01*
Y58539D01*
X59397Y58502D01*
Y58493D01*
X59388Y58465D01*
X59379Y58428D01*
X59360Y58382D01*
Y58373D01*
X59342Y58345D01*
X59323Y58308D01*
X59296Y58271D01*
X59286Y58262D01*
X59268Y58243D01*
X59222Y58225D01*
X59175Y58215D01*
X59129D01*
X59083Y58225D01*
X59037Y58243D01*
X59027Y58252D01*
X59009Y58262D01*
X58944Y58308D01*
X58935Y58317D01*
X58926Y58326D01*
X58879Y58363D01*
X58861Y58373D01*
X58815Y58382D01*
X58778D01*
X58731Y58373D01*
X58676Y58354D01*
X58657D01*
X58620Y58336D01*
X58565Y58317D01*
X58500Y58289D01*
X58482Y58280D01*
X58445Y58262D01*
X58389Y58234D01*
X58324Y58197D01*
X58315Y58188D01*
X58278Y58169D01*
X58223Y58132D01*
X58167Y58095D01*
X58158Y58086D01*
X58130Y58058D01*
X58093Y58021D01*
X58065Y57984D01*
X58056Y57975D01*
X58047Y57956D01*
X58038Y57938D01*
X58028Y57910D01*
Y57892D01*
X58047Y57864D01*
X58065Y57855D01*
X58084Y57845D01*
X58112Y57827D01*
X58121Y57818D01*
X58158Y57808D01*
X58195Y57781D01*
X58250Y57753D01*
X58269D01*
X58306Y57734D01*
X58352Y57716D01*
X58408Y57688D01*
X58417Y57679D01*
X58454Y57670D01*
X58509Y57642D01*
X58583Y57614D01*
X58593D01*
X58602Y57605D01*
X58639Y57596D01*
X58694Y57568D01*
X58741Y57549D01*
X58759Y57540D01*
X58796Y57522D01*
X58842Y57494D01*
X58889Y57457D01*
X58898Y57448D01*
X58926Y57429D01*
X58963Y57401D01*
X59009Y57364D01*
X59018Y57355D01*
X59037Y57327D01*
X59064Y57290D01*
X59092Y57235D01*
X59101Y57226D01*
X59111Y57189D01*
X59120Y57142D01*
Y57078D01*
Y57068D01*
Y57050D01*
X59111Y56994D01*
Y56985D01*
X59101Y56967D01*
Y56939D01*
X59092Y56902D01*
Y56893D01*
X59083Y56874D01*
X59074Y56837D01*
X59055Y56791D01*
Y56782D01*
X59046Y56754D01*
X59027Y56708D01*
X59009Y56661D01*
Y56652D01*
X58990Y56624D01*
X58972Y56587D01*
X58953Y56550D01*
Y56541D01*
X58935Y56523D01*
X58898Y56476D01*
X58889D01*
X58879Y56458D01*
X58852Y56439D01*
X58815Y56412D01*
X58722Y56347D01*
X58611Y56273D01*
X58602D01*
X58583Y56254D01*
X58556Y56236D01*
X58509Y56217D01*
X58408Y56162D01*
X58278Y56106D01*
X58269D01*
X58250Y56097D01*
X58213Y56079D01*
X58167Y56069D01*
X58056Y56032D01*
X57927Y55995D01*
X57917D01*
X57899Y55986D01*
X57862D01*
X57816Y55977D01*
X57714Y55968D01*
X57594Y55958D01*
X57547D01*
X57492Y55968D01*
X57418Y55986D01*
X57399Y55995D01*
X57362Y56005D01*
X57307Y56032D01*
X57242Y56060D01*
X57233Y56069D01*
X57196Y56097D01*
X57150Y56134D01*
X57103Y56180D01*
X57094Y56190D01*
X57076Y56227D01*
X57057Y56282D01*
X57048Y56338D01*
Y56347D01*
Y56365D01*
X57066Y56430D01*
X57076Y56439D01*
X57085Y56458D01*
X57122Y56513D01*
X57131Y56523D01*
X57150Y56532D01*
X57196Y56578D01*
X57205Y56587D01*
X57224Y56597D01*
X57251Y56606D01*
X57307D01*
X57344Y56597D01*
X57362D01*
X57399Y56587D01*
X57409D01*
X57418Y56578D01*
X57446Y56569D01*
X57594D01*
X57686Y56578D01*
X57806Y56597D01*
X57816D01*
X57834Y56606D01*
X57871D01*
X57908Y56615D01*
X58010Y56643D01*
X58121Y56671D01*
X58130D01*
X58149Y56680D01*
X58204Y56698D01*
X58278Y56726D01*
X58352Y56763D01*
X58371Y56772D01*
X58398Y56800D01*
X58435Y56828D01*
X58454Y56865D01*
Y56874D01*
X58463Y56883D01*
Y56911D01*
Y56920D01*
Y56930D01*
X58445Y56948D01*
X58426Y56967D01*
X58417Y56976D01*
X58398Y56994D01*
X58371Y57013D01*
X58324Y57041D01*
X58315Y57050D01*
X58278Y57068D01*
X58232Y57096D01*
X58167Y57115D01*
X58158Y57124D01*
X58121Y57133D01*
X58065Y57161D01*
X58010Y57179D01*
X57908Y57226D01*
X57890Y57235D01*
X57853Y57244D01*
X57806Y57272D01*
X57742Y57300D01*
X57732Y57309D01*
X57695Y57327D01*
X57649Y57364D01*
X57594Y57411D01*
X57584Y57420D01*
X57557Y57457D01*
X57520Y57503D01*
X57473Y57559D01*
X57464Y57577D01*
X57446Y57614D01*
X57427Y57670D01*
X57399Y57744D01*
Y57753D01*
X57390Y57771D01*
X57381Y57827D01*
Y57836D01*
Y57864D01*
X57372Y57929D01*
Y57947D01*
X57381Y57993D01*
X57399Y58058D01*
X57427Y58132D01*
Y58141D01*
X57436Y58151D01*
X57464Y58197D01*
X57510Y58271D01*
X57575Y58345D01*
Y58354D01*
X57594Y58363D01*
X57640Y58410D01*
X57705Y58474D01*
X57779Y58539D01*
X57788D01*
X57797Y58558D01*
X57853Y58595D01*
X57936Y58641D01*
X58028Y58696D01*
X58047Y58706D01*
X58084Y58733D01*
X58130Y58761D01*
X58195Y58798D01*
X58213Y58807D01*
X58250Y58835D01*
X58306Y58863D01*
X58371Y58891D01*
X58389Y58900D01*
X58426Y58918D01*
X58491Y58937D01*
X58556Y58955D01*
X58574D01*
X58620Y58965D01*
X58685Y58974D01*
X58879D01*
X58953Y58965D01*
D02*
G37*
G36*
X70322Y59029D02*
X70386Y59020D01*
X70405D01*
X70442Y59002D01*
X70497Y58983D01*
X70553Y58946D01*
X70562Y58937D01*
X70599Y58909D01*
X70636Y58872D01*
X70673Y58817D01*
X70682Y58807D01*
X70701Y58770D01*
X70710Y58706D01*
X70719Y58632D01*
Y58622D01*
Y58585D01*
X70710Y58530D01*
X70692Y58474D01*
Y58465D01*
X70673Y58428D01*
X70655Y58373D01*
X70618Y58326D01*
X70608Y58317D01*
X70590Y58289D01*
X70544Y58252D01*
X70497Y58215D01*
X70488Y58206D01*
X70451Y58197D01*
X70396Y58178D01*
X70322Y58169D01*
X70275D01*
X70220Y58178D01*
X70174Y58197D01*
X70164Y58206D01*
X70137Y58215D01*
X70063Y58252D01*
X70053Y58262D01*
X70044Y58271D01*
X70007Y58289D01*
X69998Y58299D01*
X69989Y58308D01*
X69970Y58299D01*
X69933Y58271D01*
X69878Y58234D01*
X69804Y58178D01*
X69785Y58160D01*
X69739Y58123D01*
X69683Y58067D01*
X69609Y57993D01*
X69600Y57975D01*
X69563Y57929D01*
X69508Y57855D01*
X69452Y57771D01*
Y57762D01*
X69443Y57753D01*
X69415Y57697D01*
X69369Y57623D01*
X69323Y57531D01*
Y57522D01*
X69313Y57512D01*
X69286Y57457D01*
X69258Y57383D01*
X69221Y57290D01*
Y57281D01*
X69212Y57272D01*
X69193Y57216D01*
X69175Y57152D01*
X69156Y57087D01*
Y57078D01*
X69138Y57041D01*
X69128Y56985D01*
X69110Y56930D01*
Y56920D01*
Y56883D01*
X69101Y56828D01*
Y56763D01*
Y56754D01*
Y56726D01*
X69110Y56661D01*
Y56652D01*
X69119Y56634D01*
X69138Y56587D01*
X69147Y56569D01*
X69184Y56541D01*
X69212D01*
X69267Y56532D01*
X69323D01*
X69387Y56541D01*
X69452Y56550D01*
X69461D01*
X69471Y56560D01*
X69517Y56569D01*
X69572Y56587D01*
X69637Y56615D01*
X69656Y56624D01*
X69693Y56643D01*
X69757Y56671D01*
X69822Y56708D01*
X69841Y56717D01*
X69878Y56745D01*
X69942Y56782D01*
X70007Y56819D01*
X70016Y56828D01*
X70044Y56846D01*
X70081Y56874D01*
X70127Y56902D01*
X70137Y56911D01*
X70164Y56920D01*
X70229Y56967D01*
X70238Y56976D01*
X70266Y56985D01*
X70331Y57013D01*
X70340Y57022D01*
X70368Y57031D01*
X70396Y57041D01*
X70470D01*
X70507Y57022D01*
X70553Y57004D01*
X70562Y56994D01*
X70590Y56976D01*
X70608Y56939D01*
X70618Y56883D01*
Y56874D01*
Y56856D01*
X70608Y56819D01*
X70599Y56772D01*
Y56763D01*
X70590Y56754D01*
X70571Y56698D01*
X70525Y56624D01*
X70479Y56550D01*
X70470Y56532D01*
X70433Y56495D01*
X70377Y56439D01*
X70312Y56375D01*
X70294Y56365D01*
X70257Y56328D01*
X70192Y56291D01*
X70118Y56245D01*
X70100Y56236D01*
X70053Y56208D01*
X69998Y56180D01*
X69924Y56143D01*
X69915D01*
X69887Y56125D01*
X69850Y56106D01*
X69804Y56088D01*
X69739Y56060D01*
X69674Y56042D01*
X69526Y55995D01*
X69517D01*
X69498Y55986D01*
X69461Y55977D01*
X69415D01*
X69304Y55958D01*
X69193Y55949D01*
X69128D01*
X69082Y55958D01*
X69073D01*
X69045Y55968D01*
X69008D01*
X68971Y55977D01*
X68962Y55986D01*
X68925Y55995D01*
X68879Y56023D01*
X68823Y56060D01*
X68703Y56153D01*
X68647Y56208D01*
X68592Y56273D01*
X68583Y56282D01*
X68573Y56310D01*
X68555Y56347D01*
X68536Y56402D01*
X68509Y56467D01*
X68490Y56550D01*
X68481Y56634D01*
X68472Y56726D01*
Y56735D01*
Y56745D01*
Y56800D01*
X68481Y56865D01*
X68490Y56948D01*
Y56957D01*
Y56967D01*
X68499Y57022D01*
X68518Y57087D01*
X68536Y57152D01*
Y57161D01*
X68546Y57198D01*
X68564Y57253D01*
X68583Y57318D01*
X68610Y57401D01*
X68638Y57494D01*
X68712Y57679D01*
X68721Y57688D01*
X68731Y57725D01*
X68758Y57771D01*
X68786Y57836D01*
X68823Y57910D01*
X68869Y57993D01*
X68980Y58169D01*
X68990Y58178D01*
X69008Y58206D01*
X69045Y58252D01*
X69091Y58317D01*
X69147Y58382D01*
X69212Y58456D01*
X69350Y58613D01*
X69360Y58622D01*
X69387Y58650D01*
X69424Y58687D01*
X69480Y58733D01*
X69554Y58780D01*
X69628Y58844D01*
X69804Y58946D01*
X69822Y58955D01*
X69859Y58974D01*
X69915Y58992D01*
X69989Y59011D01*
X69998D01*
X70007Y59020D01*
X70053Y59029D01*
X70118Y59039D01*
X70257D01*
X70322Y59029D01*
D02*
G37*
G36*
X43497Y60556D02*
X43543Y60546D01*
X43552D01*
X43589Y60537D01*
X43635Y60528D01*
X43682Y60509D01*
X43691D01*
X43719Y60500D01*
X43765Y60491D01*
X43811Y60472D01*
X43857D01*
X43894Y60463D01*
X44061D01*
X44089Y60472D01*
X44126D01*
X44181Y60482D01*
X44190D01*
X44237Y60491D01*
X44385D01*
X44440Y60500D01*
X44727D01*
X44810Y60491D01*
X44893D01*
X44967Y60482D01*
X45060Y60463D01*
X45078D01*
X45134Y60445D01*
X45217Y60426D01*
X45310Y60398D01*
X45319D01*
X45337Y60389D01*
X45393Y60371D01*
X45476Y60334D01*
X45559Y60287D01*
X45569D01*
X45578Y60278D01*
X45633Y60241D01*
X45698Y60176D01*
X45763Y60102D01*
X45781Y60084D01*
X45818Y60038D01*
X45865Y59954D01*
X45902Y59853D01*
X45911Y59843D01*
X45920Y59806D01*
X45929Y59760D01*
Y59714D01*
Y59705D01*
X45939Y59677D01*
Y59603D01*
Y59594D01*
Y59566D01*
Y59529D01*
X45929Y59483D01*
X45902Y59353D01*
X45846Y59214D01*
X45837Y59205D01*
X45828Y59177D01*
X45800Y59140D01*
X45772Y59094D01*
X45670Y58965D01*
X45550Y58826D01*
X45541Y58817D01*
X45522Y58798D01*
X45476Y58761D01*
X45430Y58715D01*
X45365Y58669D01*
X45300Y58613D01*
X45134Y58493D01*
X45115Y58484D01*
X45069Y58456D01*
X45004Y58410D01*
X44921Y58363D01*
X44912D01*
X44903Y58354D01*
X44847Y58326D01*
X44773Y58289D01*
X44690Y58243D01*
X44681D01*
X44671Y58234D01*
X44625Y58206D01*
X44551Y58169D01*
X44477Y58132D01*
X44459Y58123D01*
X44422Y58104D01*
X44399Y58099D01*
X44412Y58095D01*
X44468Y58077D01*
X44542Y58040D01*
X44551D01*
X44560Y58030D01*
X44607Y58003D01*
X44681Y57956D01*
X44755Y57901D01*
X44764D01*
X44773Y57892D01*
X44829Y57845D01*
X44903Y57790D01*
X44986Y57707D01*
X44995Y57697D01*
X45004Y57688D01*
X45060Y57633D01*
X45134Y57549D01*
X45226Y57438D01*
X45236Y57429D01*
X45245Y57411D01*
X45273Y57374D01*
X45300Y57337D01*
X45337Y57281D01*
X45384Y57216D01*
X45476Y57059D01*
X45485Y57050D01*
X45495Y57022D01*
X45522Y56976D01*
X45559Y56911D01*
X45596Y56837D01*
X45643Y56745D01*
X45689Y56652D01*
X45744Y56541D01*
X45754Y56523D01*
X45772Y56486D01*
X45781Y56430D01*
X45791Y56365D01*
Y56356D01*
Y56319D01*
X45781Y56273D01*
X45763Y56217D01*
X45754Y56208D01*
X45744Y56180D01*
X45717Y56134D01*
X45680Y56088D01*
X45670Y56079D01*
X45652Y56060D01*
X45606Y56023D01*
X45559Y55995D01*
X45550D01*
X45513Y55986D01*
X45458Y55977D01*
X45402Y55968D01*
X45384D01*
X45319Y55977D01*
X45254Y56005D01*
X45180Y56051D01*
X45171Y56069D01*
X45134Y56116D01*
X45088Y56180D01*
X45041Y56264D01*
Y56273D01*
X45032Y56282D01*
X45014Y56310D01*
X45004Y56347D01*
X44958Y56439D01*
X44912Y56550D01*
Y56560D01*
X44903Y56578D01*
X44884Y56606D01*
X44866Y56652D01*
X44819Y56754D01*
X44755Y56865D01*
X44745Y56874D01*
X44736Y56893D01*
X44708Y56930D01*
X44681Y56967D01*
X44607Y57068D01*
X44514Y57179D01*
X44505Y57189D01*
X44496Y57207D01*
X44468Y57235D01*
X44440Y57272D01*
X44357Y57355D01*
X44255Y57438D01*
X44246Y57448D01*
X44227Y57457D01*
X44200Y57475D01*
X44172Y57503D01*
X44079Y57559D01*
X43968Y57614D01*
X43959D01*
X43941Y57623D01*
X43913Y57633D01*
X43885Y57651D01*
X43793Y57670D01*
X43691Y57679D01*
X43598D01*
X43543Y57670D01*
X43487Y57660D01*
X43478D01*
X43441Y57651D01*
X43386Y57642D01*
X43330Y57633D01*
X43321D01*
X43312Y57642D01*
X43256Y57670D01*
X43201Y57707D01*
X43145Y57762D01*
X43136Y57781D01*
X43127Y57827D01*
X43108Y57892D01*
X43099Y57966D01*
Y57947D01*
X42988Y57059D01*
Y57050D01*
X42979Y57022D01*
X42969Y56985D01*
X42951Y56930D01*
Y56911D01*
X42942Y56874D01*
X42923Y56819D01*
X42905Y56754D01*
Y56735D01*
X42886Y56698D01*
X42868Y56643D01*
X42849Y56569D01*
Y56550D01*
X42831Y56504D01*
X42812Y56449D01*
X42794Y56375D01*
Y56365D01*
X42784Y56328D01*
X42775Y56273D01*
X42757Y56217D01*
Y56208D01*
X42747Y56180D01*
X42729Y56106D01*
X42720Y56088D01*
X42692Y56051D01*
X42646Y56005D01*
X42590Y55968D01*
X42581Y55958D01*
X42544Y55949D01*
X42488Y55931D01*
X42424Y55921D01*
X42396D01*
X42368Y55931D01*
X42331D01*
X42257Y55958D01*
X42220Y55986D01*
X42192Y56014D01*
X42183Y56032D01*
X42165Y56079D01*
X42137Y56143D01*
X42128Y56227D01*
Y56236D01*
Y56264D01*
Y56319D01*
Y56328D01*
X42137Y56347D01*
Y56384D01*
X42146Y56421D01*
Y56430D01*
X42155Y56449D01*
X42165Y56486D01*
X42174Y56532D01*
X42192Y56587D01*
X42211Y56661D01*
X42229Y56735D01*
X42248Y56828D01*
X42303Y57022D01*
X42359Y57244D01*
X42424Y57475D01*
X42488Y57725D01*
Y57734D01*
X42498Y57753D01*
X42507Y57790D01*
X42516Y57836D01*
X42535Y57901D01*
X42553Y57975D01*
X42581Y58058D01*
X42599Y58151D01*
X42655Y58354D01*
X42720Y58585D01*
X42784Y58835D01*
X42849Y59094D01*
Y59103D01*
X42858Y59140D01*
X42877Y59196D01*
X42886Y59251D01*
Y59270D01*
X42895Y59307D01*
X42914Y59353D01*
X42923Y59418D01*
Y59436D01*
X42932Y59473D01*
X42942Y59520D01*
X42951Y59584D01*
Y59603D01*
X42960Y59640D01*
Y59686D01*
Y59742D01*
Y59751D01*
Y59779D01*
Y59816D01*
X42951Y59862D01*
Y59871D01*
Y59899D01*
X42942Y59945D01*
Y60001D01*
Y60010D01*
Y60047D01*
X42951Y60102D01*
X42969Y60176D01*
Y60186D01*
X42979Y60204D01*
X42988Y60241D01*
X43006Y60278D01*
X43043Y60371D01*
X43108Y60454D01*
X43117Y60463D01*
X43127Y60472D01*
X43154Y60491D01*
X43182Y60509D01*
X43275Y60546D01*
X43339Y60565D01*
X43450D01*
X43497Y60556D01*
D02*
G37*
G36*
X73004Y58724D02*
X73106Y58715D01*
X73217Y58687D01*
X73226D01*
X73245Y58678D01*
X73300Y58650D01*
X73374Y58613D01*
X73448Y58558D01*
X73467Y58539D01*
X73504Y58502D01*
X73550Y58437D01*
X73587Y58354D01*
Y58345D01*
X73596Y58336D01*
X73615Y58280D01*
X73624Y58206D01*
X73633Y58114D01*
Y58095D01*
Y58049D01*
X73624Y57993D01*
X73605Y57919D01*
Y57910D01*
X73596Y57892D01*
X73587Y57855D01*
X73568Y57808D01*
X73513Y57697D01*
X73439Y57586D01*
X73430Y57577D01*
X73420Y57568D01*
X73393Y57540D01*
X73356Y57512D01*
X73272Y57438D01*
X73161Y57355D01*
X73152D01*
X73134Y57337D01*
X73106Y57318D01*
X73060Y57300D01*
X72949Y57253D01*
X72810Y57198D01*
X72801D01*
X72782Y57189D01*
X72745Y57179D01*
X72699Y57161D01*
X72579Y57124D01*
X72440Y57087D01*
X72431D01*
X72412Y57078D01*
X72375D01*
X72329Y57068D01*
X72218Y57050D01*
X72098Y57031D01*
X72070D01*
X72042Y57022D01*
X72005D01*
X71922Y57013D01*
X71839Y57004D01*
Y56985D01*
X71829Y56957D01*
X71820Y56911D01*
Y56902D01*
X71811Y56865D01*
X71802Y56819D01*
Y56763D01*
Y56754D01*
Y56735D01*
X71820Y56680D01*
X71848Y56606D01*
X71876Y56569D01*
X71913Y56532D01*
X71922D01*
X71931Y56523D01*
X71959Y56513D01*
X71996Y56495D01*
X72042Y56486D01*
X72098Y56467D01*
X72172Y56458D01*
X72329D01*
X72403Y56467D01*
X72495Y56486D01*
X72505D01*
X72514Y56495D01*
X72569Y56513D01*
X72643Y56541D01*
X72727Y56569D01*
X72736D01*
X72745Y56578D01*
X72791Y56597D01*
X72865Y56634D01*
X72939Y56671D01*
X72949D01*
X72958Y56680D01*
X73004Y56708D01*
X73060Y56745D01*
X73115Y56782D01*
X73124D01*
X73134Y56791D01*
X73180Y56828D01*
X73254Y56865D01*
X73328Y56902D01*
X73337D01*
X73346Y56911D01*
X73393Y56930D01*
X73457Y56948D01*
X73531Y56957D01*
X73550D01*
X73587Y56948D01*
X73633Y56930D01*
X73670Y56893D01*
X73679Y56883D01*
X73689Y56856D01*
X73698Y56819D01*
X73707Y56782D01*
Y56772D01*
Y56763D01*
Y56735D01*
Y56717D01*
X73698Y56689D01*
Y56671D01*
X73689Y56634D01*
X73670Y56578D01*
X73633Y56513D01*
X73624Y56504D01*
X73596Y56467D01*
X73559Y56412D01*
X73504Y56365D01*
X73494Y56356D01*
X73448Y56328D01*
X73383Y56282D01*
X73309Y56227D01*
X73208Y56171D01*
X73097Y56116D01*
X72976Y56060D01*
X72856Y56014D01*
X72838D01*
X72801Y55995D01*
X72727Y55986D01*
X72643Y55968D01*
X72532Y55949D01*
X72412Y55931D01*
X72283Y55921D01*
X72144Y55912D01*
X72033D01*
X71959Y55921D01*
X71940D01*
X71903Y55931D01*
X71839Y55940D01*
X71755Y55958D01*
X71737D01*
X71691Y55977D01*
X71617Y55995D01*
X71533Y56032D01*
X71524D01*
X71515Y56042D01*
X71469Y56069D01*
X71404Y56116D01*
X71339Y56180D01*
X71330Y56199D01*
X71293Y56245D01*
X71247Y56310D01*
X71200Y56402D01*
Y56412D01*
X71191Y56430D01*
X71182Y56458D01*
X71173Y56495D01*
X71154Y56587D01*
X71145Y56717D01*
Y56726D01*
Y56745D01*
Y56772D01*
X71154Y56809D01*
X71163Y56893D01*
X71182Y56976D01*
X71173Y56985D01*
X71163Y56994D01*
X71126Y57022D01*
X71117Y57031D01*
X71108Y57059D01*
X71089Y57105D01*
X71080Y57170D01*
Y57179D01*
Y57198D01*
Y57226D01*
X71089Y57253D01*
X71108Y57337D01*
X71154Y57420D01*
Y57429D01*
X71173Y57438D01*
X71210Y57475D01*
X71274Y57522D01*
X71348Y57549D01*
Y57559D01*
X71367Y57586D01*
X71395Y57633D01*
X71432Y57707D01*
Y57716D01*
X71441Y57725D01*
X71478Y57781D01*
X71533Y57864D01*
X71607Y57956D01*
X71617Y57966D01*
X71626Y57975D01*
X71644Y58003D01*
X71672Y58040D01*
X71746Y58123D01*
X71839Y58225D01*
X71848Y58234D01*
X71866Y58252D01*
X71894Y58271D01*
X71931Y58308D01*
X72024Y58391D01*
X72135Y58474D01*
X72144Y58484D01*
X72162Y58493D01*
X72199Y58511D01*
X72246Y58539D01*
X72357Y58604D01*
X72486Y58659D01*
X72495D01*
X72523Y58669D01*
X72560Y58687D01*
X72606Y58696D01*
X72671Y58715D01*
X72736Y58724D01*
X72893Y58733D01*
X72958D01*
X73004Y58724D01*
D02*
G37*
G36*
X48149D02*
X48251Y58715D01*
X48362Y58687D01*
X48371D01*
X48390Y58678D01*
X48445Y58650D01*
X48519Y58613D01*
X48593Y58558D01*
X48612Y58539D01*
X48649Y58502D01*
X48695Y58437D01*
X48732Y58354D01*
Y58345D01*
X48741Y58336D01*
X48760Y58280D01*
X48769Y58206D01*
X48778Y58114D01*
Y58095D01*
Y58049D01*
X48769Y57993D01*
X48751Y57919D01*
Y57910D01*
X48741Y57892D01*
X48732Y57855D01*
X48714Y57808D01*
X48658Y57697D01*
X48584Y57586D01*
X48575Y57577D01*
X48566Y57568D01*
X48538Y57540D01*
X48501Y57512D01*
X48418Y57438D01*
X48307Y57355D01*
X48297D01*
X48279Y57337D01*
X48251Y57318D01*
X48205Y57300D01*
X48094Y57253D01*
X47955Y57198D01*
X47946D01*
X47927Y57189D01*
X47890Y57179D01*
X47844Y57161D01*
X47724Y57124D01*
X47585Y57087D01*
X47576D01*
X47557Y57078D01*
X47520D01*
X47474Y57068D01*
X47363Y57050D01*
X47243Y57031D01*
X47215D01*
X47187Y57022D01*
X47150D01*
X47067Y57013D01*
X46984Y57004D01*
Y56985D01*
X46975Y56957D01*
X46965Y56911D01*
Y56902D01*
X46956Y56865D01*
X46947Y56819D01*
Y56763D01*
Y56754D01*
Y56735D01*
X46965Y56680D01*
X46993Y56606D01*
X47021Y56569D01*
X47058Y56532D01*
X47067D01*
X47076Y56523D01*
X47104Y56513D01*
X47141Y56495D01*
X47187Y56486D01*
X47243Y56467D01*
X47317Y56458D01*
X47474D01*
X47548Y56467D01*
X47641Y56486D01*
X47650D01*
X47659Y56495D01*
X47715Y56513D01*
X47789Y56541D01*
X47872Y56569D01*
X47881D01*
X47890Y56578D01*
X47937Y56597D01*
X48011Y56634D01*
X48085Y56671D01*
X48094D01*
X48103Y56680D01*
X48149Y56708D01*
X48205Y56745D01*
X48260Y56782D01*
X48270D01*
X48279Y56791D01*
X48325Y56828D01*
X48399Y56865D01*
X48473Y56902D01*
X48482D01*
X48492Y56911D01*
X48538Y56930D01*
X48603Y56948D01*
X48677Y56957D01*
X48695D01*
X48732Y56948D01*
X48778Y56930D01*
X48815Y56893D01*
X48825Y56883D01*
X48834Y56856D01*
X48843Y56819D01*
X48852Y56782D01*
Y56772D01*
Y56763D01*
Y56735D01*
Y56717D01*
X48843Y56689D01*
Y56671D01*
X48834Y56634D01*
X48815Y56578D01*
X48778Y56513D01*
X48769Y56504D01*
X48741Y56467D01*
X48704Y56412D01*
X48649Y56365D01*
X48640Y56356D01*
X48593Y56328D01*
X48529Y56282D01*
X48455Y56227D01*
X48353Y56171D01*
X48242Y56116D01*
X48122Y56060D01*
X48001Y56014D01*
X47983D01*
X47946Y55995D01*
X47872Y55986D01*
X47789Y55968D01*
X47678Y55949D01*
X47557Y55931D01*
X47428Y55921D01*
X47289Y55912D01*
X47178D01*
X47104Y55921D01*
X47086D01*
X47049Y55931D01*
X46984Y55940D01*
X46901Y55958D01*
X46882D01*
X46836Y55977D01*
X46762Y55995D01*
X46679Y56032D01*
X46669D01*
X46660Y56042D01*
X46614Y56069D01*
X46549Y56116D01*
X46484Y56180D01*
X46475Y56199D01*
X46438Y56245D01*
X46392Y56310D01*
X46346Y56402D01*
Y56412D01*
X46336Y56430D01*
X46327Y56458D01*
X46318Y56495D01*
X46299Y56587D01*
X46290Y56717D01*
Y56726D01*
Y56745D01*
Y56772D01*
X46299Y56809D01*
X46309Y56893D01*
X46327Y56976D01*
X46318Y56985D01*
X46309Y56994D01*
X46272Y57022D01*
X46262Y57031D01*
X46253Y57059D01*
X46235Y57105D01*
X46225Y57170D01*
Y57179D01*
Y57198D01*
Y57226D01*
X46235Y57253D01*
X46253Y57337D01*
X46299Y57420D01*
Y57429D01*
X46318Y57438D01*
X46355Y57475D01*
X46420Y57522D01*
X46494Y57549D01*
Y57559D01*
X46512Y57586D01*
X46540Y57633D01*
X46577Y57707D01*
Y57716D01*
X46586Y57725D01*
X46623Y57781D01*
X46679Y57864D01*
X46753Y57956D01*
X46762Y57966D01*
X46771Y57975D01*
X46790Y58003D01*
X46817Y58040D01*
X46891Y58123D01*
X46984Y58225D01*
X46993Y58234D01*
X47012Y58252D01*
X47039Y58271D01*
X47076Y58308D01*
X47169Y58391D01*
X47280Y58474D01*
X47289Y58484D01*
X47308Y58493D01*
X47345Y58511D01*
X47391Y58539D01*
X47502Y58604D01*
X47631Y58659D01*
X47641D01*
X47668Y58669D01*
X47705Y58687D01*
X47752Y58696D01*
X47816Y58715D01*
X47881Y58724D01*
X48038Y58733D01*
X48103D01*
X48149Y58724D01*
D02*
G37*
G36*
X66326Y59039D02*
X66400Y59020D01*
X66474Y58983D01*
X66483D01*
X66492Y58974D01*
X66529Y58937D01*
X66557Y58881D01*
X66575Y58844D01*
Y58798D01*
Y58789D01*
X66566Y58752D01*
Y58743D01*
X66557Y58733D01*
X66548Y58706D01*
X66529Y58669D01*
X66463Y58547D01*
X66483Y58567D01*
X66520Y58604D01*
X66566Y58641D01*
X66575Y58650D01*
X66594Y58659D01*
X66622Y58678D01*
X66659Y58706D01*
X66751Y58770D01*
X66853Y58826D01*
X66862D01*
X66881Y58844D01*
X66908Y58854D01*
X66945Y58872D01*
X67038Y58918D01*
X67149Y58955D01*
X67158D01*
X67177Y58965D01*
X67204Y58974D01*
X67251Y58983D01*
X67352Y59002D01*
X67463Y59011D01*
X67510D01*
X67565Y59002D01*
X67639Y58992D01*
X67713Y58965D01*
X67796Y58937D01*
X67870Y58891D01*
X67944Y58835D01*
X67954Y58826D01*
X67972Y58807D01*
X68000Y58761D01*
X68037Y58706D01*
X68074Y58641D01*
X68102Y58548D01*
X68120Y58447D01*
X68129Y58326D01*
Y58317D01*
Y58289D01*
Y58252D01*
X68120Y58206D01*
X68111Y58141D01*
X68102Y58067D01*
X68065Y57892D01*
Y57882D01*
X68055Y57855D01*
X68037Y57799D01*
X68018Y57744D01*
X68000Y57670D01*
X67963Y57586D01*
X67898Y57401D01*
Y57392D01*
X67880Y57355D01*
X67861Y57309D01*
X67843Y57235D01*
X67806Y57152D01*
X67778Y57059D01*
X67732Y56948D01*
X67695Y56837D01*
X67685Y56828D01*
X67676Y56782D01*
X67658Y56726D01*
X67630Y56643D01*
X67593Y56550D01*
X67565Y56449D01*
X67491Y56217D01*
Y56208D01*
X67473Y56171D01*
X67454Y56116D01*
X67426Y56069D01*
X67417Y56060D01*
X67408Y56032D01*
X67380Y55995D01*
X67343Y55968D01*
X67334Y55958D01*
X67315Y55949D01*
X67278Y55931D01*
X67232Y55912D01*
X67223D01*
X67195Y55903D01*
X67149Y55894D01*
X67066D01*
X67010Y55903D01*
X66945Y55921D01*
X66881Y55949D01*
X66871Y55958D01*
X66853Y55995D01*
X66825Y56051D01*
X66816Y56125D01*
Y56143D01*
Y56190D01*
X66825Y56254D01*
X66844Y56338D01*
Y56347D01*
X66853Y56356D01*
X66862Y56421D01*
X66890Y56504D01*
X66918Y56606D01*
Y56615D01*
X66927Y56634D01*
X66936Y56661D01*
X66945Y56698D01*
X66982Y56800D01*
X67019Y56911D01*
Y56920D01*
X67029Y56939D01*
X67047Y56976D01*
X67066Y57013D01*
X67103Y57124D01*
X67158Y57253D01*
Y57263D01*
X67167Y57281D01*
X67186Y57309D01*
X67195Y57355D01*
X67232Y57448D01*
X67269Y57540D01*
Y57549D01*
X67278Y57559D01*
X67306Y57614D01*
X67334Y57688D01*
X67362Y57781D01*
Y57790D01*
X67371Y57799D01*
X67389Y57864D01*
X67417Y57938D01*
X67436Y58021D01*
Y58030D01*
X67445Y58040D01*
X67454Y58095D01*
X67463Y58160D01*
Y58225D01*
Y58243D01*
Y58271D01*
X67454Y58317D01*
X67436Y58354D01*
X67426Y58363D01*
X67417Y58382D01*
X67380Y58391D01*
X67334Y58400D01*
X67315D01*
X67278Y58391D01*
X67214Y58382D01*
X67130Y58354D01*
X67121D01*
X67112Y58345D01*
X67056Y58317D01*
X66982Y58280D01*
X66899Y58225D01*
X66890D01*
X66881Y58215D01*
X66825Y58178D01*
X66742Y58114D01*
X66640Y58040D01*
X66631D01*
X66622Y58021D01*
X66557Y57975D01*
X66483Y57910D01*
X66390Y57827D01*
X66381Y57818D01*
X66344Y57790D01*
X66298Y57753D01*
X66252Y57716D01*
X66242Y57707D01*
X66215Y57688D01*
X66187Y57670D01*
X66150Y57651D01*
X66141Y57642D01*
X66131Y57614D01*
X66104Y57568D01*
X66076Y57494D01*
Y57485D01*
X66067Y57475D01*
X66048Y57420D01*
X66020Y57346D01*
X65983Y57253D01*
Y57244D01*
X65974Y57235D01*
X65956Y57179D01*
X65937Y57096D01*
X65900Y56994D01*
Y56985D01*
X65891Y56967D01*
Y56948D01*
X65882Y56911D01*
X65854Y56828D01*
X65835Y56735D01*
Y56726D01*
X65826Y56698D01*
Y56661D01*
X65817Y56615D01*
Y56606D01*
X65808Y56578D01*
X65798Y56541D01*
X65789Y56495D01*
Y56486D01*
X65780Y56458D01*
X65771Y56412D01*
X65761Y56347D01*
Y56328D01*
X65752Y56291D01*
X65743Y56236D01*
X65724Y56171D01*
Y56162D01*
X65706Y56125D01*
X65687Y56088D01*
X65660Y56051D01*
X65650Y56042D01*
X65632Y56032D01*
X65576Y55986D01*
X65567D01*
X65549Y55977D01*
X65493Y55968D01*
X65410D01*
X65345Y55977D01*
X65271Y55995D01*
X65197Y56032D01*
X65179Y56042D01*
X65151Y56088D01*
X65132Y56125D01*
X65123Y56162D01*
X65105Y56217D01*
Y56282D01*
Y56291D01*
Y56310D01*
Y56365D01*
Y56375D01*
X65114Y56402D01*
X65132Y56467D01*
Y56476D01*
X65142Y56513D01*
X65160Y56569D01*
X65169Y56643D01*
X65188Y56717D01*
X65206Y56809D01*
X65253Y56985D01*
Y56994D01*
X65262Y57022D01*
X65280Y57068D01*
X65290Y57124D01*
X65336Y57263D01*
X65382Y57411D01*
Y57420D01*
X65391Y57448D01*
X65410Y57485D01*
X65419Y57531D01*
X65456Y57642D01*
X65502Y57771D01*
Y57781D01*
X65512Y57799D01*
X65530Y57836D01*
X65549Y57882D01*
X65586Y58003D01*
X65641Y58141D01*
Y58151D01*
X65660Y58178D01*
X65669Y58215D01*
X65687Y58262D01*
X65734Y58373D01*
X65780Y58484D01*
Y58493D01*
X65789Y58511D01*
X65808Y58548D01*
X65826Y58595D01*
X65845Y58650D01*
X65872Y58724D01*
X65900Y58798D01*
X65928Y58891D01*
X65937Y58900D01*
X65956Y58937D01*
X65993Y58965D01*
X66048Y59002D01*
X66057D01*
X66067Y59011D01*
X66113Y59029D01*
X66178Y59039D01*
X66252Y59048D01*
X66270D01*
X66326Y59039D01*
D02*
G37*
G36*
X50443D02*
X50517Y59020D01*
X50591Y58983D01*
X50601D01*
X50610Y58974D01*
X50647Y58937D01*
X50675Y58881D01*
X50693Y58844D01*
Y58798D01*
Y58789D01*
X50684Y58752D01*
Y58743D01*
X50675Y58733D01*
X50665Y58706D01*
X50647Y58669D01*
X50580Y58547D01*
X50601Y58567D01*
X50638Y58604D01*
X50684Y58641D01*
X50693Y58650D01*
X50712Y58659D01*
X50739Y58678D01*
X50776Y58706D01*
X50869Y58770D01*
X50971Y58826D01*
X50980D01*
X50998Y58844D01*
X51026Y58854D01*
X51063Y58872D01*
X51156Y58918D01*
X51267Y58955D01*
X51276D01*
X51294Y58965D01*
X51322Y58974D01*
X51368Y58983D01*
X51470Y59002D01*
X51581Y59011D01*
X51627D01*
X51683Y59002D01*
X51757Y58992D01*
X51831Y58965D01*
X51914Y58937D01*
X51988Y58891D01*
X52062Y58835D01*
X52071Y58826D01*
X52090Y58807D01*
X52118Y58761D01*
X52155Y58706D01*
X52192Y58641D01*
X52219Y58548D01*
X52238Y58447D01*
X52247Y58326D01*
Y58317D01*
Y58289D01*
Y58252D01*
X52238Y58206D01*
X52229Y58141D01*
X52219Y58067D01*
X52182Y57892D01*
Y57882D01*
X52173Y57855D01*
X52155Y57799D01*
X52136Y57744D01*
X52118Y57670D01*
X52081Y57586D01*
X52016Y57401D01*
Y57392D01*
X51997Y57355D01*
X51979Y57309D01*
X51960Y57235D01*
X51923Y57152D01*
X51896Y57059D01*
X51849Y56948D01*
X51812Y56837D01*
X51803Y56828D01*
X51794Y56782D01*
X51775Y56726D01*
X51748Y56643D01*
X51711Y56550D01*
X51683Y56449D01*
X51609Y56217D01*
Y56208D01*
X51590Y56171D01*
X51572Y56116D01*
X51544Y56069D01*
X51535Y56060D01*
X51526Y56032D01*
X51498Y55995D01*
X51461Y55968D01*
X51452Y55958D01*
X51433Y55949D01*
X51396Y55931D01*
X51350Y55912D01*
X51341D01*
X51313Y55903D01*
X51267Y55894D01*
X51183D01*
X51128Y55903D01*
X51063Y55921D01*
X50998Y55949D01*
X50989Y55958D01*
X50971Y55995D01*
X50943Y56051D01*
X50934Y56125D01*
Y56143D01*
Y56190D01*
X50943Y56254D01*
X50961Y56338D01*
Y56347D01*
X50971Y56356D01*
X50980Y56421D01*
X51008Y56504D01*
X51035Y56606D01*
Y56615D01*
X51045Y56634D01*
X51054Y56661D01*
X51063Y56698D01*
X51100Y56800D01*
X51137Y56911D01*
Y56920D01*
X51146Y56939D01*
X51165Y56976D01*
X51183Y57013D01*
X51220Y57124D01*
X51276Y57253D01*
Y57263D01*
X51285Y57281D01*
X51304Y57309D01*
X51313Y57355D01*
X51350Y57448D01*
X51387Y57540D01*
Y57549D01*
X51396Y57559D01*
X51424Y57614D01*
X51452Y57688D01*
X51479Y57781D01*
Y57790D01*
X51489Y57799D01*
X51507Y57864D01*
X51535Y57938D01*
X51553Y58021D01*
Y58030D01*
X51563Y58040D01*
X51572Y58095D01*
X51581Y58160D01*
Y58225D01*
Y58243D01*
Y58271D01*
X51572Y58317D01*
X51553Y58354D01*
X51544Y58363D01*
X51535Y58382D01*
X51498Y58391D01*
X51452Y58400D01*
X51433D01*
X51396Y58391D01*
X51331Y58382D01*
X51248Y58354D01*
X51239D01*
X51230Y58345D01*
X51174Y58317D01*
X51100Y58280D01*
X51017Y58225D01*
X51008D01*
X50998Y58215D01*
X50943Y58178D01*
X50860Y58114D01*
X50758Y58040D01*
X50749D01*
X50739Y58021D01*
X50675Y57975D01*
X50601Y57910D01*
X50508Y57827D01*
X50499Y57818D01*
X50462Y57790D01*
X50416Y57753D01*
X50369Y57716D01*
X50360Y57707D01*
X50332Y57688D01*
X50305Y57670D01*
X50268Y57651D01*
X50258Y57642D01*
X50249Y57614D01*
X50221Y57568D01*
X50194Y57494D01*
Y57485D01*
X50184Y57475D01*
X50166Y57420D01*
X50138Y57346D01*
X50101Y57253D01*
Y57244D01*
X50092Y57235D01*
X50073Y57179D01*
X50055Y57096D01*
X50018Y56994D01*
Y56985D01*
X50009Y56967D01*
Y56948D01*
X49999Y56911D01*
X49972Y56828D01*
X49953Y56735D01*
Y56726D01*
X49944Y56698D01*
Y56661D01*
X49935Y56615D01*
Y56606D01*
X49925Y56578D01*
X49916Y56541D01*
X49907Y56495D01*
Y56486D01*
X49898Y56458D01*
X49888Y56412D01*
X49879Y56347D01*
Y56328D01*
X49870Y56291D01*
X49861Y56236D01*
X49842Y56171D01*
Y56162D01*
X49824Y56125D01*
X49805Y56088D01*
X49777Y56051D01*
X49768Y56042D01*
X49750Y56032D01*
X49694Y55986D01*
X49685D01*
X49666Y55977D01*
X49611Y55968D01*
X49528D01*
X49463Y55977D01*
X49389Y55995D01*
X49315Y56032D01*
X49296Y56042D01*
X49269Y56088D01*
X49250Y56125D01*
X49241Y56162D01*
X49222Y56217D01*
Y56282D01*
Y56291D01*
Y56310D01*
Y56365D01*
Y56375D01*
X49232Y56402D01*
X49250Y56467D01*
Y56476D01*
X49259Y56513D01*
X49278Y56569D01*
X49287Y56643D01*
X49306Y56717D01*
X49324Y56809D01*
X49370Y56985D01*
Y56994D01*
X49380Y57022D01*
X49398Y57068D01*
X49407Y57124D01*
X49454Y57263D01*
X49500Y57411D01*
Y57420D01*
X49509Y57448D01*
X49528Y57485D01*
X49537Y57531D01*
X49574Y57642D01*
X49620Y57771D01*
Y57781D01*
X49629Y57799D01*
X49648Y57836D01*
X49666Y57882D01*
X49703Y58003D01*
X49759Y58141D01*
Y58151D01*
X49777Y58178D01*
X49787Y58215D01*
X49805Y58262D01*
X49851Y58373D01*
X49898Y58484D01*
Y58493D01*
X49907Y58511D01*
X49925Y58548D01*
X49944Y58595D01*
X49962Y58650D01*
X49990Y58724D01*
X50018Y58798D01*
X50046Y58891D01*
X50055Y58900D01*
X50073Y58937D01*
X50110Y58965D01*
X50166Y59002D01*
X50175D01*
X50184Y59011D01*
X50231Y59029D01*
X50295Y59039D01*
X50369Y59048D01*
X50388D01*
X50443Y59039D01*
D02*
G37*
G36*
X56567Y58706D02*
X56576D01*
X56604Y58696D01*
X56669Y58669D01*
X56678Y58659D01*
X56696Y58650D01*
X56724Y58622D01*
X56743Y58585D01*
X56752Y58576D01*
X56761Y58558D01*
X56770Y58521D01*
X56780Y58484D01*
Y58474D01*
Y58456D01*
Y58447D01*
Y58428D01*
X56696Y58114D01*
Y58104D01*
X56687Y58086D01*
Y58058D01*
X56669Y58021D01*
X56641Y57919D01*
X56613Y57790D01*
X56567Y57633D01*
X56521Y57457D01*
X56465Y57272D01*
X56410Y57078D01*
Y57068D01*
X56400Y57059D01*
Y57031D01*
X56382Y56985D01*
X56373Y56939D01*
X56354Y56883D01*
X56326Y56754D01*
X56280Y56587D01*
X56234Y56402D01*
X56188Y56199D01*
X56132Y55986D01*
X56123Y55977D01*
X56104Y55940D01*
X56095Y55921D01*
X56067Y55884D01*
X56058Y55875D01*
X56049Y55866D01*
X55993Y55820D01*
X55984D01*
X55966Y55810D01*
X55938Y55801D01*
X55892Y55792D01*
X55873D01*
X55836Y55801D01*
X55781Y55810D01*
X55725Y55838D01*
X55716Y55847D01*
X55679Y55866D01*
X55642Y55894D01*
X55605Y55931D01*
X55596Y55940D01*
X55577Y55958D01*
X55559Y55995D01*
X55531Y56042D01*
Y56051D01*
X55522Y56079D01*
X55512Y56116D01*
Y56162D01*
Y56171D01*
Y56199D01*
Y56208D01*
X55522Y56236D01*
X55605Y56578D01*
Y56587D01*
X55614Y56606D01*
X55623Y56643D01*
X55633Y56698D01*
X55651Y56754D01*
X55670Y56819D01*
X55707Y56976D01*
Y56985D01*
X55716Y57013D01*
X55734Y57059D01*
X55744Y57124D01*
X55771Y57198D01*
X55790Y57281D01*
X55836Y57466D01*
Y57475D01*
X55845Y57512D01*
X55864Y57559D01*
X55882Y57623D01*
X55901Y57707D01*
X55929Y57790D01*
X55984Y57966D01*
Y57975D01*
X55993Y58012D01*
X56012Y58058D01*
X56030Y58123D01*
X56049Y58206D01*
X56067Y58299D01*
X56114Y58502D01*
Y58511D01*
X56123Y58521D01*
X56141Y58558D01*
X56151Y58567D01*
X56160Y58585D01*
X56206Y58632D01*
X56215Y58641D01*
X56234Y58650D01*
X56271Y58669D01*
X56308Y58687D01*
X56317Y58696D01*
X56354Y58706D01*
X56400Y58715D01*
X56530D01*
X56567Y58706D01*
D02*
G37*
%LPC*%
G36*
X116493Y89481D02*
X86887D01*
Y89108D01*
X86980D01*
Y88922D01*
X87073D01*
Y88736D01*
X87166D01*
Y88550D01*
X87260D01*
Y88363D01*
X87353D01*
Y88177D01*
X87446D01*
Y88084D01*
X87539D01*
Y87991D01*
X87632D01*
Y87805D01*
X87725D01*
Y87712D01*
X87818D01*
Y87618D01*
X87911D01*
Y87525D01*
X88004D01*
Y87432D01*
X88097D01*
Y87339D01*
X88191D01*
Y87246D01*
X88284D01*
Y87153D01*
X88377D01*
Y87060D01*
X88563D01*
Y86967D01*
X88656D01*
Y86874D01*
X88842D01*
Y86781D01*
X88935D01*
Y86687D01*
X89122D01*
Y86594D01*
X89308D01*
Y86501D01*
X89401D01*
Y86408D01*
X89587D01*
Y86315D01*
X89773D01*
Y86222D01*
X89866D01*
Y86129D01*
X90052D01*
Y86036D01*
X90146D01*
Y85943D01*
X90332D01*
Y85850D01*
X90518D01*
Y85756D01*
X90611D01*
Y85663D01*
X90797D01*
Y85570D01*
X90983D01*
Y85477D01*
X91077D01*
Y85384D01*
X91263D01*
Y85291D01*
X91449D01*
Y85198D01*
X91542D01*
Y85105D01*
X91728D01*
Y85012D01*
X91821D01*
Y84919D01*
X92008D01*
Y84825D01*
X92194D01*
Y84732D01*
X92287D01*
Y84639D01*
X92473D01*
Y84546D01*
X92659D01*
Y84453D01*
X92752D01*
Y84360D01*
X92939D01*
Y84267D01*
X93125D01*
Y84174D01*
X93218D01*
Y84081D01*
X93404D01*
Y83988D01*
X93590D01*
Y83894D01*
X93683D01*
Y83801D01*
X93870D01*
Y83708D01*
X94056D01*
Y83615D01*
X94149D01*
Y83522D01*
X94335D01*
Y83429D01*
X94521D01*
Y83336D01*
X94614D01*
Y83243D01*
X94801D01*
Y83150D01*
X94894D01*
Y83057D01*
X95080D01*
Y82964D01*
X95266D01*
Y82870D01*
X95359D01*
Y82777D01*
X95545D01*
Y82684D01*
X95732D01*
Y82591D01*
X95825D01*
Y82498D01*
X96011D01*
Y82405D01*
X96197D01*
Y82312D01*
X96290D01*
Y82219D01*
X96476D01*
Y82126D01*
X96663D01*
Y82032D01*
X96756D01*
Y81939D01*
X96942D01*
Y81846D01*
X97035D01*
Y81753D01*
X97221D01*
Y81660D01*
X97407D01*
Y81567D01*
X97500D01*
Y81474D01*
X97687D01*
Y81381D01*
X97873D01*
Y81288D01*
X97966D01*
Y81195D01*
X98152D01*
Y81101D01*
X98338D01*
Y81008D01*
X98431D01*
Y80915D01*
X98618D01*
Y80822D01*
X98711D01*
Y80729D01*
X98897D01*
Y80636D01*
X99083D01*
Y80543D01*
X99176D01*
Y80450D01*
X99362D01*
Y80357D01*
X99549D01*
Y80264D01*
X99642D01*
Y80171D01*
X99828D01*
Y80077D01*
X100014D01*
Y79984D01*
X100107D01*
Y79891D01*
X100294D01*
Y79798D01*
X100480D01*
Y79705D01*
X100573D01*
Y79612D01*
X100759D01*
Y79519D01*
X100945D01*
Y79426D01*
X101038D01*
Y79333D01*
X101225D01*
Y79239D01*
X101318D01*
Y79146D01*
X101504D01*
Y79053D01*
X101876D01*
Y79146D01*
X101969D01*
Y79239D01*
X102155D01*
Y79333D01*
X102342D01*
Y79426D01*
X102435D01*
Y79519D01*
X102621D01*
Y79612D01*
X102807D01*
Y79705D01*
X102900D01*
Y79798D01*
X103086D01*
Y79891D01*
X103273D01*
Y79984D01*
X103366D01*
Y80077D01*
X103552D01*
Y80171D01*
X103738D01*
Y80264D01*
X103831D01*
Y80357D01*
X104017D01*
Y80450D01*
X104111D01*
Y80543D01*
X104297D01*
Y80636D01*
X104483D01*
Y80729D01*
X104576D01*
Y80822D01*
X104762D01*
Y80915D01*
X104948D01*
Y81008D01*
X105042D01*
Y81101D01*
X105228D01*
Y81195D01*
X105414D01*
Y81288D01*
X105507D01*
Y81381D01*
X105693D01*
Y81474D01*
X105879D01*
Y81567D01*
X105973D01*
Y81660D01*
X106159D01*
Y81753D01*
X106252D01*
Y81846D01*
X106438D01*
Y81939D01*
X106624D01*
Y82032D01*
X106717D01*
Y82126D01*
X106904D01*
Y82219D01*
X107090D01*
Y82312D01*
X107183D01*
Y82405D01*
X107369D01*
Y82498D01*
X107555D01*
Y82591D01*
X107648D01*
Y82684D01*
X107835D01*
Y82777D01*
X108021D01*
Y82870D01*
X108114D01*
Y82964D01*
X108300D01*
Y83057D01*
X108486D01*
Y83150D01*
X108579D01*
Y83243D01*
X108766D01*
Y83336D01*
X108859D01*
Y83429D01*
X109045D01*
Y83522D01*
X109231D01*
Y83615D01*
X109324D01*
Y83708D01*
X109510D01*
Y83801D01*
X109697D01*
Y83894D01*
X109790D01*
Y83988D01*
X109976D01*
Y84081D01*
X110162D01*
Y84174D01*
X110255D01*
Y84267D01*
X110441D01*
Y84360D01*
X110628D01*
Y84453D01*
X110721D01*
Y84546D01*
X110907D01*
Y84639D01*
X111000D01*
Y84732D01*
X111186D01*
Y84825D01*
X111372D01*
Y84919D01*
X111466D01*
Y85012D01*
X111652D01*
Y85105D01*
X111838D01*
Y85198D01*
X111931D01*
Y85291D01*
X112117D01*
Y85384D01*
X112303D01*
Y85477D01*
X112397D01*
Y85570D01*
X112583D01*
Y85663D01*
X112769D01*
Y85756D01*
X112862D01*
Y85850D01*
X113048D01*
Y85943D01*
X113141D01*
Y86036D01*
X113328D01*
Y86129D01*
X113514D01*
Y86222D01*
X113607D01*
Y86315D01*
X113793D01*
Y86408D01*
X113979D01*
Y86501D01*
X114072D01*
Y86594D01*
X114259D01*
Y86687D01*
X114445D01*
Y86781D01*
X114538D01*
Y86874D01*
X114724D01*
Y86967D01*
X114817D01*
Y87060D01*
X114910D01*
Y87153D01*
X115096D01*
Y87246D01*
X115190D01*
Y87339D01*
X115283D01*
Y87432D01*
X115376D01*
Y87525D01*
X115469D01*
Y87618D01*
X115562D01*
Y87712D01*
X115655D01*
Y87805D01*
X115748D01*
Y87991D01*
X115841D01*
Y88084D01*
X115934D01*
Y88270D01*
X116027D01*
Y88363D01*
X116121D01*
Y88550D01*
X116214D01*
Y88736D01*
X116307D01*
Y88922D01*
X116400D01*
Y89108D01*
X116493D01*
Y89481D01*
D02*
G37*
G36*
X86701Y84919D02*
X86608D01*
Y76074D01*
Y75981D01*
Y75515D01*
X86794D01*
Y75608D01*
X86887D01*
Y75702D01*
X86980D01*
Y75795D01*
X87073D01*
Y75888D01*
X87260D01*
Y75981D01*
X87353D01*
Y76074D01*
X87446D01*
Y76167D01*
X87539D01*
Y76260D01*
X87725D01*
Y76353D01*
X87818D01*
Y76446D01*
X87911D01*
Y76539D01*
X88004D01*
Y76633D01*
X88191D01*
Y76726D01*
X88284D01*
Y76819D01*
X88377D01*
Y76912D01*
X88470D01*
Y77005D01*
X88656D01*
Y77098D01*
X88749D01*
Y77191D01*
X88842D01*
Y77284D01*
X88935D01*
Y77377D01*
X89122D01*
Y77470D01*
X89215D01*
Y77564D01*
X89308D01*
Y77657D01*
X89401D01*
Y77750D01*
X89587D01*
Y77843D01*
X89680D01*
Y77936D01*
X89773D01*
Y78029D01*
X89866D01*
Y78122D01*
X90052D01*
Y78215D01*
X90146D01*
Y78308D01*
X90239D01*
Y78401D01*
X90332D01*
Y78495D01*
X90518D01*
Y78588D01*
X90611D01*
Y78681D01*
X90704D01*
Y78774D01*
X90797D01*
Y78867D01*
X90983D01*
Y78960D01*
X91077D01*
Y79053D01*
X91170D01*
Y79146D01*
X91263D01*
Y79239D01*
X91449D01*
Y79333D01*
X91542D01*
Y79426D01*
X91635D01*
Y79519D01*
X91728D01*
Y79612D01*
X91914D01*
Y79705D01*
X92008D01*
Y79798D01*
X92101D01*
Y79891D01*
X92194D01*
Y79984D01*
X92380D01*
Y80077D01*
X92473D01*
Y80171D01*
X92566D01*
Y80264D01*
X92659D01*
Y80357D01*
X92845D01*
Y80450D01*
X92939D01*
Y80543D01*
X93032D01*
Y80636D01*
X93125D01*
Y80729D01*
X93311D01*
Y80822D01*
X93218D01*
Y80915D01*
X93032D01*
Y81008D01*
X92939D01*
Y81101D01*
X92752D01*
Y81195D01*
X92659D01*
Y81288D01*
X92473D01*
Y81381D01*
X92287D01*
Y81474D01*
X92194D01*
Y81567D01*
X92008D01*
Y81660D01*
X91821D01*
Y81753D01*
X91728D01*
Y81846D01*
X91542D01*
Y81939D01*
X91356D01*
Y82032D01*
X91263D01*
Y82126D01*
X91077D01*
Y82219D01*
X90890D01*
Y82312D01*
X90797D01*
Y82405D01*
X90611D01*
Y82498D01*
X90425D01*
Y82591D01*
X90332D01*
Y82684D01*
X90146D01*
Y82777D01*
X90052D01*
Y82870D01*
X89866D01*
Y82964D01*
X89680D01*
Y83057D01*
X89587D01*
Y83150D01*
X89401D01*
Y83243D01*
X89215D01*
Y83336D01*
X89122D01*
Y83429D01*
X88935D01*
Y83522D01*
X88749D01*
Y83615D01*
X88656D01*
Y83708D01*
X88470D01*
Y83801D01*
X88284D01*
Y83894D01*
X88191D01*
Y83988D01*
X88004D01*
Y84081D01*
X87911D01*
Y84174D01*
X87725D01*
Y84267D01*
X87539D01*
Y84360D01*
X87446D01*
Y84453D01*
X87260D01*
Y84546D01*
X87166D01*
Y84639D01*
X86980D01*
Y84732D01*
X86887D01*
Y84825D01*
X86701D01*
Y84919D01*
D02*
G37*
G36*
X116772D02*
X116586D01*
Y84825D01*
X116493D01*
Y84732D01*
X116400D01*
Y84639D01*
X116214D01*
Y84546D01*
X116121D01*
Y84453D01*
X115934D01*
Y84360D01*
X115841D01*
Y84267D01*
X115655D01*
Y84174D01*
X115469D01*
Y84081D01*
X115376D01*
Y83988D01*
X115190D01*
Y83894D01*
X115003D01*
Y83801D01*
X114910D01*
Y83708D01*
X114724D01*
Y83615D01*
X114631D01*
Y83522D01*
X114445D01*
Y83429D01*
X114259D01*
Y83336D01*
X114165D01*
Y83243D01*
X113979D01*
Y83150D01*
X113793D01*
Y83057D01*
X113700D01*
Y82964D01*
X113514D01*
Y82870D01*
X113328D01*
Y82777D01*
X113234D01*
Y82684D01*
X113048D01*
Y82591D01*
X112862D01*
Y82498D01*
X112769D01*
Y82405D01*
X112583D01*
Y82312D01*
X112490D01*
Y82219D01*
X112303D01*
Y82126D01*
X112117D01*
Y82032D01*
X112024D01*
Y81939D01*
X111838D01*
Y81846D01*
X111652D01*
Y81753D01*
X111559D01*
Y81660D01*
X111372D01*
Y81567D01*
X111186D01*
Y81474D01*
X111093D01*
Y81381D01*
X110907D01*
Y81288D01*
X110721D01*
Y81195D01*
X110628D01*
Y81101D01*
X110441D01*
Y81008D01*
X110348D01*
Y80915D01*
X110162D01*
Y80822D01*
X109976D01*
Y80729D01*
X110069D01*
Y80636D01*
X110162D01*
Y80543D01*
X110255D01*
Y80450D01*
X110348D01*
Y80357D01*
X110535D01*
Y80264D01*
X110628D01*
Y80171D01*
X110721D01*
Y80077D01*
X110907D01*
Y79984D01*
X111000D01*
Y79891D01*
X111093D01*
Y79798D01*
X111186D01*
Y79705D01*
X111372D01*
Y79612D01*
X111466D01*
Y79519D01*
X111559D01*
Y79426D01*
X111652D01*
Y79333D01*
X111838D01*
Y79239D01*
X111931D01*
Y79146D01*
X112024D01*
Y79053D01*
X112210D01*
Y78960D01*
X112303D01*
Y78867D01*
X112397D01*
Y78774D01*
X112490D01*
Y78681D01*
X112676D01*
Y78588D01*
X112769D01*
Y78495D01*
X112862D01*
Y78401D01*
X112955D01*
Y78308D01*
X113141D01*
Y78215D01*
X113234D01*
Y78122D01*
X113328D01*
Y78029D01*
X113514D01*
Y77936D01*
X113607D01*
Y77843D01*
X113700D01*
Y77750D01*
X113793D01*
Y77657D01*
X113979D01*
Y77564D01*
X114072D01*
Y77470D01*
X114165D01*
Y77377D01*
X114259D01*
Y77284D01*
X114445D01*
Y77191D01*
X114538D01*
Y77098D01*
X114631D01*
Y77005D01*
X114817D01*
Y76912D01*
X114910D01*
Y76819D01*
X115003D01*
Y76726D01*
X115096D01*
Y76633D01*
X115283D01*
Y76539D01*
X115376D01*
Y76446D01*
X115469D01*
Y76353D01*
X115562D01*
Y76260D01*
X115748D01*
Y76167D01*
X115841D01*
Y76074D01*
X115934D01*
Y75981D01*
X116121D01*
Y75888D01*
X116214D01*
Y75795D01*
X116307D01*
Y75702D01*
X116400D01*
Y75608D01*
X116586D01*
Y75515D01*
X116679D01*
Y75422D01*
X116772D01*
Y83429D01*
Y83522D01*
Y84919D01*
D02*
G37*
G36*
X96011Y79239D02*
X95732D01*
Y79146D01*
X95639D01*
Y79053D01*
X95545D01*
Y78960D01*
X95452D01*
Y78867D01*
X95266D01*
Y78774D01*
X95173D01*
Y78681D01*
X95080D01*
Y78588D01*
X94987D01*
Y78495D01*
X94801D01*
Y78401D01*
X94708D01*
Y78308D01*
X94614D01*
Y78215D01*
X94521D01*
Y78122D01*
X94335D01*
Y78029D01*
X94242D01*
Y77936D01*
X94149D01*
Y77843D01*
X94056D01*
Y77750D01*
X93870D01*
Y77657D01*
X93777D01*
Y77564D01*
X93683D01*
Y77470D01*
X93590D01*
Y77377D01*
X93404D01*
Y77284D01*
X93311D01*
Y77191D01*
X93218D01*
Y77098D01*
X93125D01*
Y77005D01*
X92939D01*
Y76912D01*
X92845D01*
Y76819D01*
X92752D01*
Y76726D01*
X92659D01*
Y76633D01*
X92473D01*
Y76539D01*
X92380D01*
Y76446D01*
X92287D01*
Y76353D01*
X92194D01*
Y76260D01*
X92008D01*
Y76167D01*
X91914D01*
Y76074D01*
X91821D01*
Y75981D01*
X91728D01*
Y75888D01*
X91542D01*
Y75795D01*
X91449D01*
Y75702D01*
X91356D01*
Y75608D01*
X91263D01*
Y75515D01*
X91077D01*
Y75422D01*
X90983D01*
Y75329D01*
X90890D01*
Y75236D01*
X90797D01*
Y75143D01*
X90611D01*
Y75050D01*
X90518D01*
Y74957D01*
X90425D01*
Y74864D01*
X90332D01*
Y74771D01*
X90146D01*
Y74677D01*
X90052D01*
Y74584D01*
X89959D01*
Y74491D01*
X89866D01*
Y74398D01*
X89680D01*
Y74305D01*
X89587D01*
Y74212D01*
X89494D01*
Y74119D01*
X89401D01*
Y74026D01*
X89215D01*
Y73933D01*
X89122D01*
Y73840D01*
X89028D01*
Y73747D01*
X88935D01*
Y73653D01*
X88749D01*
Y73560D01*
X88656D01*
Y73467D01*
X88563D01*
Y73374D01*
X88470D01*
Y73281D01*
X88284D01*
Y73188D01*
X88191D01*
Y73095D01*
X115096D01*
Y73188D01*
X115003D01*
Y73281D01*
X114910D01*
Y73374D01*
X114724D01*
Y73467D01*
X114631D01*
Y73560D01*
X114538D01*
Y73653D01*
X114445D01*
Y73747D01*
X114259D01*
Y73840D01*
X114165D01*
Y73933D01*
X114072D01*
Y74026D01*
X113886D01*
Y74119D01*
X113793D01*
Y74212D01*
X113700D01*
Y74305D01*
X113607D01*
Y74398D01*
X113421D01*
Y74491D01*
X113328D01*
Y74584D01*
X113234D01*
Y74677D01*
X113141D01*
Y74771D01*
X112955D01*
Y74864D01*
X112862D01*
Y74957D01*
X112769D01*
Y75050D01*
X112583D01*
Y75143D01*
X112490D01*
Y75236D01*
X112397D01*
Y75329D01*
X112303D01*
Y75422D01*
X112117D01*
Y75515D01*
X112024D01*
Y75608D01*
X111931D01*
Y75702D01*
X111838D01*
Y75795D01*
X111652D01*
Y75888D01*
X111559D01*
Y75981D01*
X111466D01*
Y76074D01*
X111279D01*
Y76167D01*
X111186D01*
Y76260D01*
X111093D01*
Y76353D01*
X111000D01*
Y76446D01*
X110814D01*
Y76539D01*
X110721D01*
Y76633D01*
X110628D01*
Y76726D01*
X110535D01*
Y76819D01*
X110348D01*
Y76912D01*
X110255D01*
Y77005D01*
X110162D01*
Y77098D01*
X109976D01*
Y77191D01*
X109883D01*
Y77284D01*
X109790D01*
Y77377D01*
X109697D01*
Y77470D01*
X109510D01*
Y77564D01*
X109417D01*
Y77657D01*
X109324D01*
Y77750D01*
X109231D01*
Y77843D01*
X109045D01*
Y77936D01*
X108952D01*
Y78029D01*
X108859D01*
Y78122D01*
X108672D01*
Y78215D01*
X108579D01*
Y78308D01*
X108486D01*
Y78401D01*
X108393D01*
Y78495D01*
X108207D01*
Y78588D01*
X108114D01*
Y78681D01*
X108021D01*
Y78774D01*
X107928D01*
Y78867D01*
X107741D01*
Y78960D01*
X107648D01*
Y79053D01*
X107555D01*
Y79146D01*
X107276D01*
Y79053D01*
X107090D01*
Y78960D01*
X106904D01*
Y78867D01*
X106810D01*
Y78774D01*
X106624D01*
Y78681D01*
X106438D01*
Y78588D01*
X106345D01*
Y78495D01*
X106159D01*
Y78401D01*
X105973D01*
Y78308D01*
X105879D01*
Y78215D01*
X105693D01*
Y78122D01*
X105600D01*
Y78029D01*
X105414D01*
Y77936D01*
X105228D01*
Y77843D01*
X105135D01*
Y77750D01*
X104948D01*
Y77657D01*
X104762D01*
Y77564D01*
X104669D01*
Y77470D01*
X104483D01*
Y77377D01*
X104297D01*
Y77284D01*
X104204D01*
Y77191D01*
X104017D01*
Y77098D01*
X103831D01*
Y77005D01*
X103738D01*
Y76912D01*
X103552D01*
Y76819D01*
X103459D01*
Y76726D01*
X103273D01*
Y76633D01*
X103086D01*
Y76539D01*
X102993D01*
Y76446D01*
X102807D01*
Y76353D01*
X102621D01*
Y76260D01*
X102528D01*
Y76167D01*
X102342D01*
Y76074D01*
X102155D01*
Y75981D01*
X102062D01*
Y75888D01*
X101876D01*
Y75795D01*
X101504D01*
Y75888D01*
X101318D01*
Y75981D01*
X101225D01*
Y76074D01*
X101038D01*
Y76167D01*
X100852D01*
Y76260D01*
X100759D01*
Y76353D01*
X100573D01*
Y76446D01*
X100387D01*
Y76539D01*
X100294D01*
Y76633D01*
X100107D01*
Y76726D01*
X99921D01*
Y76819D01*
X99828D01*
Y76912D01*
X99642D01*
Y77005D01*
X99549D01*
Y77098D01*
X99362D01*
Y77191D01*
X99176D01*
Y77284D01*
X99083D01*
Y77377D01*
X98897D01*
Y77470D01*
X98711D01*
Y77564D01*
X98618D01*
Y77657D01*
X98431D01*
Y77750D01*
X98245D01*
Y77843D01*
X98152D01*
Y77936D01*
X97966D01*
Y78029D01*
X97780D01*
Y78122D01*
X97687D01*
Y78215D01*
X97500D01*
Y78308D01*
X97314D01*
Y78401D01*
X97221D01*
Y78495D01*
X97035D01*
Y78588D01*
X96942D01*
Y78681D01*
X96756D01*
Y78774D01*
X96570D01*
Y78867D01*
X96476D01*
Y78960D01*
X96290D01*
Y79053D01*
X96104D01*
Y79146D01*
X96011D01*
Y79239D01*
D02*
G37*
G36*
X122731Y70302D02*
X80649D01*
Y60619D01*
X122731D01*
Y66764D01*
Y66857D01*
Y70302D01*
D02*
G37*
G36*
Y57826D02*
X119565D01*
Y54847D01*
Y54754D01*
X122731D01*
Y57826D01*
D02*
G37*
G36*
X83815D02*
X80649D01*
Y54754D01*
X83815D01*
Y57826D01*
D02*
G37*
G36*
X116772D02*
X86608D01*
Y49820D01*
X116772D01*
Y57826D01*
D02*
G37*
%LPD*%
G36*
X119751Y64530D02*
X116958D01*
Y67323D01*
X119751D01*
Y64530D01*
D02*
G37*
G36*
X113793Y65833D02*
Y65740D01*
Y64530D01*
X111000D01*
Y67323D01*
X113793D01*
Y65833D01*
D02*
G37*
%LPC*%
G36*
X57547Y65055D02*
X57436D01*
X57381Y65046D01*
X57316Y65036D01*
X57298D01*
X57261Y65027D01*
X57214Y65018D01*
X57150Y64999D01*
X57140Y64990D01*
X57103Y64981D01*
X57048Y64953D01*
X56992Y64925D01*
X56974Y64916D01*
X56937Y64898D01*
X56881Y64861D01*
X56817Y64814D01*
X56798Y64805D01*
X56761Y64777D01*
X56696Y64740D01*
X56622Y64694D01*
X56613D01*
X56604Y64685D01*
X56558Y64666D01*
X56493Y64648D01*
X56419Y64629D01*
X56132Y63566D01*
X56151D01*
X56178Y63556D01*
X56188D01*
X56206Y63547D01*
X56271Y63538D01*
X56280D01*
X56299Y63529D01*
X56345Y63519D01*
X56456D01*
X56502Y63529D01*
X56511D01*
X56539Y63538D01*
X56585Y63556D01*
X56632Y63566D01*
X56641Y63575D01*
X56669Y63584D01*
X56715Y63593D01*
X56761Y63612D01*
X56770Y63621D01*
X56807Y63630D01*
X56863Y63649D01*
X56928Y63677D01*
X56946Y63686D01*
X56992Y63723D01*
X57076Y63778D01*
X57177Y63843D01*
X57187Y63852D01*
X57205Y63862D01*
X57233Y63880D01*
X57270Y63908D01*
X57362Y63982D01*
X57464Y64074D01*
X57473Y64084D01*
X57492Y64102D01*
X57510Y64130D01*
X57547Y64167D01*
X57612Y64259D01*
X57686Y64370D01*
Y64380D01*
X57705Y64398D01*
X57714Y64435D01*
X57732Y64472D01*
X57760Y64583D01*
X57779Y64722D01*
Y64731D01*
Y64768D01*
X57769Y64805D01*
X57760Y64851D01*
Y64861D01*
X57751Y64888D01*
X57732Y64925D01*
X57705Y64953D01*
X57695Y64962D01*
X57686Y64981D01*
X57658Y65009D01*
X57621Y65027D01*
X57612Y65036D01*
X57584Y65046D01*
X57547Y65055D01*
D02*
G37*
G36*
X50776Y65231D02*
X50767D01*
X50758Y65212D01*
Y65184D01*
X50767Y65166D01*
X50758Y65157D01*
X50730Y65129D01*
X50684Y65110D01*
X50675D01*
X50638Y65092D01*
X50582Y65073D01*
X50517Y65055D01*
X50499D01*
X50453Y65046D01*
X50379Y65036D01*
X50277Y65018D01*
X50258Y65009D01*
X50221Y64999D01*
X50166Y64972D01*
X50101Y64925D01*
X50083Y64916D01*
X50046Y64888D01*
X49981Y64842D01*
X49907Y64777D01*
X49888Y64759D01*
X49851Y64722D01*
X49796Y64657D01*
X49731Y64583D01*
X49722Y64565D01*
X49685Y64518D01*
X49629Y64454D01*
X49574Y64370D01*
Y64361D01*
X49565Y64352D01*
X49537Y64306D01*
X49500Y64232D01*
X49463Y64158D01*
X49454Y64139D01*
X49435Y64093D01*
X49417Y64037D01*
X49398Y63973D01*
Y63963D01*
X49389Y63936D01*
X49380Y63899D01*
X49370Y63852D01*
Y63843D01*
Y63815D01*
X49361Y63778D01*
Y63741D01*
Y63723D01*
Y63686D01*
X49370Y63630D01*
X49380Y63575D01*
X49389Y63566D01*
X49398Y63529D01*
X49426Y63492D01*
X49454Y63445D01*
X49463Y63436D01*
X49491Y63418D01*
X49528Y63399D01*
X49574Y63371D01*
X49583D01*
X49620Y63362D01*
X49676Y63353D01*
X49750Y63344D01*
X49787D01*
X49824Y63353D01*
X49879D01*
X49999Y63390D01*
X50073Y63408D01*
X50138Y63445D01*
X50147Y63455D01*
X50166Y63464D01*
X50203Y63492D01*
X50249Y63519D01*
X50360Y63612D01*
X50471Y63723D01*
X50480Y63732D01*
X50499Y63751D01*
X50527Y63788D01*
X50554Y63834D01*
X50638Y63945D01*
X50712Y64074D01*
X50721Y64084D01*
X50730Y64111D01*
X50749Y64148D01*
X50767Y64195D01*
X50813Y64306D01*
X50850Y64435D01*
X50860Y64454D01*
X50869Y64491D01*
X50878Y64546D01*
X50897Y64611D01*
Y64620D01*
Y64629D01*
X50906Y64676D01*
X50915Y64731D01*
Y64787D01*
Y64796D01*
Y64824D01*
X50906Y64861D01*
X50887Y64907D01*
Y64916D01*
X50869Y64944D01*
X50850Y64990D01*
X50823Y65046D01*
Y65055D01*
X50804Y65083D01*
X50786Y65120D01*
X50767Y65157D01*
Y65166D01*
X50776Y65175D01*
X50795Y65203D01*
X50786Y65221D01*
X50776Y65231D01*
D02*
G37*
G36*
X64069Y58299D02*
X64022D01*
X63985Y58289D01*
X63902Y58280D01*
X63800Y58243D01*
X63791D01*
X63773Y58234D01*
X63754Y58225D01*
X63717Y58206D01*
X63625Y58169D01*
X63532Y58104D01*
X63523D01*
X63514Y58086D01*
X63449Y58040D01*
X63375Y57975D01*
X63282Y57882D01*
X63273Y57873D01*
X63264Y57864D01*
X63208Y57808D01*
X63134Y57716D01*
X63060Y57614D01*
Y57605D01*
X63042Y57586D01*
X63023Y57559D01*
X63005Y57531D01*
X62949Y57438D01*
X62894Y57327D01*
Y57318D01*
X62885Y57300D01*
X62875Y57272D01*
X62857Y57235D01*
X62820Y57142D01*
X62783Y57031D01*
Y57022D01*
X62774Y57004D01*
Y56967D01*
X62764Y56920D01*
Y56911D01*
Y56874D01*
X62755Y56828D01*
Y56772D01*
Y56763D01*
Y56735D01*
Y56698D01*
X62764Y56661D01*
Y56652D01*
X62774Y56643D01*
X62792Y56634D01*
X62811Y56624D01*
X62829D01*
X62875Y56634D01*
X62940Y56643D01*
X63014Y56671D01*
X63023D01*
X63033Y56680D01*
X63079Y56708D01*
X63144Y56745D01*
X63208Y56800D01*
X63218Y56809D01*
X63227Y56819D01*
X63292Y56865D01*
X63366Y56939D01*
X63458Y57022D01*
X63467Y57031D01*
X63477Y57041D01*
X63504Y57068D01*
X63541Y57105D01*
X63615Y57189D01*
X63699Y57290D01*
X63708Y57300D01*
X63717Y57318D01*
X63745Y57346D01*
X63773Y57383D01*
X63837Y57466D01*
X63902Y57577D01*
Y57586D01*
X63921Y57605D01*
X63930Y57633D01*
X63958Y57670D01*
X64004Y57762D01*
X64041Y57864D01*
Y57882D01*
X64050Y57919D01*
X64059Y57984D01*
X64069Y58058D01*
Y58067D01*
Y58077D01*
X64078Y58123D01*
X64087Y58188D01*
Y58252D01*
Y58262D01*
X64078Y58280D01*
Y58289D01*
X64069Y58299D01*
D02*
G37*
G36*
X54513D02*
X54467D01*
X54430Y58289D01*
X54347Y58280D01*
X54245Y58243D01*
X54236D01*
X54217Y58234D01*
X54199Y58225D01*
X54162Y58206D01*
X54069Y58169D01*
X53977Y58104D01*
X53968D01*
X53958Y58086D01*
X53894Y58040D01*
X53820Y57975D01*
X53727Y57882D01*
X53718Y57873D01*
X53709Y57864D01*
X53653Y57808D01*
X53579Y57716D01*
X53505Y57614D01*
Y57605D01*
X53487Y57586D01*
X53468Y57559D01*
X53450Y57531D01*
X53394Y57438D01*
X53339Y57327D01*
Y57318D01*
X53329Y57300D01*
X53320Y57272D01*
X53302Y57235D01*
X53265Y57142D01*
X53228Y57031D01*
Y57022D01*
X53218Y57004D01*
Y56967D01*
X53209Y56920D01*
Y56911D01*
Y56874D01*
X53200Y56828D01*
Y56772D01*
Y56763D01*
Y56735D01*
Y56698D01*
X53209Y56661D01*
Y56652D01*
X53218Y56643D01*
X53237Y56634D01*
X53255Y56624D01*
X53274D01*
X53320Y56634D01*
X53385Y56643D01*
X53459Y56671D01*
X53468D01*
X53477Y56680D01*
X53524Y56708D01*
X53588Y56745D01*
X53653Y56800D01*
X53662Y56809D01*
X53672Y56819D01*
X53736Y56865D01*
X53810Y56939D01*
X53903Y57022D01*
X53912Y57031D01*
X53921Y57041D01*
X53949Y57068D01*
X53986Y57105D01*
X54060Y57189D01*
X54143Y57290D01*
X54153Y57300D01*
X54162Y57318D01*
X54190Y57346D01*
X54217Y57383D01*
X54282Y57466D01*
X54347Y57577D01*
Y57586D01*
X54365Y57605D01*
X54375Y57633D01*
X54402Y57670D01*
X54449Y57762D01*
X54486Y57864D01*
Y57882D01*
X54495Y57919D01*
X54504Y57984D01*
X54513Y58058D01*
Y58067D01*
Y58077D01*
X54523Y58123D01*
X54532Y58188D01*
Y58252D01*
Y58262D01*
X54523Y58280D01*
Y58289D01*
X54513Y58299D01*
D02*
G37*
G36*
X44690Y59816D02*
X44394D01*
X44329Y59806D01*
X44255D01*
X44098Y59788D01*
X44089D01*
X44061Y59779D01*
X44024D01*
X43978Y59769D01*
X43848Y59742D01*
X43719Y59695D01*
Y59686D01*
X43709Y59668D01*
X43700Y59621D01*
X43682Y59584D01*
X43672Y59538D01*
Y59529D01*
X43663Y59520D01*
X43654Y59464D01*
X43626Y59381D01*
X43598Y59288D01*
Y59279D01*
X43589Y59270D01*
X43580Y59242D01*
X43571Y59205D01*
X43543Y59113D01*
X43506Y58992D01*
Y58983D01*
X43497Y58965D01*
X43487Y58937D01*
X43478Y58891D01*
X43450Y58789D01*
X43413Y58669D01*
Y58659D01*
X43404Y58641D01*
X43395Y58604D01*
X43386Y58567D01*
X43358Y58465D01*
X43321Y58345D01*
Y58336D01*
X43312Y58317D01*
X43303Y58267D01*
X43321Y58280D01*
X43330D01*
X43339Y58289D01*
X43367Y58308D01*
X43404Y58317D01*
X43497Y58354D01*
X43608Y58400D01*
X43617D01*
X43626Y58410D01*
X43682Y58428D01*
X43774Y58465D01*
X43885Y58511D01*
X43894D01*
X43913Y58521D01*
X43950Y58539D01*
X43996Y58558D01*
X44107Y58613D01*
X44237Y58678D01*
X44246Y58687D01*
X44264Y58696D01*
X44301Y58715D01*
X44348Y58743D01*
X44468Y58807D01*
X44597Y58891D01*
X44607Y58900D01*
X44625Y58909D01*
X44662Y58937D01*
X44708Y58965D01*
X44810Y59039D01*
X44921Y59122D01*
X44930Y59131D01*
X44949Y59140D01*
X45004Y59196D01*
X45078Y59270D01*
X45152Y59344D01*
Y59353D01*
X45162Y59362D01*
X45199Y59409D01*
X45226Y59473D01*
X45236Y59547D01*
Y59566D01*
X45226Y59594D01*
X45208Y59640D01*
X45171Y59677D01*
X45162Y59686D01*
X45134Y59705D01*
X45078Y59732D01*
X45004Y59760D01*
X44986Y59769D01*
X44940Y59779D01*
X44856Y59797D01*
X44764Y59806D01*
X44745D01*
X44690Y59816D01*
D02*
G37*
G36*
X72847Y58141D02*
X72791D01*
X72736Y58132D01*
X72662Y58114D01*
X72569Y58077D01*
X72560D01*
X72551Y58067D01*
X72505Y58040D01*
X72431Y57984D01*
X72347Y57919D01*
X72329Y57901D01*
X72283Y57855D01*
X72227Y57790D01*
X72162Y57707D01*
X72153Y57688D01*
X72116Y57651D01*
X72079Y57614D01*
X72042Y57596D01*
X72070D01*
X72098Y57605D01*
X72135Y57614D01*
X72227Y57623D01*
X72347Y57651D01*
X72357D01*
X72375Y57660D01*
X72412Y57670D01*
X72449Y57679D01*
X72551Y57707D01*
X72643Y57744D01*
X72653D01*
X72662Y57753D01*
X72717Y57781D01*
X72782Y57818D01*
X72847Y57864D01*
X72856Y57873D01*
X72884Y57910D01*
X72921Y57956D01*
X72939Y58012D01*
Y58021D01*
Y58030D01*
Y58040D01*
Y58049D01*
Y58067D01*
X72921Y58095D01*
X72902Y58114D01*
X72893Y58123D01*
X72875Y58132D01*
X72847Y58141D01*
D02*
G37*
G36*
X47992D02*
X47937D01*
X47881Y58132D01*
X47807Y58114D01*
X47715Y58077D01*
X47705D01*
X47696Y58067D01*
X47650Y58040D01*
X47576Y57984D01*
X47493Y57919D01*
X47474Y57901D01*
X47428Y57855D01*
X47372Y57790D01*
X47308Y57707D01*
X47298Y57688D01*
X47261Y57651D01*
X47224Y57614D01*
X47187Y57596D01*
X47215D01*
X47243Y57605D01*
X47280Y57614D01*
X47372Y57623D01*
X47493Y57651D01*
X47502D01*
X47520Y57660D01*
X47557Y57670D01*
X47594Y57679D01*
X47696Y57707D01*
X47789Y57744D01*
X47798D01*
X47807Y57753D01*
X47863Y57781D01*
X47927Y57818D01*
X47992Y57864D01*
X48001Y57873D01*
X48029Y57910D01*
X48066Y57956D01*
X48085Y58012D01*
Y58021D01*
Y58030D01*
Y58040D01*
Y58049D01*
Y58067D01*
X48066Y58095D01*
X48048Y58114D01*
X48038Y58123D01*
X48020Y58132D01*
X47992Y58141D01*
D02*
G37*
%LPD*%
D10*
X289800Y85433D02*
G03*
X289800Y85433I-500J0D01*
G01*
X299000Y30233D02*
G03*
X299000Y30233I-500J0D01*
G01*
X80933Y260370D02*
G03*
X80933Y260370I-500J0D01*
G01*
X80842Y230201D02*
G03*
X80842Y230201I-492J0D01*
G01*
X312460Y182208D02*
G03*
X312460Y182208I-492J0D01*
G01*
X39316Y253419D02*
G03*
X39316Y253419I-492J0D01*
G01*
X15485Y188800D02*
G03*
X15485Y188800I-492J0D01*
G01*
X139492Y143552D02*
G03*
X139492Y143552I-492J0D01*
G01*
D11*
X302250Y245460D02*
G03*
X302250Y245460I-394J0D01*
G01*
X303110Y152720D02*
G03*
X303894Y151148I1969J0D01*
G01*
X303949Y184490D02*
G03*
X303110Y182878I1129J-1612D01*
G01*
X302716Y173253D02*
G03*
X303110Y172859I394J0D01*
G01*
Y163017D02*
G03*
X302716Y162623I0J-394D01*
G01*
X308079Y185458D02*
G03*
X308622Y186815I-1426J1357D01*
G01*
X302716Y162623D02*
G03*
X303110Y162229I394J0D01*
G01*
Y173647D02*
G03*
X302716Y173253I0J-394D01*
G01*
X118725Y191465D02*
G03*
X118725Y191465I-394J0D01*
G01*
X301820Y88000D02*
Y138000D01*
X279300Y88000D02*
X301820D01*
X279300D02*
Y138000D01*
X301820D01*
X311020Y32800D02*
Y72800D01*
X288500Y32800D02*
X311020D01*
X288500D02*
Y72800D01*
X311020D01*
X113000Y247850D02*
Y270370D01*
X83000D02*
X113000D01*
X83000Y247850D02*
Y270370D01*
Y247850D02*
X113000D01*
X53800Y5500D02*
X249784D01*
Y15638D01*
X47816D02*
X249784D01*
X47816Y10500D02*
Y15638D01*
X94818Y230791D02*
X96491D01*
Y229118D02*
Y230791D01*
X94818Y217209D02*
X96491D01*
Y218882D01*
X82909Y217209D02*
X84582D01*
X82909D02*
Y218882D01*
Y230791D02*
X84582D01*
X82909Y229118D02*
Y230791D01*
X85468Y237817D02*
Y238210D01*
X82318Y237817D02*
Y238210D01*
X40630Y243646D02*
Y246402D01*
X46142Y245220D02*
Y246402D01*
X41614Y250929D02*
X45158D01*
X41614Y239118D02*
X45158D01*
X308622Y186815D02*
Y187267D01*
X286968Y193484D02*
X302913D01*
X272401Y193508D02*
X279882D01*
X303110Y173647D02*
Y182878D01*
X265000Y146460D02*
Y146933D01*
X303110Y152720D02*
Y162229D01*
X263740Y184118D02*
Y192307D01*
Y146933D02*
Y148921D01*
X265000Y146460D02*
X301141D01*
X263740Y146933D02*
X265000D01*
X263740Y160614D02*
Y173488D01*
Y148921D02*
Y149984D01*
X303110Y163017D02*
Y172859D01*
X270114Y21350D02*
X275626D01*
X270114Y26862D02*
X275626D01*
X180564Y159448D02*
Y161219D01*
X185880Y159448D02*
Y161219D01*
X215917Y172458D02*
X221083D01*
X215917Y167143D02*
X221083D01*
X272530Y211840D02*
Y219762D01*
X279222Y211840D02*
Y219762D01*
X174897Y188415D02*
Y198282D01*
X158338Y188415D02*
Y198282D01*
X4953Y191851D02*
X11647D01*
X4953Y185749D02*
X11647D01*
X101299Y209680D02*
X101889D01*
X101299Y214995D02*
X101889D01*
X117560Y225866D02*
X119529D01*
X118545Y224882D02*
Y226850D01*
X108899Y223209D02*
X109490D01*
X108899Y228523D02*
X109490D01*
X205933Y58748D02*
Y62672D01*
X213052Y58748D02*
Y62672D01*
X277991Y42456D02*
X281928D01*
X277991Y37456D02*
X281928D01*
X24779Y247789D02*
X36221D01*
X24779Y238907D02*
X36221D01*
X183644Y67203D02*
X187582D01*
X183644Y72518D02*
X187582D01*
X135572Y107763D02*
X148628D01*
X135572Y117040D02*
X148628D01*
X227610Y155440D02*
Y159771D01*
X221705Y155440D02*
Y159771D01*
X207960Y163483D02*
Y163877D01*
X203039Y163483D02*
Y163877D01*
X183966Y209850D02*
Y210244D01*
X178651Y209850D02*
Y210244D01*
X175796Y86573D02*
X176189D01*
X175796Y82046D02*
X176189D01*
X77045Y216231D02*
Y216625D01*
X72124Y216231D02*
Y216625D01*
X199963Y164271D02*
Y164664D01*
X195436Y164271D02*
Y164664D01*
X211179Y215360D02*
X211573D01*
X211179Y210439D02*
X211573D01*
X212846Y157872D02*
Y158266D01*
X217373Y157872D02*
Y158266D01*
X145358Y158906D02*
Y159300D01*
X148508Y158906D02*
Y159300D01*
X12539Y248559D02*
Y248953D01*
X17461Y248559D02*
Y248953D01*
X31555Y233744D02*
X31949D01*
X31555Y236894D02*
X31949D01*
X54575Y231803D02*
Y232197D01*
X51425Y231803D02*
Y232197D01*
X132003Y257301D02*
X132397D01*
X132003Y252773D02*
X132397D01*
X53883Y96562D02*
X66939D01*
X53883Y105838D02*
X66939D01*
X42303Y72025D02*
X42697D01*
X42303Y75175D02*
X42697D01*
X148508Y146563D02*
Y146957D01*
X145358Y146563D02*
Y146957D01*
X111033Y215898D02*
Y216291D01*
X115955Y215898D02*
Y216291D01*
X164296Y89973D02*
X164689D01*
X164296Y85446D02*
X164689D01*
X206081Y136500D02*
X206475D01*
X206081Y141815D02*
X206475D01*
X174729Y72813D02*
Y73206D01*
X179256Y72813D02*
Y73206D01*
X163496Y82170D02*
X163889D01*
X163496Y77249D02*
X163889D01*
X181796Y65370D02*
X182189D01*
X181796Y60449D02*
X182189D01*
X14705Y212142D02*
X15295D01*
X14705Y217457D02*
X15295D01*
X5650Y213815D02*
Y215784D01*
X4665Y214799D02*
X6634D01*
X38827Y231972D02*
Y232366D01*
X41976Y231972D02*
Y232366D01*
X45327Y231972D02*
Y232366D01*
X48476Y231972D02*
Y232366D01*
X307242Y212258D02*
Y212651D01*
X304092Y212258D02*
Y212651D01*
X296932Y222643D02*
X297325D01*
X296932Y219494D02*
X297325D01*
X296132Y207780D02*
X296525D01*
X296132Y210929D02*
X296525D01*
X49103Y79825D02*
X49497D01*
X49103Y82975D02*
X49497D01*
X35603Y79625D02*
X35997D01*
X35603Y82775D02*
X35997D01*
X73384Y229844D02*
X73778D01*
X73384Y226695D02*
X73778D01*
X100122Y240769D02*
Y241163D01*
X96973Y240769D02*
Y241163D01*
X167692Y100258D02*
Y102029D01*
X162378Y100258D02*
Y102029D01*
X166223Y66256D02*
X174145D01*
X166223Y59563D02*
X174145D01*
X268914Y45050D02*
X274426D01*
X268914Y50562D02*
X274426D01*
X196697Y210487D02*
X197090D01*
X196697Y215408D02*
X197090D01*
D12*
X272686Y43625D02*
G03*
X272686Y43625I-300J0D01*
G01*
X192978Y175368D02*
G03*
X192978Y175368I-300J0D01*
G01*
X191194Y189847D02*
G03*
X191194Y192247I0J1200D01*
G01*
X260531Y248870D02*
G03*
X260531Y248870I-300J0D01*
G01*
X201774Y133808D02*
G03*
X201774Y133808I-300J0D01*
G01*
X182913Y98241D02*
G03*
X182913Y98241I-300J0D01*
G01*
X197092Y99725D02*
G03*
X199493Y99725I1200J0D01*
G01*
X165223Y205546D02*
X170397D01*
X157653Y240054D02*
Y245054D01*
X155153Y244054D02*
X160153D01*
X157653D02*
X160153Y241054D01*
X157653Y244054D02*
X159653Y241054D01*
X157653Y244054D02*
X159153Y241054D01*
X157653Y244054D02*
X158653Y241054D01*
X157653Y244054D02*
X158153Y241054D01*
X155153D02*
X157653Y244054D01*
X155653Y241054D02*
X157653Y244054D01*
X156153Y241054D02*
X157653Y244054D01*
X156653Y241054D02*
X157653Y244054D01*
X157153Y241054D02*
X157653Y244054D01*
X155153Y241054D02*
X160153D01*
X144909Y205546D02*
Y238554D01*
Y205546D02*
X150083D01*
X170397D02*
Y238554D01*
X165223D02*
X170397D01*
X144909D02*
X150083D01*
X265968Y31656D02*
Y34545D01*
X274868Y31656D02*
Y34545D01*
X265968Y37668D02*
Y40556D01*
X274868Y37668D02*
Y40556D01*
X251533Y213880D02*
X252573D01*
Y236380D01*
X251005D02*
X252573D01*
X241623Y206380D02*
X246623D01*
X244123Y203380D02*
X244623Y206380D01*
X244123Y203380D02*
X245123Y206380D01*
X244123Y203380D02*
X245623Y206380D01*
X244123Y203380D02*
X246123Y206380D01*
X244123Y203380D02*
X246623Y206380D01*
X243623D02*
X244123Y203380D01*
X243123Y206380D02*
X244123Y203380D01*
X242623Y206380D02*
X244123Y203380D01*
X242123Y206380D02*
X244123Y203380D01*
X241623Y206380D02*
X244123Y203380D01*
X241623D02*
X246623D01*
X244123Y202380D02*
Y207380D01*
X213758Y76866D02*
X215048D01*
X234568D02*
X235858D01*
Y51866D02*
Y76866D01*
X213758Y51866D02*
X215048D01*
X213758D02*
Y76866D01*
X234568Y51866D02*
X235858D01*
X217194Y183696D02*
Y198398D01*
X191194Y183697D02*
Y198398D01*
X229294Y257549D02*
Y271647D01*
Y220247D02*
Y234345D01*
X177894Y220247D02*
X229294D01*
X177894Y257549D02*
Y271647D01*
X229294D01*
X177894Y220247D02*
Y234345D01*
X232206Y246028D02*
X256040D01*
X232206Y266713D02*
X256040D01*
X228400Y169400D02*
Y178440D01*
Y196400D02*
X255400D01*
X228400Y187360D02*
Y196400D01*
Y169400D02*
X255400D01*
Y178440D01*
Y187360D02*
Y196400D01*
X165042Y139443D02*
X168383D01*
X180803Y108543D02*
X184142D01*
X165042D02*
X168383D01*
X165042D02*
Y139443D01*
X180803D02*
X184142D01*
Y108543D02*
Y139443D01*
X17000Y61400D02*
Y86400D01*
X3500Y61400D02*
X17000D01*
X3500D02*
Y86400D01*
X17000D01*
X177642Y19723D02*
Y28763D01*
Y46723D02*
X204642D01*
X177642Y37683D02*
Y46723D01*
Y19723D02*
X204642D01*
Y28763D01*
Y37683D02*
Y46723D01*
X247669Y40326D02*
Y45500D01*
X208161Y32756D02*
X213161D01*
X209161Y30256D02*
Y35256D01*
Y32756D02*
X212161Y35256D01*
X209161Y32756D02*
X212161Y34756D01*
X209161Y32756D02*
X212161Y34256D01*
X209161Y32756D02*
X212161Y33756D01*
X209161Y32756D02*
X212161Y33256D01*
X209161Y32756D02*
X212161Y30256D01*
X209161Y32756D02*
X212161Y30756D01*
X209161Y32756D02*
X212161Y31256D01*
X209161Y32756D02*
X212161Y31756D01*
X209161Y32756D02*
X212161Y32256D01*
Y30256D02*
Y35256D01*
X214661Y20012D02*
X247669D01*
Y25186D01*
X214661Y45500D02*
X247669D01*
X214661Y40326D02*
Y45500D01*
Y20012D02*
Y25186D01*
X259089Y54848D02*
X264263D01*
X251519Y89356D02*
Y94356D01*
X249019Y93356D02*
X254019D01*
X251519D02*
X254019Y90356D01*
X251519Y93356D02*
X253519Y90356D01*
X251519Y93356D02*
X253019Y90356D01*
X251519Y93356D02*
X252519Y90356D01*
X251519Y93356D02*
X252019Y90356D01*
X249019D02*
X251519Y93356D01*
X249519Y90356D02*
X251519Y93356D01*
X250019Y90356D02*
X251519Y93356D01*
X250519Y90356D02*
X251519Y93356D01*
X251019Y90356D02*
X251519Y93356D01*
X249019Y90356D02*
X254019D01*
X238775Y54848D02*
Y87856D01*
Y54848D02*
X243949D01*
X264263D02*
Y87856D01*
X259089D02*
X264263D01*
X238775D02*
X243949D01*
X215594Y94529D02*
Y108627D01*
Y145929D02*
X266994D01*
X215594Y131831D02*
Y145929D01*
Y94529D02*
X266994D01*
Y108627D01*
Y131831D02*
Y145929D01*
X183631Y105783D02*
Y129617D01*
X204316Y105783D02*
Y129617D01*
X190942Y73725D02*
X205643D01*
X190942Y99725D02*
X205643D01*
X146236Y246028D02*
X170071D01*
X146236Y266713D02*
X170071D01*
D13*
X32447Y101898D02*
G03*
X32447Y101898I-1409J0D01*
G01*
D14*
X47520Y238921D02*
G03*
X47520Y238921I-197J0D01*
G01*
X26457Y254102D02*
Y256102D01*
Y254102D02*
X27957D01*
X59957D02*
X61457D01*
Y256102D01*
X24457Y263602D02*
X26457D01*
Y262102D02*
Y263602D01*
X61457Y262102D02*
Y263602D01*
X63457D01*
D15*
X266856Y257743D02*
X306856D01*
X266856Y247822D02*
Y257743D01*
Y247822D02*
X306856D01*
Y257743D01*
X122465Y189693D02*
Y192843D01*
X127780Y198158D01*
X148449D01*
Y189693D02*
Y198158D01*
X122465Y177489D02*
Y180638D01*
Y177489D02*
X127780Y172174D01*
X148449D01*
Y180638D01*
X242548Y149999D02*
X240549D01*
Y150999D01*
X240882Y151332D01*
X241548D01*
X241882Y150999D01*
Y149999D01*
Y150666D02*
X242548Y151332D01*
Y153332D02*
Y151999D01*
X241215Y153332D01*
X240882D01*
X240549Y152998D01*
Y152332D01*
X240882Y151999D01*
Y153998D02*
X240549Y154331D01*
Y154998D01*
X240882Y155331D01*
X241215D01*
X241548Y154998D01*
X241882Y155331D01*
X242215D01*
X242548Y154998D01*
Y154331D01*
X242215Y153998D01*
X241882D01*
X241548Y154331D01*
X241215Y153998D01*
X240882D01*
X241548Y154331D02*
Y154998D01*
X161552Y22311D02*
X159553D01*
Y23311D01*
X159886Y23644D01*
X160552D01*
X160885Y23311D01*
Y22311D01*
Y22977D02*
X161552Y23644D01*
Y25310D02*
X159553D01*
X160552Y24310D01*
Y25643D01*
X161552Y26309D02*
Y26976D01*
Y26643D01*
X159553D01*
X159886Y26309D01*
X150934Y22319D02*
X148934D01*
Y23318D01*
X149268Y23652D01*
X149934D01*
X150267Y23318D01*
Y22319D01*
Y22985D02*
X150934Y23652D01*
Y25318D02*
X148934D01*
X149934Y24318D01*
Y25651D01*
X149268Y26318D02*
X148934Y26651D01*
Y27317D01*
X149268Y27650D01*
X150601D01*
X150934Y27317D01*
Y26651D01*
X150601Y26318D01*
X149268D01*
X186556Y191729D02*
Y190062D01*
X186889Y189729D01*
X187555D01*
X187889Y190062D01*
Y191729D01*
X189888Y189729D02*
X188555D01*
X189888Y191062D01*
Y191395D01*
X189555Y191729D01*
X188888D01*
X188555Y191395D01*
X279200Y209453D02*
Y207454D01*
X278200D01*
X277867Y207787D01*
Y208454D01*
X278200Y208787D01*
X279200D01*
X278534D02*
X277867Y209453D01*
X275868D02*
X277201D01*
X275868Y208120D01*
Y207787D01*
X276201Y207454D01*
X276867D01*
X277201Y207787D01*
X275201Y209120D02*
X274868Y209453D01*
X274202D01*
X273868Y209120D01*
Y207787D01*
X274202Y207454D01*
X274868D01*
X275201Y207787D01*
Y208120D01*
X274868Y208454D01*
X273868D01*
X176521Y179770D02*
Y181769D01*
X177521D01*
X177854Y181436D01*
Y180769D01*
X177521Y180436D01*
X176521D01*
X177188D02*
X177854Y179770D01*
X179853D02*
X178521D01*
X179853Y181103D01*
Y181436D01*
X179520Y181769D01*
X178854D01*
X178521Y181436D01*
X180520Y181769D02*
X181853D01*
Y181436D01*
X180520Y180103D01*
Y179770D01*
X163229Y200954D02*
Y202954D01*
X164229D01*
X164562Y202621D01*
Y201954D01*
X164229Y201621D01*
X163229D01*
X163895D02*
X164562Y200954D01*
X166561D02*
X165228D01*
X166561Y202287D01*
Y202621D01*
X166228Y202954D01*
X165561D01*
X165228Y202621D01*
X168561Y202954D02*
X167894Y202621D01*
X167228Y201954D01*
Y201288D01*
X167561Y200954D01*
X168227D01*
X168561Y201288D01*
Y201621D01*
X168227Y201954D01*
X167228D01*
X214221Y166838D02*
X212221D01*
Y167837D01*
X212555Y168170D01*
X213221D01*
X213554Y167837D01*
Y166838D01*
Y167504D02*
X214221Y168170D01*
Y170170D02*
Y168837D01*
X212888Y170170D01*
X212555D01*
X212221Y169837D01*
Y169170D01*
X212555Y168837D01*
X212221Y172169D02*
Y170836D01*
X213221D01*
X212888Y171503D01*
Y171836D01*
X213221Y172169D01*
X213887D01*
X214221Y171836D01*
Y171169D01*
X213887Y170836D01*
X173870Y158989D02*
Y160989D01*
X174870D01*
X175203Y160655D01*
Y159989D01*
X174870Y159656D01*
X173870D01*
X174537D02*
X175203Y158989D01*
X177202D02*
X175870D01*
X177202Y160322D01*
Y160655D01*
X176869Y160989D01*
X176203D01*
X175870Y160655D01*
X178869Y158989D02*
Y160989D01*
X177869Y159989D01*
X179202D01*
X188154Y152287D02*
Y154286D01*
X189153D01*
X189487Y153953D01*
Y153286D01*
X189153Y152953D01*
X188154D01*
X188820D02*
X189487Y152287D01*
X191486D02*
X190153D01*
X191486Y153619D01*
Y153953D01*
X191153Y154286D01*
X190486D01*
X190153Y153953D01*
X192152D02*
X192485Y154286D01*
X193152D01*
X193485Y153953D01*
Y153619D01*
X193152Y153286D01*
X192819D01*
X193152D01*
X193485Y152953D01*
Y152620D01*
X193152Y152287D01*
X192485D01*
X192152Y152620D01*
X169334Y172559D02*
Y174559D01*
X170334D01*
X170667Y174225D01*
Y173559D01*
X170334Y173226D01*
X169334D01*
X170001D02*
X170667Y172559D01*
X172667D02*
X171334D01*
X172667Y173892D01*
Y174225D01*
X172333Y174559D01*
X171667D01*
X171334Y174225D01*
X174666Y172559D02*
X173333D01*
X174666Y173892D01*
Y174225D01*
X174333Y174559D01*
X173666D01*
X173333Y174225D01*
X246452Y159750D02*
X244452D01*
Y160749D01*
X244785Y161082D01*
X245452D01*
X245785Y160749D01*
Y159750D01*
Y160416D02*
X246452Y161082D01*
X244452Y163082D02*
X244785Y162415D01*
X245452Y161749D01*
X246118D01*
X246452Y162082D01*
Y162749D01*
X246118Y163082D01*
X245785D01*
X245452Y162749D01*
Y161749D01*
X259353Y256919D02*
X260686D01*
X261020Y257252D01*
Y257919D01*
X260686Y258252D01*
X259353D01*
X259020Y257919D01*
Y257252D01*
X259687Y257585D02*
X259020Y256919D01*
Y257252D02*
X259353Y256919D01*
X259020Y254920D02*
Y256252D01*
X260353Y254920D01*
X260686D01*
X261020Y255253D01*
Y255919D01*
X260686Y256252D01*
X144112Y256370D02*
X142779D01*
X142446Y256037D01*
Y255370D01*
X142779Y255037D01*
X144112D01*
X144445Y255370D01*
Y256037D01*
X143779Y255704D02*
X144445Y256370D01*
Y256037D02*
X144112Y256370D01*
X144445Y257036D02*
Y257703D01*
Y257370D01*
X142446D01*
X142779Y257036D01*
X232053Y269580D02*
Y267581D01*
X233386D01*
X234052D02*
X234719D01*
X234385D01*
Y269580D01*
X234052Y269247D01*
X156051Y250559D02*
Y248559D01*
X157051D01*
X157384Y248893D01*
Y250226D01*
X157051Y250559D01*
X156051D01*
X159383D02*
X158717Y250226D01*
X158050Y249559D01*
Y248893D01*
X158384Y248559D01*
X159050D01*
X159383Y248893D01*
Y249226D01*
X159050Y249559D01*
X158050D01*
X242775Y244080D02*
Y242081D01*
X243775D01*
X244108Y242414D01*
Y243747D01*
X243775Y244080D01*
X242775D01*
X246107Y242081D02*
X244774D01*
X246107Y243413D01*
Y243747D01*
X245774Y244080D01*
X245108D01*
X244774Y243747D01*
X238245Y191120D02*
X237912Y191453D01*
X237245D01*
X236912Y191120D01*
Y189787D01*
X237245Y189454D01*
X237912D01*
X238245Y189787D01*
X238912Y191120D02*
X239245Y191453D01*
X239911D01*
X240244Y191120D01*
Y190787D01*
X239911Y190454D01*
X239578D01*
X239911D01*
X240244Y190120D01*
Y189787D01*
X239911Y189454D01*
X239245D01*
X238912Y189787D01*
X240911D02*
X241244Y189454D01*
X241911D01*
X242244Y189787D01*
Y191120D01*
X241911Y191453D01*
X241244D01*
X240911Y191120D01*
Y190787D01*
X241244Y190454D01*
X242244D01*
X230736Y158956D02*
X230402Y159289D01*
X229736D01*
X229403Y158956D01*
Y157623D01*
X229736Y157290D01*
X230402D01*
X230736Y157623D01*
X232735Y157290D02*
X231402D01*
X232735Y158623D01*
Y158956D01*
X232402Y159289D01*
X231735D01*
X231402Y158956D01*
X233401Y159289D02*
X234734D01*
Y158956D01*
X233401Y157623D01*
Y157290D01*
X205500Y153337D02*
X205167Y153670D01*
X204500D01*
X204167Y153337D01*
Y152004D01*
X204500Y151671D01*
X205167D01*
X205500Y152004D01*
X207499Y151671D02*
X206166D01*
X207499Y153004D01*
Y153337D01*
X207166Y153670D01*
X206499D01*
X206166Y153337D01*
X208166D02*
X208499Y153670D01*
X209165D01*
X209498Y153337D01*
Y153004D01*
X209165Y152671D01*
X208832D01*
X209165D01*
X209498Y152337D01*
Y152004D01*
X209165Y151671D01*
X208499D01*
X208166Y152004D01*
X196554Y154750D02*
X196221Y155083D01*
X195555D01*
X195222Y154750D01*
Y153417D01*
X195555Y153084D01*
X196221D01*
X196554Y153417D01*
X198554Y153084D02*
X197221D01*
X198554Y154417D01*
Y154750D01*
X198221Y155083D01*
X197554D01*
X197221Y154750D01*
X200553Y153084D02*
X199220D01*
X200553Y154417D01*
Y154750D01*
X200220Y155083D01*
X199554D01*
X199220Y154750D01*
X214205Y151595D02*
X213872Y151928D01*
X213206D01*
X212872Y151595D01*
Y150262D01*
X213206Y149928D01*
X213872D01*
X214205Y150262D01*
X216205Y149928D02*
X214872D01*
X216205Y151261D01*
Y151595D01*
X215872Y151928D01*
X215205D01*
X214872Y151595D01*
X216871Y149928D02*
X217538D01*
X217204D01*
Y151928D01*
X216871Y151595D01*
X224119Y213114D02*
X224452Y213448D01*
Y214114D01*
X224119Y214447D01*
X222786D01*
X222453Y214114D01*
Y213448D01*
X222786Y213114D01*
X222453Y211115D02*
Y212448D01*
X223786Y211115D01*
X224119D01*
X224452Y211448D01*
Y212115D01*
X224119Y212448D01*
Y210449D02*
X224452Y210115D01*
Y209449D01*
X224119Y209116D01*
X222786D01*
X222453Y209449D01*
Y210115D01*
X222786Y210449D01*
X224119D01*
X230402Y207710D02*
X230069Y208043D01*
X229403D01*
X229069Y207710D01*
Y206377D01*
X229403Y206044D01*
X230069D01*
X230402Y206377D01*
X231069Y206044D02*
X231735D01*
X231402D01*
Y208043D01*
X231069Y207710D01*
X232735Y206377D02*
X233068Y206044D01*
X233734D01*
X234068Y206377D01*
Y207710D01*
X233734Y208043D01*
X233068D01*
X232735Y207710D01*
Y207377D01*
X233068Y207043D01*
X234068D01*
X228034Y216710D02*
X227700Y217043D01*
X227034D01*
X226701Y216710D01*
Y215377D01*
X227034Y215044D01*
X227700D01*
X228034Y215377D01*
X228700Y215044D02*
X229367D01*
X229033D01*
Y217043D01*
X228700Y216710D01*
X230366D02*
X230699Y217043D01*
X231366D01*
X231699Y216710D01*
Y216376D01*
X231366Y216043D01*
X231699Y215710D01*
Y215377D01*
X231366Y215044D01*
X230699D01*
X230366Y215377D01*
Y215710D01*
X230699Y216043D01*
X230366Y216376D01*
Y216710D01*
X230699Y216043D02*
X231366D01*
X181754Y200719D02*
X182087Y200386D01*
X182754D01*
X183087Y200719D01*
Y202052D01*
X182754Y202385D01*
X182087D01*
X181754Y202052D01*
X181088Y202385D02*
X180421D01*
X180754D01*
Y200386D01*
X181088Y200719D01*
X179422Y200386D02*
X178089D01*
Y200719D01*
X179422Y202052D01*
Y202385D01*
X187737Y211291D02*
X187404Y210958D01*
Y210291D01*
X187737Y209958D01*
X189070D01*
X189403Y210291D01*
Y210958D01*
X189070Y211291D01*
X189403Y211957D02*
Y212624D01*
Y212291D01*
X187404D01*
X187737Y211957D01*
X187404Y214956D02*
X187737Y214290D01*
X188404Y213624D01*
X189070D01*
X189403Y213957D01*
Y214623D01*
X189070Y214956D01*
X188737D01*
X188404Y214623D01*
Y213624D01*
X110880Y186485D02*
X110547Y186818D01*
X109881D01*
X109547Y186485D01*
Y185152D01*
X109881Y184819D01*
X110547D01*
X110880Y185152D01*
X111547Y186485D02*
X111880Y186818D01*
X112547D01*
X112880Y186485D01*
Y186152D01*
X112547Y185818D01*
X112880Y185485D01*
Y185152D01*
X112547Y184819D01*
X111880D01*
X111547Y185152D01*
Y185485D01*
X111880Y185818D01*
X111547Y186152D01*
Y186485D01*
X111880Y185818D02*
X112547D01*
X245950Y4200D02*
X245283D01*
X245616D01*
Y2534D01*
X245283Y2200D01*
X244950D01*
X244617Y2534D01*
X246616Y3867D02*
X246949Y4200D01*
X247616D01*
X247949Y3867D01*
Y3533D01*
X247616Y3200D01*
X247283D01*
X247616D01*
X247949Y2867D01*
Y2534D01*
X247616Y2200D01*
X246949D01*
X246616Y2534D01*
X231974Y80643D02*
Y81976D01*
X231641Y82309D01*
X230975D01*
X230642Y81976D01*
Y80643D01*
X230975Y80310D01*
X231641D01*
X231308Y80976D02*
X231974Y80310D01*
X231641D02*
X231974Y80643D01*
X233641Y80310D02*
Y82309D01*
X232641Y81309D01*
X233974D01*
X200226Y71743D02*
Y70077D01*
X200560Y69744D01*
X201226D01*
X201559Y70077D01*
Y71743D01*
X203559D02*
X202226D01*
Y70744D01*
X202892Y71077D01*
X203225D01*
X203559Y70744D01*
Y70077D01*
X203225Y69744D01*
X202559D01*
X202226Y70077D01*
X106334Y232637D02*
Y230638D01*
X107334D01*
X107667Y230971D01*
Y232304D01*
X107334Y232637D01*
X106334D01*
X108333Y232304D02*
X108667Y232637D01*
X109333D01*
X109666Y232304D01*
Y231971D01*
X109333Y231638D01*
X109000D01*
X109333D01*
X109666Y231305D01*
Y230971D01*
X109333Y230638D01*
X108667D01*
X108333Y230971D01*
X194588Y132234D02*
Y133566D01*
X194254Y133900D01*
X193588D01*
X193255Y133566D01*
Y132234D01*
X193588Y131900D01*
X194254D01*
X193921Y132567D02*
X194588Y131900D01*
X194254D02*
X194588Y132234D01*
X195254Y133566D02*
X195587Y133900D01*
X196254D01*
X196587Y133566D01*
Y133233D01*
X196254Y132900D01*
X195920D01*
X196254D01*
X196587Y132567D01*
Y132234D01*
X196254Y131900D01*
X195587D01*
X195254Y132234D01*
X137667Y164418D02*
X139000Y162419D01*
Y164418D02*
X137667Y162419D01*
X139666D02*
X140333D01*
X140000D01*
Y164418D01*
X139666Y164085D01*
X262933Y32747D02*
X264599D01*
X264933Y33080D01*
Y33747D01*
X264599Y34080D01*
X262933D01*
Y34747D02*
Y36079D01*
X263267D01*
X264599Y34747D01*
X264933D01*
X88166Y236101D02*
Y234435D01*
X88499Y234102D01*
X89165D01*
X89499Y234435D01*
Y236101D01*
X91498D02*
X90831Y235768D01*
X90165Y235102D01*
Y234435D01*
X90498Y234102D01*
X91165D01*
X91498Y234435D01*
Y234768D01*
X91165Y235102D01*
X90165D01*
X19807Y64900D02*
Y63234D01*
X20140Y62900D01*
X20807D01*
X21140Y63234D01*
Y64900D01*
X21806Y64566D02*
X22140Y64900D01*
X22806D01*
X23139Y64566D01*
Y64233D01*
X22806Y63900D01*
X22473D01*
X22806D01*
X23139Y63567D01*
Y63234D01*
X22806Y62900D01*
X22140D01*
X21806Y63234D01*
X42151Y211540D02*
Y209874D01*
X42485Y209540D01*
X43151D01*
X43484Y209874D01*
Y211540D01*
X44151Y209540D02*
X44817D01*
X44484D01*
Y211540D01*
X44151Y211207D01*
X110117Y31568D02*
X111450D01*
X110784D01*
Y29569D01*
X112117D02*
Y31568D01*
X113116D01*
X113450Y31235D01*
Y30569D01*
X113116Y30235D01*
X112117D01*
X114116Y31235D02*
X114449Y31568D01*
X115116D01*
X115449Y31235D01*
Y30902D01*
X115116Y30569D01*
X114782D01*
X115116D01*
X115449Y30235D01*
Y29902D01*
X115116Y29569D01*
X114449D01*
X114116Y29902D01*
X116115Y31568D02*
X117448D01*
Y31235D01*
X116115Y29902D01*
Y29569D01*
X100217Y32168D02*
X101550D01*
X100884D01*
Y30169D01*
X102217D02*
Y32168D01*
X103216D01*
X103550Y31835D01*
Y31168D01*
X103216Y30835D01*
X102217D01*
X104216Y31835D02*
X104549Y32168D01*
X105216D01*
X105549Y31835D01*
Y31502D01*
X105216Y31168D01*
X104882D01*
X105216D01*
X105549Y30835D01*
Y30502D01*
X105216Y30169D01*
X104549D01*
X104216Y30502D01*
X107548Y32168D02*
X106882Y31835D01*
X106215Y31168D01*
Y30502D01*
X106549Y30169D01*
X107215D01*
X107548Y30502D01*
Y30835D01*
X107215Y31168D01*
X106215D01*
X170327Y26731D02*
X171660D01*
X170993D01*
Y24731D01*
X172326D02*
Y26731D01*
X173326D01*
X173659Y26397D01*
Y25731D01*
X173326Y25398D01*
X172326D01*
X174326Y26397D02*
X174659Y26731D01*
X175325D01*
X175659Y26397D01*
Y26064D01*
X175325Y25731D01*
X174992D01*
X175325D01*
X175659Y25398D01*
Y25065D01*
X175325Y24731D01*
X174659D01*
X174326Y25065D01*
X177658Y26731D02*
X176325D01*
Y25731D01*
X176991Y26064D01*
X177325D01*
X177658Y25731D01*
Y25065D01*
X177325Y24731D01*
X176658D01*
X176325Y25065D01*
X79217Y32468D02*
X80550D01*
X79884D01*
Y30469D01*
X81217D02*
Y32468D01*
X82216D01*
X82550Y32135D01*
Y31468D01*
X82216Y31135D01*
X81217D01*
X83216Y32135D02*
X83549Y32468D01*
X84216D01*
X84549Y32135D01*
Y31802D01*
X84216Y31468D01*
X83882D01*
X84216D01*
X84549Y31135D01*
Y30802D01*
X84216Y30469D01*
X83549D01*
X83216Y30802D01*
X86215Y30469D02*
Y32468D01*
X85215Y31468D01*
X86548D01*
X90317Y32468D02*
X91650D01*
X90984D01*
Y30469D01*
X92317D02*
Y32468D01*
X93316D01*
X93650Y32135D01*
Y31468D01*
X93316Y31135D01*
X92317D01*
X94316Y32135D02*
X94649Y32468D01*
X95316D01*
X95649Y32135D01*
Y31802D01*
X95316Y31468D01*
X94982D01*
X95316D01*
X95649Y31135D01*
Y30802D01*
X95316Y30469D01*
X94649D01*
X94316Y30802D01*
X97648Y30469D02*
X96315D01*
X97648Y31802D01*
Y32135D01*
X97315Y32468D01*
X96649D01*
X96315Y32135D01*
X167460Y37856D02*
X168793D01*
X168127D01*
Y35857D01*
X169460D02*
Y37856D01*
X170459D01*
X170792Y37523D01*
Y36856D01*
X170459Y36523D01*
X169460D01*
X171459Y37523D02*
X171792Y37856D01*
X172459D01*
X172792Y37523D01*
Y37190D01*
X172459Y36856D01*
X172125D01*
X172459D01*
X172792Y36523D01*
Y36190D01*
X172459Y35857D01*
X171792D01*
X171459Y36190D01*
X173458Y35857D02*
X174125D01*
X173792D01*
Y37856D01*
X173458Y37523D01*
X304434Y108400D02*
X305767D01*
X305101D01*
Y106400D01*
X306434D02*
Y108400D01*
X307434D01*
X307767Y108066D01*
Y107400D01*
X307434Y107067D01*
X306434D01*
X308433Y108066D02*
X308767Y108400D01*
X309433D01*
X309766Y108066D01*
Y107733D01*
X309433Y107400D01*
X309100D01*
X309433D01*
X309766Y107067D01*
Y106734D01*
X309433Y106400D01*
X308767D01*
X308433Y106734D01*
X310433Y108066D02*
X310766Y108400D01*
X311432D01*
X311766Y108066D01*
Y106734D01*
X311432Y106400D01*
X310766D01*
X310433Y106734D01*
Y108066D01*
X160653Y44222D02*
X161986D01*
X161319D01*
Y42223D01*
X162652D02*
Y44222D01*
X163652D01*
X163985Y43889D01*
Y43222D01*
X163652Y42889D01*
X162652D01*
X165984Y42223D02*
X164652D01*
X165984Y43556D01*
Y43889D01*
X165651Y44222D01*
X164985D01*
X164652Y43889D01*
X166651Y42556D02*
X166984Y42223D01*
X167650D01*
X167984Y42556D01*
Y43889D01*
X167650Y44222D01*
X166984D01*
X166651Y43889D01*
Y43556D01*
X166984Y43222D01*
X167984D01*
X305746Y119529D02*
X307079D01*
X306412D01*
Y117530D01*
X307745D02*
Y119529D01*
X308745D01*
X309078Y119196D01*
Y118529D01*
X308745Y118196D01*
X307745D01*
X311077Y117530D02*
X309744D01*
X311077Y118863D01*
Y119196D01*
X310744Y119529D01*
X310078D01*
X309744Y119196D01*
X311744D02*
X312077Y119529D01*
X312743D01*
X313077Y119196D01*
Y118863D01*
X312743Y118529D01*
X313077Y118196D01*
Y117863D01*
X312743Y117530D01*
X312077D01*
X311744Y117863D01*
Y118196D01*
X312077Y118529D01*
X311744Y118863D01*
Y119196D01*
X312077Y118529D02*
X312743D01*
X296966Y19200D02*
X295633D01*
X296299D01*
Y21200D01*
X294966D02*
Y19200D01*
X293966D01*
X293633Y19534D01*
Y20200D01*
X293966Y20533D01*
X294966D01*
X291634Y21200D02*
X292967D01*
X291634Y19867D01*
Y19534D01*
X291967Y19200D01*
X292634D01*
X292967Y19534D01*
X290967Y19200D02*
X289634D01*
Y19534D01*
X290967Y20866D01*
Y21200D01*
X149934Y44473D02*
X151267D01*
X150601D01*
Y42474D01*
X151934D02*
Y44473D01*
X152934D01*
X153267Y44140D01*
Y43474D01*
X152934Y43140D01*
X151934D01*
X155266Y42474D02*
X153933D01*
X155266Y43807D01*
Y44140D01*
X154933Y44473D01*
X154267D01*
X153933Y44140D01*
X157265Y44473D02*
X156599Y44140D01*
X155933Y43474D01*
Y42807D01*
X156266Y42474D01*
X156932D01*
X157265Y42807D01*
Y43140D01*
X156932Y43474D01*
X155933D01*
X278495Y270840D02*
X279828D01*
X279162D01*
Y268840D01*
X280494D02*
Y270840D01*
X281494D01*
X281827Y270507D01*
Y269840D01*
X281494Y269507D01*
X280494D01*
X283827Y268840D02*
X282494D01*
X283827Y270173D01*
Y270507D01*
X283493Y270840D01*
X282827D01*
X282494Y270507D01*
X285826Y270840D02*
X284493D01*
Y269840D01*
X285159Y270173D01*
X285493D01*
X285826Y269840D01*
Y269174D01*
X285493Y268840D01*
X284826D01*
X284493Y269174D01*
X114029Y245054D02*
X115362D01*
X114696D01*
Y243054D01*
X116029D02*
Y245054D01*
X117028D01*
X117362Y244720D01*
Y244054D01*
X117028Y243721D01*
X116029D01*
X119361Y243054D02*
X118028D01*
X119361Y244387D01*
Y244720D01*
X119028Y245054D01*
X118361D01*
X118028Y244720D01*
X121027Y243054D02*
Y245054D01*
X120027Y244054D01*
X121360D01*
X305163Y129118D02*
X306496D01*
X305830D01*
Y127119D01*
X307162D02*
Y129118D01*
X308162D01*
X308495Y128785D01*
Y128119D01*
X308162Y127785D01*
X307162D01*
X310495Y127119D02*
X309162D01*
X310495Y128452D01*
Y128785D01*
X310161Y129118D01*
X309495D01*
X309162Y128785D01*
X311161D02*
X311494Y129118D01*
X312161D01*
X312494Y128785D01*
Y128452D01*
X312161Y128119D01*
X311828D01*
X312161D01*
X312494Y127785D01*
Y127452D01*
X312161Y127119D01*
X311494D01*
X311161Y127452D01*
X120317Y31868D02*
X121650D01*
X120984D01*
Y29869D01*
X122317D02*
Y31868D01*
X123316D01*
X123650Y31535D01*
Y30869D01*
X123316Y30535D01*
X122317D01*
X125649Y29869D02*
X124316D01*
X125649Y31202D01*
Y31535D01*
X125316Y31868D01*
X124649D01*
X124316Y31535D01*
X127648Y29869D02*
X126315D01*
X127648Y31202D01*
Y31535D01*
X127315Y31868D01*
X126648D01*
X126315Y31535D01*
X291354Y261219D02*
X292687D01*
X292020D01*
Y259220D01*
X293353D02*
Y261219D01*
X294353D01*
X294686Y260886D01*
Y260220D01*
X294353Y259887D01*
X293353D01*
X296686Y259220D02*
X295353D01*
X296686Y260553D01*
Y260886D01*
X296352Y261219D01*
X295686D01*
X295353Y260886D01*
X297352Y259220D02*
X298018D01*
X297685D01*
Y261219D01*
X297352Y260886D01*
X257208Y45084D02*
X258541D01*
X257874D01*
Y43084D01*
X259207D02*
Y45084D01*
X260207D01*
X260540Y44751D01*
Y44084D01*
X260207Y43751D01*
X259207D01*
X261207Y43084D02*
X261873D01*
X261540D01*
Y45084D01*
X261207Y44751D01*
X262873D02*
X263206Y45084D01*
X263873D01*
X264206Y44751D01*
Y44417D01*
X263873Y44084D01*
X264206Y43751D01*
Y43418D01*
X263873Y43084D01*
X263206D01*
X262873Y43418D01*
Y43751D01*
X263206Y44084D01*
X262873Y44417D01*
Y44751D01*
X263206Y44084D02*
X263873D01*
X271178Y12510D02*
X272511D01*
X271845D01*
Y10510D01*
X273178D02*
Y12510D01*
X274177D01*
X274510Y12176D01*
Y11510D01*
X274177Y11177D01*
X273178D01*
X275177Y10510D02*
X275843D01*
X275510D01*
Y12510D01*
X275177Y12176D01*
X276843Y12510D02*
X278176D01*
Y12176D01*
X276843Y10843D01*
Y10510D01*
X9872Y57200D02*
X11205D01*
X10538D01*
Y55200D01*
X11871D02*
Y57200D01*
X12871D01*
X13204Y56867D01*
Y56200D01*
X12871Y55867D01*
X11871D01*
X13871Y55200D02*
X14537D01*
X14204D01*
Y57200D01*
X13871Y56867D01*
X16870Y57200D02*
X16203Y56867D01*
X15537Y56200D01*
Y55534D01*
X15870Y55200D01*
X16536D01*
X16870Y55534D01*
Y55867D01*
X16536Y56200D01*
X15537D01*
X19501Y74900D02*
X20834D01*
X20168D01*
Y72900D01*
X21500D02*
Y74900D01*
X22500D01*
X22833Y74567D01*
Y73900D01*
X22500Y73567D01*
X21500D01*
X23500Y72900D02*
X24166D01*
X23833D01*
Y74900D01*
X23500Y74567D01*
X26499Y74900D02*
X25166D01*
Y73900D01*
X25832Y74233D01*
X26166D01*
X26499Y73900D01*
Y73234D01*
X26166Y72900D01*
X25499D01*
X25166Y73234D01*
X17901Y91200D02*
X19234D01*
X18568D01*
Y89200D01*
X19900D02*
Y91200D01*
X20900D01*
X21233Y90867D01*
Y90200D01*
X20900Y89867D01*
X19900D01*
X21900Y89200D02*
X22566D01*
X22233D01*
Y91200D01*
X21900Y90867D01*
X24566Y89200D02*
Y91200D01*
X23566Y90200D01*
X24899D01*
X17301Y10252D02*
X18634D01*
X17968D01*
Y8252D01*
X19300D02*
Y10252D01*
X20300D01*
X20633Y9918D01*
Y9252D01*
X20300Y8919D01*
X19300D01*
X21300Y8252D02*
X21966D01*
X21633D01*
Y10252D01*
X21300Y9918D01*
X22966D02*
X23299Y10252D01*
X23966D01*
X24299Y9918D01*
Y9585D01*
X23966Y9252D01*
X23632D01*
X23966D01*
X24299Y8919D01*
Y8585D01*
X23966Y8252D01*
X23299D01*
X22966Y8585D01*
X17301Y27800D02*
X18634D01*
X17968D01*
Y25800D01*
X19300D02*
Y27800D01*
X20300D01*
X20633Y27466D01*
Y26800D01*
X20300Y26467D01*
X19300D01*
X21300Y25800D02*
X21966D01*
X21633D01*
Y27800D01*
X21300Y27466D01*
X24299Y25800D02*
X22966D01*
X24299Y27133D01*
Y27466D01*
X23966Y27800D01*
X23299D01*
X22966Y27466D01*
X312055Y230720D02*
Y229387D01*
Y230054D01*
X310056D01*
Y228721D02*
X312055D01*
Y227721D01*
X311722Y227388D01*
X311056D01*
X310722Y227721D01*
Y228721D01*
X310056Y226721D02*
Y226055D01*
Y226388D01*
X312055D01*
X311722Y226721D01*
X310056Y225055D02*
Y224389D01*
Y224722D01*
X312055D01*
X311722Y225055D01*
X289028Y220153D02*
Y218821D01*
Y219487D01*
X287029D01*
Y218154D02*
X289028D01*
Y217154D01*
X288695Y216821D01*
X288029D01*
X287695Y217154D01*
Y218154D01*
X287029Y216155D02*
Y215488D01*
Y215821D01*
X289028D01*
X288695Y216155D01*
Y214489D02*
X289028Y214155D01*
Y213489D01*
X288695Y213156D01*
X287362D01*
X287029Y213489D01*
Y214155D01*
X287362Y214489D01*
X288695D01*
X288805Y225801D02*
Y224801D01*
Y225301D01*
X287306D01*
Y224302D02*
X288805D01*
Y223552D01*
X288555Y223302D01*
X288056D01*
X287806Y223552D01*
Y224302D01*
X287556Y222802D02*
X287306Y222552D01*
Y222052D01*
X287556Y221802D01*
X288555D01*
X288805Y222052D01*
Y222552D01*
X288555Y222802D01*
X288305D01*
X288056Y222552D01*
Y221802D01*
X305599Y143060D02*
Y141727D01*
Y142393D01*
X303600D01*
Y141060D02*
X305599D01*
Y140061D01*
X305266Y139727D01*
X304600D01*
X304266Y140061D01*
Y141060D01*
X305266Y139061D02*
X305599Y138728D01*
Y138061D01*
X305266Y137728D01*
X304933D01*
X304600Y138061D01*
X304266Y137728D01*
X303933D01*
X303600Y138061D01*
Y138728D01*
X303933Y139061D01*
X304266D01*
X304600Y138728D01*
X304933Y139061D01*
X305266D01*
X304600Y138728D02*
Y138061D01*
X285192Y216339D02*
Y215006D01*
Y215672D01*
X283193D01*
Y214339D02*
X285192D01*
Y213339D01*
X284859Y213006D01*
X284193D01*
X283860Y213339D01*
Y214339D01*
X285192Y212340D02*
Y211007D01*
X284859D01*
X283526Y212340D01*
X283193D01*
X268454Y201164D02*
Y202497D01*
Y201830D01*
X270454D01*
Y203163D02*
X268454D01*
Y204163D01*
X268787Y204496D01*
X269454D01*
X269787Y204163D01*
Y203163D01*
X268454Y206495D02*
X268787Y205829D01*
X269454Y205163D01*
X270120D01*
X270454Y205496D01*
Y206162D01*
X270120Y206495D01*
X269787D01*
X269454Y206162D01*
Y205163D01*
X63905Y238945D02*
X65237D01*
X64571D01*
Y236945D01*
X65904D02*
Y238945D01*
X66904D01*
X67237Y238611D01*
Y237945D01*
X66904Y237612D01*
X65904D01*
X69236Y238945D02*
X67903D01*
Y237945D01*
X68570Y238278D01*
X68903D01*
X69236Y237945D01*
Y237278D01*
X68903Y236945D01*
X68237D01*
X67903Y237278D01*
X51793Y206400D02*
X53126D01*
X52459D01*
Y204400D01*
X53792D02*
Y206400D01*
X54792D01*
X55125Y206066D01*
Y205400D01*
X54792Y205067D01*
X53792D01*
X56791Y204400D02*
Y206400D01*
X55791Y205400D01*
X57124D01*
X71240Y266409D02*
X72572D01*
X71906D01*
Y264409D01*
X73239D02*
Y266409D01*
X74239D01*
X74572Y266075D01*
Y265409D01*
X74239Y265076D01*
X73239D01*
X75238Y266075D02*
X75572Y266409D01*
X76238D01*
X76571Y266075D01*
Y265742D01*
X76238Y265409D01*
X75905D01*
X76238D01*
X76571Y265076D01*
Y264743D01*
X76238Y264409D01*
X75572D01*
X75238Y264743D01*
X57433Y225000D02*
X58766D01*
X58099D01*
Y223000D01*
X59432D02*
Y225000D01*
X60432D01*
X60765Y224667D01*
Y224000D01*
X60432Y223667D01*
X59432D01*
X62764Y223000D02*
X61431D01*
X62764Y224333D01*
Y224667D01*
X62431Y225000D01*
X61765D01*
X61431Y224667D01*
X3015Y240681D02*
X4348D01*
X3681D01*
Y238682D01*
X5014D02*
Y240681D01*
X6014D01*
X6347Y240348D01*
Y239682D01*
X6014Y239348D01*
X5014D01*
X7013Y238682D02*
X7680D01*
X7347D01*
Y240681D01*
X7013Y240348D01*
X285548Y145090D02*
X285215Y145423D01*
X284548D01*
X284215Y145090D01*
Y144757D01*
X284548Y144423D01*
X285215D01*
X285548Y144090D01*
Y143757D01*
X285215Y143424D01*
X284548D01*
X284215Y143757D01*
X286215Y145423D02*
Y143424D01*
X287214D01*
X287547Y143757D01*
Y145090D01*
X287214Y145423D01*
X286215D01*
X288214Y143424D02*
X288880D01*
X288547D01*
Y145423D01*
X288214Y145090D01*
X268600Y21234D02*
X266600D01*
Y22234D01*
X266933Y22567D01*
X267600D01*
X267933Y22234D01*
Y21234D01*
Y21901D02*
X268600Y22567D01*
X266933Y23234D02*
X266600Y23567D01*
Y24233D01*
X266933Y24566D01*
X267267D01*
X267600Y24233D01*
Y23900D01*
Y24233D01*
X267933Y24566D01*
X268266D01*
X268600Y24233D01*
Y23567D01*
X268266Y23234D01*
Y25233D02*
X268600Y25566D01*
Y26233D01*
X268266Y26566D01*
X266933D01*
X266600Y26233D01*
Y25566D01*
X266933Y25233D01*
X267267D01*
X267600Y25566D01*
Y26566D01*
X279385Y45534D02*
X277385D01*
Y46534D01*
X277718Y46867D01*
X278385D01*
X278718Y46534D01*
Y45534D01*
Y46201D02*
X279385Y46867D01*
X277718Y47534D02*
X277385Y47867D01*
Y48533D01*
X277718Y48866D01*
X278052D01*
X278385Y48533D01*
Y48200D01*
Y48533D01*
X278718Y48866D01*
X279051D01*
X279385Y48533D01*
Y47867D01*
X279051Y47534D01*
X277718Y49533D02*
X277385Y49866D01*
Y50533D01*
X277718Y50866D01*
X278052D01*
X278385Y50533D01*
X278718Y50866D01*
X279051D01*
X279385Y50533D01*
Y49866D01*
X279051Y49533D01*
X278718D01*
X278385Y49866D01*
X278052Y49533D01*
X277718D01*
X278385Y49866D02*
Y50533D01*
X200100Y64866D02*
X202100D01*
Y63866D01*
X201766Y63533D01*
X201100D01*
X200767Y63866D01*
Y64866D01*
Y64199D02*
X200100Y63533D01*
X201766Y62866D02*
X202100Y62533D01*
Y61867D01*
X201766Y61533D01*
X201433D01*
X201100Y61867D01*
Y62200D01*
Y61867D01*
X200767Y61533D01*
X200433D01*
X200100Y61867D01*
Y62533D01*
X200433Y62866D01*
X202100Y60867D02*
Y59534D01*
X201766D01*
X200433Y60867D01*
X200100D01*
X156234Y62700D02*
Y64700D01*
X157234D01*
X157567Y64367D01*
Y63700D01*
X157234Y63367D01*
X156234D01*
X156901D02*
X157567Y62700D01*
X158233Y64367D02*
X158567Y64700D01*
X159233D01*
X159566Y64367D01*
Y64033D01*
X159233Y63700D01*
X158900D01*
X159233D01*
X159566Y63367D01*
Y63034D01*
X159233Y62700D01*
X158567D01*
X158233Y63034D01*
X161566Y64700D02*
X160899Y64367D01*
X160233Y63700D01*
Y63034D01*
X160566Y62700D01*
X161233D01*
X161566Y63034D01*
Y63367D01*
X161233Y63700D01*
X160233D01*
X169334Y104278D02*
Y106277D01*
X170334D01*
X170667Y105944D01*
Y105277D01*
X170334Y104944D01*
X169334D01*
X170001D02*
X170667Y104278D01*
X171334Y105944D02*
X171667Y106277D01*
X172333D01*
X172667Y105944D01*
Y105611D01*
X172333Y105277D01*
X172000D01*
X172333D01*
X172667Y104944D01*
Y104611D01*
X172333Y104278D01*
X171667D01*
X171334Y104611D01*
X174666Y106277D02*
X173333D01*
Y105277D01*
X173999Y105611D01*
X174333D01*
X174666Y105277D01*
Y104611D01*
X174333Y104278D01*
X173666D01*
X173333Y104611D01*
X206827Y48167D02*
Y50166D01*
X207826D01*
X208160Y49833D01*
Y49166D01*
X207826Y48833D01*
X206827D01*
X207493D02*
X208160Y48167D01*
X208826Y49833D02*
X209159Y50166D01*
X209826D01*
X210159Y49833D01*
Y49499D01*
X209826Y49166D01*
X209492D01*
X209826D01*
X210159Y48833D01*
Y48500D01*
X209826Y48167D01*
X209159D01*
X208826Y48500D01*
X211825Y48167D02*
Y50166D01*
X210825Y49166D01*
X212158D01*
X189942Y72014D02*
X191941D01*
Y71014D01*
X191608Y70681D01*
X190942D01*
X190609Y71014D01*
Y72014D01*
Y71348D02*
X189942Y70681D01*
X191608Y70015D02*
X191941Y69682D01*
Y69015D01*
X191608Y68682D01*
X191275D01*
X190942Y69015D01*
Y69348D01*
Y69015D01*
X190609Y68682D01*
X190275D01*
X189942Y69015D01*
Y69682D01*
X190275Y70015D01*
X191608Y68015D02*
X191941Y67682D01*
Y67016D01*
X191608Y66683D01*
X191275D01*
X190942Y67016D01*
Y67349D01*
Y67016D01*
X190609Y66683D01*
X190275D01*
X189942Y67016D01*
Y67682D01*
X190275Y68015D01*
X162328Y110066D02*
Y112065D01*
X163328D01*
X163661Y111732D01*
Y111066D01*
X163328Y110733D01*
X162328D01*
X162994D02*
X163661Y110066D01*
X164327Y111732D02*
X164660Y112065D01*
X165327D01*
X165660Y111732D01*
Y111399D01*
X165327Y111066D01*
X164994D01*
X165327D01*
X165660Y110733D01*
Y110399D01*
X165327Y110066D01*
X164660D01*
X164327Y110399D01*
X167659Y110066D02*
X166326D01*
X167659Y111399D01*
Y111732D01*
X167326Y112065D01*
X166660D01*
X166326Y111732D01*
X165185Y91671D02*
Y93670D01*
X166185D01*
X166518Y93337D01*
Y92671D01*
X166185Y92337D01*
X165185D01*
X165852D02*
X166518Y91671D01*
X167185Y93337D02*
X167518Y93670D01*
X168184D01*
X168518Y93337D01*
Y93004D01*
X168184Y92671D01*
X167851D01*
X168184D01*
X168518Y92337D01*
Y92004D01*
X168184Y91671D01*
X167518D01*
X167185Y92004D01*
X169184Y91671D02*
X169851D01*
X169517D01*
Y93670D01*
X169184Y93337D01*
X176591Y104278D02*
Y106277D01*
X177590D01*
X177923Y105944D01*
Y105277D01*
X177590Y104944D01*
X176591D01*
X177257D02*
X177923Y104278D01*
X178590Y105944D02*
X178923Y106277D01*
X179589D01*
X179923Y105944D01*
Y105611D01*
X179589Y105277D01*
X179256D01*
X179589D01*
X179923Y104944D01*
Y104611D01*
X179589Y104278D01*
X178923D01*
X178590Y104611D01*
X180589Y105944D02*
X180922Y106277D01*
X181589D01*
X181922Y105944D01*
Y104611D01*
X181589Y104278D01*
X180922D01*
X180589Y104611D01*
Y105944D01*
X81526Y244213D02*
Y246212D01*
X82526D01*
X82859Y245879D01*
Y245213D01*
X82526Y244879D01*
X81526D01*
X82193D02*
X82859Y244213D01*
X84858D02*
X83526D01*
X84858Y245546D01*
Y245879D01*
X84525Y246212D01*
X83859D01*
X83526Y245879D01*
X85525Y244213D02*
X86191D01*
X85858D01*
Y246212D01*
X85525Y245879D01*
X102394Y240163D02*
Y242163D01*
X103394D01*
X103727Y241829D01*
Y241163D01*
X103394Y240830D01*
X102394D01*
X103061D02*
X103727Y240163D01*
X105727D02*
X104394D01*
X105727Y241496D01*
Y241829D01*
X105394Y242163D01*
X104727D01*
X104394Y241829D01*
X106393D02*
X106726Y242163D01*
X107393D01*
X107726Y241829D01*
Y240496D01*
X107393Y240163D01*
X106726D01*
X106393Y240496D01*
Y241829D01*
X88001Y206300D02*
Y208300D01*
X89000D01*
X89334Y207966D01*
Y207300D01*
X89000Y206967D01*
X88001D01*
X88667D02*
X89334Y206300D01*
X90000D02*
X90667D01*
X90333D01*
Y208300D01*
X90000Y207966D01*
X91666Y206634D02*
X92000Y206300D01*
X92666D01*
X92999Y206634D01*
Y207966D01*
X92666Y208300D01*
X92000D01*
X91666Y207966D01*
Y207633D01*
X92000Y207300D01*
X92999D01*
X101299Y222719D02*
X99300D01*
Y223719D01*
X99633Y224052D01*
X100299D01*
X100632Y223719D01*
Y222719D01*
Y223386D02*
X101299Y224052D01*
Y224719D02*
Y225385D01*
Y225052D01*
X99300D01*
X99633Y224719D01*
Y226385D02*
X99300Y226718D01*
Y227385D01*
X99633Y227718D01*
X99966D01*
X100299Y227385D01*
X100632Y227718D01*
X100966D01*
X101299Y227385D01*
Y226718D01*
X100966Y226385D01*
X100632D01*
X100299Y226718D01*
X99966Y226385D01*
X99633D01*
X100299Y226718D02*
Y227385D01*
X70735Y223670D02*
Y225669D01*
X71735D01*
X72068Y225336D01*
Y224669D01*
X71735Y224336D01*
X70735D01*
X71402D02*
X72068Y223670D01*
X72734D02*
X73401D01*
X73068D01*
Y225669D01*
X72734Y225336D01*
X74401Y225669D02*
X75733D01*
Y225336D01*
X74401Y224003D01*
Y223670D01*
X174493Y52749D02*
Y54748D01*
X175493D01*
X175826Y54415D01*
Y53749D01*
X175493Y53416D01*
X174493D01*
X175160D02*
X175826Y52749D01*
X176493D02*
X177159D01*
X176826D01*
Y54748D01*
X176493Y54415D01*
X179492Y54748D02*
X178825Y54415D01*
X178159Y53749D01*
Y53082D01*
X178492Y52749D01*
X179158D01*
X179492Y53082D01*
Y53416D01*
X179158Y53749D01*
X178159D01*
X121593Y229589D02*
Y231588D01*
X122593D01*
X122926Y231255D01*
Y230588D01*
X122593Y230255D01*
X121593D01*
X122260D02*
X122926Y229589D01*
X123593D02*
X124259D01*
X123926D01*
Y231588D01*
X123593Y231255D01*
X126592Y231588D02*
X125259D01*
Y230588D01*
X125925Y230922D01*
X126259D01*
X126592Y230588D01*
Y229922D01*
X126259Y229589D01*
X125592D01*
X125259Y229922D01*
X287029Y202154D02*
X289028D01*
Y201154D01*
X288695Y200821D01*
X288029D01*
X287695Y201154D01*
Y202154D01*
Y201487D02*
X287029Y200821D01*
Y200154D02*
Y199488D01*
Y199821D01*
X289028D01*
X288695Y200154D01*
X287029Y197488D02*
X289028D01*
X288029Y198488D01*
Y197155D01*
X306006Y202714D02*
Y204713D01*
X307006D01*
X307339Y204380D01*
Y203714D01*
X307006Y203380D01*
X306006D01*
X306673D02*
X307339Y202714D01*
X308006D02*
X308672D01*
X308339D01*
Y204713D01*
X308006Y204380D01*
X309672D02*
X310005Y204713D01*
X310671D01*
X311005Y204380D01*
Y204047D01*
X310671Y203714D01*
X310338D01*
X310671D01*
X311005Y203380D01*
Y203047D01*
X310671Y202714D01*
X310005D01*
X309672Y203047D01*
X33150Y84796D02*
Y86795D01*
X34150D01*
X34483Y86462D01*
Y85796D01*
X34150Y85462D01*
X33150D01*
X33817D02*
X34483Y84796D01*
X35150D02*
X35816D01*
X35483D01*
Y86795D01*
X35150Y86462D01*
X38149Y84796D02*
X36816D01*
X38149Y86129D01*
Y86462D01*
X37816Y86795D01*
X37149D01*
X36816Y86462D01*
X46334Y86300D02*
Y88300D01*
X47334D01*
X47667Y87967D01*
Y87300D01*
X47334Y86967D01*
X46334D01*
X47001D02*
X47667Y86300D01*
X48333D02*
X49000D01*
X48667D01*
Y88300D01*
X48333Y87967D01*
X49999Y86300D02*
X50666D01*
X50333D01*
Y88300D01*
X49999Y87967D01*
X288679Y212104D02*
X290679D01*
Y211104D01*
X290345Y210771D01*
X289679D01*
X289346Y211104D01*
Y212104D01*
Y211438D02*
X288679Y210771D01*
Y210105D02*
Y209438D01*
Y209771D01*
X290679D01*
X290345Y210105D01*
Y208439D02*
X290679Y208105D01*
Y207439D01*
X290345Y207106D01*
X289012D01*
X288679Y207439D01*
Y208105D01*
X289012Y208439D01*
X290345D01*
X288579Y222735D02*
X290579D01*
Y221735D01*
X290245Y221402D01*
X289579D01*
X289246Y221735D01*
Y222735D01*
Y222068D02*
X288579Y221402D01*
X288912Y220736D02*
X288579Y220402D01*
Y219736D01*
X288912Y219403D01*
X290245D01*
X290579Y219736D01*
Y220402D01*
X290245Y220736D01*
X289912D01*
X289579Y220402D01*
Y219403D01*
X308787Y215021D02*
X310787D01*
Y214021D01*
X310454Y213688D01*
X309787D01*
X309454Y214021D01*
Y215021D01*
Y214354D02*
X308787Y213688D01*
X310454Y213021D02*
X310787Y212688D01*
Y212022D01*
X310454Y211688D01*
X310120D01*
X309787Y212022D01*
X309454Y211688D01*
X309121D01*
X308787Y212022D01*
Y212688D01*
X309121Y213021D01*
X309454D01*
X309787Y212688D01*
X310120Y213021D01*
X310454D01*
X309787Y212688D02*
Y212022D01*
X6334Y199300D02*
Y201300D01*
X7334D01*
X7667Y200967D01*
Y200300D01*
X7334Y199967D01*
X6334D01*
X7000D02*
X7667Y199300D01*
X8333Y201300D02*
X9666D01*
Y200967D01*
X8333Y199634D01*
Y199300D01*
X31593Y217264D02*
Y219264D01*
X32593D01*
X32926Y218930D01*
Y218264D01*
X32593Y217931D01*
X31593D01*
X32260D02*
X32926Y217264D01*
X34926Y219264D02*
X33593D01*
Y218264D01*
X34259Y218597D01*
X34592D01*
X34926Y218264D01*
Y217597D01*
X34592Y217264D01*
X33926D01*
X33593Y217597D01*
X20834Y218229D02*
Y220228D01*
X21834D01*
X22167Y219895D01*
Y219228D01*
X21834Y218895D01*
X20834D01*
X21500D02*
X22167Y218229D01*
X23833D02*
Y220228D01*
X22833Y219228D01*
X24166D01*
X3681Y223985D02*
Y225984D01*
X4681D01*
X5014Y225651D01*
Y224984D01*
X4681Y224651D01*
X3681D01*
X4348D02*
X5014Y223985D01*
X5680Y225651D02*
X6014Y225984D01*
X6680D01*
X7013Y225651D01*
Y225318D01*
X6680Y224984D01*
X6347D01*
X6680D01*
X7013Y224651D01*
Y224318D01*
X6680Y223985D01*
X6014D01*
X5680Y224318D01*
X45637Y224700D02*
Y226700D01*
X46637D01*
X46970Y226366D01*
Y225700D01*
X46637Y225367D01*
X45637D01*
X46303D02*
X46970Y224700D01*
X48969D02*
X47636D01*
X48969Y226033D01*
Y226366D01*
X48636Y226700D01*
X47970D01*
X47636Y226366D01*
X35170Y230638D02*
Y232637D01*
X36170D01*
X36503Y232304D01*
Y231638D01*
X36170Y231305D01*
X35170D01*
X35837D02*
X36503Y230638D01*
X37170D02*
X37836D01*
X37503D01*
Y232637D01*
X37170Y232304D01*
X302798Y29357D02*
Y31356D01*
X303798D01*
X304131Y31023D01*
Y30356D01*
X303798Y30023D01*
X302798D01*
X304797Y31023D02*
X305131Y31356D01*
X305797D01*
X306130Y31023D01*
Y30690D01*
X305797Y30356D01*
X305464D01*
X305797D01*
X306130Y30023D01*
Y29690D01*
X305797Y29357D01*
X305131D01*
X304797Y29690D01*
X293934Y84100D02*
Y86100D01*
X294934D01*
X295267Y85767D01*
Y85100D01*
X294934Y84767D01*
X293934D01*
X297266Y84100D02*
X295933D01*
X297266Y85433D01*
Y85767D01*
X296933Y86100D01*
X296267D01*
X295933Y85767D01*
X79167Y253500D02*
Y255500D01*
X80167D01*
X80500Y255167D01*
Y254500D01*
X80167Y254167D01*
X79167D01*
X81166Y253500D02*
X81833D01*
X81500D01*
Y255500D01*
X81166Y255167D01*
X244957Y149811D02*
Y147812D01*
X246290D01*
X248289D02*
X246956D01*
X248289Y149144D01*
Y149478D01*
X247956Y149811D01*
X247289D01*
X246956Y149478D01*
X309453Y252449D02*
Y251783D01*
Y252116D01*
X311119D01*
X311452Y251783D01*
Y251449D01*
X311119Y251116D01*
X311452Y254449D02*
Y253116D01*
X310119Y254449D01*
X309786D01*
X309453Y254115D01*
Y253449D01*
X309786Y253116D01*
X20252Y269368D02*
X19586D01*
X19919D01*
Y267702D01*
X19586Y267368D01*
X19252D01*
X18919Y267702D01*
X20918Y267368D02*
X21585D01*
X21252D01*
Y269368D01*
X20918Y269035D01*
X306067Y22600D02*
X304734D01*
Y21600D01*
X305401D01*
X304734D01*
Y20600D01*
X306734Y22600D02*
Y20600D01*
X307733D01*
X308066Y20934D01*
Y22266D01*
X307733Y22600D01*
X306734D01*
X308733Y22266D02*
X309066Y22600D01*
X309733D01*
X310066Y22266D01*
Y21933D01*
X309733Y21600D01*
X309399D01*
X309733D01*
X310066Y21267D01*
Y20934D01*
X309733Y20600D01*
X309066D01*
X308733Y20934D01*
X4835Y19800D02*
X3502D01*
Y18800D01*
X4168D01*
X3502D01*
Y17800D01*
X5501Y19800D02*
Y17800D01*
X6501D01*
X6834Y18134D01*
Y19466D01*
X6501Y19800D01*
X5501D01*
X8833Y17800D02*
X7501D01*
X8833Y19133D01*
Y19466D01*
X8500Y19800D01*
X7834D01*
X7501Y19466D01*
X4533Y250470D02*
X3200D01*
Y249470D01*
X3866D01*
X3200D01*
Y248470D01*
X5199Y250470D02*
Y248470D01*
X6199D01*
X6532Y248804D01*
Y250136D01*
X6199Y250470D01*
X5199D01*
X7198Y248470D02*
X7865D01*
X7532D01*
Y250470D01*
X7198Y250136D01*
X19593Y239944D02*
X18260D01*
Y238945D01*
X18927D01*
X18260D01*
Y237945D01*
X20260Y239944D02*
Y237945D01*
X21259D01*
X21593Y238278D01*
Y238611D01*
X21259Y238945D01*
X20260D01*
X21259D01*
X21593Y239278D01*
Y239611D01*
X21259Y239944D01*
X20260D01*
X22259Y237945D02*
X22926D01*
X22592D01*
Y239944D01*
X22259Y239611D01*
X16801Y189800D02*
Y187800D01*
X17801D01*
X18134Y188134D01*
Y189467D01*
X17801Y189800D01*
X16801D01*
X20133Y189467D02*
X19800Y189800D01*
X19134D01*
X18801Y189467D01*
Y189133D01*
X19134Y188800D01*
X19800D01*
X20133Y188467D01*
Y188134D01*
X19800Y187800D01*
X19134D01*
X18801Y188134D01*
X20800Y187800D02*
X21466D01*
X21133D01*
Y189800D01*
X20800Y189467D01*
X268134Y74266D02*
Y72267D01*
X269134D01*
X269467Y72600D01*
Y73933D01*
X269134Y74266D01*
X268134D01*
X270133Y73933D02*
X270466Y74266D01*
X271133D01*
X271466Y73933D01*
Y73599D01*
X271133Y73266D01*
X271466Y72933D01*
Y72600D01*
X271133Y72267D01*
X270466D01*
X270133Y72600D01*
Y72933D01*
X270466Y73266D01*
X270133Y73599D01*
Y73933D01*
X270466Y73266D02*
X271133D01*
X209255Y25765D02*
Y23766D01*
X210255D01*
X210588Y24099D01*
Y25432D01*
X210255Y25765D01*
X209255D01*
X211254D02*
X212587D01*
Y25432D01*
X211254Y24099D01*
Y23766D01*
X12602Y209567D02*
Y207568D01*
X13601D01*
X13935Y207901D01*
Y209234D01*
X13601Y209567D01*
X12602D01*
X15934D02*
X14601D01*
Y208568D01*
X15267Y208901D01*
X15601D01*
X15934Y208568D01*
Y207901D01*
X15601Y207568D01*
X14934D01*
X14601Y207901D01*
X100135Y208300D02*
Y206300D01*
X101135D01*
X101468Y206634D01*
Y207966D01*
X101135Y208300D01*
X100135D01*
X103134Y206300D02*
Y208300D01*
X102135Y207300D01*
X103467D01*
X49854Y245900D02*
Y243900D01*
X50854D01*
X51187Y244234D01*
Y245567D01*
X50854Y245900D01*
X49854D01*
X51853Y243900D02*
X52520D01*
X52187D01*
Y245900D01*
X51853Y245567D01*
X171798Y42012D02*
X171465Y42345D01*
X170798D01*
X170465Y42012D01*
Y40679D01*
X170798Y40346D01*
X171465D01*
X171798Y40679D01*
X173464Y40346D02*
Y42345D01*
X172465Y41346D01*
X173797D01*
X174464Y40346D02*
X175130D01*
X174797D01*
Y42345D01*
X174464Y42012D01*
X173160Y144766D02*
X172826Y145100D01*
X172160D01*
X171827Y144766D01*
Y143434D01*
X172160Y143100D01*
X172826D01*
X173160Y143434D01*
X174826Y143100D02*
Y145100D01*
X173826Y144100D01*
X175159D01*
X175825Y144766D02*
X176159Y145100D01*
X176825D01*
X177158Y144766D01*
Y143434D01*
X176825Y143100D01*
X176159D01*
X175825Y143434D01*
Y144766D01*
X284434Y38467D02*
X284100Y38134D01*
Y37467D01*
X284434Y37134D01*
X285766D01*
X286100Y37467D01*
Y38134D01*
X285766Y38467D01*
X284434Y39134D02*
X284100Y39467D01*
Y40133D01*
X284434Y40466D01*
X284767D01*
X285100Y40133D01*
Y39800D01*
Y40133D01*
X285433Y40466D01*
X285766D01*
X286100Y40133D01*
Y39467D01*
X285766Y39134D01*
X284434Y41133D02*
X284100Y41466D01*
Y42133D01*
X284434Y42466D01*
X284767D01*
X285100Y42133D01*
X285433Y42466D01*
X285766D01*
X286100Y42133D01*
Y41466D01*
X285766Y41133D01*
X285433D01*
X285100Y41466D01*
X284767Y41133D01*
X284434D01*
X285100Y41466D02*
Y42133D01*
X176167Y58467D02*
X175834Y58800D01*
X175167D01*
X174834Y58467D01*
Y57134D01*
X175167Y56800D01*
X175834D01*
X176167Y57134D01*
X176833Y58467D02*
X177167Y58800D01*
X177833D01*
X178166Y58467D01*
Y58133D01*
X177833Y57800D01*
X177500D01*
X177833D01*
X178166Y57467D01*
Y57134D01*
X177833Y56800D01*
X177167D01*
X176833Y57134D01*
X178833Y58800D02*
X180166D01*
Y58467D01*
X178833Y57134D01*
Y56800D01*
X162367Y75010D02*
X162034Y75343D01*
X161367D01*
X161034Y75010D01*
Y73677D01*
X161367Y73344D01*
X162034D01*
X162367Y73677D01*
X163033Y75010D02*
X163367Y75343D01*
X164033D01*
X164366Y75010D01*
Y74677D01*
X164033Y74344D01*
X163700D01*
X164033D01*
X164366Y74010D01*
Y73677D01*
X164033Y73344D01*
X163367D01*
X163033Y73677D01*
X166366Y75343D02*
X165699Y75010D01*
X165033Y74344D01*
Y73677D01*
X165366Y73344D01*
X166033D01*
X166366Y73677D01*
Y74010D01*
X166033Y74344D01*
X165033D01*
X171334Y76510D02*
X171000Y76177D01*
Y75510D01*
X171334Y75177D01*
X172666D01*
X173000Y75510D01*
Y76177D01*
X172666Y76510D01*
X171334Y77176D02*
X171000Y77509D01*
Y78176D01*
X171334Y78509D01*
X171667D01*
X172000Y78176D01*
Y77843D01*
Y78176D01*
X172333Y78509D01*
X172666D01*
X173000Y78176D01*
Y77509D01*
X172666Y77176D01*
X171000Y80509D02*
Y79176D01*
X172000D01*
X171667Y79842D01*
Y80175D01*
X172000Y80509D01*
X172666D01*
X173000Y80175D01*
Y79509D01*
X172666Y79176D01*
X168851Y72219D02*
X168518Y72552D01*
X167851D01*
X167518Y72219D01*
Y70886D01*
X167851Y70552D01*
X168518D01*
X168851Y70886D01*
X169517Y72219D02*
X169851Y72552D01*
X170517D01*
X170850Y72219D01*
Y71885D01*
X170517Y71552D01*
X170184D01*
X170517D01*
X170850Y71219D01*
Y70886D01*
X170517Y70552D01*
X169851D01*
X169517Y70886D01*
X172517Y70552D02*
Y72552D01*
X171517Y71552D01*
X172850D01*
X229567Y86366D02*
X229234Y86700D01*
X228567D01*
X228234Y86366D01*
Y85034D01*
X228567Y84700D01*
X229234D01*
X229567Y85034D01*
X230234Y86366D02*
X230567Y86700D01*
X231233D01*
X231566Y86366D01*
Y86033D01*
X231233Y85700D01*
X230900D01*
X231233D01*
X231566Y85367D01*
Y85034D01*
X231233Y84700D01*
X230567D01*
X230234Y85034D01*
X232233Y86366D02*
X232566Y86700D01*
X233233D01*
X233566Y86366D01*
Y86033D01*
X233233Y85700D01*
X232899D01*
X233233D01*
X233566Y85367D01*
Y85034D01*
X233233Y84700D01*
X232566D01*
X232233Y85034D01*
X195560Y48210D02*
X195226Y48544D01*
X194560D01*
X194227Y48210D01*
Y46878D01*
X194560Y46544D01*
X195226D01*
X195560Y46878D01*
X196226Y48210D02*
X196559Y48544D01*
X197226D01*
X197559Y48210D01*
Y47877D01*
X197226Y47544D01*
X196892D01*
X197226D01*
X197559Y47211D01*
Y46878D01*
X197226Y46544D01*
X196559D01*
X196226Y46878D01*
X199558Y46544D02*
X198225D01*
X199558Y47877D01*
Y48210D01*
X199225Y48544D01*
X198559D01*
X198225Y48210D01*
X188239Y48267D02*
X187905Y48600D01*
X187239D01*
X186906Y48267D01*
Y46934D01*
X187239Y46600D01*
X187905D01*
X188239Y46934D01*
X188905Y48267D02*
X189238Y48600D01*
X189905D01*
X190238Y48267D01*
Y47933D01*
X189905Y47600D01*
X189571D01*
X189905D01*
X190238Y47267D01*
Y46934D01*
X189905Y46600D01*
X189238D01*
X188905Y46934D01*
X190904Y46600D02*
X191571D01*
X191237D01*
Y48600D01*
X190904Y48267D01*
X205467Y145667D02*
X205134Y146000D01*
X204467D01*
X204134Y145667D01*
Y144334D01*
X204467Y144000D01*
X205134D01*
X205467Y144334D01*
X206134Y145667D02*
X206467Y146000D01*
X207133D01*
X207466Y145667D01*
Y145333D01*
X207133Y145000D01*
X206800D01*
X207133D01*
X207466Y144667D01*
Y144334D01*
X207133Y144000D01*
X206467D01*
X206134Y144334D01*
X208133Y145667D02*
X208466Y146000D01*
X209133D01*
X209466Y145667D01*
Y144334D01*
X209133Y144000D01*
X208466D01*
X208133Y144334D01*
Y145667D01*
X220147Y97305D02*
X219813Y97639D01*
X219147D01*
X218814Y97305D01*
Y95973D01*
X219147Y95639D01*
X219813D01*
X220147Y95973D01*
X222146Y95639D02*
X220813D01*
X222146Y96972D01*
Y97305D01*
X221813Y97639D01*
X221146D01*
X220813Y97305D01*
X222812Y95973D02*
X223146Y95639D01*
X223812D01*
X224145Y95973D01*
Y97305D01*
X223812Y97639D01*
X223146D01*
X222812Y97305D01*
Y96972D01*
X223146Y96639D01*
X224145D01*
X154367Y88266D02*
X154034Y88600D01*
X153367D01*
X153034Y88266D01*
Y86934D01*
X153367Y86600D01*
X154034D01*
X154367Y86934D01*
X156367Y86600D02*
X155034D01*
X156367Y87933D01*
Y88266D01*
X156033Y88600D01*
X155367D01*
X155034Y88266D01*
X157033D02*
X157366Y88600D01*
X158033D01*
X158366Y88266D01*
Y87933D01*
X158033Y87600D01*
X158366Y87267D01*
Y86934D01*
X158033Y86600D01*
X157366D01*
X157033Y86934D01*
Y87267D01*
X157366Y87600D01*
X157033Y87933D01*
Y88266D01*
X157366Y87600D02*
X158033D01*
X65237Y217238D02*
X64904Y217571D01*
X64238D01*
X63905Y217238D01*
Y215905D01*
X64238Y215572D01*
X64904D01*
X65237Y215905D01*
X67237Y215572D02*
X65904D01*
X67237Y216905D01*
Y217238D01*
X66904Y217571D01*
X66237D01*
X65904Y217238D01*
X69236Y217571D02*
X68570Y217238D01*
X67903Y216572D01*
Y215905D01*
X68237Y215572D01*
X68903D01*
X69236Y215905D01*
Y216238D01*
X68903Y216572D01*
X67903D01*
X119267Y215506D02*
X118934Y215840D01*
X118267D01*
X117934Y215506D01*
Y214173D01*
X118267Y213840D01*
X118934D01*
X119267Y214173D01*
X121266Y213840D02*
X119933D01*
X121266Y215173D01*
Y215506D01*
X120933Y215840D01*
X120267D01*
X119933Y215506D01*
X123266Y215840D02*
X121933D01*
Y214840D01*
X122599Y215173D01*
X122933D01*
X123266Y214840D01*
Y214173D01*
X122933Y213840D01*
X122266D01*
X121933Y214173D01*
X69620Y243703D02*
X69287Y244037D01*
X68620D01*
X68287Y243703D01*
Y242371D01*
X68620Y242037D01*
X69287D01*
X69620Y242371D01*
X71619Y242037D02*
X70286D01*
X71619Y243370D01*
Y243703D01*
X71286Y244037D01*
X70619D01*
X70286Y243703D01*
X73285Y242037D02*
Y244037D01*
X72285Y243037D01*
X73618D01*
X296203Y201202D02*
X296537Y201535D01*
Y202202D01*
X296203Y202535D01*
X294871D01*
X294537Y202202D01*
Y201535D01*
X294871Y201202D01*
X294537Y200536D02*
Y199869D01*
Y200202D01*
X296537D01*
X296203Y200536D01*
X296537Y197537D02*
Y198870D01*
X295537D01*
X295870Y198203D01*
Y197870D01*
X295537Y197537D01*
X294871D01*
X294537Y197870D01*
Y198536D01*
X294871Y198870D01*
X152400Y159876D02*
X152733Y160210D01*
Y160876D01*
X152400Y161209D01*
X151067D01*
X150733Y160876D01*
Y160210D01*
X151067Y159876D01*
X150733Y159210D02*
Y158544D01*
Y158877D01*
X152733D01*
X152400Y159210D01*
X150733Y156544D02*
X152733D01*
X151733Y157544D01*
Y156211D01*
X152079Y147348D02*
X152413Y147681D01*
Y148348D01*
X152079Y148681D01*
X150747D01*
X150413Y148348D01*
Y147681D01*
X150747Y147348D01*
X150413Y146682D02*
Y146015D01*
Y146348D01*
X152413D01*
X152079Y146682D01*
Y145016D02*
X152413Y144682D01*
Y144016D01*
X152079Y143683D01*
X151746D01*
X151413Y144016D01*
Y144349D01*
Y144016D01*
X151080Y143683D01*
X150747D01*
X150413Y144016D01*
Y144682D01*
X150747Y145016D01*
X41934Y70166D02*
X41600Y70500D01*
X40934D01*
X40601Y70166D01*
Y68834D01*
X40934Y68500D01*
X41600D01*
X41934Y68834D01*
X42600Y68500D02*
X43267D01*
X42933D01*
Y70500D01*
X42600Y70166D01*
X45599Y68500D02*
X44266D01*
X45599Y69833D01*
Y70166D01*
X45266Y70500D01*
X44600D01*
X44266Y70166D01*
X151210Y113068D02*
X150877Y113401D01*
X150211D01*
X149878Y113068D01*
Y111735D01*
X150211Y111402D01*
X150877D01*
X151210Y111735D01*
X151877Y111402D02*
X152543D01*
X152210D01*
Y113401D01*
X151877Y113068D01*
X153543Y111402D02*
X154209D01*
X153876D01*
Y113401D01*
X153543Y113068D01*
X58641Y93167D02*
X58308Y93500D01*
X57641D01*
X57308Y93167D01*
Y91834D01*
X57641Y91500D01*
X58308D01*
X58641Y91834D01*
X59307Y91500D02*
X59974D01*
X59641D01*
Y93500D01*
X59307Y93167D01*
X60974D02*
X61307Y93500D01*
X61973D01*
X62306Y93167D01*
Y91834D01*
X61973Y91500D01*
X61307D01*
X60974Y91834D01*
Y93167D01*
X132730Y249171D02*
X133063Y248837D01*
X133730D01*
X134063Y249171D01*
Y250504D01*
X133730Y250837D01*
X133063D01*
X132730Y250504D01*
X132064D02*
X131730Y250837D01*
X131064D01*
X130731Y250504D01*
Y249171D01*
X131064Y248837D01*
X131730D01*
X132064Y249171D01*
Y249504D01*
X131730Y249837D01*
X130731D01*
X27580Y218123D02*
X27247Y218456D01*
X26581D01*
X26247Y218123D01*
Y216790D01*
X26581Y216457D01*
X27247D01*
X27580Y216790D01*
X28247Y218456D02*
X29579D01*
Y218123D01*
X28247Y216790D01*
Y216457D01*
X57099Y233033D02*
X56766Y233366D01*
X56100D01*
X55766Y233033D01*
Y231700D01*
X56100Y231366D01*
X56766D01*
X57099Y231700D01*
X59099Y233366D02*
X58432Y233033D01*
X57766Y232366D01*
Y231700D01*
X58099Y231366D01*
X58766D01*
X59099Y231700D01*
Y232033D01*
X58766Y232366D01*
X57766D01*
X31217Y231836D02*
X30883Y232169D01*
X30217D01*
X29884Y231836D01*
Y230503D01*
X30217Y230169D01*
X30883D01*
X31217Y230503D01*
X33216Y232169D02*
X31883D01*
Y231169D01*
X32550Y231502D01*
X32883D01*
X33216Y231169D01*
Y230503D01*
X32883Y230169D01*
X32216D01*
X31883Y230503D01*
X14667Y257566D02*
X14334Y257900D01*
X13667D01*
X13334Y257566D01*
Y256234D01*
X13667Y255900D01*
X14334D01*
X14667Y256234D01*
X16333Y255900D02*
Y257900D01*
X15333Y256900D01*
X16666D01*
X20260Y253766D02*
X19927Y254100D01*
X19260D01*
X18927Y253766D01*
Y252434D01*
X19260Y252100D01*
X19927D01*
X20260Y252434D01*
X20926Y253766D02*
X21259Y254100D01*
X21926D01*
X22259Y253766D01*
Y253433D01*
X21926Y253100D01*
X21593D01*
X21926D01*
X22259Y252767D01*
Y252434D01*
X21926Y252100D01*
X21259D01*
X20926Y252434D01*
X23790Y250596D02*
X23457Y250263D01*
Y249596D01*
X23790Y249263D01*
X25123D01*
X25456Y249596D01*
Y250263D01*
X25123Y250596D01*
X25456Y252595D02*
Y251262D01*
X24124Y252595D01*
X23790D01*
X23457Y252262D01*
Y251596D01*
X23790Y251262D01*
X15772Y237100D02*
X15438Y237433D01*
X14772D01*
X14439Y237100D01*
Y235767D01*
X14772Y235433D01*
X15438D01*
X15772Y235767D01*
X16438Y235433D02*
X17105D01*
X16771D01*
Y237433D01*
X16438Y237100D01*
X18467Y41800D02*
Y39800D01*
X19467D01*
X19800Y40134D01*
Y40467D01*
X19467Y40800D01*
X18467D01*
X19467D01*
X19800Y41133D01*
Y41467D01*
X19467Y41800D01*
X18467D01*
X20467Y39800D02*
X21133D01*
X20800D01*
Y41800D01*
X20467Y41467D01*
D16*
X8900Y49700D02*
X11900D01*
X8900Y31700D02*
X11900D01*
X16900Y35700D02*
Y45700D01*
X3900Y35700D02*
Y45700D01*
X125162Y89156D02*
X123496D01*
Y86657D01*
X125162D01*
X123496Y87906D02*
X124329D01*
X127661Y88739D02*
X127245Y89156D01*
X126411D01*
X125995Y88739D01*
Y88323D01*
X126411Y87906D01*
X127245D01*
X127661Y87490D01*
Y87073D01*
X127245Y86657D01*
X126411D01*
X125995Y87073D01*
X130160Y89156D02*
X128494D01*
Y86657D01*
X130160D01*
X128494Y87906D02*
X129327D01*
X132659Y89156D02*
X130993D01*
Y87906D01*
X131826Y88323D01*
X132243D01*
X132659Y87906D01*
Y87073D01*
X132243Y86657D01*
X131410D01*
X130993Y87073D01*
X133493Y86657D02*
X134326D01*
X133909D01*
Y89156D01*
X133493Y88739D01*
X137241Y89156D02*
X136408Y88739D01*
X135575Y87906D01*
Y87073D01*
X135992Y86657D01*
X136825D01*
X137241Y87073D01*
Y87490D01*
X136825Y87906D01*
X135575D01*
X123496Y81738D02*
Y84237D01*
X124745D01*
X125162Y83820D01*
Y82987D01*
X124745Y82571D01*
X123496D01*
X127661Y83820D02*
X127245Y84237D01*
X126411D01*
X125995Y83820D01*
Y82154D01*
X126411Y81738D01*
X127245D01*
X127661Y82154D01*
X128494Y84237D02*
Y81738D01*
X129744D01*
X130160Y82154D01*
Y82571D01*
X129744Y82987D01*
X128494D01*
X129744D01*
X130160Y83404D01*
Y83820D01*
X129744Y84237D01*
X128494D01*
X133493Y81738D02*
Y84237D01*
X134742D01*
X135159Y83820D01*
Y82987D01*
X134742Y82571D01*
X133493D01*
X135992Y83404D02*
Y81738D01*
Y82571D01*
X136408Y82987D01*
X136825Y83404D01*
X137241D01*
X138907Y81738D02*
X139741D01*
X140157Y82154D01*
Y82987D01*
X139741Y83404D01*
X138907D01*
X138491Y82987D01*
Y82154D01*
X138907Y81738D01*
X140990Y80905D02*
X141407D01*
X141823Y81321D01*
Y83404D01*
X144739Y81738D02*
X143906D01*
X143489Y82154D01*
Y82987D01*
X143906Y83404D01*
X144739D01*
X145155Y82987D01*
Y82571D01*
X143489D01*
X147655Y83404D02*
X146405D01*
X145989Y82987D01*
Y82154D01*
X146405Y81738D01*
X147655D01*
X148904Y83820D02*
Y83404D01*
X148488D01*
X149321D01*
X148904D01*
Y82154D01*
X149321Y81738D01*
X123496Y75985D02*
Y78485D01*
X124745D01*
X125162Y78068D01*
Y77235D01*
X124745Y76819D01*
X123496D01*
X124329D02*
X125162Y75985D01*
X127245D02*
X126411D01*
X125995Y76402D01*
Y77235D01*
X126411Y77652D01*
X127245D01*
X127661Y77235D01*
Y76819D01*
X125995D01*
X128494Y77652D02*
X129327Y75985D01*
X130160Y77652D01*
X133493Y75985D02*
X134326D01*
X133909D01*
Y78485D01*
X133493Y78068D01*
X135575Y75985D02*
Y76402D01*
X135992D01*
Y75985D01*
X135575D01*
X137658Y78068D02*
X138074Y78485D01*
X138907D01*
X139324Y78068D01*
Y76402D01*
X138907Y75985D01*
X138074D01*
X137658Y76402D01*
Y78068D01*
X140157Y75985D02*
Y76402D01*
X140574D01*
Y75985D01*
X140157D01*
X142240Y78068D02*
X142656Y78485D01*
X143489D01*
X143906Y78068D01*
Y76402D01*
X143489Y75985D01*
X142656D01*
X142240Y76402D01*
Y78068D01*
X42928Y49366D02*
Y48950D01*
X43761Y48116D01*
X44594Y48950D01*
Y49366D01*
X43761Y48116D02*
Y46867D01*
X45427Y48533D02*
Y47283D01*
X45843Y46867D01*
X47093D01*
Y48533D01*
X47926D02*
X49592Y46867D01*
X48759Y47700D01*
X49592Y48533D01*
X47926Y46867D01*
X50425D02*
X51258D01*
X50842D01*
Y48533D01*
X50425D01*
X52508Y46867D02*
Y48533D01*
X53758D01*
X54174Y48116D01*
Y46867D01*
X57506Y49366D02*
Y46867D01*
X58339Y47700D01*
X59172Y46867D01*
Y49366D01*
X60422Y48533D02*
X61255D01*
X61672Y48116D01*
Y46867D01*
X60422D01*
X60005Y47283D01*
X60422Y47700D01*
X61672D01*
X62505Y46867D02*
Y48533D01*
X63754D01*
X64171Y48116D01*
Y46867D01*
X65837Y46034D02*
X66254D01*
X66670Y46450D01*
Y48533D01*
X65420D01*
X65004Y48116D01*
Y47283D01*
X65420Y46867D01*
X66670D01*
X42928Y43614D02*
X44594Y41115D01*
Y43614D02*
X42928Y41115D01*
X45427D02*
X46260D01*
X45843D01*
Y42781D01*
X45427D01*
X47510Y41115D02*
Y42781D01*
X48759D01*
X49176Y42364D01*
Y41115D01*
X50009Y42781D02*
Y41531D01*
X50425Y41115D01*
X51675D01*
Y40698D01*
X51258Y40282D01*
X50842D01*
X51675Y41115D02*
Y42781D01*
X52925D02*
X53758D01*
X54174Y42364D01*
Y41115D01*
X52925D01*
X52508Y41531D01*
X52925Y41948D01*
X54174D01*
X55007Y41115D02*
Y42781D01*
X56257D01*
X56673Y42364D01*
Y41115D01*
X58339Y40282D02*
X58756D01*
X59172Y40698D01*
Y42781D01*
X57923D01*
X57506Y42364D01*
Y41531D01*
X57923Y41115D01*
X59172D01*
X62505Y43614D02*
X64171D01*
X63338D01*
Y41115D01*
X65420Y42781D02*
X66254D01*
X66670Y42364D01*
Y41115D01*
X65420D01*
X65004Y41531D01*
X65420Y41948D01*
X66670D01*
X67503Y41115D02*
Y42781D01*
X68753D01*
X69169Y42364D01*
Y41115D01*
X43971Y173199D02*
Y169867D01*
X44637Y169201D01*
X45970D01*
X46637Y169867D01*
Y173199D01*
X49969Y169201D02*
Y173199D01*
X47970Y171200D01*
X50635D01*
M02*
