G04*
G04 #@! TF.GenerationSoftware,Altium Limited,Altium NEXUS,4.7.2 (13)*
G04*
G04 Layer_Color=8388736*
%FSLAX25Y25*%
%MOIN*%
G70*
G04*
G04 #@! TF.SameCoordinates,2623A66C-A178-4ADA-913C-0C76BB464C87*
G04*
G04*
G04 #@! TF.FilePolarity,Negative*
G04*
G01*
G75*
%ADD19R,0.03568X0.03366*%
%ADD20R,0.12520X0.08584*%
%ADD21R,0.06300X0.02800*%
%ADD22R,0.01200X0.02600*%
%ADD36R,0.03900X0.04500*%
%ADD37R,0.12200X0.20500*%
%ADD38R,0.01900X0.03800*%
%ADD39C,0.05000*%
%ADD50R,0.11400X0.21300*%
%ADD55R,0.01968X0.02362*%
%ADD56R,0.04724X0.03543*%
%ADD57R,0.02288X0.01860*%
%ADD58R,0.03197X0.02593*%
%ADD59R,0.13410X0.04548*%
%ADD60R,0.03150X0.03150*%
%ADD61R,0.04724X0.04724*%
%ADD62R,0.07119X0.05337*%
%ADD63R,0.02047X0.02047*%
%ADD64R,0.04941X0.05733*%
%ADD65R,0.05924X0.06127*%
%ADD69R,0.12000X0.06300*%
%ADD81R,0.09800X0.08900*%
%ADD87R,0.08584X0.12520*%
%ADD91R,0.02593X0.03197*%
%ADD96R,0.17300X0.15000*%
%ADD97R,0.06286X0.25998*%
%ADD98R,0.06377X0.26032*%
%ADD99R,0.02075X0.10691*%
%ADD100R,0.02327X0.10663*%
%ADD101R,0.07770X0.04848*%
%ADD102R,0.15346X0.07875*%
%ADD103R,0.07725X0.04021*%
%ADD104R,0.04867X0.35142*%
%ADD105R,0.03156X0.05124*%
%ADD106R,0.05124X0.03156*%
%ADD107R,0.08274X0.08274*%
%ADD108R,0.08819X0.08819*%
%ADD109O,0.03898X0.01654*%
%ADD110O,0.01654X0.03898*%
%ADD111R,0.07244X0.07244*%
%ADD112R,0.03353X0.03747*%
%ADD113R,0.03550X0.04140*%
%ADD114R,0.03747X0.03156*%
%ADD115R,0.03156X0.03943*%
%ADD116R,0.04337X0.03550*%
%ADD117R,0.03550X0.02762*%
%ADD118R,0.04337X0.03943*%
%ADD119R,0.02959X0.04534*%
%ADD120R,0.03156X0.02762*%
%ADD121R,0.03156X0.04337*%
%ADD122R,0.01800X0.06000*%
%ADD123R,0.17500X0.12800*%
%ADD124R,0.05715X0.07880*%
%ADD125R,0.04337X0.05124*%
%ADD126R,0.05715X0.06502*%
%ADD127R,0.04731X0.03747*%
%ADD128R,0.04731X0.03353*%
%ADD129R,0.07487X0.05006*%
%ADD130R,0.05124X0.07880*%
%ADD131R,0.06699X0.07880*%
%ADD132R,0.08668X0.08274*%
%ADD133R,0.01975X0.05715*%
%ADD134C,0.10000*%
%ADD135R,0.02880X0.02959*%
%ADD136R,0.01975X0.01384*%
%ADD137R,0.07102X0.10646*%
%ADD138R,0.04337X0.04140*%
%ADD139R,0.04337X0.04534*%
%ADD140R,0.05321X0.04731*%
%ADD141R,0.04337X0.04731*%
%ADD142R,0.07093X0.04140*%
%ADD143R,0.06109X0.04928*%
%ADD144R,0.06502X0.05715*%
%ADD145R,0.04140X0.05715*%
%ADD146R,0.05715X0.04140*%
%ADD147R,0.04928X0.06109*%
%ADD148R,0.03235X0.03235*%
%ADD149R,0.14179X0.06699*%
%ADD150R,0.07880X0.04731*%
%ADD151R,0.03943X0.04337*%
%ADD152R,0.05715X0.06502*%
%ADD153R,0.03235X0.03235*%
%ADD154C,0.04400*%
%ADD155R,0.04140X0.03550*%
%ADD156R,0.03156X0.03747*%
%ADD157R,0.02762X0.03550*%
%ADD158R,0.02959X0.02880*%
%ADD159R,0.06000X0.01800*%
%ADD160R,0.12800X0.17500*%
%ADD161R,0.03550X0.04337*%
%ADD162C,0.07487*%
%ADD163R,0.07487X0.07487*%
%ADD164R,0.07487X0.07487*%
%ADD165C,0.05943*%
%ADD166R,0.05943X0.05943*%
%ADD167R,0.07782X0.07782*%
%ADD168C,0.07782*%
%ADD169C,0.04360*%
%ADD170C,0.12400*%
%ADD171C,0.14573*%
%ADD172C,0.02400*%
G36*
X256407Y262315D02*
X253375D01*
Y265425D01*
X256407D01*
Y262315D01*
D02*
G37*
G36*
X170437D02*
X167406D01*
Y265425D01*
X170437D01*
Y262315D01*
D02*
G37*
G36*
X256407Y257315D02*
X253375D01*
Y260425D01*
X256407D01*
Y257315D01*
D02*
G37*
G36*
X170437D02*
X167406D01*
Y260425D01*
X170437D01*
Y257315D01*
D02*
G37*
G36*
X256407Y252315D02*
X253375D01*
Y255425D01*
X256407D01*
Y252315D01*
D02*
G37*
G36*
X170437D02*
X167406D01*
Y255425D01*
X170437D01*
Y252315D01*
D02*
G37*
G36*
X256407Y247315D02*
X253375D01*
Y250425D01*
X256407D01*
Y247315D01*
D02*
G37*
G36*
X234871Y265150D02*
X250206D01*
Y256370D01*
Y247591D01*
X234871D01*
Y247315D01*
X231839D01*
Y250425D01*
X233315D01*
Y252315D01*
X231839D01*
Y255425D01*
X233315D01*
Y256370D01*
Y257315D01*
X231839D01*
Y260425D01*
X233315D01*
Y262315D01*
X231839D01*
Y265425D01*
X234871D01*
Y265150D01*
D02*
G37*
G36*
X170437Y247315D02*
X167406D01*
Y250425D01*
X170437D01*
Y247315D01*
D02*
G37*
G36*
X148901Y265150D02*
X164237D01*
Y256370D01*
Y247591D01*
X148901D01*
Y247315D01*
X145870D01*
Y250425D01*
X147345D01*
Y252315D01*
X145870D01*
Y255425D01*
X147345D01*
Y256370D01*
Y257315D01*
X145870D01*
Y260425D01*
X147345D01*
Y262315D01*
X145870D01*
Y265425D01*
X148901D01*
Y265150D01*
D02*
G37*
G36*
X203029Y126952D02*
X199919D01*
Y129984D01*
X203029D01*
Y126952D01*
D02*
G37*
G36*
X198029D02*
X194919D01*
Y129984D01*
X198029D01*
Y126952D01*
D02*
G37*
G36*
X193029D02*
X189919D01*
Y129984D01*
X193029D01*
Y126952D01*
D02*
G37*
G36*
X188029D02*
X184919D01*
Y129984D01*
X188029D01*
Y126952D01*
D02*
G37*
G36*
X202753Y108448D02*
X203029D01*
Y105416D01*
X199919D01*
Y106892D01*
X198029D01*
Y105416D01*
X194919D01*
Y106892D01*
X193029D01*
Y105416D01*
X189919D01*
Y106892D01*
X188029D01*
Y105416D01*
X184919D01*
Y108448D01*
X185194D01*
Y123784D01*
X202753D01*
Y108448D01*
D02*
G37*
D19*
X237123Y155021D02*
D03*
Y150094D02*
D03*
D20*
X157653Y234362D02*
D03*
Y209738D02*
D03*
X251519Y83664D02*
D03*
Y59040D02*
D03*
D21*
X270418Y36106D02*
D03*
D22*
X272386Y32256D02*
D03*
X268449D02*
D03*
Y39956D02*
D03*
X272386D02*
D03*
D36*
X240501Y236680D02*
D03*
X247745D02*
D03*
D37*
X244123Y220980D02*
D03*
D38*
X232308Y76166D02*
D03*
Y52566D02*
D03*
X227308D02*
D03*
X222308D02*
D03*
X217308D02*
D03*
Y76166D02*
D03*
X222308D02*
D03*
X227308D02*
D03*
D39*
X113783Y24969D02*
D03*
X4800Y244900D02*
D03*
X60098Y219228D02*
D03*
X73905Y269700D02*
D03*
X54882Y210773D02*
D03*
X70431Y234047D02*
D03*
X273376Y199555D02*
D03*
X283785Y206531D02*
D03*
X309411Y140394D02*
D03*
X284444Y221101D02*
D03*
X293179Y215604D02*
D03*
X309570Y221101D02*
D03*
X15800Y23600D02*
D03*
X20600Y15400D02*
D03*
X21900Y85796D02*
D03*
X22100Y79100D02*
D03*
X6168Y56200D02*
D03*
X271563Y16622D02*
D03*
X262737Y39956D02*
D03*
X291856Y265150D02*
D03*
X123783Y24969D02*
D03*
X309548Y133000D02*
D03*
X119034Y238318D02*
D03*
X281761Y265150D02*
D03*
X153600Y37921D02*
D03*
X293300Y24400D02*
D03*
X309570Y123000D02*
D03*
X164018Y37549D02*
D03*
X309800Y112893D02*
D03*
X170052Y31991D02*
D03*
X93883Y25469D02*
D03*
X83583D02*
D03*
X173993Y20057D02*
D03*
X103716Y24969D02*
D03*
D50*
X184494Y245947D02*
D03*
X222694D02*
D03*
X260394Y120229D02*
D03*
X222194D02*
D03*
D55*
X274839Y24106D02*
D03*
X270902D02*
D03*
X187582Y69860D02*
D03*
X183644D02*
D03*
X273639Y47806D02*
D03*
X269702D02*
D03*
D56*
X183222Y156200D02*
D03*
Y164467D02*
D03*
X165035Y105277D02*
D03*
Y97010D02*
D03*
D57*
X220000Y169800D02*
D03*
X217000D02*
D03*
D58*
X275876Y218465D02*
D03*
Y213137D02*
D03*
D59*
X166618Y190689D02*
D03*
Y196008D02*
D03*
D60*
X5347Y188800D02*
D03*
X11253D02*
D03*
D61*
X105728Y212338D02*
D03*
X97460D02*
D03*
X113328Y225866D02*
D03*
X105060D02*
D03*
X19134Y214799D02*
D03*
X10866D02*
D03*
D62*
X209492Y66522D02*
D03*
Y54898D02*
D03*
D63*
X278385Y39956D02*
D03*
X281535D02*
D03*
D64*
X33751Y243348D02*
D03*
X27249D02*
D03*
D65*
X138534Y112402D02*
D03*
X145666D02*
D03*
X56845Y101200D02*
D03*
X63977D02*
D03*
D69*
X252050Y182900D02*
D03*
X231750D02*
D03*
X201292Y33223D02*
D03*
X180992D02*
D03*
D81*
X174592Y135093D02*
D03*
Y112893D02*
D03*
D87*
X218853Y32756D02*
D03*
X243477D02*
D03*
D91*
X172848Y62910D02*
D03*
X167520D02*
D03*
D96*
X224808Y61966D02*
D03*
D97*
X209347Y86727D02*
D03*
D98*
X187156Y86725D02*
D03*
D99*
X48739Y218375D02*
D03*
D100*
X38152Y218153D02*
D03*
D101*
X89742Y218825D02*
D03*
D102*
X89634Y223980D02*
D03*
D103*
X89621Y229763D02*
D03*
D104*
X307629Y166911D02*
D03*
D105*
X32065Y111417D02*
D03*
X36789D02*
D03*
X41514D02*
D03*
X46238D02*
D03*
X50963D02*
D03*
X55687D02*
D03*
X60411D02*
D03*
X65136D02*
D03*
X69860D02*
D03*
X74585D02*
D03*
X79309D02*
D03*
X84034D02*
D03*
X88758D02*
D03*
X93482D02*
D03*
X98207D02*
D03*
X102931D02*
D03*
X107656D02*
D03*
X112380D02*
D03*
X117104D02*
D03*
X121829D02*
D03*
Y164173D02*
D03*
X117104D02*
D03*
X112380D02*
D03*
X107656D02*
D03*
X98207D02*
D03*
X93482D02*
D03*
X88758D02*
D03*
X84034D02*
D03*
X79309D02*
D03*
X74585D02*
D03*
X69860D02*
D03*
X65136D02*
D03*
X60411D02*
D03*
X55687D02*
D03*
X50963D02*
D03*
X46238D02*
D03*
X41514D02*
D03*
X36789D02*
D03*
X32065D02*
D03*
X102931D02*
D03*
D106*
X127502Y114157D02*
D03*
Y123606D02*
D03*
Y128331D02*
D03*
Y133055D02*
D03*
Y137779D02*
D03*
Y142504D02*
D03*
Y147228D02*
D03*
Y151953D02*
D03*
Y156677D02*
D03*
Y161402D02*
D03*
Y118882D02*
D03*
D107*
X107600Y129585D02*
D03*
X96360D02*
D03*
X107600Y141097D02*
D03*
X96360D02*
D03*
D108*
X56840Y133317D02*
D03*
X48108D02*
D03*
X56840Y141908D02*
D03*
X48108D02*
D03*
D109*
X83893Y226953D02*
D03*
Y224984D02*
D03*
Y223016D02*
D03*
Y221047D02*
D03*
X95507D02*
D03*
Y223016D02*
D03*
Y224984D02*
D03*
Y226953D02*
D03*
D110*
X86747Y218193D02*
D03*
X88716D02*
D03*
X90684D02*
D03*
X92653D02*
D03*
Y229807D02*
D03*
X90684D02*
D03*
X88716D02*
D03*
X86747D02*
D03*
D111*
X89700Y224000D02*
D03*
D112*
X283785Y199555D02*
D03*
X278667D02*
D03*
X310488D02*
D03*
X305369D02*
D03*
D113*
X86434Y211438D02*
D03*
X91355D02*
D03*
X10961Y196100D02*
D03*
X6039D02*
D03*
X100533Y219638D02*
D03*
X105455D02*
D03*
D114*
X164018Y26500D02*
D03*
Y21972D02*
D03*
X22500Y222740D02*
D03*
Y227268D02*
D03*
X182200Y55185D02*
D03*
Y50657D02*
D03*
X241297Y159054D02*
D03*
Y163581D02*
D03*
X153600Y26974D02*
D03*
Y22446D02*
D03*
D115*
X196726Y62910D02*
D03*
X191214D02*
D03*
D116*
X184994Y178595D02*
D03*
Y184500D02*
D03*
X177718Y101194D02*
D03*
Y95288D02*
D03*
X172602Y95288D02*
D03*
Y101194D02*
D03*
D117*
X190942Y165107D02*
D03*
Y159989D02*
D03*
D118*
X83893Y234864D02*
D03*
Y241163D02*
D03*
X146933Y155953D02*
D03*
Y162253D02*
D03*
X53000Y235150D02*
D03*
Y228850D02*
D03*
X146933Y149909D02*
D03*
Y143610D02*
D03*
X40402Y235319D02*
D03*
Y229020D02*
D03*
X46902Y235319D02*
D03*
Y229020D02*
D03*
X305667Y209305D02*
D03*
Y215604D02*
D03*
X98547Y237817D02*
D03*
Y244116D02*
D03*
D119*
X6168Y32531D02*
D03*
Y48869D02*
D03*
X14632D02*
D03*
Y32531D02*
D03*
D120*
X39449Y241283D02*
D03*
Y248764D02*
D03*
X47323D02*
D03*
D121*
Y242071D02*
D03*
D122*
X192678Y179847D02*
D03*
X195237D02*
D03*
X197796D02*
D03*
X200355D02*
D03*
X202914D02*
D03*
X205473D02*
D03*
X208032D02*
D03*
X210591D02*
D03*
X213150D02*
D03*
X215709D02*
D03*
X215709Y202247D02*
D03*
X213150D02*
D03*
X210591D02*
D03*
X208032D02*
D03*
X205473D02*
D03*
X202914D02*
D03*
X200355D02*
D03*
X197796D02*
D03*
X195237D02*
D03*
X192678D02*
D03*
D123*
X204194Y191047D02*
D03*
D124*
X265019Y155299D02*
D03*
Y178803D02*
D03*
D125*
X283425Y192582D02*
D03*
X268858D02*
D03*
D126*
X307145Y191893D02*
D03*
D127*
X307638Y182208D02*
D03*
Y177878D02*
D03*
Y173547D02*
D03*
Y169216D02*
D03*
Y164886D02*
D03*
Y160555D02*
D03*
Y156224D02*
D03*
D128*
Y152090D02*
D03*
D129*
X306259Y147327D02*
D03*
D130*
X47303Y268368D02*
D03*
X40610D02*
D03*
D131*
X60098D02*
D03*
X27815D02*
D03*
D132*
X56161Y259116D02*
D03*
X31752D02*
D03*
D133*
X49075Y257837D02*
D03*
X46516D02*
D03*
X43957D02*
D03*
X41398D02*
D03*
X38839D02*
D03*
D134*
X307800Y25600D02*
D03*
X6500Y23900D02*
D03*
D135*
X233355Y248870D02*
D03*
Y253870D02*
D03*
Y258870D02*
D03*
Y263870D02*
D03*
X254891D02*
D03*
Y258870D02*
D03*
Y253870D02*
D03*
Y248870D02*
D03*
X147385D02*
D03*
Y253870D02*
D03*
Y258870D02*
D03*
Y263870D02*
D03*
X168921D02*
D03*
Y258870D02*
D03*
Y253870D02*
D03*
Y248870D02*
D03*
D136*
X38169Y222772D02*
D03*
Y221000D02*
D03*
Y219228D02*
D03*
Y217457D02*
D03*
Y215685D02*
D03*
Y213913D02*
D03*
X48799D02*
D03*
Y215685D02*
D03*
Y217457D02*
D03*
Y219228D02*
D03*
Y221000D02*
D03*
Y222772D02*
D03*
D137*
X43484Y218342D02*
D03*
D138*
X299478Y197404D02*
D03*
Y202522D02*
D03*
X16000Y227882D02*
D03*
Y233000D02*
D03*
X20752Y248756D02*
D03*
Y243638D02*
D03*
X27815Y227228D02*
D03*
Y222110D02*
D03*
D139*
X76730Y235992D02*
D03*
Y241897D02*
D03*
D140*
X224339Y85110D02*
D03*
X217646D02*
D03*
X224139Y90810D02*
D03*
X217446D02*
D03*
D141*
X28146Y250713D02*
D03*
X33854D02*
D03*
D142*
X224657Y163117D02*
D03*
Y152093D02*
D03*
D143*
X205500Y167223D02*
D03*
Y160137D02*
D03*
X74585Y219972D02*
D03*
Y212885D02*
D03*
X15000Y245213D02*
D03*
Y252299D02*
D03*
X113494Y212551D02*
D03*
Y219638D02*
D03*
D144*
X181308Y213984D02*
D03*
Y206110D02*
D03*
D145*
X172843Y84310D02*
D03*
X179142D02*
D03*
X129050Y255037D02*
D03*
X135350D02*
D03*
X161343Y87710D02*
D03*
X167642D02*
D03*
D146*
X197700Y167617D02*
D03*
Y161318D02*
D03*
X215109Y154920D02*
D03*
Y161219D02*
D03*
X176992Y69860D02*
D03*
Y76159D02*
D03*
D147*
X207833Y212900D02*
D03*
X214920D02*
D03*
X160149Y79710D02*
D03*
X167236D02*
D03*
X178449Y62910D02*
D03*
X185536D02*
D03*
X200437Y212947D02*
D03*
X193350D02*
D03*
D148*
X231569Y203500D02*
D03*
X227631D02*
D03*
X231169Y212500D02*
D03*
X227232D02*
D03*
D149*
X124434Y185166D02*
D03*
X146481D02*
D03*
D150*
X139000Y157725D02*
D03*
Y147883D02*
D03*
D151*
X34902Y235319D02*
D03*
X28602D02*
D03*
X45650Y73600D02*
D03*
X39350D02*
D03*
X300278Y221069D02*
D03*
X293979D02*
D03*
X293179Y209354D02*
D03*
X299478D02*
D03*
X46150Y81400D02*
D03*
X52450D02*
D03*
X32650Y81200D02*
D03*
X38950D02*
D03*
X76730Y228270D02*
D03*
X70431D02*
D03*
D152*
X210215Y139157D02*
D03*
X202341D02*
D03*
D153*
X189238Y54889D02*
D03*
Y50952D02*
D03*
X195300Y55269D02*
D03*
Y51332D02*
D03*
D154*
X6039Y254500D02*
D03*
D155*
X10098Y222543D02*
D03*
Y227465D02*
D03*
X33854Y222209D02*
D03*
Y227130D02*
D03*
D156*
X126356Y226264D02*
D03*
X121829D02*
D03*
D157*
X172033Y90095D02*
D03*
X177152D02*
D03*
D158*
X201474Y128468D02*
D03*
X196474D02*
D03*
X191474D02*
D03*
X186474D02*
D03*
Y106932D02*
D03*
X191474D02*
D03*
X196474D02*
D03*
X201474D02*
D03*
D159*
X187092Y98241D02*
D03*
Y95682D02*
D03*
Y93123D02*
D03*
Y90564D02*
D03*
Y88005D02*
D03*
Y85446D02*
D03*
Y82887D02*
D03*
Y80328D02*
D03*
Y77769D02*
D03*
Y75210D02*
D03*
X209492Y75210D02*
D03*
Y77769D02*
D03*
Y80328D02*
D03*
Y82887D02*
D03*
Y88005D02*
D03*
Y90564D02*
D03*
Y93123D02*
D03*
Y98241D02*
D03*
Y85446D02*
D03*
Y95682D02*
D03*
D160*
X198293Y86725D02*
D03*
D161*
X169374Y168750D02*
D03*
X175279D02*
D03*
D162*
X289300Y123000D02*
D03*
Y113000D02*
D03*
Y103000D02*
D03*
Y133000D02*
D03*
X298500Y67800D02*
D03*
Y57800D02*
D03*
Y47800D02*
D03*
X98000Y260370D02*
D03*
X108000D02*
D03*
D163*
X289300Y93000D02*
D03*
X298500Y37800D02*
D03*
D164*
X88000Y260370D02*
D03*
D165*
X271856Y252782D02*
D03*
X281856D02*
D03*
X291856D02*
D03*
D166*
X301856D02*
D03*
D167*
X53800Y10500D02*
D03*
D168*
X63800D02*
D03*
X83800D02*
D03*
X93800D02*
D03*
X103800D02*
D03*
X113800D02*
D03*
X123800D02*
D03*
X133800D02*
D03*
X143800D02*
D03*
X153800D02*
D03*
X163800D02*
D03*
X173800D02*
D03*
X183800D02*
D03*
X193800D02*
D03*
X203800D02*
D03*
X213800D02*
D03*
X223800D02*
D03*
X233800D02*
D03*
X243800D02*
D03*
X73800D02*
D03*
D169*
X8000Y83900D02*
D03*
Y78900D02*
D03*
X13000Y83900D02*
D03*
Y78900D02*
D03*
Y68900D02*
D03*
Y73900D02*
D03*
X8000Y68900D02*
D03*
Y73900D02*
D03*
Y63900D02*
D03*
X13000D02*
D03*
D170*
X261300Y199160D02*
D03*
X36300Y12160D02*
D03*
Y199160D02*
D03*
X261300Y12160D02*
D03*
D171*
X305709Y9252D02*
D03*
Y266339D02*
D03*
X9252Y9252D02*
D03*
Y266339D02*
D03*
D172*
X300278Y217801D02*
D03*
X302249Y160994D02*
D03*
X301375Y213137D02*
D03*
X292193Y246837D02*
D03*
X281856D02*
D03*
X306856Y252782D02*
D03*
X271854Y259618D02*
D03*
X261200Y253700D02*
D03*
Y248700D02*
D03*
X224088Y170785D02*
D03*
X182980Y150821D02*
D03*
X205643Y155440D02*
D03*
X107600Y141097D02*
D03*
X96360D02*
D03*
Y129585D02*
D03*
X48108Y133317D02*
D03*
Y141908D02*
D03*
X56840D02*
D03*
Y133317D02*
D03*
X107600Y129585D02*
D03*
X209492Y49166D02*
D03*
X152453Y142582D02*
D03*
X95507Y188800D02*
D03*
M02*
