G04*
G04 #@! TF.GenerationSoftware,Altium Limited,Altium NEXUS,4.7.2 (13)*
G04*
G04 Layer_Physical_Order=3*
G04 Layer_Color=16440176*
%FSLAX25Y25*%
%MOIN*%
G70*
G04*
G04 #@! TF.SameCoordinates,2623A66C-A178-4ADA-913C-0C76BB464C87*
G04*
G04*
G04 #@! TF.FilePolarity,Positive*
G04*
G01*
G75*
%ADD180C,0.07087*%
%ADD184R,0.05543X0.05543*%
%ADD186C,0.07382*%
%ADD187C,0.03960*%
%ADD190C,0.02000*%
G36*
X301920Y273052D02*
X300809Y272309D01*
X299738Y271238D01*
X298897Y269980D01*
X298317Y268581D01*
X298022Y267096D01*
Y265581D01*
X298317Y264096D01*
X298897Y262698D01*
X299738Y261439D01*
X300809Y260368D01*
X302068Y259527D01*
X303467Y258947D01*
X304952Y258652D01*
X306466D01*
X307951Y258947D01*
X309350Y259527D01*
X310609Y260368D01*
X311679Y261439D01*
X312421Y262549D01*
X312922Y262398D01*
X312922Y13193D01*
X312421Y13041D01*
X311679Y14152D01*
X310609Y15223D01*
X309350Y16064D01*
X307951Y16643D01*
X306466Y16939D01*
X304952D01*
X303467Y16643D01*
X302068Y16064D01*
X300809Y15223D01*
X299738Y14152D01*
X298897Y12893D01*
X298317Y11494D01*
X298022Y10009D01*
Y8495D01*
X298317Y7010D01*
X298897Y5611D01*
X299738Y4352D01*
X300809Y3281D01*
X301920Y2539D01*
X301768Y2039D01*
X13193Y2039D01*
X13041Y2539D01*
X14152Y3281D01*
X15223Y4352D01*
X16064Y5611D01*
X16643Y7010D01*
X16939Y8495D01*
Y10009D01*
X16643Y11494D01*
X16064Y12893D01*
X15223Y14152D01*
X14152Y15223D01*
X12893Y16064D01*
X11494Y16643D01*
X10009Y16939D01*
X8495D01*
X7010Y16643D01*
X5611Y16064D01*
X4352Y15223D01*
X3281Y14152D01*
X2539Y13041D01*
X2039Y13193D01*
Y30668D01*
X2539Y31003D01*
X2712Y30931D01*
X3349D01*
X3937Y31174D01*
X4387Y31624D01*
X4631Y32212D01*
Y32849D01*
X4387Y33437D01*
X3937Y33887D01*
X3349Y34131D01*
X2712D01*
X2539Y34059D01*
X2039Y34393D01*
Y47175D01*
X2455Y47453D01*
X2582Y47400D01*
X3218D01*
X3806Y47644D01*
X4256Y48094D01*
X4500Y48682D01*
Y49318D01*
X4256Y49906D01*
X3806Y50356D01*
X3218Y50600D01*
X2582D01*
X2455Y50547D01*
X2039Y50825D01*
Y62391D01*
X2539Y62598D01*
X2594Y62544D01*
X3182Y62300D01*
X3818D01*
X4406Y62544D01*
X4856Y62994D01*
X4976Y63284D01*
X5503Y63249D01*
X5596Y62904D01*
X5935Y62316D01*
X6416Y61835D01*
X7004Y61496D01*
X7660Y61320D01*
X8340D01*
X8996Y61496D01*
X9584Y61835D01*
X10064Y62316D01*
X10211Y62570D01*
X10789D01*
X10936Y62316D01*
X11416Y61835D01*
X12004Y61496D01*
X12660Y61320D01*
X13340D01*
X13996Y61496D01*
X14584Y61835D01*
X15065Y62316D01*
X15404Y62904D01*
X15580Y63560D01*
Y64240D01*
X15404Y64896D01*
X15065Y65484D01*
X14584Y65965D01*
X14330Y66111D01*
Y66689D01*
X14584Y66835D01*
X15065Y67316D01*
X15404Y67904D01*
X15580Y68560D01*
Y69240D01*
X15404Y69896D01*
X15065Y70484D01*
X14584Y70964D01*
X14330Y71111D01*
Y71689D01*
X14584Y71836D01*
X15065Y72316D01*
X15404Y72904D01*
X15580Y73560D01*
Y74240D01*
X15404Y74896D01*
X15065Y75484D01*
X14584Y75964D01*
X14330Y76111D01*
Y76689D01*
X14584Y76836D01*
X15065Y77316D01*
X15404Y77904D01*
X15580Y78560D01*
Y79240D01*
X15404Y79896D01*
X15065Y80484D01*
X14584Y80964D01*
X14330Y81111D01*
Y81689D01*
X14584Y81836D01*
X15065Y82316D01*
X15404Y82904D01*
X15580Y83560D01*
Y84240D01*
X15404Y84896D01*
X15065Y85484D01*
X14584Y85965D01*
X13996Y86304D01*
X13340Y86480D01*
X12660D01*
X12004Y86304D01*
X11416Y85965D01*
X10936Y85484D01*
X10904Y85430D01*
X10327Y85430D01*
X10225Y85607D01*
X9707Y86124D01*
X9073Y86490D01*
X8500Y86644D01*
Y83900D01*
X8000D01*
Y83400D01*
X5256D01*
X5409Y82827D01*
X5776Y82193D01*
X6293Y81675D01*
X6470Y81573D01*
X6470Y80996D01*
X6416Y80964D01*
X5935Y80484D01*
X5596Y79896D01*
X5538Y79678D01*
X5011Y79644D01*
X4856Y80016D01*
X4406Y80467D01*
X3818Y80710D01*
X3182D01*
X2594Y80467D01*
X2539Y80412D01*
X2039Y80619D01*
Y91966D01*
X2072Y91976D01*
X2544Y91597D01*
Y91272D01*
X2788Y90684D01*
X3238Y90234D01*
X3826Y89990D01*
X4462D01*
X5051Y90234D01*
X5500Y90684D01*
X5744Y91272D01*
Y91909D01*
X5692Y92033D01*
X5970Y92449D01*
X8432D01*
X8710Y92033D01*
X8658Y91909D01*
Y91272D01*
X8902Y90684D01*
X9352Y90234D01*
X9940Y89990D01*
X10576D01*
X11164Y90234D01*
X11614Y90684D01*
X11858Y91272D01*
Y91909D01*
X11806Y92033D01*
X12084Y92449D01*
X14546D01*
X14824Y92033D01*
X14772Y91909D01*
Y91272D01*
X15016Y90684D01*
X15466Y90234D01*
X16054Y89990D01*
X16690D01*
X17278Y90234D01*
X17729Y90684D01*
X17972Y91272D01*
Y91909D01*
X17921Y92033D01*
X18198Y92449D01*
X20660D01*
X20938Y92033D01*
X20886Y91909D01*
Y91272D01*
X21130Y90684D01*
X21580Y90234D01*
X22168Y89990D01*
X22804D01*
X23392Y90234D01*
X23842Y90684D01*
X24086Y91272D01*
Y91909D01*
X24061Y91969D01*
X24070Y92033D01*
X24113Y92141D01*
X24391Y92478D01*
X24592Y92501D01*
X24811Y92570D01*
X25038Y92602D01*
X25372Y92718D01*
X25569Y92835D01*
X25784Y92917D01*
X26082Y93104D01*
X26249Y93262D01*
X26440Y93389D01*
X26689Y93639D01*
X26817Y93830D01*
X26975Y93996D01*
X27162Y94295D01*
X27244Y94510D01*
X27360Y94707D01*
X27477Y95040D01*
X27509Y95268D01*
X27578Y95486D01*
X27617Y95837D01*
X27617Y95838D01*
X27830Y96065D01*
X27963Y96133D01*
X28130Y96167D01*
X28282Y96104D01*
X28918D01*
X29506Y96348D01*
X29956Y96798D01*
X30200Y97386D01*
Y98023D01*
X29956Y98611D01*
X29506Y99061D01*
X28918Y99304D01*
X28282D01*
X28130Y99241D01*
X27630Y99576D01*
Y101947D01*
X28130Y102281D01*
X28282Y102218D01*
X28918D01*
X29506Y102462D01*
X29956Y102912D01*
X30200Y103500D01*
Y104137D01*
X29956Y104725D01*
X29506Y105175D01*
X28918Y105418D01*
X28282D01*
X28130Y105355D01*
X27630Y105690D01*
Y108061D01*
X28130Y108395D01*
X28282Y108332D01*
X28918D01*
X29506Y108576D01*
X29956Y109026D01*
X30200Y109614D01*
Y110251D01*
X29956Y110839D01*
X29506Y111289D01*
X28918Y111532D01*
X28282D01*
X28130Y111469D01*
X27630Y111803D01*
Y114175D01*
X28130Y114509D01*
X28282Y114446D01*
X28918D01*
X29506Y114690D01*
X29956Y115140D01*
X30200Y115728D01*
Y116365D01*
X29956Y116953D01*
X29506Y117403D01*
X28918Y117646D01*
X28282D01*
X28130Y117583D01*
X27630Y117918D01*
Y120289D01*
X28130Y120623D01*
X28282Y120560D01*
X28918D01*
X29506Y120804D01*
X29956Y121254D01*
X30200Y121842D01*
Y122479D01*
X29956Y123067D01*
X29506Y123517D01*
X28918Y123760D01*
X28282D01*
X28130Y123697D01*
X27630Y124031D01*
Y126403D01*
X28130Y126737D01*
X28282Y126674D01*
X28918D01*
X29506Y126918D01*
X29956Y127368D01*
X30200Y127956D01*
Y128593D01*
X29956Y129181D01*
X29506Y129631D01*
X28918Y129874D01*
X28282D01*
X28130Y129811D01*
X27630Y130145D01*
Y132517D01*
X28130Y132851D01*
X28282Y132788D01*
X28918D01*
X29506Y133032D01*
X29956Y133482D01*
X30200Y134070D01*
Y134706D01*
X29956Y135295D01*
X29506Y135745D01*
X28918Y135988D01*
X28282D01*
X28130Y135925D01*
X27630Y136259D01*
X27630Y138631D01*
X28130Y138965D01*
X28282Y138902D01*
X28918D01*
X29506Y139146D01*
X29956Y139596D01*
X30200Y140184D01*
Y140821D01*
X29956Y141409D01*
X29506Y141859D01*
X28918Y142102D01*
X28282D01*
X28130Y142039D01*
X27630Y142373D01*
Y144745D01*
X28130Y145079D01*
X28282Y145016D01*
X28918D01*
X29506Y145260D01*
X29956Y145710D01*
X30200Y146298D01*
Y146934D01*
X29956Y147522D01*
X29506Y147973D01*
X28918Y148216D01*
X28282D01*
X28130Y148153D01*
X27630Y148487D01*
Y150859D01*
X28130Y151193D01*
X28282Y151130D01*
X28918D01*
X29506Y151374D01*
X29956Y151824D01*
X30200Y152412D01*
Y153048D01*
X29956Y153637D01*
X29506Y154087D01*
X28918Y154330D01*
X28282D01*
X28130Y154267D01*
X27630Y154601D01*
Y156973D01*
X28130Y157307D01*
X28282Y157244D01*
X28918D01*
X29506Y157488D01*
X29956Y157938D01*
X30200Y158526D01*
Y159162D01*
X29956Y159750D01*
X29506Y160201D01*
X28918Y160444D01*
X28282D01*
X28130Y160381D01*
X27630Y160715D01*
Y163087D01*
X28130Y163421D01*
X28282Y163358D01*
X28918D01*
X29506Y163602D01*
X29956Y164052D01*
X30200Y164640D01*
Y165276D01*
X29956Y165864D01*
X29506Y166314D01*
X28918Y166558D01*
X28282D01*
X28130Y166495D01*
X27630Y166829D01*
Y169201D01*
X28130Y169535D01*
X28282Y169472D01*
X28918D01*
X29506Y169716D01*
X29956Y170166D01*
X30200Y170754D01*
Y171390D01*
X29956Y171978D01*
X29506Y172429D01*
X28918Y172672D01*
X28282D01*
X28130Y172609D01*
X27630Y172943D01*
Y175315D01*
X28130Y175649D01*
X28282Y175586D01*
X28918D01*
X29506Y175830D01*
X29956Y176280D01*
X30200Y176868D01*
Y177504D01*
X29956Y178092D01*
X29506Y178542D01*
X28918Y178786D01*
X28282D01*
X28130Y178723D01*
X27630Y179057D01*
Y179527D01*
X27607Y179640D01*
X27617Y179753D01*
X27578Y180104D01*
X27509Y180323D01*
X27477Y180550D01*
X27360Y180883D01*
X27244Y181081D01*
X27162Y181295D01*
X26975Y181594D01*
X26817Y181761D01*
X26689Y181952D01*
X26440Y182201D01*
X26249Y182329D01*
X26083Y182486D01*
X25784Y182674D01*
X25569Y182756D01*
X25371Y182872D01*
X25038Y182988D01*
X24811Y183020D01*
X24592Y183090D01*
X24242Y183129D01*
X24086Y183617D01*
Y183618D01*
X23842Y184206D01*
X23392Y184656D01*
X22804Y184900D01*
X22168D01*
X21580Y184656D01*
X21130Y184206D01*
X20886Y183618D01*
Y183141D01*
X17972D01*
Y183618D01*
X17729Y184206D01*
X17278Y184656D01*
X16690Y184900D01*
X16054D01*
X15466Y184656D01*
X15016Y184206D01*
X14772Y183618D01*
Y183141D01*
X11858D01*
Y183618D01*
X11614Y184206D01*
X11164Y184656D01*
X10576Y184900D01*
X9940D01*
X9352Y184656D01*
X8902Y184206D01*
X8658Y183618D01*
Y183141D01*
X5744D01*
Y183618D01*
X5500Y184206D01*
X5051Y184656D01*
X4462Y184900D01*
X3826D01*
X3238Y184656D01*
X2788Y184206D01*
X2544Y183618D01*
Y183141D01*
X2039D01*
X2039Y262398D01*
X2539Y262549D01*
X3281Y261439D01*
X4352Y260368D01*
X5611Y259527D01*
X7010Y258947D01*
X8495Y258652D01*
X10009D01*
X11494Y258947D01*
X12893Y259527D01*
X14152Y260368D01*
X15223Y261439D01*
X16064Y262698D01*
X16643Y264096D01*
X16939Y265581D01*
Y267096D01*
X16643Y268581D01*
X16064Y269980D01*
X15223Y271238D01*
X14152Y272309D01*
X13045Y273049D01*
X13196Y273549D01*
X22007Y273548D01*
X22057Y273501D01*
X22242Y273389D01*
X22404Y273245D01*
X23147Y272811D01*
X23352Y272740D01*
X23541Y272634D01*
X24359Y272365D01*
X24574Y272339D01*
X24781Y272275D01*
X25637Y272185D01*
X25745Y272195D01*
X25850Y272173D01*
X33605D01*
X33812Y271673D01*
X33545Y271406D01*
X33302Y270818D01*
Y270182D01*
X33545Y269594D01*
X33995Y269144D01*
X34583Y268900D01*
X35220D01*
X35808Y269144D01*
X36258Y269594D01*
X36502Y270182D01*
Y270818D01*
X36258Y271406D01*
X35991Y271673D01*
X36198Y272173D01*
X51562D01*
X51769Y271673D01*
X51502Y271406D01*
X51258Y270818D01*
Y270182D01*
X51502Y269594D01*
X51952Y269144D01*
X52540Y268900D01*
X53176D01*
X53765Y269144D01*
X54215Y269594D01*
X54458Y270182D01*
Y270818D01*
X54215Y271406D01*
X53948Y271673D01*
X54155Y272173D01*
X65220D01*
X65326Y272195D01*
X65433Y272185D01*
X66290Y272274D01*
X66498Y272339D01*
X66714Y272365D01*
X67532Y272634D01*
X67722Y272741D01*
X67927Y272813D01*
X68670Y273249D01*
X68833Y273393D01*
X69019Y273507D01*
X69067Y273551D01*
X152067Y273547D01*
X152079Y273550D01*
X152092Y273548D01*
X152397Y273551D01*
X301768Y273552D01*
X301920Y273052D01*
D02*
G37*
%LPC*%
G36*
X68618Y271300D02*
X67982D01*
X67394Y271056D01*
X66944Y270606D01*
X66700Y270018D01*
Y269382D01*
X66944Y268794D01*
X67394Y268344D01*
X67982Y268100D01*
X68618D01*
X69206Y268344D01*
X69656Y268794D01*
X69900Y269382D01*
Y270018D01*
X69656Y270606D01*
X69206Y271056D01*
X68618Y271300D01*
D02*
G37*
G36*
X172679Y265834D02*
X172043D01*
X171455Y265591D01*
X171005Y265141D01*
X170761Y264552D01*
Y263916D01*
X171005Y263328D01*
X171455Y262878D01*
X172043Y262634D01*
X172679D01*
X173268Y262878D01*
X173718Y263328D01*
X173961Y263916D01*
Y264552D01*
X173718Y265141D01*
X173268Y265591D01*
X172679Y265834D01*
D02*
G37*
G36*
X261518Y265470D02*
X260882D01*
X260294Y265227D01*
X259844Y264776D01*
X259600Y264188D01*
Y263552D01*
X259844Y262964D01*
X260294Y262514D01*
X260882Y262270D01*
X261518D01*
X262106Y262514D01*
X262556Y262964D01*
X262800Y263552D01*
Y264188D01*
X262556Y264776D01*
X262106Y265227D01*
X261518Y265470D01*
D02*
G37*
G36*
X80968Y261970D02*
X80332D01*
X79744Y261726D01*
X79294Y261276D01*
X79050Y260688D01*
Y260052D01*
X79294Y259464D01*
X79744Y259014D01*
X80332Y258770D01*
X80968D01*
X81556Y259014D01*
X82006Y259464D01*
X82250Y260052D01*
Y260688D01*
X82006Y261276D01*
X81556Y261726D01*
X80968Y261970D01*
D02*
G37*
G36*
X272172Y261218D02*
X271535D01*
X270947Y260974D01*
X270497Y260524D01*
X270254Y259936D01*
Y259299D01*
X270497Y258711D01*
X270947Y258261D01*
X271535Y258018D01*
X272172D01*
X272760Y258261D01*
X273210Y258711D01*
X273454Y259299D01*
Y259936D01*
X273210Y260524D01*
X272760Y260974D01*
X272172Y261218D01*
D02*
G37*
G36*
X261518Y260300D02*
X260882D01*
X260294Y260056D01*
X259844Y259606D01*
X259600Y259018D01*
Y258382D01*
X259844Y257794D01*
X260294Y257344D01*
X260882Y257100D01*
X261518D01*
X262106Y257344D01*
X262556Y257794D01*
X262800Y258382D01*
Y259018D01*
X262556Y259606D01*
X262106Y260056D01*
X261518Y260300D01*
D02*
G37*
G36*
X108545Y264513D02*
X107455D01*
X106401Y264231D01*
X105456Y263685D01*
X104684Y262914D01*
X104139Y261969D01*
X103857Y260916D01*
Y259825D01*
X104139Y258771D01*
X104684Y257826D01*
X105456Y257055D01*
X106401Y256509D01*
X107455Y256227D01*
X108545D01*
X109599Y256509D01*
X110544Y257055D01*
X111316Y257826D01*
X111861Y258771D01*
X112143Y259825D01*
Y260916D01*
X111861Y261969D01*
X111316Y262914D01*
X110544Y263685D01*
X109599Y264231D01*
X108545Y264513D01*
D02*
G37*
G36*
X98545D02*
X97455D01*
X96401Y264231D01*
X95456Y263685D01*
X94684Y262914D01*
X94139Y261969D01*
X93857Y260916D01*
Y259825D01*
X94139Y258771D01*
X94684Y257826D01*
X95456Y257055D01*
X96401Y256509D01*
X97455Y256227D01*
X98545D01*
X99599Y256509D01*
X100544Y257055D01*
X101315Y257826D01*
X101861Y258771D01*
X102143Y259825D01*
Y260916D01*
X101861Y261969D01*
X101315Y262914D01*
X100544Y263685D01*
X99599Y264231D01*
X98545Y264513D01*
D02*
G37*
G36*
X92143D02*
X83857D01*
Y256227D01*
X92143D01*
Y264513D01*
D02*
G37*
G36*
X14318Y258500D02*
X13682D01*
X13094Y258256D01*
X12644Y257806D01*
X12400Y257218D01*
Y256582D01*
X12644Y255994D01*
X13094Y255544D01*
X13682Y255300D01*
X14318D01*
X14906Y255544D01*
X15356Y255994D01*
X15600Y256582D01*
Y257218D01*
X15356Y257806D01*
X14906Y258256D01*
X14318Y258500D01*
D02*
G37*
G36*
X305428Y256354D02*
X302356D01*
Y253282D01*
X305428D01*
Y256354D01*
D02*
G37*
G36*
X301356D02*
X298285D01*
Y253282D01*
X301356D01*
Y256354D01*
D02*
G37*
G36*
X125395Y256446D02*
X124759D01*
X124170Y256203D01*
X123720Y255753D01*
X123477Y255165D01*
Y254528D01*
X123720Y253940D01*
X124170Y253490D01*
X124759Y253246D01*
X125395D01*
X125983Y253490D01*
X126433Y253940D01*
X126677Y254528D01*
Y255165D01*
X126433Y255753D01*
X125983Y256203D01*
X125395Y256446D01*
D02*
G37*
G36*
X261518Y255300D02*
X260882D01*
X260294Y255056D01*
X259844Y254606D01*
X259600Y254018D01*
Y253382D01*
X259844Y252794D01*
X260294Y252344D01*
X260882Y252100D01*
X261518D01*
X262106Y252344D01*
X262556Y252794D01*
X262800Y253382D01*
Y254018D01*
X262556Y254606D01*
X262106Y255056D01*
X261518Y255300D01*
D02*
G37*
G36*
X20911Y254700D02*
X20275D01*
X19687Y254456D01*
X19237Y254006D01*
X18993Y253418D01*
Y252782D01*
X19237Y252194D01*
X19687Y251744D01*
X20275Y251500D01*
X20911D01*
X21499Y251744D01*
X21879Y252123D01*
X22211Y252058D01*
X22379Y251970D01*
Y251532D01*
X22623Y250944D01*
X23073Y250494D01*
X23661Y250250D01*
X24297D01*
X24885Y250494D01*
X25336Y250944D01*
X25579Y251532D01*
Y252169D01*
X25336Y252757D01*
X24885Y253207D01*
X24297Y253450D01*
X23661D01*
X23073Y253207D01*
X22693Y252827D01*
X22361Y252893D01*
X22193Y252980D01*
Y253418D01*
X21949Y254006D01*
X21499Y254456D01*
X20911Y254700D01*
D02*
G37*
G36*
X292300Y256154D02*
X291412D01*
X290555Y255924D01*
X289786Y255480D01*
X289158Y254853D01*
X288714Y254084D01*
X288485Y253226D01*
Y252339D01*
X288714Y251481D01*
X289158Y250712D01*
X289786Y250084D01*
X290555Y249640D01*
X291412Y249411D01*
X292300D01*
X293158Y249640D01*
X293927Y250084D01*
X294554Y250712D01*
X294998Y251481D01*
X295228Y252339D01*
Y253226D01*
X294998Y254084D01*
X294554Y254853D01*
X293927Y255480D01*
X293158Y255924D01*
X292300Y256154D01*
D02*
G37*
G36*
X282300D02*
X281412D01*
X280555Y255924D01*
X279786Y255480D01*
X279158Y254853D01*
X278714Y254084D01*
X278485Y253226D01*
Y252339D01*
X278714Y251481D01*
X279158Y250712D01*
X279786Y250084D01*
X280555Y249640D01*
X281412Y249411D01*
X282300D01*
X283158Y249640D01*
X283927Y250084D01*
X284554Y250712D01*
X284998Y251481D01*
X285228Y252339D01*
Y253226D01*
X284998Y254084D01*
X284554Y254853D01*
X283927Y255480D01*
X283158Y255924D01*
X282300Y256154D01*
D02*
G37*
G36*
X272300D02*
X271412D01*
X270555Y255924D01*
X269786Y255480D01*
X269158Y254853D01*
X268714Y254084D01*
X268485Y253226D01*
Y252339D01*
X268714Y251481D01*
X269158Y250712D01*
X269786Y250084D01*
X270555Y249640D01*
X271412Y249411D01*
X272300D01*
X273158Y249640D01*
X273926Y250084D01*
X274554Y250712D01*
X274998Y251481D01*
X275228Y252339D01*
Y253226D01*
X274998Y254084D01*
X274554Y254853D01*
X273926Y255480D01*
X273158Y255924D01*
X272300Y256154D01*
D02*
G37*
G36*
X305428Y252282D02*
X302356D01*
Y249211D01*
X305428D01*
Y252282D01*
D02*
G37*
G36*
X301356D02*
X298285D01*
Y249211D01*
X301356D01*
Y252282D01*
D02*
G37*
G36*
X261518Y250300D02*
X260882D01*
X260294Y250056D01*
X259844Y249606D01*
X259600Y249018D01*
Y248382D01*
X259844Y247794D01*
X260294Y247344D01*
X260882Y247100D01*
X261518D01*
X262106Y247344D01*
X262556Y247794D01*
X262800Y248382D01*
Y249018D01*
X262556Y249606D01*
X262106Y250056D01*
X261518Y250300D01*
D02*
G37*
G36*
X292511Y248438D02*
X291875D01*
X291287Y248194D01*
X290837Y247744D01*
X290593Y247156D01*
Y246519D01*
X290837Y245931D01*
X291287Y245481D01*
X291875Y245237D01*
X292511D01*
X293099Y245481D01*
X293549Y245931D01*
X293793Y246519D01*
Y247156D01*
X293549Y247744D01*
X293099Y248194D01*
X292511Y248438D01*
D02*
G37*
G36*
X282174D02*
X281538D01*
X280950Y248194D01*
X280500Y247744D01*
X280256Y247156D01*
Y246519D01*
X280500Y245931D01*
X280950Y245481D01*
X281538Y245237D01*
X282174D01*
X282763Y245481D01*
X283213Y245931D01*
X283456Y246519D01*
Y247156D01*
X283213Y247744D01*
X282763Y248194D01*
X282174Y248438D01*
D02*
G37*
G36*
X84177Y246813D02*
X83540D01*
X82952Y246569D01*
X82502Y246119D01*
X82259Y245531D01*
Y244894D01*
X82502Y244306D01*
X82952Y243856D01*
X83540Y243613D01*
X84177D01*
X84765Y243856D01*
X85215Y244306D01*
X85459Y244894D01*
Y245531D01*
X85215Y246119D01*
X84765Y246569D01*
X84177Y246813D01*
D02*
G37*
G36*
X93800Y245696D02*
X93164D01*
X92576Y245453D01*
X92126Y245003D01*
X91882Y244415D01*
Y243778D01*
X92126Y243190D01*
X92576Y242740D01*
X93164Y242496D01*
X93800D01*
X94389Y242740D01*
X94839Y243190D01*
X95082Y243778D01*
Y244415D01*
X94839Y245003D01*
X94389Y245453D01*
X93800Y245696D01*
D02*
G37*
G36*
X124952Y240536D02*
X124316D01*
X123728Y240293D01*
X123278Y239843D01*
X123034Y239255D01*
Y238618D01*
X123278Y238030D01*
X123728Y237580D01*
X124316Y237336D01*
X124952D01*
X125540Y237580D01*
X125991Y238030D01*
X126234Y238618D01*
Y239255D01*
X125991Y239843D01*
X125540Y240293D01*
X124952Y240536D01*
D02*
G37*
G36*
X88900Y235123D02*
X88264D01*
X87675Y234879D01*
X87226Y234429D01*
X86982Y233841D01*
Y233205D01*
X87226Y232617D01*
X87675Y232167D01*
X88264Y231923D01*
X88900D01*
X89488Y232167D01*
X89938Y232617D01*
X90182Y233205D01*
Y233841D01*
X89938Y234429D01*
X89488Y234879D01*
X88900Y235123D01*
D02*
G37*
G36*
X266538Y224980D02*
X265902D01*
X265314Y224736D01*
X264864Y224286D01*
X264620Y223698D01*
Y223061D01*
X264864Y222473D01*
X265314Y222023D01*
X265902Y221780D01*
X266538D01*
X267126Y222023D01*
X267577Y222473D01*
X267820Y223061D01*
Y223698D01*
X267577Y224286D01*
X267126Y224736D01*
X266538Y224980D01*
D02*
G37*
G36*
X300596Y219401D02*
X299960D01*
X299372Y219157D01*
X298922Y218707D01*
X298678Y218119D01*
Y217483D01*
X298922Y216895D01*
X299372Y216444D01*
X299960Y216201D01*
X300596D01*
X301184Y216444D01*
X301635Y216895D01*
X301878Y217483D01*
Y218119D01*
X301635Y218707D01*
X301184Y219157D01*
X300596Y219401D01*
D02*
G37*
G36*
X227590Y218466D02*
X226954D01*
X226365Y218222D01*
X225915Y217772D01*
X225672Y217184D01*
Y216547D01*
X225915Y215959D01*
X226365Y215509D01*
X226954Y215266D01*
X227590D01*
X228178Y215509D01*
X228628Y215959D01*
X228872Y216547D01*
Y217184D01*
X228628Y217772D01*
X228178Y218222D01*
X227590Y218466D01*
D02*
G37*
G36*
X74600Y245649D02*
X8200D01*
X7741Y245459D01*
X6741Y244459D01*
X6551Y244000D01*
X6741Y243541D01*
X7451Y242831D01*
Y213600D01*
X7641Y213141D01*
X8100Y212951D01*
X30860D01*
X30965Y212994D01*
X31104Y212936D01*
X31554Y212486D01*
X32142Y212243D01*
X32779D01*
X33367Y212486D01*
X33817Y212936D01*
X33956Y212994D01*
X34060Y212951D01*
X50092D01*
X50153Y212976D01*
X50218Y212963D01*
X50376Y213068D01*
X50551Y213141D01*
X50552Y213141D01*
X50924Y212770D01*
X51512Y212526D01*
X52149D01*
X52737Y212770D01*
X53108Y213141D01*
X53110Y213141D01*
X53285Y213068D01*
X53442Y212963D01*
X53508Y212976D01*
X53569Y212951D01*
X68366D01*
X68485Y213000D01*
X68614D01*
X68705Y213091D01*
X68825Y213141D01*
X68874Y213260D01*
X68966Y213351D01*
X69094Y213661D01*
X69542Y213475D01*
X70179D01*
X70627Y213661D01*
X70755Y213351D01*
X70846Y213260D01*
X70896Y213141D01*
X71015Y213091D01*
X71106Y213000D01*
X71236D01*
X71355Y212951D01*
X74793D01*
X74912Y213000D01*
X75041D01*
X75133Y213091D01*
X75252Y213141D01*
X75301Y213260D01*
X75393Y213351D01*
X75600Y213851D01*
Y213981D01*
X75649Y214100D01*
X75600Y214219D01*
Y214349D01*
X75509Y214440D01*
X75459Y214559D01*
X75249Y214769D01*
Y223862D01*
X75209Y223960D01*
X75216Y224066D01*
X75117Y224181D01*
X75059Y224321D01*
X74717Y224631D01*
X74960Y225219D01*
Y225856D01*
X74717Y226444D01*
X75059Y226754D01*
X75117Y226894D01*
X75216Y227009D01*
X75209Y227115D01*
X75249Y227214D01*
Y245000D01*
X75059Y245459D01*
X74600Y245649D01*
D02*
G37*
G36*
X220274Y214800D02*
X219638D01*
X219050Y214556D01*
X218599Y214106D01*
X218356Y213518D01*
Y212882D01*
X218599Y212294D01*
X219050Y211844D01*
X219638Y211600D01*
X220274D01*
X220862Y211844D01*
X221312Y212294D01*
X221556Y212882D01*
Y213518D01*
X221312Y214106D01*
X220862Y214556D01*
X220274Y214800D01*
D02*
G37*
G36*
X301693Y214737D02*
X301057D01*
X300469Y214493D01*
X300019Y214043D01*
X299775Y213455D01*
Y212819D01*
X300019Y212230D01*
X300469Y211780D01*
X301057Y211537D01*
X301693D01*
X302281Y211780D01*
X302731Y212230D01*
X302975Y212819D01*
Y213455D01*
X302731Y214043D01*
X302281Y214493D01*
X301693Y214737D01*
D02*
G37*
G36*
X280869Y214709D02*
X280233D01*
X279644Y214466D01*
X279194Y214016D01*
X278951Y213428D01*
Y212791D01*
X279194Y212203D01*
X279644Y211753D01*
X280233Y211509D01*
X280869D01*
X281457Y211753D01*
X281907Y212203D01*
X282151Y212791D01*
Y213428D01*
X281907Y214016D01*
X281457Y214466D01*
X280869Y214709D01*
D02*
G37*
G36*
X210910Y209109D02*
X210273D01*
X209685Y208865D01*
X209235Y208415D01*
X209042Y207950D01*
X208589Y207890D01*
X208522Y207900D01*
X208377Y208250D01*
X207927Y208701D01*
X207339Y208944D01*
X206702D01*
X206114Y208701D01*
X205702Y208289D01*
X205420Y208268D01*
X205138Y208289D01*
X204727Y208701D01*
X204138Y208944D01*
X203502D01*
X202914Y208701D01*
X202464Y208250D01*
X202220Y207662D01*
Y207026D01*
X202464Y206438D01*
X202914Y205988D01*
X203502Y205744D01*
X204138D01*
X204727Y205988D01*
X205138Y206400D01*
X205420Y206420D01*
X205702Y206400D01*
X206114Y205988D01*
X206702Y205744D01*
X207339D01*
X207927Y205988D01*
X208377Y206438D01*
X208569Y206903D01*
X209022Y206963D01*
X209090Y206953D01*
X209235Y206603D01*
X209685Y206152D01*
X210273Y205909D01*
X210910D01*
X211498Y206152D01*
X211948Y206603D01*
X212489Y206602D01*
X212542Y206474D01*
X212992Y206024D01*
X213580Y205780D01*
X214217D01*
X214805Y206024D01*
X215255Y206474D01*
X215498Y207062D01*
Y207698D01*
X215255Y208286D01*
X214805Y208736D01*
X214217Y208980D01*
X213580D01*
X212992Y208736D01*
X212542Y208286D01*
X212001Y208287D01*
X211948Y208415D01*
X211498Y208865D01*
X210910Y209109D01*
D02*
G37*
G36*
X198370Y208980D02*
X197733D01*
X197145Y208736D01*
X196695Y208286D01*
X196451Y207698D01*
Y207062D01*
X196695Y206474D01*
X197145Y206024D01*
X197733Y205780D01*
X198370D01*
X198958Y206024D01*
X199408Y206474D01*
X199651Y207062D01*
Y207698D01*
X199408Y208286D01*
X198958Y208736D01*
X198370Y208980D01*
D02*
G37*
G36*
X305362Y205801D02*
X304725D01*
X304137Y205558D01*
X303687Y205107D01*
X303444Y204519D01*
Y203883D01*
X303687Y203295D01*
X304137Y202845D01*
X304725Y202601D01*
X305362D01*
X305950Y202845D01*
X306400Y203295D01*
X306644Y203883D01*
Y204519D01*
X306400Y205107D01*
X305950Y205558D01*
X305362Y205801D01*
D02*
G37*
G36*
X223012Y205100D02*
X222375D01*
X221787Y204856D01*
X221337Y204406D01*
X221094Y203818D01*
Y203182D01*
X221337Y202594D01*
X221787Y202144D01*
X222375Y201900D01*
X223012D01*
X223600Y202144D01*
X224050Y202594D01*
X224294Y203182D01*
Y203818D01*
X224050Y204406D01*
X223600Y204856D01*
X223012Y205100D01*
D02*
G37*
G36*
X296118Y207000D02*
X295482D01*
X294894Y206756D01*
X294444Y206306D01*
X294200Y205718D01*
Y205082D01*
X294444Y204494D01*
X294544Y204394D01*
X294428Y203805D01*
X293978Y203355D01*
X293735Y202767D01*
Y202130D01*
X293978Y201542D01*
X294428Y201092D01*
X295017Y200849D01*
X295653D01*
X296241Y201092D01*
X296691Y201542D01*
X296935Y202130D01*
Y202767D01*
X296691Y203355D01*
X296591Y203455D01*
X296706Y204044D01*
X297156Y204494D01*
X297400Y205082D01*
Y205718D01*
X297156Y206306D01*
X296706Y206756D01*
X296118Y207000D01*
D02*
G37*
G36*
X261950Y205760D02*
X260650D01*
X259375Y205506D01*
X258174Y205009D01*
X257093Y204287D01*
X256173Y203367D01*
X255451Y202286D01*
X254954Y201085D01*
X254700Y199810D01*
Y198510D01*
X254954Y197235D01*
X255451Y196034D01*
X256173Y194953D01*
X257093Y194033D01*
X258174Y193311D01*
X259375Y192814D01*
X260650Y192560D01*
X261950D01*
X263225Y192814D01*
X264426Y193311D01*
X265507Y194033D01*
X266426Y194953D01*
X267149Y196034D01*
X267250Y196277D01*
X267779Y196306D01*
X268229Y195856D01*
X268817Y195612D01*
X269454D01*
X270042Y195856D01*
X270492Y196306D01*
X270736Y196894D01*
Y197531D01*
X270492Y198119D01*
X270042Y198569D01*
X269454Y198812D01*
X268817D01*
X268400Y198640D01*
X267966Y198859D01*
X267900Y198932D01*
Y199810D01*
X267646Y201085D01*
X267149Y202286D01*
X266426Y203367D01*
X265507Y204287D01*
X264426Y205009D01*
X263225Y205506D01*
X261950Y205760D01*
D02*
G37*
G36*
X36950D02*
X35650D01*
X34375Y205506D01*
X33174Y205009D01*
X32093Y204287D01*
X31174Y203367D01*
X30451Y202286D01*
X29954Y201085D01*
X29700Y199810D01*
Y198510D01*
X29954Y197235D01*
X30451Y196034D01*
X31174Y194953D01*
X32093Y194033D01*
X33174Y193311D01*
X34375Y192814D01*
X35650Y192560D01*
X36950D01*
X38225Y192814D01*
X39426Y193311D01*
X40507Y194033D01*
X41427Y194953D01*
X42149Y196034D01*
X42646Y197235D01*
X42900Y198510D01*
Y199810D01*
X42646Y201085D01*
X42149Y202286D01*
X41427Y203367D01*
X40507Y204287D01*
X39426Y205009D01*
X38225Y205506D01*
X36950Y205760D01*
D02*
G37*
G36*
X307790Y188555D02*
X307154D01*
X306566Y188311D01*
X306116Y187861D01*
X305872Y187273D01*
Y186636D01*
X306116Y186048D01*
X306566Y185598D01*
X307154Y185354D01*
X307790D01*
X308379Y185598D01*
X308829Y186048D01*
X309072Y186636D01*
Y187273D01*
X308829Y187861D01*
X308379Y188311D01*
X307790Y188555D01*
D02*
G37*
G36*
X28918Y184900D02*
X28282D01*
X27694Y184656D01*
X27244Y184206D01*
X27000Y183618D01*
Y182982D01*
X27244Y182394D01*
X27694Y181944D01*
X28282Y181700D01*
X28918D01*
X29506Y181944D01*
X29956Y182394D01*
X30200Y182982D01*
Y183618D01*
X29956Y184206D01*
X29506Y184656D01*
X28918Y184900D01*
D02*
G37*
G36*
X205738Y176192D02*
X205102D01*
X204514Y175948D01*
X204064Y175498D01*
X203820Y174910D01*
Y174274D01*
X204064Y173686D01*
X204514Y173235D01*
X205102Y172992D01*
X205738D01*
X206327Y173235D01*
X206777Y173686D01*
X207020Y174274D01*
Y174910D01*
X206777Y175498D01*
X206327Y175948D01*
X205738Y176192D01*
D02*
G37*
G36*
X93318Y172800D02*
X92682D01*
X92094Y172556D01*
X91644Y172106D01*
X91400Y171518D01*
Y170882D01*
X91644Y170294D01*
X92094Y169844D01*
X92682Y169600D01*
X93318D01*
X93906Y169844D01*
X94356Y170294D01*
X94600Y170882D01*
Y171518D01*
X94356Y172106D01*
X93906Y172556D01*
X93318Y172800D01*
D02*
G37*
G36*
X224406Y172385D02*
X223770D01*
X223182Y172141D01*
X222732Y171691D01*
X222488Y171103D01*
Y170466D01*
X222732Y169878D01*
X223182Y169428D01*
X223770Y169185D01*
X224406D01*
X224994Y169428D01*
X225445Y169878D01*
X225688Y170466D01*
Y171103D01*
X225445Y171691D01*
X224994Y172141D01*
X224406Y172385D01*
D02*
G37*
G36*
X122718Y171700D02*
X122082D01*
X121494Y171456D01*
X121044Y171006D01*
X120800Y170418D01*
Y169782D01*
X121044Y169194D01*
X121494Y168744D01*
X122082Y168500D01*
X122718D01*
X123306Y168744D01*
X123756Y169194D01*
X124000Y169782D01*
Y170418D01*
X123756Y171006D01*
X123306Y171456D01*
X122718Y171700D01*
D02*
G37*
G36*
X65518Y170800D02*
X64882D01*
X64294Y170556D01*
X63844Y170106D01*
X63600Y169518D01*
Y168882D01*
X63844Y168294D01*
X64294Y167844D01*
X64882Y167600D01*
X65518D01*
X66106Y167844D01*
X66556Y168294D01*
X66800Y168882D01*
Y169518D01*
X66556Y170106D01*
X66106Y170556D01*
X65518Y170800D01*
D02*
G37*
G36*
X98525Y170736D02*
X97888D01*
X97300Y170492D01*
X96850Y170042D01*
X96607Y169454D01*
Y168818D01*
X96850Y168229D01*
X97300Y167779D01*
X97888Y167536D01*
X98525D01*
X99113Y167779D01*
X99563Y168229D01*
X99807Y168818D01*
Y169454D01*
X99563Y170042D01*
X99113Y170492D01*
X98525Y170736D01*
D02*
G37*
G36*
X74903D02*
X74266D01*
X73678Y170492D01*
X73228Y170042D01*
X72985Y169454D01*
Y168818D01*
X73228Y168229D01*
X73678Y167779D01*
X74266Y167536D01*
X74903D01*
X75491Y167779D01*
X75941Y168229D01*
X76185Y168818D01*
Y169454D01*
X75941Y170042D01*
X75491Y170492D01*
X74903Y170736D01*
D02*
G37*
G36*
X70179D02*
X69542D01*
X68954Y170492D01*
X68504Y170042D01*
X68260Y169454D01*
Y168818D01*
X68504Y168229D01*
X68954Y167779D01*
X69542Y167536D01*
X70179D01*
X70767Y167779D01*
X71217Y168229D01*
X71460Y168818D01*
Y169454D01*
X71217Y170042D01*
X70767Y170492D01*
X70179Y170736D01*
D02*
G37*
G36*
X32383D02*
X31747D01*
X31159Y170492D01*
X30709Y170042D01*
X30465Y169454D01*
Y168818D01*
X30709Y168229D01*
X31159Y167779D01*
X31747Y167536D01*
X32383D01*
X32971Y167779D01*
X33421Y168229D01*
X33665Y168818D01*
Y169454D01*
X33421Y170042D01*
X32971Y170492D01*
X32383Y170736D01*
D02*
G37*
G36*
X80169Y222933D02*
X79533D01*
X78945Y222689D01*
X78495Y222239D01*
X78251Y221651D01*
Y221288D01*
X77773Y221193D01*
X77616Y221088D01*
X77441Y221015D01*
X77415Y220954D01*
X77360Y220917D01*
X77323Y220731D01*
X77251Y220556D01*
Y176400D01*
X77441Y175941D01*
X77900Y175751D01*
X152731D01*
X154282Y174200D01*
X153941Y173859D01*
X153751Y173400D01*
Y163165D01*
X153251Y162958D01*
X152993Y163215D01*
X152405Y163459D01*
X151769D01*
X151181Y163215D01*
X150731Y162765D01*
X150487Y162177D01*
Y161541D01*
X150731Y160953D01*
X151181Y160503D01*
X151769Y160259D01*
X152405D01*
X152993Y160503D01*
X153251Y160760D01*
X153751Y160553D01*
Y144201D01*
X153251Y143983D01*
X152771Y144182D01*
X152135D01*
X151547Y143938D01*
X151097Y143488D01*
X150853Y142900D01*
Y142263D01*
X151097Y141675D01*
X151547Y141225D01*
X152135Y140982D01*
X152771D01*
X153251Y141180D01*
X153751Y140963D01*
Y83500D01*
X153941Y83041D01*
X154400Y82851D01*
X181252D01*
X181371Y82900D01*
X181500D01*
X181592Y82991D01*
X181711Y83041D01*
X181761Y83160D01*
X181852Y83252D01*
X182008Y83628D01*
X182294Y83510D01*
X182930D01*
X183105Y83582D01*
X183263Y83614D01*
X183707Y83496D01*
X183783Y83403D01*
X183933Y83322D01*
X183938Y83317D01*
X183943Y83317D01*
X183976Y83299D01*
X184159Y83177D01*
X184266Y83156D01*
X184331Y83169D01*
X184392Y83143D01*
X184567Y83216D01*
X184753Y83253D01*
X184790Y83308D01*
X184852Y83333D01*
X195305Y93786D01*
X195495Y94245D01*
Y207918D01*
X195422Y208093D01*
X195394Y208238D01*
X195385Y208707D01*
X195495Y209068D01*
X195495Y209191D01*
Y217491D01*
X195445Y217611D01*
Y217740D01*
X195354Y217831D01*
X195305Y217950D01*
X195185Y218000D01*
X195094Y218091D01*
X194675Y218265D01*
X194750Y218447D01*
Y219084D01*
X194675Y219267D01*
X195094Y219440D01*
X195185Y219532D01*
X195305Y219581D01*
X195354Y219700D01*
X195445Y219792D01*
Y219921D01*
X195495Y220040D01*
Y221000D01*
X195305Y221459D01*
X194845Y221649D01*
X81451D01*
Y221651D01*
X81208Y222239D01*
X80757Y222689D01*
X80169Y222933D01*
D02*
G37*
G36*
X137005Y163853D02*
X136369D01*
X135781Y163609D01*
X135331Y163159D01*
X135087Y162571D01*
Y161934D01*
X135331Y161346D01*
X135781Y160896D01*
X136369Y160653D01*
X137005D01*
X137593Y160896D01*
X138043Y161346D01*
X138287Y161934D01*
Y162571D01*
X138043Y163159D01*
X137593Y163609D01*
X137005Y163853D01*
D02*
G37*
G36*
X302568Y162594D02*
X301931D01*
X301343Y162350D01*
X300893Y161900D01*
X300649Y161312D01*
Y160675D01*
X300893Y160087D01*
X301343Y159637D01*
X301931Y159394D01*
X302568D01*
X303156Y159637D01*
X303606Y160087D01*
X303849Y160675D01*
Y161312D01*
X303606Y161900D01*
X303156Y162350D01*
X302568Y162594D01*
D02*
G37*
G36*
X112818Y159700D02*
X112182D01*
X111594Y159456D01*
X111144Y159006D01*
X110900Y158418D01*
Y157782D01*
X111144Y157194D01*
X111594Y156744D01*
X112182Y156500D01*
X112818D01*
X113406Y156744D01*
X113856Y157194D01*
X114100Y157782D01*
Y158418D01*
X113856Y159006D01*
X113406Y159456D01*
X112818Y159700D01*
D02*
G37*
G36*
X198114Y158292D02*
X197478D01*
X196890Y158049D01*
X196440Y157598D01*
X196196Y157010D01*
Y156374D01*
X196440Y155786D01*
X196890Y155336D01*
X197478Y155092D01*
X198114D01*
X198702Y155336D01*
X199152Y155786D01*
X199396Y156374D01*
Y157010D01*
X199152Y157598D01*
X198702Y158049D01*
X198114Y158292D01*
D02*
G37*
G36*
X73553Y158277D02*
X72916D01*
X72328Y158034D01*
X71878Y157583D01*
X71634Y156995D01*
Y156359D01*
X71878Y155771D01*
X72328Y155321D01*
X72916Y155077D01*
X73553D01*
X74141Y155321D01*
X74591Y155771D01*
X74834Y156359D01*
Y156995D01*
X74591Y157583D01*
X74141Y158034D01*
X73553Y158277D01*
D02*
G37*
G36*
X205961Y157040D02*
X205325D01*
X204737Y156796D01*
X204287Y156346D01*
X204043Y155758D01*
Y155122D01*
X204287Y154534D01*
X204737Y154083D01*
X205325Y153840D01*
X205961D01*
X206550Y154083D01*
X207000Y154534D01*
X207243Y155122D01*
Y155758D01*
X207000Y156346D01*
X206550Y156796D01*
X205961Y157040D01*
D02*
G37*
G36*
X64666Y155453D02*
X64029D01*
X63441Y155209D01*
X62991Y154759D01*
X62747Y154171D01*
Y153534D01*
X62991Y152946D01*
X63441Y152496D01*
X64029Y152253D01*
X64666D01*
X65254Y152496D01*
X65704Y152946D01*
X65947Y153534D01*
Y154171D01*
X65704Y154759D01*
X65254Y155209D01*
X64666Y155453D01*
D02*
G37*
G36*
X300696Y153690D02*
X300060D01*
X299472Y153447D01*
X299022Y152997D01*
X298778Y152409D01*
Y151772D01*
X299022Y151184D01*
X299472Y150734D01*
X300060Y150490D01*
X300696D01*
X301284Y150734D01*
X301734Y151184D01*
X301978Y151772D01*
Y152409D01*
X301734Y152997D01*
X301284Y153447D01*
X300696Y153690D01*
D02*
G37*
G36*
X80818Y153553D02*
X80182D01*
X79594Y153309D01*
X79144Y152859D01*
X78900Y152271D01*
Y151635D01*
X79144Y151046D01*
X79594Y150596D01*
X80182Y150353D01*
X80818D01*
X81406Y150596D01*
X81856Y151046D01*
X82100Y151635D01*
Y152271D01*
X81856Y152859D01*
X81406Y153309D01*
X80818Y153553D01*
D02*
G37*
G36*
X34818Y152400D02*
X34182D01*
X33594Y152156D01*
X33144Y151706D01*
X32900Y151118D01*
Y150482D01*
X33144Y149894D01*
X33594Y149444D01*
X34182Y149200D01*
X34818D01*
X35406Y149444D01*
X35856Y149894D01*
X36100Y150482D01*
Y151118D01*
X35856Y151706D01*
X35406Y152156D01*
X34818Y152400D01*
D02*
G37*
G36*
X41832Y150200D02*
X41195D01*
X40607Y149956D01*
X40157Y149506D01*
X39914Y148918D01*
Y148282D01*
X40157Y147694D01*
X40607Y147244D01*
X41195Y147000D01*
X41832D01*
X42420Y147244D01*
X42870Y147694D01*
X43114Y148282D01*
Y148918D01*
X42870Y149506D01*
X42420Y149956D01*
X41832Y150200D01*
D02*
G37*
G36*
X57159Y143508D02*
X56522D01*
X55934Y143264D01*
X55484Y142814D01*
X55240Y142226D01*
Y141590D01*
X55484Y141001D01*
X55934Y140551D01*
X56522Y140308D01*
X57159D01*
X57747Y140551D01*
X58197Y141001D01*
X58441Y141590D01*
Y142226D01*
X58197Y142814D01*
X57747Y143264D01*
X57159Y143508D01*
D02*
G37*
G36*
X48426D02*
X47790D01*
X47202Y143264D01*
X46752Y142814D01*
X46508Y142226D01*
Y141590D01*
X46752Y141001D01*
X47202Y140551D01*
X47790Y140308D01*
X48426D01*
X49015Y140551D01*
X49465Y141001D01*
X49708Y141590D01*
Y142226D01*
X49465Y142814D01*
X49015Y143264D01*
X48426Y143508D01*
D02*
G37*
G36*
X107919Y142697D02*
X107282D01*
X106694Y142453D01*
X106244Y142003D01*
X106000Y141415D01*
Y140779D01*
X106244Y140190D01*
X106694Y139740D01*
X107282Y139497D01*
X107919D01*
X108507Y139740D01*
X108957Y140190D01*
X109200Y140779D01*
Y141415D01*
X108957Y142003D01*
X108507Y142453D01*
X107919Y142697D01*
D02*
G37*
G36*
X96679D02*
X96042D01*
X95454Y142453D01*
X95004Y142003D01*
X94760Y141415D01*
Y140779D01*
X95004Y140190D01*
X95454Y139740D01*
X96042Y139497D01*
X96679D01*
X97267Y139740D01*
X97717Y140190D01*
X97960Y140779D01*
Y141415D01*
X97717Y142003D01*
X97267Y142453D01*
X96679Y142697D01*
D02*
G37*
G36*
X142497Y141105D02*
X141860D01*
X141272Y140862D01*
X140822Y140412D01*
X140579Y139824D01*
Y139187D01*
X140822Y138599D01*
X141272Y138149D01*
X141860Y137906D01*
X142497D01*
X143085Y138149D01*
X143535Y138599D01*
X143779Y139187D01*
Y139824D01*
X143535Y140412D01*
X143085Y140862D01*
X142497Y141105D01*
D02*
G37*
G36*
X142618Y135200D02*
X141982D01*
X141394Y134956D01*
X140944Y134506D01*
X140700Y133918D01*
Y133282D01*
X140944Y132694D01*
X141394Y132244D01*
X141982Y132000D01*
X142618D01*
X143206Y132244D01*
X143656Y132694D01*
X143900Y133282D01*
Y133918D01*
X143656Y134506D01*
X143206Y134956D01*
X142618Y135200D01*
D02*
G37*
G36*
X57159Y134917D02*
X56522D01*
X55934Y134674D01*
X55484Y134224D01*
X55240Y133636D01*
Y132999D01*
X55484Y132411D01*
X55934Y131961D01*
X56522Y131717D01*
X57159D01*
X57747Y131961D01*
X58197Y132411D01*
X58441Y132999D01*
Y133636D01*
X58197Y134224D01*
X57747Y134674D01*
X57159Y134917D01*
D02*
G37*
G36*
X48426D02*
X47790D01*
X47202Y134674D01*
X46752Y134224D01*
X46508Y133636D01*
Y132999D01*
X46752Y132411D01*
X47202Y131961D01*
X47790Y131717D01*
X48426D01*
X49015Y131961D01*
X49465Y132411D01*
X49708Y132999D01*
Y133636D01*
X49465Y134224D01*
X49015Y134674D01*
X48426Y134917D01*
D02*
G37*
G36*
X289845Y137143D02*
X288755D01*
X287701Y136861D01*
X286756Y136316D01*
X285984Y135544D01*
X285439Y134599D01*
X285157Y133545D01*
Y132455D01*
X285439Y131401D01*
X285984Y130456D01*
X286756Y129684D01*
X287701Y129139D01*
X288755Y128857D01*
X289845D01*
X290899Y129139D01*
X291844Y129684D01*
X292616Y130456D01*
X293161Y131401D01*
X293443Y132455D01*
Y133545D01*
X293161Y134599D01*
X292616Y135544D01*
X291844Y136316D01*
X290899Y136861D01*
X289845Y137143D01*
D02*
G37*
G36*
X107919Y131185D02*
X107282D01*
X106694Y130941D01*
X106244Y130491D01*
X106000Y129903D01*
Y129267D01*
X106244Y128679D01*
X106694Y128229D01*
X107282Y127985D01*
X107919D01*
X108507Y128229D01*
X108957Y128679D01*
X109200Y129267D01*
Y129903D01*
X108957Y130491D01*
X108507Y130941D01*
X107919Y131185D01*
D02*
G37*
G36*
X96679D02*
X96042D01*
X95454Y130941D01*
X95004Y130491D01*
X94760Y129903D01*
Y129267D01*
X95004Y128679D01*
X95454Y128229D01*
X96042Y127985D01*
X96679D01*
X97267Y128229D01*
X97717Y128679D01*
X97960Y129267D01*
Y129903D01*
X97717Y130491D01*
X97267Y130941D01*
X96679Y131185D01*
D02*
G37*
G36*
X89991Y125593D02*
X89354D01*
X88766Y125349D01*
X88316Y124899D01*
X88072Y124311D01*
Y123675D01*
X88316Y123087D01*
X88766Y122637D01*
X89354Y122393D01*
X89991D01*
X90579Y122637D01*
X91029Y123087D01*
X91272Y123675D01*
Y124311D01*
X91029Y124899D01*
X90579Y125349D01*
X89991Y125593D01*
D02*
G37*
G36*
X270010Y124600D02*
X269374D01*
X268786Y124356D01*
X268336Y123906D01*
X268092Y123318D01*
Y122682D01*
X268336Y122094D01*
X268786Y121644D01*
X269374Y121400D01*
X270010D01*
X270599Y121644D01*
X271049Y122094D01*
X271292Y122682D01*
Y123318D01*
X271049Y123906D01*
X270599Y124356D01*
X270010Y124600D01*
D02*
G37*
G36*
X115518Y122100D02*
X114882D01*
X114294Y121856D01*
X113844Y121406D01*
X113600Y120818D01*
Y120182D01*
X113844Y119594D01*
X114294Y119144D01*
X114882Y118900D01*
X115518D01*
X116106Y119144D01*
X116556Y119594D01*
X116800Y120182D01*
Y120818D01*
X116556Y121406D01*
X116106Y121856D01*
X115518Y122100D01*
D02*
G37*
G36*
X289845Y127143D02*
X288755D01*
X287701Y126861D01*
X286756Y126315D01*
X285984Y125544D01*
X285439Y124599D01*
X285157Y123546D01*
Y122455D01*
X285439Y121401D01*
X285984Y120456D01*
X286756Y119685D01*
X287701Y119139D01*
X288755Y118857D01*
X289845D01*
X290899Y119139D01*
X291844Y119685D01*
X292616Y120456D01*
X293161Y121401D01*
X293443Y122455D01*
Y123546D01*
X293161Y124599D01*
X292616Y125544D01*
X291844Y126315D01*
X290899Y126861D01*
X289845Y127143D01*
D02*
G37*
G36*
X146018Y119300D02*
X145382D01*
X144794Y119056D01*
X144344Y118606D01*
X144100Y118018D01*
Y117382D01*
X144344Y116794D01*
X144794Y116344D01*
X145382Y116100D01*
X146018D01*
X146606Y116344D01*
X147056Y116794D01*
X147300Y117382D01*
Y118018D01*
X147056Y118606D01*
X146606Y119056D01*
X146018Y119300D01*
D02*
G37*
G36*
X119518D02*
X118882D01*
X118294Y119056D01*
X117844Y118606D01*
X117600Y118018D01*
Y117382D01*
X117844Y116794D01*
X118294Y116344D01*
X118882Y116100D01*
X119518D01*
X120106Y116344D01*
X120338Y116575D01*
X120437Y116549D01*
X120800Y116330D01*
Y115817D01*
X121044Y115229D01*
X121494Y114779D01*
X122082Y114535D01*
X122718D01*
X123306Y114779D01*
X123756Y115229D01*
X124000Y115817D01*
Y116454D01*
X123756Y117042D01*
X123306Y117492D01*
X122718Y117735D01*
X122082D01*
X121494Y117492D01*
X121262Y117260D01*
X121163Y117286D01*
X120800Y117505D01*
Y118018D01*
X120556Y118606D01*
X120106Y119056D01*
X119518Y119300D01*
D02*
G37*
G36*
X270010Y114493D02*
X269374D01*
X268786Y114250D01*
X268336Y113799D01*
X268092Y113211D01*
Y112575D01*
X268336Y111987D01*
X268786Y111537D01*
X269374Y111293D01*
X270010D01*
X270599Y111537D01*
X271049Y111987D01*
X271292Y112575D01*
Y113211D01*
X271049Y113799D01*
X270599Y114250D01*
X270010Y114493D01*
D02*
G37*
G36*
X289845Y117143D02*
X288755D01*
X287701Y116861D01*
X286756Y116315D01*
X285984Y115544D01*
X285439Y114599D01*
X285157Y113546D01*
Y112454D01*
X285439Y111401D01*
X285984Y110456D01*
X286756Y109685D01*
X287701Y109139D01*
X288755Y108857D01*
X289845D01*
X290899Y109139D01*
X291844Y109685D01*
X292616Y110456D01*
X293161Y111401D01*
X293443Y112454D01*
Y113546D01*
X293161Y114599D01*
X292616Y115544D01*
X291844Y116315D01*
X290899Y116861D01*
X289845Y117143D01*
D02*
G37*
G36*
X126742Y109059D02*
X126106D01*
X125518Y108816D01*
X125068Y108366D01*
X124824Y107778D01*
Y107141D01*
X125068Y106553D01*
X125518Y106103D01*
X126106Y105859D01*
X126742D01*
X127330Y106103D01*
X127780Y106553D01*
X128024Y107141D01*
Y107778D01*
X127780Y108366D01*
X127330Y108816D01*
X126742Y109059D01*
D02*
G37*
G36*
X32383Y108697D02*
X31747D01*
X31159Y108454D01*
X30709Y108003D01*
X30465Y107415D01*
Y106779D01*
X30709Y106191D01*
X31159Y105741D01*
X31747Y105497D01*
X32383D01*
X32971Y105741D01*
X33421Y106191D01*
X33665Y106779D01*
Y107415D01*
X33421Y108003D01*
X32971Y108454D01*
X32383Y108697D01*
D02*
G37*
G36*
X70179Y108129D02*
X69542D01*
X68954Y107886D01*
X68504Y107436D01*
X68260Y106848D01*
Y106211D01*
X68504Y105623D01*
X68954Y105173D01*
X69542Y104929D01*
X70179D01*
X70767Y105173D01*
X71217Y105623D01*
X71460Y106211D01*
Y106848D01*
X71217Y107436D01*
X70767Y107886D01*
X70179Y108129D01*
D02*
G37*
G36*
X106118Y108000D02*
X105482D01*
X104894Y107756D01*
X104444Y107306D01*
X104200Y106718D01*
Y106082D01*
X104444Y105494D01*
X104894Y105044D01*
X105482Y104800D01*
X106118D01*
X106706Y105044D01*
X107156Y105494D01*
X107400Y106082D01*
Y106718D01*
X107156Y107306D01*
X106706Y107756D01*
X106118Y108000D01*
D02*
G37*
G36*
X113961Y107942D02*
X113324D01*
X112736Y107699D01*
X112286Y107249D01*
X112042Y106660D01*
Y106024D01*
X112286Y105436D01*
X112736Y104986D01*
X113324Y104742D01*
X113961D01*
X114549Y104986D01*
X114999Y105436D01*
X115242Y106024D01*
Y106660D01*
X114999Y107249D01*
X114549Y107699D01*
X113961Y107942D01*
D02*
G37*
G36*
X76018Y107200D02*
X75382D01*
X74794Y106956D01*
X74344Y106506D01*
X74100Y105918D01*
Y105282D01*
X74344Y104694D01*
X74794Y104244D01*
X75382Y104000D01*
X76018D01*
X76606Y104244D01*
X77056Y104694D01*
X77300Y105282D01*
Y105918D01*
X77056Y106506D01*
X76606Y106956D01*
X76018Y107200D01*
D02*
G37*
G36*
X139347Y105762D02*
X138711D01*
X138123Y105518D01*
X137673Y105068D01*
X137429Y104480D01*
Y103844D01*
X137673Y103255D01*
X138123Y102805D01*
X138711Y102562D01*
X139347D01*
X139936Y102805D01*
X140385Y103255D01*
X140629Y103844D01*
Y104480D01*
X140385Y105068D01*
X139936Y105518D01*
X139347Y105762D01*
D02*
G37*
G36*
X297718Y105300D02*
X297082D01*
X296494Y105056D01*
X296044Y104606D01*
X295800Y104018D01*
Y103382D01*
X296044Y102794D01*
X296494Y102344D01*
X297082Y102100D01*
X297718D01*
X298306Y102344D01*
X298756Y102794D01*
X299000Y103382D01*
Y104018D01*
X298756Y104606D01*
X298306Y105056D01*
X297718Y105300D01*
D02*
G37*
G36*
X71418Y103100D02*
X70782D01*
X70194Y102856D01*
X69744Y102406D01*
X69500Y101818D01*
Y101182D01*
X69744Y100594D01*
X70194Y100144D01*
X70782Y99900D01*
X71418D01*
X72006Y100144D01*
X72456Y100594D01*
X72700Y101182D01*
Y101818D01*
X72456Y102406D01*
X72006Y102856D01*
X71418Y103100D01*
D02*
G37*
G36*
X131121Y102800D02*
X130485D01*
X129897Y102556D01*
X129447Y102106D01*
X129203Y101518D01*
Y100882D01*
X129447Y100294D01*
X129897Y99844D01*
X130485Y99600D01*
X131121D01*
X131710Y99844D01*
X132160Y100294D01*
X132403Y100882D01*
Y101518D01*
X132160Y102106D01*
X131710Y102556D01*
X131121Y102800D01*
D02*
G37*
G36*
X289845Y107143D02*
X288755D01*
X287701Y106861D01*
X286756Y106316D01*
X285984Y105544D01*
X285439Y104599D01*
X285157Y103545D01*
Y102454D01*
X285439Y101401D01*
X285984Y100456D01*
X286756Y99685D01*
X287701Y99139D01*
X288755Y98857D01*
X289845D01*
X290899Y99139D01*
X291844Y99685D01*
X292616Y100456D01*
X293161Y101401D01*
X293443Y102454D01*
Y103545D01*
X293161Y104599D01*
X292616Y105544D01*
X291844Y106316D01*
X290899Y106861D01*
X289845Y107143D01*
D02*
G37*
G36*
X223818Y100610D02*
X223182D01*
X222594Y100366D01*
X222144Y99916D01*
X221900Y99328D01*
Y98691D01*
X222144Y98103D01*
X222594Y97653D01*
X223182Y97410D01*
X223818D01*
X224406Y97653D01*
X224856Y98103D01*
X225100Y98691D01*
Y99328D01*
X224856Y99916D01*
X224406Y100366D01*
X223818Y100610D01*
D02*
G37*
G36*
X150548Y98539D02*
X149911D01*
X149323Y98295D01*
X148873Y97845D01*
X148629Y97257D01*
Y96621D01*
X148873Y96033D01*
X149323Y95582D01*
X149911Y95339D01*
X150548D01*
X151136Y95582D01*
X151586Y96033D01*
X151829Y96621D01*
Y97257D01*
X151586Y97845D01*
X151136Y98295D01*
X150548Y98539D01*
D02*
G37*
G36*
X297518Y94533D02*
X296882D01*
X296294Y94289D01*
X295844Y93839D01*
X295600Y93251D01*
Y92615D01*
X295844Y92027D01*
X296294Y91576D01*
X296882Y91333D01*
X297518D01*
X298106Y91576D01*
X298556Y92027D01*
X298800Y92615D01*
Y93251D01*
X298556Y93839D01*
X298106Y94289D01*
X297518Y94533D01*
D02*
G37*
G36*
X150618Y94100D02*
X149982D01*
X149394Y93856D01*
X148944Y93406D01*
X148700Y92818D01*
Y92182D01*
X148944Y91594D01*
X149394Y91144D01*
X149982Y90900D01*
X150618D01*
X151206Y91144D01*
X151656Y91594D01*
X151900Y92182D01*
Y92818D01*
X151656Y93406D01*
X151206Y93856D01*
X150618Y94100D01*
D02*
G37*
G36*
X28918Y93190D02*
X28282D01*
X27694Y92947D01*
X27244Y92497D01*
X27000Y91909D01*
Y91272D01*
X27244Y90684D01*
X27694Y90234D01*
X28282Y89990D01*
X28918D01*
X29506Y90234D01*
X29956Y90684D01*
X30200Y91272D01*
Y91909D01*
X29956Y92497D01*
X29506Y92947D01*
X28918Y93190D01*
D02*
G37*
G36*
X293443Y97143D02*
X285157D01*
Y88857D01*
X293443D01*
Y97143D01*
D02*
G37*
G36*
X7500Y86644D02*
X6927Y86490D01*
X6293Y86124D01*
X5776Y85607D01*
X5409Y84973D01*
X5256Y84400D01*
X7500D01*
Y86644D01*
D02*
G37*
G36*
X39500Y70000D02*
X38864D01*
X38275Y69756D01*
X37825Y69306D01*
X37582Y68718D01*
Y68082D01*
X37825Y67494D01*
X38275Y67044D01*
X38864Y66800D01*
X39500D01*
X40088Y67044D01*
X40538Y67494D01*
X40782Y68082D01*
Y68718D01*
X40538Y69306D01*
X40088Y69756D01*
X39500Y70000D01*
D02*
G37*
G36*
X299045Y71943D02*
X297955D01*
X296901Y71661D01*
X295956Y71115D01*
X295184Y70344D01*
X294639Y69399D01*
X294357Y68345D01*
Y67255D01*
X294639Y66201D01*
X295184Y65256D01*
X295956Y64485D01*
X296901Y63939D01*
X297955Y63657D01*
X299045D01*
X300099Y63939D01*
X301044Y64485D01*
X301816Y65256D01*
X302361Y66201D01*
X302643Y67255D01*
Y68345D01*
X302361Y69399D01*
X301816Y70344D01*
X301044Y71115D01*
X300099Y71661D01*
X299045Y71943D01*
D02*
G37*
G36*
X164018Y64800D02*
X163382D01*
X162794Y64556D01*
X162344Y64106D01*
X162100Y63518D01*
Y62882D01*
X162344Y62294D01*
X162794Y61844D01*
X163382Y61600D01*
X164018D01*
X164606Y61844D01*
X165056Y62294D01*
X165300Y62882D01*
Y63518D01*
X165056Y64106D01*
X164606Y64556D01*
X164018Y64800D01*
D02*
G37*
G36*
X299045Y61943D02*
X297955D01*
X296901Y61661D01*
X295956Y61115D01*
X295184Y60344D01*
X294639Y59399D01*
X294357Y58346D01*
Y57254D01*
X294639Y56201D01*
X295184Y55256D01*
X295956Y54484D01*
X296901Y53939D01*
X297955Y53657D01*
X299045D01*
X300099Y53939D01*
X301044Y54484D01*
X301816Y55256D01*
X302361Y56201D01*
X302643Y57254D01*
Y58346D01*
X302361Y59399D01*
X301816Y60344D01*
X301044Y61115D01*
X300099Y61661D01*
X299045Y61943D01*
D02*
G37*
G36*
X299072Y52143D02*
X299000D01*
Y48300D01*
X302843D01*
Y48372D01*
X302547Y49476D01*
X301975Y50467D01*
X301167Y51275D01*
X300177Y51847D01*
X299072Y52143D01*
D02*
G37*
G36*
X298000D02*
X297928D01*
X296824Y51847D01*
X295833Y51275D01*
X295024Y50467D01*
X294453Y49476D01*
X294157Y48372D01*
Y48300D01*
X298000D01*
Y52143D01*
D02*
G37*
G36*
X209811Y50766D02*
X209174D01*
X208586Y50523D01*
X208136Y50073D01*
X207892Y49485D01*
Y48848D01*
X208136Y48260D01*
X208586Y47810D01*
X209174Y47566D01*
X209811D01*
X210399Y47810D01*
X210849Y48260D01*
X211092Y48848D01*
Y49485D01*
X210849Y50073D01*
X210399Y50523D01*
X209811Y50766D01*
D02*
G37*
G36*
X266718Y49518D02*
X266082D01*
X265494Y49275D01*
X265044Y48825D01*
X264800Y48237D01*
Y47600D01*
X265044Y47012D01*
X265494Y46562D01*
X266082Y46318D01*
X266718D01*
X267306Y46562D01*
X267756Y47012D01*
X268000Y47600D01*
Y48237D01*
X267756Y48825D01*
X267306Y49275D01*
X266718Y49518D01*
D02*
G37*
G36*
X189556Y49200D02*
X188920D01*
X188332Y48956D01*
X187882Y48506D01*
X187638Y47918D01*
Y47282D01*
X187882Y46694D01*
X188332Y46244D01*
X188920Y46000D01*
X189556D01*
X190145Y46244D01*
X190595Y46694D01*
X190838Y47282D01*
Y47918D01*
X190595Y48506D01*
X190145Y48956D01*
X189556Y49200D01*
D02*
G37*
G36*
X195618Y49144D02*
X194982D01*
X194394Y48900D01*
X193944Y48450D01*
X193700Y47862D01*
Y47226D01*
X193944Y46638D01*
X194394Y46187D01*
X194982Y45944D01*
X195618D01*
X196206Y46187D01*
X196656Y46638D01*
X196900Y47226D01*
Y47862D01*
X196656Y48450D01*
X196206Y48900D01*
X195618Y49144D01*
D02*
G37*
G36*
X302843Y47300D02*
X299000D01*
Y43457D01*
X299072D01*
X300177Y43753D01*
X301167Y44324D01*
X301975Y45133D01*
X302547Y46124D01*
X302843Y47228D01*
Y47300D01*
D02*
G37*
G36*
X298000D02*
X294157D01*
Y47228D01*
X294453Y46124D01*
X295024Y45133D01*
X295833Y44324D01*
X296824Y43753D01*
X297928Y43457D01*
X298000D01*
Y47300D01*
D02*
G37*
G36*
X284305Y43716D02*
X283669D01*
X283081Y43472D01*
X282630Y43022D01*
X282387Y42434D01*
Y41798D01*
X282630Y41210D01*
X283081Y40760D01*
X283669Y40516D01*
X284305D01*
X284893Y40760D01*
X285343Y41210D01*
X285587Y41798D01*
Y42434D01*
X285343Y43022D01*
X284893Y43472D01*
X284305Y43716D01*
D02*
G37*
G36*
X178947Y40693D02*
X178311D01*
X177723Y40450D01*
X177273Y40000D01*
X177029Y39412D01*
Y38775D01*
X177273Y38187D01*
X177723Y37737D01*
X178311Y37493D01*
X178947D01*
X179535Y37737D01*
X179985Y38187D01*
X180229Y38775D01*
Y39412D01*
X179985Y40000D01*
X179535Y40450D01*
X178947Y40693D01*
D02*
G37*
G36*
X279212Y37976D02*
X278575D01*
X277987Y37732D01*
X277537Y37282D01*
X277294Y36694D01*
Y36058D01*
X277537Y35470D01*
X277987Y35019D01*
X278575Y34776D01*
X279212D01*
X279800Y35019D01*
X280250Y35470D01*
X280494Y36058D01*
Y36694D01*
X280250Y37282D01*
X279800Y37732D01*
X279212Y37976D01*
D02*
G37*
G36*
X302643Y41943D02*
X294357D01*
Y33657D01*
X302643D01*
Y41943D01*
D02*
G37*
G36*
X275686Y36013D02*
X275049D01*
X274461Y35770D01*
X274011Y35320D01*
X273768Y34732D01*
Y34095D01*
X274011Y33507D01*
X274461Y33057D01*
X275049Y32813D01*
X275686D01*
X276274Y33057D01*
X276724Y33507D01*
X276968Y34095D01*
Y34732D01*
X276724Y35320D01*
X276274Y35770D01*
X275686Y36013D01*
D02*
G37*
G36*
X164337Y32186D02*
X163700D01*
X163112Y31943D01*
X162662Y31492D01*
X162418Y30904D01*
Y30268D01*
X162662Y29680D01*
X163112Y29230D01*
X163700Y28986D01*
X164337D01*
X164925Y29230D01*
X165375Y29680D01*
X165618Y30268D01*
Y30904D01*
X165375Y31492D01*
X164925Y31943D01*
X164337Y32186D01*
D02*
G37*
G36*
X153919Y32131D02*
X153282D01*
X152694Y31887D01*
X152244Y31437D01*
X152000Y30849D01*
Y30212D01*
X152244Y29624D01*
X152694Y29174D01*
X153282Y28931D01*
X153919D01*
X154507Y29174D01*
X154957Y29624D01*
X155200Y30212D01*
Y30849D01*
X154957Y31437D01*
X154507Y31887D01*
X153919Y32131D01*
D02*
G37*
G36*
X168928Y28002D02*
X168292D01*
X167704Y27758D01*
X167254Y27308D01*
X167010Y26720D01*
Y26083D01*
X167254Y25495D01*
X167704Y25045D01*
X168292Y24802D01*
X168928D01*
X169517Y25045D01*
X169967Y25495D01*
X170210Y26083D01*
Y26720D01*
X169967Y27308D01*
X169517Y27758D01*
X168928Y28002D01*
D02*
G37*
G36*
X301418Y27200D02*
X300782D01*
X300194Y26956D01*
X299744Y26506D01*
X299500Y25918D01*
Y25282D01*
X299744Y24694D01*
X300194Y24244D01*
X300782Y24000D01*
X301418D01*
X302006Y24244D01*
X302456Y24694D01*
X302700Y25282D01*
Y25918D01*
X302456Y26506D01*
X302006Y26956D01*
X301418Y27200D01*
D02*
G37*
G36*
X21118Y22200D02*
X20482D01*
X19894Y21956D01*
X19444Y21506D01*
X19200Y20918D01*
Y20282D01*
X19444Y19694D01*
X19894Y19244D01*
X20482Y19000D01*
X21118D01*
X21706Y19244D01*
X22156Y19694D01*
X22400Y20282D01*
Y20918D01*
X22156Y21506D01*
X21706Y21956D01*
X21118Y22200D01*
D02*
G37*
G36*
X124101Y20469D02*
X123464D01*
X122876Y20225D01*
X122426Y19775D01*
X122183Y19187D01*
Y18550D01*
X122426Y17962D01*
X122876Y17512D01*
X123464Y17268D01*
X124101D01*
X124689Y17512D01*
X125139Y17962D01*
X125383Y18550D01*
Y19187D01*
X125139Y19775D01*
X124689Y20225D01*
X124101Y20469D01*
D02*
G37*
G36*
X114101D02*
X113464D01*
X112876Y20225D01*
X112426Y19775D01*
X112183Y19187D01*
Y18550D01*
X112426Y17962D01*
X112876Y17512D01*
X113464Y17268D01*
X114101D01*
X114689Y17512D01*
X115139Y17962D01*
X115383Y18550D01*
Y19187D01*
X115139Y19775D01*
X114689Y20225D01*
X114101Y20469D01*
D02*
G37*
G36*
X84001D02*
X83364D01*
X82776Y20225D01*
X82326Y19775D01*
X82083Y19187D01*
Y18550D01*
X82326Y17962D01*
X82776Y17512D01*
X83364Y17268D01*
X84001D01*
X84589Y17512D01*
X85039Y17962D01*
X85283Y18550D01*
Y19187D01*
X85039Y19775D01*
X84589Y20225D01*
X84001Y20469D01*
D02*
G37*
G36*
X104101Y20369D02*
X103464D01*
X102876Y20125D01*
X102426Y19675D01*
X102183Y19087D01*
Y18450D01*
X102426Y17862D01*
X102876Y17412D01*
X103464Y17168D01*
X104101D01*
X104689Y17412D01*
X105139Y17862D01*
X105383Y18450D01*
Y19087D01*
X105139Y19675D01*
X104689Y20125D01*
X104101Y20369D01*
D02*
G37*
G36*
X94101D02*
X93464D01*
X92876Y20125D01*
X92426Y19675D01*
X92183Y19087D01*
Y18450D01*
X92426Y17862D01*
X92876Y17412D01*
X93464Y17168D01*
X94101D01*
X94689Y17412D01*
X95139Y17862D01*
X95383Y18450D01*
Y19087D01*
X95139Y19675D01*
X94689Y20125D01*
X94101Y20369D01*
D02*
G37*
G36*
X64391Y14991D02*
X64300D01*
Y11000D01*
X68291D01*
Y11091D01*
X67985Y12233D01*
X67394Y13258D01*
X66558Y14094D01*
X65533Y14685D01*
X64391Y14991D01*
D02*
G37*
G36*
X63300D02*
X63209D01*
X62067Y14685D01*
X61042Y14094D01*
X60206Y13258D01*
X59615Y12233D01*
X59309Y11091D01*
Y11000D01*
X63300D01*
Y14991D01*
D02*
G37*
G36*
X46818Y9800D02*
X46182D01*
X45594Y9556D01*
X45144Y9106D01*
X44900Y8518D01*
Y7882D01*
X45144Y7294D01*
X45594Y6844D01*
X46182Y6600D01*
X46818D01*
X47406Y6844D01*
X47856Y7294D01*
X48100Y7882D01*
Y8518D01*
X47856Y9106D01*
X47406Y9556D01*
X46818Y9800D01*
D02*
G37*
G36*
X244365Y14791D02*
X243235D01*
X242144Y14499D01*
X241165Y13934D01*
X240366Y13135D01*
X239802Y12156D01*
X239509Y11065D01*
Y9935D01*
X239802Y8844D01*
X240366Y7865D01*
X241165Y7066D01*
X242144Y6502D01*
X243235Y6209D01*
X244365D01*
X245456Y6502D01*
X246435Y7066D01*
X247234Y7865D01*
X247798Y8844D01*
X248091Y9935D01*
Y11065D01*
X247798Y12156D01*
X247234Y13135D01*
X246435Y13934D01*
X245456Y14499D01*
X244365Y14791D01*
D02*
G37*
G36*
X234365D02*
X233235D01*
X232144Y14499D01*
X231165Y13934D01*
X230366Y13135D01*
X229802Y12156D01*
X229509Y11065D01*
Y9935D01*
X229802Y8844D01*
X230366Y7865D01*
X231165Y7066D01*
X232144Y6502D01*
X233235Y6209D01*
X234365D01*
X235456Y6502D01*
X236435Y7066D01*
X237234Y7865D01*
X237799Y8844D01*
X238091Y9935D01*
Y11065D01*
X237799Y12156D01*
X237234Y13135D01*
X236435Y13934D01*
X235456Y14499D01*
X234365Y14791D01*
D02*
G37*
G36*
X224365D02*
X223235D01*
X222144Y14499D01*
X221165Y13934D01*
X220366Y13135D01*
X219801Y12156D01*
X219509Y11065D01*
Y9935D01*
X219801Y8844D01*
X220366Y7865D01*
X221165Y7066D01*
X222144Y6502D01*
X223235Y6209D01*
X224365D01*
X225456Y6502D01*
X226435Y7066D01*
X227234Y7865D01*
X227799Y8844D01*
X228091Y9935D01*
Y11065D01*
X227799Y12156D01*
X227234Y13135D01*
X226435Y13934D01*
X225456Y14499D01*
X224365Y14791D01*
D02*
G37*
G36*
X214365D02*
X213235D01*
X212144Y14499D01*
X211165Y13934D01*
X210366Y13135D01*
X209802Y12156D01*
X209509Y11065D01*
Y9935D01*
X209802Y8844D01*
X210366Y7865D01*
X211165Y7066D01*
X212144Y6502D01*
X213235Y6209D01*
X214365D01*
X215456Y6502D01*
X216435Y7066D01*
X217234Y7865D01*
X217798Y8844D01*
X218091Y9935D01*
Y11065D01*
X217798Y12156D01*
X217234Y13135D01*
X216435Y13934D01*
X215456Y14499D01*
X214365Y14791D01*
D02*
G37*
G36*
X204365D02*
X203235D01*
X202144Y14499D01*
X201165Y13934D01*
X200366Y13135D01*
X199802Y12156D01*
X199509Y11065D01*
Y9935D01*
X199802Y8844D01*
X200366Y7865D01*
X201165Y7066D01*
X202144Y6502D01*
X203235Y6209D01*
X204365D01*
X205456Y6502D01*
X206435Y7066D01*
X207234Y7865D01*
X207799Y8844D01*
X208091Y9935D01*
Y11065D01*
X207799Y12156D01*
X207234Y13135D01*
X206435Y13934D01*
X205456Y14499D01*
X204365Y14791D01*
D02*
G37*
G36*
X194365D02*
X193235D01*
X192144Y14499D01*
X191165Y13934D01*
X190366Y13135D01*
X189802Y12156D01*
X189509Y11065D01*
Y9935D01*
X189802Y8844D01*
X190366Y7865D01*
X191165Y7066D01*
X192144Y6502D01*
X193235Y6209D01*
X194365D01*
X195456Y6502D01*
X196435Y7066D01*
X197234Y7865D01*
X197799Y8844D01*
X198091Y9935D01*
Y11065D01*
X197799Y12156D01*
X197234Y13135D01*
X196435Y13934D01*
X195456Y14499D01*
X194365Y14791D01*
D02*
G37*
G36*
X184101Y18222D02*
X183465D01*
X182877Y17978D01*
X182427Y17528D01*
X182183Y16940D01*
Y16304D01*
X182427Y15716D01*
X182877Y15266D01*
X182955Y15233D01*
X182920Y14706D01*
X182144Y14499D01*
X181165Y13934D01*
X180366Y13135D01*
X179801Y12156D01*
X179509Y11065D01*
Y9935D01*
X179801Y8844D01*
X180366Y7865D01*
X181165Y7066D01*
X182144Y6502D01*
X183235Y6209D01*
X184365D01*
X185456Y6502D01*
X186435Y7066D01*
X187234Y7865D01*
X187799Y8844D01*
X188091Y9935D01*
Y11065D01*
X187799Y12156D01*
X187234Y13135D01*
X186435Y13934D01*
X185456Y14499D01*
X184660Y14712D01*
X184625Y15239D01*
X184689Y15266D01*
X185140Y15716D01*
X185383Y16304D01*
Y16940D01*
X185140Y17528D01*
X184689Y17978D01*
X184101Y18222D01*
D02*
G37*
G36*
X174365Y14791D02*
X173235D01*
X172144Y14499D01*
X171165Y13934D01*
X170366Y13135D01*
X169801Y12156D01*
X169509Y11065D01*
Y9935D01*
X169801Y8844D01*
X170366Y7865D01*
X171165Y7066D01*
X172144Y6502D01*
X173235Y6209D01*
X174365D01*
X175456Y6502D01*
X176435Y7066D01*
X177234Y7865D01*
X177798Y8844D01*
X178091Y9935D01*
Y11065D01*
X177798Y12156D01*
X177234Y13135D01*
X176435Y13934D01*
X175456Y14499D01*
X174365Y14791D01*
D02*
G37*
G36*
X164365D02*
X163235D01*
X162144Y14499D01*
X161165Y13934D01*
X160366Y13135D01*
X159801Y12156D01*
X159509Y11065D01*
Y9935D01*
X159801Y8844D01*
X160366Y7865D01*
X161165Y7066D01*
X162144Y6502D01*
X163235Y6209D01*
X164365D01*
X165456Y6502D01*
X166435Y7066D01*
X167234Y7865D01*
X167798Y8844D01*
X168091Y9935D01*
Y11065D01*
X167798Y12156D01*
X167234Y13135D01*
X166435Y13934D01*
X165456Y14499D01*
X164365Y14791D01*
D02*
G37*
G36*
X154365D02*
X153235D01*
X152144Y14499D01*
X151165Y13934D01*
X150366Y13135D01*
X149802Y12156D01*
X149509Y11065D01*
Y9935D01*
X149802Y8844D01*
X150366Y7865D01*
X151165Y7066D01*
X152144Y6502D01*
X153235Y6209D01*
X154365D01*
X155456Y6502D01*
X156435Y7066D01*
X157234Y7865D01*
X157799Y8844D01*
X158091Y9935D01*
Y11065D01*
X157799Y12156D01*
X157234Y13135D01*
X156435Y13934D01*
X155456Y14499D01*
X154365Y14791D01*
D02*
G37*
G36*
X144365D02*
X143235D01*
X142144Y14499D01*
X141165Y13934D01*
X140366Y13135D01*
X139802Y12156D01*
X139509Y11065D01*
Y9935D01*
X139802Y8844D01*
X140366Y7865D01*
X141165Y7066D01*
X142144Y6502D01*
X143235Y6209D01*
X144365D01*
X145456Y6502D01*
X146435Y7066D01*
X147234Y7865D01*
X147799Y8844D01*
X148091Y9935D01*
Y11065D01*
X147799Y12156D01*
X147234Y13135D01*
X146435Y13934D01*
X145456Y14499D01*
X144365Y14791D01*
D02*
G37*
G36*
X134365D02*
X133235D01*
X132144Y14499D01*
X131165Y13934D01*
X130366Y13135D01*
X129801Y12156D01*
X129509Y11065D01*
Y9935D01*
X129801Y8844D01*
X130366Y7865D01*
X131165Y7066D01*
X132144Y6502D01*
X133235Y6209D01*
X134365D01*
X135456Y6502D01*
X136435Y7066D01*
X137234Y7865D01*
X137799Y8844D01*
X138091Y9935D01*
Y11065D01*
X137799Y12156D01*
X137234Y13135D01*
X136435Y13934D01*
X135456Y14499D01*
X134365Y14791D01*
D02*
G37*
G36*
X124365D02*
X123235D01*
X122144Y14499D01*
X121165Y13934D01*
X120366Y13135D01*
X119801Y12156D01*
X119509Y11065D01*
Y9935D01*
X119801Y8844D01*
X120366Y7865D01*
X121165Y7066D01*
X122144Y6502D01*
X123235Y6209D01*
X124365D01*
X125456Y6502D01*
X126435Y7066D01*
X127234Y7865D01*
X127798Y8844D01*
X128091Y9935D01*
Y11065D01*
X127798Y12156D01*
X127234Y13135D01*
X126435Y13934D01*
X125456Y14499D01*
X124365Y14791D01*
D02*
G37*
G36*
X114365D02*
X113235D01*
X112144Y14499D01*
X111165Y13934D01*
X110366Y13135D01*
X109801Y12156D01*
X109509Y11065D01*
Y9935D01*
X109801Y8844D01*
X110366Y7865D01*
X111165Y7066D01*
X112144Y6502D01*
X113235Y6209D01*
X114365D01*
X115456Y6502D01*
X116435Y7066D01*
X117234Y7865D01*
X117798Y8844D01*
X118091Y9935D01*
Y11065D01*
X117798Y12156D01*
X117234Y13135D01*
X116435Y13934D01*
X115456Y14499D01*
X114365Y14791D01*
D02*
G37*
G36*
X104365D02*
X103235D01*
X102144Y14499D01*
X101165Y13934D01*
X100366Y13135D01*
X99801Y12156D01*
X99509Y11065D01*
Y9935D01*
X99801Y8844D01*
X100366Y7865D01*
X101165Y7066D01*
X102144Y6502D01*
X103235Y6209D01*
X104365D01*
X105456Y6502D01*
X106435Y7066D01*
X107234Y7865D01*
X107799Y8844D01*
X108091Y9935D01*
Y11065D01*
X107799Y12156D01*
X107234Y13135D01*
X106435Y13934D01*
X105456Y14499D01*
X104365Y14791D01*
D02*
G37*
G36*
X94365D02*
X93235D01*
X92144Y14499D01*
X91165Y13934D01*
X90366Y13135D01*
X89802Y12156D01*
X89509Y11065D01*
Y9935D01*
X89802Y8844D01*
X90366Y7865D01*
X91165Y7066D01*
X92144Y6502D01*
X93235Y6209D01*
X94365D01*
X95456Y6502D01*
X96435Y7066D01*
X97234Y7865D01*
X97799Y8844D01*
X98091Y9935D01*
Y11065D01*
X97799Y12156D01*
X97234Y13135D01*
X96435Y13934D01*
X95456Y14499D01*
X94365Y14791D01*
D02*
G37*
G36*
X84365D02*
X83235D01*
X82144Y14499D01*
X81165Y13934D01*
X80366Y13135D01*
X79801Y12156D01*
X79509Y11065D01*
Y9935D01*
X79801Y8844D01*
X80366Y7865D01*
X81165Y7066D01*
X82144Y6502D01*
X83235Y6209D01*
X84365D01*
X85456Y6502D01*
X86435Y7066D01*
X87234Y7865D01*
X87799Y8844D01*
X88091Y9935D01*
Y11065D01*
X87799Y12156D01*
X87234Y13135D01*
X86435Y13934D01*
X85456Y14499D01*
X84365Y14791D01*
D02*
G37*
G36*
X74365D02*
X73235D01*
X72144Y14499D01*
X71165Y13934D01*
X70366Y13135D01*
X69801Y12156D01*
X69509Y11065D01*
Y9935D01*
X69801Y8844D01*
X70366Y7865D01*
X71165Y7066D01*
X72144Y6502D01*
X73235Y6209D01*
X74365D01*
X75456Y6502D01*
X76435Y7066D01*
X77234Y7865D01*
X77798Y8844D01*
X78091Y9935D01*
Y11065D01*
X77798Y12156D01*
X77234Y13135D01*
X76435Y13934D01*
X75456Y14499D01*
X74365Y14791D01*
D02*
G37*
G36*
X58091D02*
X49509D01*
Y6209D01*
X58091D01*
Y14791D01*
D02*
G37*
G36*
X68291Y10000D02*
X64300D01*
Y6009D01*
X64391D01*
X65533Y6315D01*
X66558Y6906D01*
X67394Y7743D01*
X67985Y8767D01*
X68291Y9909D01*
Y10000D01*
D02*
G37*
G36*
X63300D02*
X59309D01*
Y9909D01*
X59615Y8767D01*
X60206Y7743D01*
X61042Y6906D01*
X62067Y6315D01*
X63209Y6009D01*
X63300D01*
Y10000D01*
D02*
G37*
G36*
X261950Y18760D02*
X260650D01*
X259375Y18506D01*
X258174Y18009D01*
X257093Y17287D01*
X256173Y16367D01*
X255451Y15286D01*
X254954Y14085D01*
X254700Y12810D01*
Y11510D01*
X254954Y10235D01*
X255451Y9034D01*
X256173Y7953D01*
X257093Y7034D01*
X258174Y6311D01*
X259375Y5814D01*
X260650Y5560D01*
X261950D01*
X263225Y5814D01*
X264426Y6311D01*
X265507Y7034D01*
X266426Y7953D01*
X267149Y9034D01*
X267646Y10235D01*
X267900Y11510D01*
Y12810D01*
X267646Y14085D01*
X267149Y15286D01*
X266426Y16367D01*
X265507Y17287D01*
X264426Y18009D01*
X263225Y18506D01*
X261950Y18760D01*
D02*
G37*
G36*
X36950D02*
X35650D01*
X34375Y18506D01*
X33174Y18009D01*
X32093Y17287D01*
X31174Y16367D01*
X30451Y15286D01*
X29954Y14085D01*
X29700Y12810D01*
Y11510D01*
X29954Y10235D01*
X30451Y9034D01*
X31174Y7953D01*
X32093Y7034D01*
X33174Y6311D01*
X34375Y5814D01*
X35650Y5560D01*
X36950D01*
X38225Y5814D01*
X39426Y6311D01*
X40507Y7034D01*
X41427Y7953D01*
X42149Y9034D01*
X42646Y10235D01*
X42900Y11510D01*
Y12810D01*
X42646Y14085D01*
X42149Y15286D01*
X41427Y16367D01*
X40507Y17287D01*
X39426Y18009D01*
X38225Y18506D01*
X36950Y18760D01*
D02*
G37*
%LPD*%
G36*
X74600Y227214D02*
X74100Y226963D01*
X73678Y227138D01*
X73042D01*
X72454Y226894D01*
X72004Y226444D01*
X71760Y225856D01*
Y225219D01*
X72004Y224631D01*
X72454Y224181D01*
X73042Y223938D01*
X73678D01*
X74100Y224112D01*
X74600Y223862D01*
Y214500D01*
X75000Y214100D01*
X74793Y213600D01*
X71355D01*
X71148Y214100D01*
X71217Y214169D01*
X71460Y214757D01*
Y215393D01*
X71217Y215982D01*
X70767Y216432D01*
X70179Y216675D01*
X69542D01*
X68954Y216432D01*
X68504Y215982D01*
X68260Y215393D01*
Y214757D01*
X68504Y214169D01*
X68573Y214100D01*
X68366Y213600D01*
X53569D01*
X53430Y213808D01*
Y214444D01*
X53187Y215032D01*
X52737Y215482D01*
X52149Y215726D01*
X51512D01*
X50924Y215482D01*
X50474Y215032D01*
X50230Y214444D01*
Y213808D01*
X50092Y213600D01*
X34060D01*
Y214161D01*
X33817Y214749D01*
X33367Y215199D01*
X32779Y215443D01*
X32142D01*
X31554Y215199D01*
X31104Y214749D01*
X30860Y214161D01*
Y213600D01*
X8100D01*
Y243100D01*
X7200Y244000D01*
X8200Y245000D01*
X74600D01*
Y227214D01*
D02*
G37*
%LPC*%
G36*
X52384Y243353D02*
X51747D01*
X51159Y243109D01*
X50709Y242659D01*
X50465Y242071D01*
Y241434D01*
X50709Y240846D01*
X51159Y240396D01*
X51747Y240153D01*
X52384D01*
X52972Y240396D01*
X53422Y240846D01*
X53665Y241434D01*
Y242071D01*
X53422Y242659D01*
X52972Y243109D01*
X52384Y243353D01*
D02*
G37*
G36*
X24500Y235647D02*
X23864D01*
X23275Y235404D01*
X22825Y234954D01*
X22662Y234560D01*
X22217Y234380D01*
X22090Y234385D01*
X21570Y234600D01*
X20934D01*
X20346Y234356D01*
X19896Y233906D01*
X19652Y233318D01*
Y232682D01*
X19896Y232094D01*
X20346Y231644D01*
X20934Y231400D01*
X21570D01*
X22158Y231644D01*
X22608Y232094D01*
X22772Y232488D01*
X23217Y232667D01*
X23344Y232663D01*
X23864Y232447D01*
X24500D01*
X25088Y232691D01*
X25538Y233141D01*
X25782Y233729D01*
Y234366D01*
X25538Y234954D01*
X25088Y235404D01*
X24500Y235647D01*
D02*
G37*
G36*
X28068Y233238D02*
X27431D01*
X26843Y232994D01*
X26393Y232544D01*
X26149Y231956D01*
Y231319D01*
X26393Y230731D01*
X26843Y230281D01*
X27431Y230038D01*
X28068D01*
X28656Y230281D01*
X29106Y230731D01*
X29349Y231319D01*
Y231956D01*
X29106Y232544D01*
X28656Y232994D01*
X28068Y233238D01*
D02*
G37*
G36*
X53485Y225600D02*
X52848D01*
X52260Y225356D01*
X51810Y224906D01*
X51566Y224318D01*
Y223682D01*
X51810Y223094D01*
X52260Y222644D01*
X52848Y222400D01*
X53485D01*
X54073Y222644D01*
X54523Y223094D01*
X54766Y223682D01*
Y224318D01*
X54523Y224906D01*
X54073Y225356D01*
X53485Y225600D01*
D02*
G37*
G36*
X53505Y220869D02*
X52868D01*
X52280Y220625D01*
X51830Y220175D01*
X51587Y219587D01*
Y218951D01*
X51830Y218363D01*
X52280Y217913D01*
X52868Y217669D01*
X53505D01*
X54093Y217913D01*
X54543Y218363D01*
X54787Y218951D01*
Y219587D01*
X54543Y220175D01*
X54093Y220625D01*
X53505Y220869D01*
D02*
G37*
%LPD*%
G36*
X194845Y220040D02*
X194345Y219833D01*
X194056Y220122D01*
X193468Y220366D01*
X192832D01*
X192244Y220122D01*
X191794Y219672D01*
X191550Y219084D01*
Y218447D01*
X191794Y217859D01*
X192244Y217409D01*
X192832Y217166D01*
X193468D01*
X194056Y217409D01*
X194345Y217698D01*
X194845Y217491D01*
Y209068D01*
X194345Y208968D01*
X194167Y209399D01*
X193717Y209849D01*
X193129Y210093D01*
X192492D01*
X191904Y209849D01*
X191454Y209399D01*
X191210Y208811D01*
Y208175D01*
X191454Y207587D01*
X191904Y207137D01*
X192492Y206893D01*
X193129D01*
X193717Y207137D01*
X194167Y207587D01*
X194345Y208018D01*
X194845Y207918D01*
Y94245D01*
X184392Y83793D01*
X184286Y83814D01*
X184210Y83907D01*
X184039Y84373D01*
X184212Y84791D01*
Y85428D01*
X183969Y86016D01*
X183519Y86466D01*
X182930Y86710D01*
X182294D01*
X181706Y86466D01*
X181256Y86016D01*
X181012Y85428D01*
Y84791D01*
X181256Y84203D01*
X181459Y84000D01*
X181252Y83500D01*
X154400D01*
Y173400D01*
X155200Y174200D01*
X153000Y176400D01*
X77900D01*
Y220556D01*
X78400Y220655D01*
X78495Y220427D01*
X78945Y219977D01*
X79533Y219733D01*
X80169D01*
X80757Y219977D01*
X81208Y220427D01*
X81445Y221000D01*
X194845D01*
Y220040D01*
D02*
G37*
%LPC*%
G36*
X84211Y219864D02*
X83575D01*
X82987Y219620D01*
X82537Y219170D01*
X82293Y218582D01*
Y217946D01*
X82537Y217357D01*
X82987Y216907D01*
X83575Y216664D01*
X84211D01*
X84799Y216907D01*
X85249Y217357D01*
X85493Y217946D01*
Y218582D01*
X85249Y219170D01*
X84799Y219620D01*
X84211Y219864D01*
D02*
G37*
G36*
X95825Y219793D02*
X95189D01*
X94601Y219549D01*
X94151Y219099D01*
X93907Y218511D01*
Y217875D01*
X94151Y217287D01*
X94601Y216837D01*
X95189Y216593D01*
X95825D01*
X96413Y216837D01*
X96864Y217287D01*
X97107Y217875D01*
Y218511D01*
X96864Y219099D01*
X96413Y219549D01*
X95825Y219793D01*
D02*
G37*
G36*
X113841Y210168D02*
X113204D01*
X112616Y209924D01*
X112166Y209474D01*
X111923Y208886D01*
Y208249D01*
X112166Y207661D01*
X112616Y207211D01*
X113204Y206968D01*
X113841D01*
X114429Y207211D01*
X114879Y207661D01*
X115123Y208249D01*
Y208886D01*
X114879Y209474D01*
X114429Y209924D01*
X113841Y210168D01*
D02*
G37*
G36*
X170216Y209679D02*
X169579D01*
X168991Y209435D01*
X168541Y208985D01*
X168298Y208397D01*
Y207761D01*
X168541Y207172D01*
X168991Y206722D01*
X169579Y206479D01*
X170216D01*
X170804Y206722D01*
X171254Y207172D01*
X171497Y207761D01*
Y208397D01*
X171254Y208985D01*
X170804Y209435D01*
X170216Y209679D01*
D02*
G37*
G36*
X186745Y208232D02*
X186108D01*
X185520Y207988D01*
X185070Y207538D01*
X184827Y206950D01*
Y206314D01*
X185070Y205726D01*
X185520Y205276D01*
X186108Y205032D01*
X186745D01*
X187333Y205276D01*
X187783Y205726D01*
X188026Y206314D01*
Y206950D01*
X187783Y207538D01*
X187333Y207988D01*
X186745Y208232D01*
D02*
G37*
G36*
X95825Y190400D02*
X95189D01*
X94601Y190156D01*
X94151Y189706D01*
X93907Y189118D01*
Y188482D01*
X94151Y187894D01*
X94601Y187444D01*
X95189Y187200D01*
X95825D01*
X96413Y187444D01*
X96864Y187894D01*
X97107Y188482D01*
Y189118D01*
X96864Y189706D01*
X96413Y190156D01*
X95825Y190400D01*
D02*
G37*
G36*
X183299Y152421D02*
X182662D01*
X182074Y152177D01*
X181624Y151727D01*
X181380Y151139D01*
Y150503D01*
X181624Y149914D01*
X182074Y149464D01*
X182662Y149221D01*
X183299D01*
X183887Y149464D01*
X184337Y149914D01*
X184580Y150503D01*
Y151139D01*
X184337Y151727D01*
X183887Y152177D01*
X183299Y152421D01*
D02*
G37*
G36*
X174811Y126810D02*
X174174D01*
X173586Y126566D01*
X173136Y126116D01*
X172892Y125528D01*
Y124891D01*
X173136Y124303D01*
X173586Y123853D01*
X174174Y123610D01*
X174811D01*
X175399Y123853D01*
X175849Y124303D01*
X176093Y124891D01*
Y125528D01*
X175849Y126116D01*
X175399Y126566D01*
X174811Y126810D01*
D02*
G37*
G36*
X165312Y110742D02*
X164675D01*
X164087Y110498D01*
X163637Y110048D01*
X163394Y109460D01*
Y108823D01*
X163637Y108235D01*
X164087Y107785D01*
X164675Y107542D01*
X165312D01*
X165900Y107785D01*
X166350Y108235D01*
X166594Y108823D01*
Y109460D01*
X166350Y110048D01*
X165900Y110498D01*
X165312Y110742D01*
D02*
G37*
G36*
X172711Y106210D02*
X172074D01*
X171486Y105966D01*
X171036Y105516D01*
X170792Y104928D01*
Y104291D01*
X171036Y103703D01*
X171486Y103253D01*
X172074Y103010D01*
X172711D01*
X173299Y103253D01*
X173749Y103703D01*
X173993Y104291D01*
Y104928D01*
X173749Y105516D01*
X173299Y105966D01*
X172711Y106210D01*
D02*
G37*
G36*
X157518Y89136D02*
X156882D01*
X156294Y88893D01*
X155844Y88443D01*
X155600Y87854D01*
Y87218D01*
X155844Y86630D01*
X156294Y86180D01*
X156882Y85936D01*
X157518D01*
X158106Y86180D01*
X158556Y86630D01*
X158800Y87218D01*
Y87854D01*
X158556Y88443D01*
X158106Y88893D01*
X157518Y89136D01*
D02*
G37*
%LPD*%
D180*
X298500Y47800D02*
D03*
D184*
X301856Y252782D02*
D03*
D186*
X63800Y10500D02*
D03*
D187*
X8000Y83900D02*
D03*
D190*
X295335Y197990D02*
D03*
X160220Y52906D02*
D03*
X178738Y46391D02*
D03*
X185021Y40982D02*
D03*
X158128Y60319D02*
D03*
X305044Y196545D02*
D03*
X278706Y203714D02*
D03*
X273376Y203675D02*
D03*
X63700Y17700D02*
D03*
X277282Y20900D02*
D03*
X276570Y45906D02*
D03*
X279700Y43800D02*
D03*
X306856Y252782D02*
D03*
X11500Y231000D02*
D03*
X293300Y28716D02*
D03*
X157153Y114535D02*
D03*
Y120076D02*
D03*
Y126353D02*
D03*
X162524D02*
D03*
Y120076D02*
D03*
Y114535D02*
D03*
X165830Y168750D02*
D03*
X136778Y206632D02*
D03*
X131520Y206999D02*
D03*
X126424D02*
D03*
X136778Y212223D02*
D03*
X131520Y212000D02*
D03*
X126580Y212223D02*
D03*
X188931Y175051D02*
D03*
X190942Y156545D02*
D03*
X72103Y238592D02*
D03*
X2944Y84975D02*
D03*
X14993Y196100D02*
D03*
X139000Y119000D02*
D03*
X169250Y56907D02*
D03*
X194280Y41514D02*
D03*
X170951Y41856D02*
D03*
X169250Y48728D02*
D03*
X178449Y50952D02*
D03*
X157200Y98241D02*
D03*
X28933Y214840D02*
D03*
X52450Y77372D02*
D03*
X180511Y104543D02*
D03*
X183082Y112893D02*
D03*
X20252Y237887D02*
D03*
X33854Y231000D02*
D03*
X15000Y237887D02*
D03*
X10098Y238000D02*
D03*
M02*
