G04*
G04 #@! TF.GenerationSoftware,Altium Limited,Altium NEXUS,4.7.2 (13)*
G04*
G04 Layer_Color=16711935*
%FSLAX25Y25*%
%MOIN*%
G70*
G04*
G04 #@! TF.SameCoordinates,2623A66C-A178-4ADA-913C-0C76BB464C87*
G04*
G04*
G04 #@! TF.FilePolarity,Negative*
G04*
G01*
G75*
%ADD162C,0.07487*%
%ADD163R,0.07487X0.07487*%
%ADD164R,0.07487X0.07487*%
%ADD165C,0.05943*%
%ADD166R,0.05943X0.05943*%
%ADD167R,0.07782X0.07782*%
%ADD168C,0.07782*%
%ADD169C,0.04360*%
%ADD170C,0.12400*%
%ADD171C,0.14573*%
%ADD172C,0.02400*%
G36*
X211061Y129712D02*
X211099Y129701D01*
X211134Y129682D01*
X211164Y129657D01*
X211189Y129627D01*
X211208Y129592D01*
X211219Y129554D01*
X211223Y129515D01*
Y128026D01*
Y127933D01*
Y126722D01*
X211219Y126683D01*
X211208Y126645D01*
X211189Y126611D01*
X211164Y126580D01*
X211134Y126555D01*
X211099Y126537D01*
X211061Y126525D01*
X211022Y126521D01*
X208229D01*
X208190Y126525D01*
X208152Y126537D01*
X208118Y126555D01*
X208087Y126580D01*
X208062Y126611D01*
X208044Y126645D01*
X208032Y126683D01*
X208028Y126722D01*
Y129515D01*
X208032Y129554D01*
X208044Y129592D01*
X208062Y129627D01*
X208087Y129657D01*
X208118Y129682D01*
X208152Y129701D01*
X208190Y129712D01*
X208229Y129716D01*
X211022D01*
X211061Y129712D01*
D02*
G37*
G36*
X217020D02*
X217057Y129701D01*
X217092Y129682D01*
X217123Y129657D01*
X217148Y129627D01*
X217166Y129592D01*
X217178Y129554D01*
X217181Y129515D01*
Y126722D01*
X217178Y126683D01*
X217166Y126645D01*
X217148Y126611D01*
X217123Y126580D01*
X217092Y126555D01*
X217057Y126537D01*
X217020Y126525D01*
X216981Y126521D01*
X214188D01*
X214148Y126525D01*
X214111Y126537D01*
X214076Y126555D01*
X214045Y126580D01*
X214020Y126611D01*
X214002Y126645D01*
X213990Y126683D01*
X213987Y126722D01*
Y129515D01*
X213990Y129554D01*
X214002Y129592D01*
X214020Y129627D01*
X214045Y129657D01*
X214076Y129682D01*
X214111Y129701D01*
X214148Y129712D01*
X214188Y129716D01*
X216981D01*
X217020Y129712D01*
D02*
G37*
D162*
X289300Y123000D02*
D03*
Y113000D02*
D03*
Y103000D02*
D03*
Y133000D02*
D03*
X298500Y67800D02*
D03*
Y57800D02*
D03*
Y47800D02*
D03*
X98000Y260370D02*
D03*
X108000D02*
D03*
D163*
X289300Y93000D02*
D03*
X298500Y37800D02*
D03*
D164*
X88000Y260370D02*
D03*
D165*
X271856Y252782D02*
D03*
X281856D02*
D03*
X291856D02*
D03*
D166*
X301856D02*
D03*
D167*
X53800Y10500D02*
D03*
D168*
X63800D02*
D03*
X83800D02*
D03*
X93800D02*
D03*
X103800D02*
D03*
X113800D02*
D03*
X123800D02*
D03*
X133800D02*
D03*
X143800D02*
D03*
X153800D02*
D03*
X163800D02*
D03*
X173800D02*
D03*
X183800D02*
D03*
X193800D02*
D03*
X203800D02*
D03*
X213800D02*
D03*
X223800D02*
D03*
X233800D02*
D03*
X243800D02*
D03*
X73800D02*
D03*
D169*
X8000Y83900D02*
D03*
Y78900D02*
D03*
X13000Y83900D02*
D03*
Y78900D02*
D03*
Y68900D02*
D03*
Y73900D02*
D03*
X8000Y68900D02*
D03*
Y73900D02*
D03*
Y63900D02*
D03*
X13000D02*
D03*
D170*
X261300Y199160D02*
D03*
X36300Y12160D02*
D03*
Y199160D02*
D03*
X261300Y12160D02*
D03*
D171*
X305709Y9252D02*
D03*
Y266339D02*
D03*
X9252Y9252D02*
D03*
Y266339D02*
D03*
D172*
X300278Y217801D02*
D03*
X302249Y160994D02*
D03*
X301375Y213137D02*
D03*
X292193Y246837D02*
D03*
X281856D02*
D03*
X306856Y252782D02*
D03*
X271854Y259618D02*
D03*
X261200Y253700D02*
D03*
Y248700D02*
D03*
X224088Y170785D02*
D03*
X182980Y150821D02*
D03*
X205643Y155440D02*
D03*
X107600Y141097D02*
D03*
X96360D02*
D03*
Y129585D02*
D03*
X48108Y133317D02*
D03*
Y141908D02*
D03*
X56840D02*
D03*
Y133317D02*
D03*
X107600Y129585D02*
D03*
X209492Y49166D02*
D03*
X152453Y142582D02*
D03*
X95507Y188800D02*
D03*
M02*
