M48
;Layer_Color=9474304
;FILE_FORMAT=2:5
INCH,LZ
;TYPE=PLATED
T1F00S00C0.00800
T2F00S00C0.02560
T3F00S00C0.03543
T4F00S00C0.04921
T5F00S00C0.05000
T6F00S00C0.10000
T7F00S00C0.10630
%
T01
X00208Y00206
X00465Y00082
X00637Y00177
X0083683Y0018868
X0093783Y0018768
X0103783
X0113783Y0018868
X0123783
X0183783Y0016622
X0277282Y00209
X03011Y00256
X02933Y0028716
X0278894Y0036376
X0275368Y0034413
X027657Y0045906
X02797Y00438
X0283987Y0042116
X02664Y0047918
X0269692Y0112893
Y0123
X02974Y01037
X02972Y0092933
X0300378Y015209
X0302249Y0160994
X0224088Y0170785
X020542Y0174592
X0188931Y0175051
X0190942Y0156545
X0197796Y0156692
X0205643Y015544
X018298Y0150821
X0174493Y012521
X0162524Y0126353
X0157153
Y0120076
X0162524
Y0114535
X0157153
X0164994Y0109142
X0172392Y010461
X0180511Y0104543
X0183082Y0112893
X0182612Y008511
X01572Y0087536
Y0098241
X0150229Y0096939
X01503Y00925
X0139029Y0104162
X0130803Y01012
X0126424Y0107459
X01224Y0116135
X01192Y01177
X01152Y01205
X0113642Y0106342
X01058Y01064
X01076Y0129585
X009636
Y0141097
X01076
X01125Y01581
X01224Y01701
X0136687Y0162253
X0152087Y0161859
X0152453Y0142582
X0142179Y0139506
X01423Y01336
X0139Y0119
X01457Y01177
X0089672Y0123993
X0093Y01712
X0098207Y0169136
X016583Y016875
X01637Y00632
X0158128Y0060319
X016022Y0052906
X016925Y0056907
Y0048728
X0170951Y0041856
X0178629Y0039093
X0178738Y0046391
X0178449Y0050952
X0189238Y00476
X01953Y0047544
X019428Y0041514
X0185021Y0040982
X016861Y0026402
X0164018Y0030586
X01536Y0030531
X0209492Y0049166
X02235Y009901
X00757Y01056
X006986Y0106529
X00711Y01015
X005245Y0077372
X0039182Y00684
X00286Y009159
X0022486
X0016372
X0010258
X0004144
X0002944Y0084975
X00035Y007911
Y00639
X00029Y0049
X0003031Y0032531
X00286Y0097704
Y0103818
Y0109932
Y0116046
Y012216
Y0128274
Y0134388
Y0140502
Y0146616
Y015273
Y0158844
Y0164958
Y0171072
X0032065Y0169136
X00286Y0177186
X00345Y01508
X0041514Y01486
X0048108Y0141908
Y0133317
X005684
Y0141908
X0064347Y0153853
X0073234Y0156677
X00805Y0151953
X0074585Y0169136
X006986
X00652Y01692
X0032065Y0107097
X00286Y01833
X0022486
X0016372
X0010258
X0004144
X0014993Y01961
X0028933Y021484
X003246Y0213843
X0033854Y0231
X0027749Y0231638
X0024182Y0234047
X0021252Y0233
X0020252Y0237887
X0015
X0010098Y0238
X00115Y0231
X0014Y02569
X0020593Y02531
X0023979Y025185
X0034902Y02705
X0052858
X00683Y02697
X008065Y026037
X0083859Y0245213
X0072103Y0238592
X007336Y0225538
X0079851Y0221333
X0083893Y0218264
X006986Y0215075
X005183Y0214126
X0053187Y0219269
X0053166Y0224
X0052065Y0241753
X0093482Y0244096
X0088582Y0233523
X0095507Y0218193
X0113523Y0208568
X0126424Y0206999
X013152
Y0212
X012658Y0212223
X0136778
Y0206632
X0169897Y0208079
X0186426Y0206632
X019281Y0208493
X0198051Y020738
X020382Y0207344
X020702
X0210591Y0207509
X0213898Y020738
X0219956Y02132
X0227272Y0216866
X0222694Y02035
X019315Y0218766
X0172361Y0264234
X0125077Y0254846
X0124634Y0238936
X0095507Y01888
X0269135Y0197212
X0273376Y0203675
X0278706Y0203714
X0280551Y0213109
X0301375Y0213137
X0300278Y0217801
X02958Y02054
X0295335Y0202449
Y019799
X0305044Y0196545
Y0204201
X0307472Y0186954
X0306856Y0252782
X0292193Y0246837
X0281856
X02612Y02487
Y02537
Y02587
Y026387
X0271854Y0259618
X026622Y022338
T02
X0008Y00639
Y00689
X0013
Y00739
Y00789
X0008
Y00839
X0013
X0008Y00739
X0013Y00639
T03
X0271856Y0252782
X0281856
X0291856
X0301856
T04
X00538Y00105
X00638
X00738
X00838
X00938
X01038
X01138
X01238
X01338
X01438
X01538
X01638
X01738
X01838
X01938
X02038
X02138
X02238
X02338
X02438
T05
X02985Y00378
Y00478
Y00578
Y00678
X02893Y0093
Y0103
Y0113
Y0123
Y0133
X0088Y026037
X0098
X0108
T06
X00363Y001216
X02613
X00363Y019916
X02613
T07
X0009252Y0009252
X0305709
X0009252Y0266339
X0305709
M30
