G04*
G04 #@! TF.GenerationSoftware,Altium Limited,Altium Designer,21.6.1 (37)*
G04*
G04 Layer_Color=16711935*
%FSLAX25Y25*%
%MOIN*%
G70*
G04*
G04 #@! TF.SameCoordinates,18CB3FBA-EE43-4B35-A7A6-DE1691C197D8*
G04*
G04*
G04 #@! TF.FilePolarity,Negative*
G04*
G01*
G75*
%ADD160C,0.07487*%
%ADD161R,0.07487X0.07487*%
%ADD162R,0.07487X0.07487*%
%ADD163C,0.05943*%
%ADD164R,0.05943X0.05943*%
%ADD165R,0.07782X0.07782*%
%ADD166C,0.07782*%
%ADD167C,0.04360*%
%ADD168C,0.12400*%
%ADD169C,0.14573*%
%ADD170C,0.02400*%
G36*
X211061Y129712D02*
X211099Y129701D01*
X211134Y129682D01*
X211164Y129657D01*
X211189Y129627D01*
X211208Y129592D01*
X211219Y129554D01*
X211223Y129515D01*
Y128026D01*
Y127933D01*
Y126722D01*
X211219Y126683D01*
X211208Y126645D01*
X211189Y126611D01*
X211164Y126580D01*
X211134Y126555D01*
X211099Y126537D01*
X211061Y126525D01*
X211022Y126521D01*
X208229D01*
X208190Y126525D01*
X208152Y126537D01*
X208118Y126555D01*
X208087Y126580D01*
X208062Y126611D01*
X208044Y126645D01*
X208032Y126683D01*
X208028Y126722D01*
Y129515D01*
X208032Y129554D01*
X208044Y129592D01*
X208062Y129627D01*
X208087Y129657D01*
X208118Y129682D01*
X208152Y129701D01*
X208190Y129712D01*
X208229Y129716D01*
X211022D01*
X211061Y129712D01*
D02*
G37*
G36*
X217020D02*
X217057Y129701D01*
X217092Y129682D01*
X217123Y129657D01*
X217148Y129627D01*
X217166Y129592D01*
X217178Y129554D01*
X217181Y129515D01*
Y126722D01*
X217178Y126683D01*
X217166Y126645D01*
X217148Y126611D01*
X217123Y126580D01*
X217092Y126555D01*
X217057Y126537D01*
X217020Y126525D01*
X216981Y126521D01*
X214188D01*
X214148Y126525D01*
X214111Y126537D01*
X214076Y126555D01*
X214045Y126580D01*
X214020Y126611D01*
X214002Y126645D01*
X213990Y126683D01*
X213987Y126722D01*
Y129515D01*
X213990Y129554D01*
X214002Y129592D01*
X214020Y129627D01*
X214045Y129657D01*
X214076Y129682D01*
X214111Y129701D01*
X214148Y129712D01*
X214188Y129716D01*
X216981D01*
X217020Y129712D01*
D02*
G37*
D160*
X289300Y123000D02*
D03*
Y113000D02*
D03*
Y103000D02*
D03*
Y133000D02*
D03*
X298500Y67800D02*
D03*
Y57800D02*
D03*
Y47800D02*
D03*
X98000Y260370D02*
D03*
X108000D02*
D03*
D161*
X289300Y93000D02*
D03*
X298500Y37800D02*
D03*
D162*
X88000Y260370D02*
D03*
D163*
X271856Y252782D02*
D03*
X281856D02*
D03*
X291856D02*
D03*
D164*
X301856D02*
D03*
D165*
X53800Y10500D02*
D03*
D166*
X63800D02*
D03*
X83800D02*
D03*
X93800D02*
D03*
X103800D02*
D03*
X113800D02*
D03*
X123800D02*
D03*
X133800D02*
D03*
X143800D02*
D03*
X153800D02*
D03*
X163800D02*
D03*
X173800D02*
D03*
X183800D02*
D03*
X193800D02*
D03*
X203800D02*
D03*
X213800D02*
D03*
X223800D02*
D03*
X233800D02*
D03*
X243800D02*
D03*
X73800D02*
D03*
D167*
X8000Y83900D02*
D03*
Y78900D02*
D03*
X13000Y83900D02*
D03*
Y78900D02*
D03*
Y68900D02*
D03*
Y73900D02*
D03*
X8000Y68900D02*
D03*
Y73900D02*
D03*
Y63900D02*
D03*
X13000D02*
D03*
D168*
X261300Y199160D02*
D03*
X36300Y12160D02*
D03*
Y199160D02*
D03*
X261300Y12160D02*
D03*
D169*
X305709Y9252D02*
D03*
Y266339D02*
D03*
X9252Y9252D02*
D03*
Y266339D02*
D03*
D170*
X113642Y106342D02*
D03*
X295335Y197990D02*
D03*
X275368Y34413D02*
D03*
X295800Y205400D02*
D03*
X160220Y52906D02*
D03*
X178738Y46391D02*
D03*
X185021Y40982D02*
D03*
X158128Y60319D02*
D03*
X193150Y218766D02*
D03*
X222694Y203500D02*
D03*
X227272Y216866D02*
D03*
X307472Y186954D02*
D03*
X305044Y196545D02*
D03*
Y204201D02*
D03*
X300278Y217801D02*
D03*
X302249Y160994D02*
D03*
X269135Y197212D02*
D03*
X295335Y202449D02*
D03*
X278706Y203714D02*
D03*
X273376Y203675D02*
D03*
X266220Y223380D02*
D03*
X280551Y213109D02*
D03*
X301375Y213137D02*
D03*
X178629Y39093D02*
D03*
X63700Y17700D02*
D03*
X46500Y8200D02*
D03*
X266400Y47918D02*
D03*
X278894Y36376D02*
D03*
X277282Y20900D02*
D03*
X283987Y42116D02*
D03*
X276570Y45906D02*
D03*
X279700Y43800D02*
D03*
X301100Y25600D02*
D03*
X292193Y246837D02*
D03*
X281856D02*
D03*
X306856Y252782D02*
D03*
X271854Y259618D02*
D03*
X261200Y263870D02*
D03*
Y253700D02*
D03*
Y258700D02*
D03*
Y248700D02*
D03*
X11500Y231000D02*
D03*
X293300Y28716D02*
D03*
X207020Y207344D02*
D03*
X203820D02*
D03*
X122400Y116135D02*
D03*
X119200Y117700D02*
D03*
X98207Y169136D02*
D03*
X115200Y120500D02*
D03*
X125077Y254846D02*
D03*
X157153Y114535D02*
D03*
Y120076D02*
D03*
Y126353D02*
D03*
X162524D02*
D03*
Y120076D02*
D03*
Y114535D02*
D03*
X165830Y168750D02*
D03*
X136778Y206632D02*
D03*
X131520Y206999D02*
D03*
X126424D02*
D03*
X136778Y212223D02*
D03*
X131520Y212000D02*
D03*
X126580Y212223D02*
D03*
X224088Y170785D02*
D03*
X169897Y208079D02*
D03*
X210591Y207509D02*
D03*
X172361Y264234D02*
D03*
X213898Y207380D02*
D03*
X188931Y175051D02*
D03*
X190942Y156545D02*
D03*
X182980Y150821D02*
D03*
X205420Y174592D02*
D03*
X197796Y156692D02*
D03*
X205643Y155440D02*
D03*
X219956Y213200D02*
D03*
X122400Y170100D02*
D03*
X136687Y162253D02*
D03*
X152087Y161859D02*
D03*
X51830Y214126D02*
D03*
X72103Y238592D02*
D03*
X39182Y68400D02*
D03*
X2944Y84975D02*
D03*
X79851Y221333D02*
D03*
X52065Y241753D02*
D03*
X83859Y245213D02*
D03*
X124634Y238936D02*
D03*
X14993Y196100D02*
D03*
X3500Y63900D02*
D03*
Y79110D02*
D03*
X80650Y260370D02*
D03*
X139000Y119000D02*
D03*
X169250Y56907D02*
D03*
X194280Y41514D02*
D03*
X170951Y41856D02*
D03*
X169250Y48728D02*
D03*
X178449Y50952D02*
D03*
X107600Y141097D02*
D03*
X96360D02*
D03*
Y129585D02*
D03*
X48108Y133317D02*
D03*
Y141908D02*
D03*
X56840D02*
D03*
Y133317D02*
D03*
X107600Y129585D02*
D03*
X157200Y98241D02*
D03*
X34902Y270500D02*
D03*
X52858D02*
D03*
X68300Y269700D02*
D03*
X20800Y20600D02*
D03*
X209492Y49166D02*
D03*
X75700Y105600D02*
D03*
X74585Y169136D02*
D03*
X32065D02*
D03*
X164994Y109142D02*
D03*
X195300Y47544D02*
D03*
X189238Y47600D02*
D03*
X53166Y224000D02*
D03*
X112500Y158100D02*
D03*
X152453Y142582D02*
D03*
X52450Y77372D02*
D03*
X69860Y106529D02*
D03*
Y215075D02*
D03*
X34500Y150800D02*
D03*
X41514Y148600D02*
D03*
X3031Y32531D02*
D03*
X2900Y49000D02*
D03*
X145700Y117700D02*
D03*
X95507Y188800D02*
D03*
X105800Y106400D02*
D03*
X32065Y107097D02*
D03*
X53187Y219269D02*
D03*
X69860Y169136D02*
D03*
X65200Y169200D02*
D03*
X180511Y104543D02*
D03*
X93482Y244096D02*
D03*
M02*
