G04*
G04 #@! TF.GenerationSoftware,Altium Limited,Altium Designer,21.6.1 (37)*
G04*
G04 Layer_Physical_Order=1*
G04 Layer_Color=255*
%FSLAX25Y25*%
%MOIN*%
G70*
G04*
G04 #@! TF.SameCoordinates,18CB3FBA-EE43-4B35-A7A6-DE1691C197D8*
G04*
G04*
G04 #@! TF.FilePolarity,Positive*
G04*
G01*
G75*
%ADD12C,0.00600*%
%ADD13C,0.01000*%
%ADD16C,0.00800*%
%ADD19R,0.12520X0.08584*%
%ADD20R,0.06300X0.02800*%
%ADD21R,0.01200X0.02600*%
%ADD22R,0.02756X0.04724*%
%ADD23R,0.04724X0.02756*%
%ADD24R,0.07874X0.07874*%
%ADD27R,0.02953X0.03347*%
%ADD28R,0.03150X0.03740*%
%ADD29R,0.03347X0.02756*%
%ADD30R,0.02756X0.03543*%
%ADD31R,0.03937X0.03150*%
%ADD32R,0.03150X0.02362*%
%ADD33R,0.03937X0.03543*%
%ADD34R,0.02559X0.04134*%
%ADD35R,0.03900X0.04500*%
%ADD36R,0.12200X0.20500*%
%ADD37R,0.01900X0.03800*%
%ADD38C,0.05000*%
%ADD39R,0.02756X0.02362*%
%ADD40R,0.02756X0.03937*%
%ADD41R,0.01400X0.05600*%
%ADD42R,0.17100X0.12400*%
%ADD43R,0.05315X0.07480*%
%ADD44R,0.03937X0.04724*%
%ADD45R,0.05315X0.06102*%
%ADD46R,0.04331X0.03347*%
%ADD47R,0.04331X0.02953*%
%ADD48R,0.07087X0.04606*%
%ADD49R,0.11400X0.21300*%
%ADD50R,0.04724X0.07480*%
%ADD51R,0.06299X0.07480*%
%ADD52R,0.08268X0.07874*%
%ADD53R,0.01575X0.05315*%
%ADD54R,0.01968X0.02362*%
%ADD55R,0.04724X0.03543*%
%ADD56R,0.03150X0.03543*%
%ADD57R,0.02288X0.01860*%
%ADD58R,0.03197X0.02593*%
%ADD59R,0.13410X0.04548*%
%ADD60R,0.03150X0.03150*%
%ADD61R,0.04724X0.04724*%
%ADD62R,0.07119X0.05337*%
%ADD63R,0.02047X0.02047*%
%ADD64R,0.04941X0.05733*%
%ADD65R,0.05924X0.06127*%
%ADD67R,0.01575X0.00984*%
%ADD68R,0.06299X0.09843*%
%ADD69R,0.12000X0.06300*%
%ADD70R,0.03937X0.03740*%
%ADD71R,0.03937X0.04134*%
%ADD72R,0.04921X0.04331*%
%ADD73R,0.03937X0.04331*%
%ADD74R,0.06693X0.03740*%
%ADD75R,0.05709X0.04528*%
%ADD76R,0.06102X0.05315*%
%ADD77R,0.03740X0.05315*%
%ADD78R,0.05315X0.03740*%
%ADD79R,0.04528X0.05709*%
%ADD80R,0.02835X0.02835*%
%ADD81R,0.09800X0.08900*%
%ADD82R,0.13780X0.06299*%
%ADD83R,0.07480X0.04331*%
%ADD84R,0.03543X0.03937*%
%ADD85R,0.05315X0.06102*%
%ADD86R,0.02835X0.02835*%
%ADD87R,0.08584X0.12520*%
%ADD88R,0.03740X0.03150*%
%ADD89R,0.02756X0.03347*%
%ADD90R,0.02362X0.03150*%
%ADD91R,0.02593X0.03197*%
%ADD93R,0.05600X0.01400*%
%ADD94R,0.12400X0.17100*%
%ADD95R,0.03150X0.03937*%
%ADD171O,0.03347X0.01102*%
%ADD172O,0.01102X0.03347*%
%ADD173R,0.06693X0.06693*%
%ADD174C,0.04000*%
%ADD175R,0.02480X0.02559*%
%ADD176R,0.02559X0.02480*%
%ADD177C,0.02000*%
%ADD178C,0.07087*%
%ADD179R,0.07087X0.07087*%
%ADD180R,0.07087X0.07087*%
%ADD181C,0.05543*%
%ADD182R,0.05543X0.05543*%
%ADD183R,0.07382X0.07382*%
%ADD184C,0.07382*%
%ADD185C,0.03960*%
%ADD186C,0.12000*%
%ADD187C,0.14173*%
%ADD188C,0.02000*%
G36*
X313941Y1020D02*
X1020Y1020D01*
Y84132D01*
X1520Y84232D01*
X1587Y84069D01*
X2037Y83618D01*
X2625Y83375D01*
X3262D01*
X3378Y83423D01*
X3538Y83263D01*
X3869Y83042D01*
X4259Y82965D01*
X5580D01*
X5596Y82904D01*
X5935Y82316D01*
X6416Y81836D01*
X6470Y81804D01*
X6470Y81227D01*
X6293Y81125D01*
X5776Y80607D01*
X5409Y79973D01*
X5256Y79400D01*
X8000D01*
Y78400D01*
X5256D01*
X5409Y77827D01*
X5776Y77193D01*
X6276Y76692D01*
X6337Y76621D01*
Y76179D01*
X6276Y76108D01*
X5776Y75607D01*
X5409Y74973D01*
X5256Y74400D01*
X8000D01*
Y73400D01*
X5256D01*
X5409Y72827D01*
X5776Y72193D01*
X6293Y71675D01*
X6470Y71573D01*
X6470Y70996D01*
X6416Y70964D01*
X5935Y70484D01*
X5596Y69896D01*
X5420Y69240D01*
Y68560D01*
X5596Y67904D01*
X5935Y67316D01*
X6416Y66835D01*
X6470Y66804D01*
X6470Y66227D01*
X6293Y66124D01*
X5776Y65607D01*
X5409Y64973D01*
X5256Y64400D01*
X8000D01*
Y63400D01*
X5256D01*
X5409Y62827D01*
X5776Y62193D01*
X6293Y61676D01*
X6927Y61309D01*
X7634Y61120D01*
X8215D01*
X8434Y60711D01*
X8446Y60644D01*
X6991Y59189D01*
X6576Y59300D01*
X5760D01*
X4971Y59089D01*
X4264Y58681D01*
X3687Y58103D01*
X3279Y57397D01*
X3068Y56608D01*
Y55792D01*
X3279Y55003D01*
X3687Y54297D01*
X4264Y53719D01*
X4971Y53311D01*
X5760Y53100D01*
X6576D01*
X7364Y53311D01*
X8071Y53719D01*
X8648Y54297D01*
X9057Y55003D01*
X9268Y55792D01*
Y56608D01*
X9057Y57397D01*
X8648Y58103D01*
X8575Y58177D01*
X11934Y61536D01*
X12004Y61496D01*
X12660Y61320D01*
X13340D01*
X13996Y61496D01*
X14584Y61835D01*
X15065Y62316D01*
X15404Y62904D01*
X15580Y63560D01*
Y64240D01*
X15404Y64896D01*
X15364Y64966D01*
X27249Y76851D01*
X27448Y77149D01*
X27518Y77500D01*
Y82920D01*
X28180Y83582D01*
X30279D01*
Y80126D01*
X30230Y80077D01*
X30031Y79779D01*
X29961Y79428D01*
Y73686D01*
X13983Y57708D01*
X13784Y57410D01*
X13715Y57059D01*
Y51536D01*
X12753D01*
Y46202D01*
X13715D01*
Y35198D01*
X12753D01*
Y29864D01*
X16512D01*
Y35198D01*
X15550D01*
Y46202D01*
X16512D01*
Y51536D01*
X15550D01*
Y56679D01*
X31528Y72657D01*
X31727Y72954D01*
X31796Y73305D01*
Y78632D01*
X35022D01*
Y83123D01*
X35522Y83330D01*
X36578Y82274D01*
Y78632D01*
X41321D01*
Y80380D01*
X43779D01*
Y78831D01*
X44630D01*
Y76169D01*
X43278D01*
Y71031D01*
X48021D01*
Y76169D01*
X46669D01*
Y78831D01*
X48522D01*
Y83969D01*
X47068D01*
Y105269D01*
X46998Y105620D01*
X46799Y105918D01*
X44878Y107840D01*
Y108455D01*
X48216D01*
Y114380D01*
X46138D01*
X45947Y114841D01*
X58668Y127563D01*
X61150D01*
X61501Y127632D01*
X61799Y127831D01*
X78984Y145016D01*
X91623D01*
Y141597D01*
X96360D01*
X101097D01*
Y145016D01*
X102863D01*
Y141597D01*
X107600D01*
X112337D01*
Y143556D01*
X112799Y143747D01*
X117421Y139125D01*
Y137206D01*
X117491Y136854D01*
X117690Y136557D01*
X124118Y130128D01*
X124416Y129929D01*
X124540Y129905D01*
Y126353D01*
X130464D01*
Y130309D01*
X126862D01*
X126613Y130616D01*
X126813Y131077D01*
X130464D01*
Y135033D01*
X126822D01*
X126773Y135082D01*
X126475Y135281D01*
X126371Y135302D01*
X126420Y135802D01*
X130464D01*
Y139758D01*
X126822D01*
X126773Y139806D01*
X126475Y140005D01*
X126371Y140026D01*
X126420Y140526D01*
X130464D01*
Y140526D01*
X130842Y140682D01*
X138573Y132951D01*
X138871Y132752D01*
X139222Y132682D01*
X140955D01*
X141394Y132244D01*
X141982Y132000D01*
X142618D01*
X143206Y132244D01*
X143656Y132694D01*
X143900Y133282D01*
Y133918D01*
X143656Y134506D01*
X143206Y134956D01*
X142618Y135200D01*
X141982D01*
X141394Y134956D01*
X140955Y134518D01*
X139602D01*
X131062Y143058D01*
X130764Y143257D01*
X130464Y143317D01*
Y144482D01*
X124540D01*
Y140575D01*
X124540Y140526D01*
X124421Y140075D01*
X122461D01*
X112087Y150449D01*
X111789Y150648D01*
X111438Y150718D01*
X84924D01*
X84772Y151218D01*
X84902Y151304D01*
X94131Y160533D01*
X94330Y160831D01*
X94400Y161182D01*
Y161211D01*
X95460D01*
Y167135D01*
X91504D01*
Y161211D01*
X91560D01*
X91751Y160749D01*
X83873Y152870D01*
X82655D01*
X82447Y153370D01*
X89549Y160472D01*
X89748Y160770D01*
X89818Y161121D01*
Y161211D01*
X90736D01*
Y167135D01*
X86780D01*
Y161211D01*
X87039D01*
X87231Y160749D01*
X81252Y154770D01*
X74118D01*
X74019Y155270D01*
X74141Y155321D01*
X74579Y155760D01*
X79309D01*
X79660Y155829D01*
X79958Y156028D01*
X84682Y160753D01*
X84881Y161050D01*
X84913Y161211D01*
X86011D01*
Y167135D01*
X82055D01*
Y161211D01*
X82055D01*
X82199Y160865D01*
X78929Y157595D01*
X74579D01*
X74141Y158034D01*
X73553Y158277D01*
X72916D01*
X72328Y158034D01*
X71878Y157583D01*
X71634Y156995D01*
Y156359D01*
X71878Y155771D01*
X72328Y155321D01*
X72449Y155270D01*
X72350Y154770D01*
X65692D01*
X65254Y155209D01*
X64666Y155453D01*
X64029D01*
X63441Y155209D01*
X62991Y154759D01*
X62747Y154171D01*
Y153534D01*
X62991Y152946D01*
X63441Y152496D01*
X64029Y152253D01*
X64666D01*
X65254Y152496D01*
X65692Y152935D01*
X78634D01*
X78968Y152435D01*
X78900Y152271D01*
Y151718D01*
X35845D01*
X35406Y152156D01*
X34818Y152400D01*
X34182D01*
X33594Y152156D01*
X33144Y151706D01*
X32900Y151118D01*
Y150482D01*
X33144Y149894D01*
X33594Y149444D01*
X34182Y149200D01*
X34818D01*
X35406Y149444D01*
X35845Y149882D01*
X39880D01*
X40106Y149382D01*
X39914Y148918D01*
Y148282D01*
X40157Y147694D01*
X40607Y147244D01*
X41195Y147000D01*
X41832D01*
X42420Y147244D01*
X42859Y147682D01*
X110561D01*
X110930Y147313D01*
X110739Y146852D01*
X78604D01*
X78253Y146782D01*
X77955Y146583D01*
X62040Y130667D01*
X61577Y130859D01*
Y132817D01*
X56840D01*
Y133817D01*
X61577D01*
Y137171D01*
Y141408D01*
X56840D01*
Y141908D01*
X56340D01*
Y146645D01*
X48608D01*
Y141908D01*
X48108D01*
Y141408D01*
X43371D01*
Y137171D01*
Y133817D01*
X48108D01*
Y133317D01*
X48608D01*
Y128580D01*
X56437D01*
X56629Y128118D01*
X43311Y114801D01*
X43112Y114504D01*
X43088Y114380D01*
X39536D01*
Y108455D01*
X43043D01*
Y107459D01*
X43112Y107108D01*
X43311Y106811D01*
X45233Y104889D01*
Y83969D01*
X43779D01*
Y82420D01*
X41321D01*
Y83768D01*
X37679D01*
X36298Y85149D01*
X36001Y85348D01*
X35650Y85418D01*
X27800D01*
X27449Y85348D01*
X27151Y85149D01*
X25951Y83949D01*
X25752Y83651D01*
X25682Y83300D01*
Y79640D01*
X25182Y79574D01*
X24989Y80297D01*
X24581Y81003D01*
X24003Y81581D01*
X23297Y81989D01*
X22508Y82200D01*
X22318D01*
X22308Y82696D01*
X23097Y82907D01*
X23803Y83315D01*
X24381Y83892D01*
X24789Y84599D01*
X25000Y85388D01*
Y86204D01*
X24789Y86992D01*
X24381Y87699D01*
X23803Y88276D01*
X23097Y88684D01*
X22308Y88896D01*
X21492D01*
X20703Y88684D01*
X19997Y88276D01*
X19419Y87699D01*
X19011Y86992D01*
X18936Y86713D01*
X15177D01*
X14826Y86643D01*
X14528Y86445D01*
X14244Y86161D01*
X13996Y86304D01*
X13340Y86480D01*
X12660D01*
X12004Y86304D01*
X11416Y85965D01*
X10936Y85484D01*
X10789Y85230D01*
X10211D01*
X10064Y85484D01*
X9584Y85965D01*
X8996Y86304D01*
X8340Y86480D01*
X7660D01*
X7004Y86304D01*
X6416Y85965D01*
X5935Y85484D01*
X5658Y85004D01*
X4681D01*
X4544Y85141D01*
Y85293D01*
X4300Y85881D01*
X3850Y86331D01*
X3262Y86575D01*
X2625D01*
X2037Y86331D01*
X1587Y85881D01*
X1520Y85718D01*
X1020Y85817D01*
Y93469D01*
X24016D01*
X24072Y93480D01*
X24129Y93475D01*
X24479Y93514D01*
X24589Y93549D01*
X24702Y93565D01*
X25036Y93681D01*
X25134Y93739D01*
X25242Y93780D01*
X25540Y93967D01*
X25624Y94046D01*
X25719Y94110D01*
X25969Y94359D01*
X26032Y94455D01*
X26111Y94538D01*
X26299Y94837D01*
X26340Y94944D01*
X26398Y95043D01*
X26514Y95376D01*
X26530Y95490D01*
X26565Y95599D01*
X26604Y95950D01*
X26599Y96007D01*
X26610Y96063D01*
X26610Y179527D01*
X26599Y179584D01*
X26604Y179640D01*
X26565Y179991D01*
X26530Y180101D01*
X26514Y180214D01*
X26398Y180547D01*
X26340Y180646D01*
X26299Y180753D01*
X26111Y181052D01*
X26032Y181135D01*
X25969Y181231D01*
X25719Y181480D01*
X25624Y181544D01*
X25540Y181623D01*
X25242Y181810D01*
X25134Y181851D01*
X25035Y181910D01*
X24702Y182026D01*
X24589Y182042D01*
X24479Y182077D01*
X24129Y182115D01*
X24072Y182111D01*
X24016Y182122D01*
X1020D01*
X1020Y220993D01*
X1519Y221092D01*
X1541Y221041D01*
X2000Y220851D01*
X7628D01*
Y220369D01*
X9078D01*
Y217761D01*
X7904D01*
Y211837D01*
X13828D01*
Y217761D01*
X11117D01*
Y220369D01*
X12568D01*
Y220851D01*
X14752D01*
Y219228D01*
Y212023D01*
X14830Y211633D01*
X15051Y211302D01*
X20074Y206278D01*
X20405Y206058D01*
X20795Y205980D01*
X34252D01*
X34375Y205506D01*
X33174Y205009D01*
X32093Y204287D01*
X31174Y203367D01*
X30451Y202286D01*
X29954Y201085D01*
X29700Y199810D01*
Y198510D01*
X29954Y197235D01*
X30451Y196034D01*
X31174Y194953D01*
X32093Y194033D01*
X33174Y193311D01*
X34375Y192814D01*
X35650Y192560D01*
X36950D01*
X38225Y192814D01*
X39426Y193311D01*
X40507Y194033D01*
X41427Y194953D01*
X42149Y196034D01*
X42646Y197235D01*
X42900Y198510D01*
Y199810D01*
X42646Y201085D01*
X42149Y202286D01*
X41427Y203367D01*
X40507Y204287D01*
X39426Y205009D01*
X38225Y205506D01*
X38348Y205980D01*
X56058D01*
X56448Y206058D01*
X56779Y206278D01*
X59103Y208602D01*
X59324Y208933D01*
X59402Y209323D01*
Y212223D01*
X59324Y212613D01*
X59103Y212944D01*
X56486Y215561D01*
X56155Y215782D01*
X55765Y215859D01*
X55210D01*
X53814Y217256D01*
X53931Y217846D01*
X54093Y217913D01*
X54389Y218209D01*
X57162D01*
X57210Y218032D01*
X57618Y217325D01*
X58195Y216748D01*
X58902Y216340D01*
X59690Y216128D01*
X60506D01*
X61295Y216340D01*
X62002Y216748D01*
X62579Y217325D01*
X62987Y218032D01*
X63198Y218820D01*
Y219637D01*
X62987Y220425D01*
X62579Y221132D01*
X62002Y221709D01*
X61295Y222117D01*
X60506Y222328D01*
X59690D01*
X58902Y222117D01*
X58195Y221709D01*
X57618Y221132D01*
X57210Y220425D01*
X57162Y220248D01*
X54471D01*
X54093Y220625D01*
X53505Y220869D01*
X52868D01*
X52280Y220625D01*
X51923Y220268D01*
X50187D01*
Y223864D01*
X49149D01*
X47921Y225092D01*
Y226648D01*
X49470D01*
Y231391D01*
X44333D01*
Y226648D01*
X45882D01*
Y224669D01*
X45903Y224564D01*
X45548Y224064D01*
X43984D01*
Y218342D01*
Y212621D01*
X47434D01*
Y212821D01*
X50187D01*
Y212986D01*
X50708D01*
X50924Y212770D01*
X51512Y212526D01*
X51775D01*
X52085Y212128D01*
X51993Y211970D01*
X51782Y211181D01*
Y210365D01*
X51993Y209577D01*
X52401Y208870D01*
X52752Y208519D01*
X52545Y208019D01*
X21217D01*
X17861Y211375D01*
X18053Y211837D01*
X22096D01*
Y213780D01*
X25462D01*
X28150Y211092D01*
X28480Y210871D01*
X28871Y210794D01*
X33259D01*
X33650Y210871D01*
X33981Y211092D01*
X35782Y212894D01*
X36782D01*
Y212821D01*
X39535D01*
Y212621D01*
X42984D01*
Y218342D01*
Y224064D01*
X41577D01*
X41310Y224564D01*
X41344Y224614D01*
X41421Y225004D01*
Y226648D01*
X42970D01*
Y231391D01*
X38819D01*
Y232947D01*
X42970D01*
Y237690D01*
X42535D01*
Y238955D01*
X42548Y238967D01*
X42769Y239298D01*
X42846Y239688D01*
Y243037D01*
X42769Y243427D01*
X42548Y243758D01*
X42535Y243770D01*
Y246697D01*
X42458Y247087D01*
X42237Y247418D01*
X41427Y248228D01*
Y249300D01*
X42119Y249992D01*
X42340Y250322D01*
X42417Y250713D01*
Y254579D01*
X42937D01*
Y252130D01*
X43015Y251740D01*
X43236Y251409D01*
X45345Y249300D01*
Y246983D01*
X45379D01*
X45570Y246521D01*
X44224Y245175D01*
X44003Y244844D01*
X43925Y244454D01*
Y239688D01*
X44003Y239298D01*
X44224Y238967D01*
X44968Y238224D01*
X45017Y238191D01*
X44865Y237690D01*
X44333D01*
Y232947D01*
X49470D01*
Y234299D01*
X50432D01*
Y232778D01*
X55568D01*
Y237521D01*
X50432D01*
Y236338D01*
X49470D01*
Y237690D01*
X47921D01*
Y238201D01*
X47844Y238591D01*
X47702Y238802D01*
X47884Y239302D01*
X49501D01*
Y241571D01*
X47323D01*
Y242571D01*
X49501D01*
Y244839D01*
X47426D01*
X47234Y245301D01*
X48044Y246111D01*
X48265Y246441D01*
X48342Y246831D01*
Y246983D01*
X49301D01*
Y250545D01*
X46984D01*
X44976Y252552D01*
Y254579D01*
X47487D01*
Y254379D01*
X48575D01*
Y257837D01*
Y261294D01*
X47487D01*
Y261094D01*
X37451D01*
Y255798D01*
X37151Y255555D01*
X36686Y255758D01*
Y258616D01*
X32252D01*
Y254379D01*
X35426D01*
X35617Y253917D01*
X35178Y253478D01*
X31331Y253478D01*
X30914Y253678D01*
X30869Y253678D01*
X28646D01*
Y250713D01*
Y247747D01*
X30869D01*
X30914Y247747D01*
X31331Y247947D01*
X31414Y247947D01*
X32835D01*
Y246814D01*
X30820D01*
X30680Y246815D01*
Y246815D01*
X30320D01*
Y246814D01*
X24179D01*
Y244368D01*
X23321D01*
Y246086D01*
X23520D01*
Y248256D01*
X20752D01*
Y248756D01*
X20252D01*
Y251426D01*
X18654D01*
Y251799D01*
X15000D01*
Y252299D01*
X14500D01*
Y255363D01*
X11346D01*
Y252779D01*
X8625D01*
X8337Y253279D01*
X8462Y253496D01*
X8639Y254158D01*
Y254842D01*
X8462Y255504D01*
X8120Y256096D01*
X7636Y256580D01*
X7043Y256923D01*
X6382Y257100D01*
X5697D01*
X5036Y256923D01*
X4443Y256580D01*
X3959Y256096D01*
X3617Y255504D01*
X3439Y254842D01*
Y254158D01*
X3617Y253496D01*
X3683Y253382D01*
X3433Y252949D01*
X2743D01*
X2500Y253049D01*
X2041Y252859D01*
X1541Y252359D01*
X1519Y252308D01*
X1020Y252407D01*
Y274217D01*
X1373Y274571D01*
X22403Y274567D01*
X22746Y274254D01*
X22838Y274197D01*
X22919Y274125D01*
X23662Y273691D01*
X23765Y273656D01*
X23859Y273602D01*
X24450Y273408D01*
X24370Y272908D01*
X23865D01*
Y268868D01*
X31765D01*
Y272693D01*
X31765Y272908D01*
X32147Y273193D01*
X37066D01*
X37448Y272908D01*
X37448Y272693D01*
Y268868D01*
X40610D01*
Y268368D01*
X41110D01*
Y263828D01*
X43641D01*
X43772Y263828D01*
X44141D01*
X44272Y263828D01*
X46803D01*
Y268368D01*
X47303D01*
Y268868D01*
X50465D01*
Y272693D01*
X50465Y272908D01*
X50847Y273193D01*
X55767D01*
X56149Y272908D01*
X56149Y272693D01*
Y268868D01*
X64048D01*
Y272693D01*
X64048Y272908D01*
X64430Y273193D01*
X65220D01*
X65273Y273203D01*
X65327Y273199D01*
X66184Y273288D01*
X66287Y273321D01*
X66395Y273334D01*
X67213Y273603D01*
X67308Y273656D01*
X67411Y273692D01*
X68154Y274128D01*
X68235Y274200D01*
X68328Y274257D01*
X68669Y274571D01*
X152067Y274567D01*
X152073Y274568D01*
X152079Y274567D01*
X152391Y274571D01*
X313941Y274571D01*
X313941Y1020D01*
D02*
G37*
G36*
X2601Y252299D02*
X3992D01*
X4199Y251799D01*
X4199Y251799D01*
X2500Y250100D01*
X4575Y252084D01*
X4765Y252107D01*
X4821Y252101D01*
X5095Y252061D01*
X5160Y252044D01*
X5697Y251900D01*
X6382D01*
X7043Y252077D01*
X7134Y252130D01*
X11546D01*
Y249435D01*
X18183D01*
Y248276D01*
X15500D01*
Y245213D01*
Y242149D01*
X17984D01*
Y240968D01*
X20252D01*
Y243638D01*
X21252D01*
Y240968D01*
X23479D01*
X23520Y240968D01*
X23979Y240868D01*
Y239682D01*
X26749D01*
Y243348D01*
X27749D01*
Y239682D01*
X30263D01*
X30520Y239682D01*
X30937Y239881D01*
X36821D01*
Y241325D01*
X37321Y241592D01*
X37471Y241490D01*
Y239502D01*
X38169D01*
Y237690D01*
X37833D01*
Y236338D01*
X37273D01*
Y237887D01*
X32530D01*
Y232750D01*
X37273D01*
Y234299D01*
X37833D01*
Y232947D01*
X38169D01*
Y231391D01*
X37833D01*
Y226648D01*
X38169D01*
Y224387D01*
X37646Y223864D01*
X36782D01*
Y223864D01*
X36546Y223917D01*
X36375Y224444D01*
X36524Y224755D01*
X36524Y224801D01*
Y226630D01*
X31184D01*
Y224801D01*
X31184Y224755D01*
X31384Y224338D01*
X31384Y224255D01*
Y223228D01*
X30737D01*
X30383Y223582D01*
X30384Y224580D01*
X30383Y225080D01*
Y229698D01*
X28769D01*
Y230395D01*
X29106Y230731D01*
X29349Y231319D01*
Y231956D01*
X29228Y232250D01*
X29553Y232750D01*
X30974D01*
Y237887D01*
X26231D01*
Y236338D01*
X25631D01*
X25240Y236261D01*
X24910Y236040D01*
X24512Y235642D01*
X24500Y235647D01*
X23864D01*
X23275Y235404D01*
X22825Y234954D01*
X22662Y234560D01*
X22217Y234380D01*
X22090Y234385D01*
X21570Y234600D01*
X20934D01*
X20346Y234356D01*
X20009Y234020D01*
X18568D01*
Y235470D01*
X13431D01*
Y230852D01*
X13431Y230530D01*
X13431Y230030D01*
Y225412D01*
X14752D01*
Y221500D01*
X12568D01*
X12568Y224673D01*
X12768Y225090D01*
X12768Y225135D01*
Y226965D01*
X10098D01*
X7428D01*
Y225135D01*
X7428Y225090D01*
X7628Y224673D01*
X7628Y224590D01*
Y221500D01*
X2000D01*
Y242326D01*
X2500Y242533D01*
X2774Y242259D01*
X3526Y241825D01*
X4300Y241618D01*
Y244900D01*
Y248182D01*
X3526Y247975D01*
X2774Y247541D01*
X2500Y247267D01*
X2000Y247474D01*
Y251900D01*
X2500Y252400D01*
X2601Y252299D01*
D02*
G37*
G36*
X26031Y235358D02*
Y232550D01*
X28149D01*
X28244Y232540D01*
X28592Y232116D01*
X28627Y232064D01*
Y232002D01*
X28700Y231827D01*
Y231449D01*
X28555Y231099D01*
X28310Y230854D01*
X28120Y230395D01*
Y229898D01*
X25046D01*
Y229632D01*
X24773Y229246D01*
X20227D01*
Y228902D01*
X18568D01*
Y230330D01*
X18768D01*
Y233370D01*
X20009D01*
X20468Y233560D01*
X20714Y233806D01*
X21063Y233951D01*
X21441D01*
X21841Y233785D01*
X21958D01*
X21961Y233783D01*
X21962Y233782D01*
X21964Y233782D01*
X22064Y233736D01*
X22191Y233731D01*
X22321Y233779D01*
X22459Y233778D01*
X22905Y233958D01*
X22907Y233960D01*
X22911D01*
X23085Y234134D01*
X23260Y234306D01*
X23260Y234309D01*
X23262Y234311D01*
X23376Y234586D01*
X23643Y234853D01*
X23993Y234998D01*
X24500D01*
X24512Y234993D01*
X24631Y235042D01*
X24760Y235042D01*
X24852Y235134D01*
X24971Y235183D01*
X25324Y235535D01*
X25494Y235649D01*
X25531Y235656D01*
X26031Y235358D01*
D02*
G37*
%LPC*%
G36*
X74405Y272982D02*
Y270200D01*
X77188D01*
X76981Y270974D01*
X76546Y271726D01*
X75932Y272341D01*
X75179Y272775D01*
X74405Y272982D01*
D02*
G37*
G36*
X73405D02*
X72632Y272775D01*
X71879Y272341D01*
X71265Y271726D01*
X70830Y270974D01*
X70623Y270200D01*
X73405D01*
Y272982D01*
D02*
G37*
G36*
X77188Y269200D02*
X74405D01*
Y266418D01*
X75179Y266625D01*
X75932Y267059D01*
X76546Y267674D01*
X76981Y268426D01*
X77188Y269200D01*
D02*
G37*
G36*
X73405D02*
X70623D01*
X70830Y268426D01*
X71265Y267674D01*
X71879Y267059D01*
X72632Y266625D01*
X73405Y266418D01*
Y269200D01*
D02*
G37*
G36*
X50465Y267868D02*
X47803D01*
Y263828D01*
X50465D01*
Y267868D01*
D02*
G37*
G36*
X40110D02*
X37448D01*
Y263828D01*
X40110D01*
Y267868D01*
D02*
G37*
G36*
X222453Y272297D02*
X221993Y272107D01*
X211114Y261227D01*
X210924Y260768D01*
Y233131D01*
X211114Y232672D01*
X211573Y232481D01*
X237749D01*
X237976Y232575D01*
X238206Y232669D01*
X238206Y232671D01*
X238208Y232672D01*
X238302Y232900D01*
X238398Y233128D01*
X238400Y233627D01*
X238851Y233830D01*
X242151D01*
X242601Y233627D01*
X242604Y233128D01*
X242699Y232900D01*
X242794Y232672D01*
X242795Y232671D01*
X242796Y232669D01*
X243024Y232576D01*
X243253Y232481D01*
X244993D01*
X245220Y232575D01*
X245450Y232669D01*
X245450Y232671D01*
X245452Y232672D01*
X245546Y232900D01*
X245642Y233128D01*
X245644Y233627D01*
X246095Y233830D01*
X249395D01*
X249846Y233627D01*
X249848Y233128D01*
X249943Y232900D01*
X250038Y232672D01*
X250040Y232671D01*
X250040Y232669D01*
X250269Y232576D01*
X250497Y232481D01*
X258838D01*
X258957Y232531D01*
X259086D01*
X259178Y232622D01*
X259297Y232672D01*
X259347Y232791D01*
X259438Y232882D01*
X259500Y233032D01*
Y233161D01*
X259549Y233281D01*
Y247680D01*
X259359Y248140D01*
X258900Y248330D01*
X256931D01*
Y249070D01*
X258900D01*
X259359Y249260D01*
X259549Y249720D01*
Y252680D01*
X259359Y253140D01*
X258900Y253330D01*
X256931D01*
Y254070D01*
X258900D01*
X259359Y254260D01*
X259549Y254720D01*
Y257680D01*
X259359Y258140D01*
X258900Y258330D01*
X256931D01*
Y259070D01*
X258900D01*
X259359Y259260D01*
X259549Y259720D01*
Y262627D01*
X260049Y262758D01*
X260294Y262514D01*
X260882Y262270D01*
X261518D01*
X262106Y262514D01*
X262556Y262964D01*
X262800Y263552D01*
Y264188D01*
X262556Y264776D01*
X262106Y265227D01*
X261518Y265470D01*
X260882D01*
X260294Y265227D01*
X260049Y264982D01*
X259549Y265113D01*
Y271647D01*
X259359Y272106D01*
X258900Y272297D01*
X222453Y272297D01*
D02*
G37*
G36*
X92343Y264713D02*
X88500D01*
Y260870D01*
X92343D01*
Y264713D01*
D02*
G37*
G36*
X87500D02*
X83657D01*
Y260870D01*
X87500D01*
Y264713D01*
D02*
G37*
G36*
X64048Y267868D02*
X56149D01*
Y263853D01*
X51227D01*
Y259616D01*
X61095D01*
Y263828D01*
X64048D01*
Y267868D01*
D02*
G37*
G36*
X31765D02*
X23865D01*
Y263828D01*
X26818D01*
Y259616D01*
X36686D01*
Y263853D01*
X31765D01*
Y267868D01*
D02*
G37*
G36*
X306466Y274025D02*
X304952D01*
X303467Y273730D01*
X302068Y273150D01*
X300809Y272309D01*
X299738Y271238D01*
X298897Y269980D01*
X298317Y268581D01*
X298022Y267096D01*
Y265581D01*
X298317Y264096D01*
X298897Y262698D01*
X299738Y261439D01*
X300809Y260368D01*
X302068Y259527D01*
X303467Y258947D01*
X304952Y258652D01*
X306466D01*
X307951Y258947D01*
X309350Y259527D01*
X310609Y260368D01*
X311679Y261439D01*
X312520Y262698D01*
X313100Y264096D01*
X313395Y265581D01*
Y267096D01*
X313100Y268581D01*
X312520Y269980D01*
X311679Y271238D01*
X310609Y272309D01*
X309350Y273150D01*
X307951Y273730D01*
X306466Y274025D01*
D02*
G37*
G36*
X10009D02*
X8495D01*
X7010Y273730D01*
X5611Y273150D01*
X4352Y272309D01*
X3281Y271238D01*
X2440Y269980D01*
X1861Y268581D01*
X1565Y267096D01*
Y265581D01*
X1861Y264096D01*
X2440Y262698D01*
X3281Y261439D01*
X4352Y260368D01*
X5611Y259527D01*
X7010Y258947D01*
X8495Y258652D01*
X10009D01*
X11494Y258947D01*
X12893Y259527D01*
X14152Y260368D01*
X15223Y261439D01*
X16064Y262698D01*
X16643Y264096D01*
X16939Y265581D01*
Y267096D01*
X16643Y268581D01*
X16064Y269980D01*
X15223Y271238D01*
X14152Y272309D01*
X12893Y273150D01*
X11494Y273730D01*
X10009Y274025D01*
D02*
G37*
G36*
X50662Y261294D02*
X49575D01*
Y258337D01*
X50662D01*
Y261294D01*
D02*
G37*
G36*
X165700Y269449D02*
X126394D01*
X125935Y269259D01*
X121370Y264693D01*
X121179Y264234D01*
Y241237D01*
X120679Y240948D01*
X120231Y241207D01*
X119442Y241418D01*
X118626D01*
X117838Y241207D01*
X117131Y240799D01*
X116554Y240222D01*
X116146Y239515D01*
X115934Y238726D01*
Y237910D01*
X116146Y237122D01*
X116554Y236415D01*
X116758Y236210D01*
X116551Y235710D01*
X101116D01*
Y240188D01*
X95979D01*
Y235445D01*
X97528D01*
Y234598D01*
X95976D01*
X95586Y234521D01*
X95549Y234497D01*
X95049Y234764D01*
Y242203D01*
X95024Y242265D01*
X95037Y242330D01*
X94932Y242488D01*
X94859Y242663D01*
X94798Y242688D01*
X94761Y242743D01*
X94261Y243078D01*
X94196Y243091D01*
X94148Y243138D01*
X93959D01*
X93773Y243175D01*
X93730Y243146D01*
X93293D01*
X92944Y243291D01*
X92675Y243559D01*
X92216Y243749D01*
X86461D01*
X86426Y243735D01*
X84393D01*
Y241163D01*
X83393D01*
Y243735D01*
X81124D01*
Y241629D01*
X79499D01*
Y244764D01*
X77230D01*
Y241897D01*
X76230D01*
Y244834D01*
X76068Y245226D01*
X81222Y250380D01*
X99642D01*
X100266Y250505D01*
X100795Y250858D01*
X106437Y256500D01*
X107455Y256227D01*
X108545D01*
X109599Y256509D01*
X110544Y257055D01*
X111316Y257826D01*
X111861Y258771D01*
X112143Y259825D01*
Y260916D01*
X111861Y261969D01*
X111316Y262914D01*
X110544Y263685D01*
X109599Y264231D01*
X108545Y264513D01*
X107455D01*
X106401Y264231D01*
X105456Y263685D01*
X104684Y262914D01*
X104139Y261969D01*
X103857Y260916D01*
Y259825D01*
X104130Y258807D01*
X98966Y253643D01*
X80547D01*
X80547Y253643D01*
X79922Y253519D01*
X79393Y253165D01*
X65178Y238950D01*
X64824Y238421D01*
X64700Y237796D01*
Y226367D01*
X64824Y225743D01*
X65178Y225213D01*
X66843Y223548D01*
X67372Y223194D01*
X67997Y223070D01*
X68008D01*
X68224Y222854D01*
Y222407D01*
X68348Y221783D01*
X68702Y221253D01*
X69873Y220082D01*
X70402Y219728D01*
X71027Y219604D01*
X71130D01*
Y217108D01*
X78039D01*
Y221737D01*
X78059Y221835D01*
X78039Y221934D01*
Y222197D01*
X78794Y222953D01*
X80000D01*
X80658Y222295D01*
X80988Y222074D01*
X81202Y222031D01*
X81451Y221647D01*
X81472Y221547D01*
X83893D01*
Y221047D01*
X84393D01*
Y219670D01*
X84930D01*
X85176Y219476D01*
X85370Y219230D01*
Y218693D01*
X86747D01*
Y217693D01*
X85370D01*
Y217071D01*
X85464Y216595D01*
X85443Y216490D01*
X85212Y216095D01*
X84822Y216017D01*
X84491Y215796D01*
X81286Y212591D01*
X81064Y212260D01*
X80987Y211870D01*
Y209036D01*
X81064Y208646D01*
X81286Y208315D01*
X81754Y207847D01*
X82085Y207626D01*
X82475Y207548D01*
X99829D01*
X100219Y207626D01*
X100550Y207847D01*
X102266Y209563D01*
X102766Y209376D01*
Y209376D01*
X108690D01*
Y213858D01*
X109378Y214546D01*
X109840Y214354D01*
Y213051D01*
X113494D01*
X117148D01*
Y215424D01*
X117521Y215923D01*
X117645Y215922D01*
X117646Y215923D01*
X117648Y215922D01*
X121179D01*
Y210551D01*
X109237Y198609D01*
X109047Y198150D01*
Y177489D01*
X109237Y177029D01*
X109697Y176839D01*
X129746D01*
X130205Y177029D01*
X138329Y185153D01*
X138791Y184962D01*
Y184850D01*
D01*
Y181216D01*
X145981D01*
Y185166D01*
Y189115D01*
X142944D01*
X142753Y189577D01*
X145559Y192384D01*
X145749Y192843D01*
Y196578D01*
X145993Y196692D01*
X146249Y196732D01*
X149633Y193348D01*
X150558Y192423D01*
X151017Y192233D01*
X158338D01*
X158612Y192347D01*
X158811Y192274D01*
X159054Y192122D01*
X159112Y192054D01*
Y191189D01*
X166618D01*
X174123D01*
Y192699D01*
X176345D01*
X176804Y192889D01*
X176994Y193348D01*
Y193849D01*
Y205872D01*
X176804Y206331D01*
X167078Y216057D01*
X166619Y216247D01*
X150083D01*
X150036Y216228D01*
X149986Y216240D01*
X146556Y215717D01*
X146382Y215612D01*
X146249Y215557D01*
X145749Y215742D01*
Y238363D01*
X145717Y238443D01*
X146278Y239004D01*
X147800D01*
Y226504D01*
X147990Y226044D01*
X152658Y221376D01*
X153117Y221186D01*
X166305D01*
X176536Y210955D01*
X176655Y210905D01*
X176747Y210814D01*
X176876D01*
X176995Y210765D01*
X177115Y210814D01*
X177244D01*
X177418Y210886D01*
X177657Y210727D01*
Y210727D01*
X184960D01*
Y212655D01*
X186046D01*
X186352Y212350D01*
Y208475D01*
X186152Y208232D01*
X186108D01*
X185520Y207988D01*
X185460Y207928D01*
X184960Y208135D01*
Y209368D01*
X177657D01*
Y202853D01*
X184960D01*
Y205180D01*
X185460Y205336D01*
X185520Y205276D01*
X186108Y205032D01*
X186745D01*
X187333Y205276D01*
X187783Y205726D01*
X187851Y205890D01*
X188441Y206007D01*
X190349Y204098D01*
X190647Y203900D01*
X190998Y203830D01*
X191378D01*
Y198847D01*
X206532D01*
Y198663D01*
Y198647D01*
X207532D01*
Y202247D01*
X208532D01*
Y198647D01*
X210091D01*
Y202247D01*
X211091D01*
Y198647D01*
X212091D01*
Y198663D01*
Y198847D01*
X216566D01*
X217009Y198663D01*
X231238D01*
X231329Y198572D01*
D01*
X233656Y196245D01*
X240501Y189400D01*
Y175051D01*
X227731D01*
X222286Y180496D01*
X221988Y180695D01*
X221637Y180765D01*
X218711D01*
X218130Y181346D01*
X218011Y181395D01*
X217920Y181486D01*
X217791D01*
X217671Y181536D01*
X217552Y181486D01*
X217423D01*
X217009Y181763D01*
Y183247D01*
X206973D01*
Y183447D01*
X205973D01*
Y179847D01*
Y176247D01*
X206973D01*
X207013Y175764D01*
Y170178D01*
X206922Y170087D01*
X202045D01*
Y164359D01*
X208954D01*
Y169335D01*
X208974Y169366D01*
X209052Y169756D01*
Y176447D01*
X209674D01*
Y158356D01*
X209743Y158005D01*
X209942Y157707D01*
X211809Y155841D01*
X211852Y155812D01*
Y152450D01*
X218367D01*
Y152671D01*
X218829Y152862D01*
X219536Y152155D01*
X219833Y151956D01*
X220185Y151886D01*
X220711D01*
Y149623D01*
X228604D01*
Y151886D01*
X231668D01*
X232020Y151956D01*
X232317Y152155D01*
X232717Y152555D01*
X232916Y152853D01*
X232986Y153204D01*
Y163818D01*
X238824Y163818D01*
X239024Y163684D01*
Y161603D01*
X243570D01*
Y163684D01*
X243770Y163818D01*
X271498D01*
X271551Y163840D01*
X271606Y163827D01*
X271774Y163932D01*
X271957Y164008D01*
X271979Y164061D01*
X272027Y164091D01*
X272383Y164591D01*
X272427Y164784D01*
X272503Y164967D01*
Y189445D01*
X272453Y189565D01*
X272453Y189695D01*
X272362Y189785D01*
X272313Y189904D01*
X272193Y189954D01*
X272101Y190045D01*
X271673Y190221D01*
X271626Y190268D01*
Y192083D01*
X268858D01*
Y192582D01*
X268358D01*
Y195745D01*
X267513D01*
X267236Y196245D01*
X267646Y197235D01*
X267753Y197769D01*
X268151Y198039D01*
X268377D01*
X268602Y198022D01*
X268622Y198039D01*
X268649D01*
X268947Y198163D01*
X269325D01*
X269648Y198029D01*
X269720D01*
X269780Y197990D01*
X269960Y198029D01*
X270145D01*
X270548Y198030D01*
X270695Y197997D01*
X270895Y197651D01*
X271472Y197074D01*
X272179Y196666D01*
X272968Y196455D01*
X273784D01*
X274572Y196666D01*
X275279Y197074D01*
X275856Y197651D01*
X276090Y198056D01*
X276590Y197922D01*
Y197281D01*
X280743D01*
Y201828D01*
X279686D01*
Y202431D01*
X280062Y202807D01*
X280306Y203395D01*
Y204032D01*
X280062Y204620D01*
X279612Y205070D01*
X279024Y205314D01*
X278387D01*
X277799Y205070D01*
X277349Y204620D01*
X277106Y204032D01*
Y203395D01*
X277349Y202807D01*
X277647Y202509D01*
Y201828D01*
X276590D01*
Y201187D01*
X276090Y201053D01*
X275856Y201458D01*
X275279Y202035D01*
X274916Y202245D01*
X274732Y202768D01*
X274976Y203356D01*
Y203993D01*
X274732Y204581D01*
X274282Y205031D01*
X273694Y205275D01*
X273058D01*
X272919Y205217D01*
X272503Y205495D01*
Y217446D01*
X273677D01*
Y216568D01*
X278075D01*
Y220362D01*
X273677D01*
Y219485D01*
X272503D01*
Y227586D01*
X272313Y228045D01*
X271854Y228235D01*
X251023D01*
X250823Y228369D01*
Y231830D01*
X237423D01*
Y228369D01*
X237223Y228235D01*
X196658D01*
X196198Y228045D01*
X196015Y227861D01*
X195824Y227402D01*
Y216602D01*
X193850D01*
Y212947D01*
X193350D01*
Y212447D01*
X190287D01*
Y209293D01*
X190960D01*
X191238Y208877D01*
X191210Y208811D01*
Y208175D01*
X191454Y207587D01*
X191904Y207137D01*
X192492Y206893D01*
X193129D01*
X193143Y206899D01*
X193895Y206147D01*
X193688Y205647D01*
X192367D01*
X192278Y205665D01*
X191378D01*
X188188Y208856D01*
Y212730D01*
X188118Y213081D01*
X187919Y213378D01*
X187075Y214222D01*
X187025Y214255D01*
X187076Y214378D01*
Y223855D01*
X193810Y230588D01*
X194000Y231048D01*
Y267213D01*
X193810Y267672D01*
X193350Y267862D01*
X166574D01*
X166349Y268012D01*
Y268800D01*
X166159Y269259D01*
X165700Y269449D01*
D02*
G37*
G36*
X98545Y264513D02*
X97455D01*
X96401Y264231D01*
X95456Y263685D01*
X94684Y262914D01*
X94139Y261969D01*
X93857Y260916D01*
Y259825D01*
X94139Y258771D01*
X94684Y257826D01*
X95456Y257055D01*
X96401Y256509D01*
X97455Y256227D01*
X98545D01*
X99599Y256509D01*
X100544Y257055D01*
X101315Y257826D01*
X101861Y258771D01*
X102143Y259825D01*
Y260916D01*
X101861Y261969D01*
X101315Y262914D01*
X100544Y263685D01*
X99599Y264231D01*
X98545Y264513D01*
D02*
G37*
G36*
X92343Y259870D02*
X88500D01*
Y256027D01*
X92343D01*
Y259870D01*
D02*
G37*
G36*
X87500D02*
X83657D01*
Y256027D01*
X87500D01*
Y259870D01*
D02*
G37*
G36*
X61095Y258616D02*
X56661D01*
Y254379D01*
X61095D01*
Y258616D01*
D02*
G37*
G36*
X55661D02*
X51227D01*
Y254379D01*
X55661D01*
Y258616D01*
D02*
G37*
G36*
X50662Y257337D02*
X49575D01*
Y254379D01*
X50662D01*
Y257337D01*
D02*
G37*
G36*
X31252Y258616D02*
X26818D01*
Y254379D01*
X31252D01*
Y258616D01*
D02*
G37*
G36*
X272356Y256346D02*
Y253282D01*
X275420D01*
X275184Y254161D01*
X274714Y254975D01*
X274049Y255640D01*
X273235Y256111D01*
X272356Y256346D01*
D02*
G37*
G36*
X271356Y256346D02*
X270478Y256111D01*
X269663Y255640D01*
X268998Y254975D01*
X268528Y254161D01*
X268293Y253282D01*
X271356D01*
Y256346D01*
D02*
G37*
G36*
X18654Y255363D02*
X15500D01*
Y252799D01*
X18654D01*
Y255363D01*
D02*
G37*
G36*
X27646Y253678D02*
X25377D01*
Y251213D01*
X27646D01*
Y253678D01*
D02*
G37*
G36*
X305228Y256154D02*
X298485D01*
Y249411D01*
X305228D01*
Y251486D01*
X305728Y251648D01*
X305950Y251426D01*
X306538Y251182D01*
X307174D01*
X307763Y251426D01*
X308213Y251876D01*
X308456Y252464D01*
Y253101D01*
X308213Y253689D01*
X307763Y254139D01*
X307174Y254382D01*
X306538D01*
X305950Y254139D01*
X305728Y253917D01*
X305228Y254079D01*
Y256154D01*
D02*
G37*
G36*
X23520Y251426D02*
X21252D01*
Y249256D01*
X23520D01*
Y251426D01*
D02*
G37*
G36*
X275420Y252282D02*
X272356D01*
Y249219D01*
X273235Y249454D01*
X274049Y249924D01*
X274714Y250589D01*
X275184Y251404D01*
X275420Y252282D01*
D02*
G37*
G36*
X271356D02*
X268293D01*
X268528Y251404D01*
X268998Y250589D01*
X269663Y249924D01*
X270478Y249454D01*
X271356Y249219D01*
Y252282D01*
D02*
G37*
G36*
X27646Y250213D02*
X25377D01*
Y247747D01*
X27646D01*
Y250213D01*
D02*
G37*
G36*
X292264Y268250D02*
X291448D01*
X290660Y268038D01*
X289953Y267630D01*
X289376Y267053D01*
X288967Y266346D01*
X288756Y265558D01*
Y264741D01*
X288967Y263953D01*
X289376Y263246D01*
X289953Y262669D01*
X290660Y262261D01*
X290780Y262228D01*
Y255985D01*
X290555Y255924D01*
X289786Y255480D01*
X289158Y254853D01*
X288714Y254084D01*
X288485Y253226D01*
Y252339D01*
X288714Y251481D01*
X289158Y250712D01*
X289786Y250084D01*
X290555Y249640D01*
X291005Y249520D01*
Y247912D01*
X290837Y247744D01*
X290593Y247156D01*
Y246519D01*
X290837Y245931D01*
X291287Y245481D01*
X291875Y245237D01*
X292511D01*
X293099Y245481D01*
X293549Y245931D01*
X293793Y246519D01*
Y247156D01*
X293549Y247744D01*
X293099Y248194D01*
X293044Y248217D01*
Y249610D01*
X293158Y249640D01*
X293927Y250084D01*
X294554Y250712D01*
X294998Y251481D01*
X295228Y252339D01*
Y253226D01*
X294998Y254084D01*
X294554Y254853D01*
X293927Y255480D01*
X293158Y255924D01*
X292820Y256015D01*
Y262198D01*
X293053Y262261D01*
X293760Y262669D01*
X294337Y263246D01*
X294745Y263953D01*
X294956Y264741D01*
Y265558D01*
X294745Y266346D01*
X294337Y267053D01*
X293760Y267630D01*
X293053Y268038D01*
X292264Y268250D01*
D02*
G37*
G36*
X282169D02*
X281352D01*
X280564Y268038D01*
X279857Y267630D01*
X279280Y267053D01*
X278872Y266346D01*
X278660Y265558D01*
Y264741D01*
X278872Y263953D01*
X279280Y263246D01*
X279857Y262669D01*
X280564Y262261D01*
X280741Y262213D01*
Y255974D01*
X280555Y255924D01*
X279786Y255480D01*
X279158Y254853D01*
X278714Y254084D01*
X278485Y253226D01*
Y252339D01*
X278714Y251481D01*
X279158Y250712D01*
X279786Y250084D01*
X280555Y249640D01*
X280837Y249565D01*
Y248081D01*
X280500Y247744D01*
X280256Y247156D01*
Y246519D01*
X280500Y245931D01*
X280950Y245481D01*
X281538Y245237D01*
X282174D01*
X282763Y245481D01*
X283213Y245931D01*
X283456Y246519D01*
Y247156D01*
X283213Y247744D01*
X282876Y248081D01*
Y249565D01*
X283158Y249640D01*
X283927Y250084D01*
X284554Y250712D01*
X284998Y251481D01*
X285228Y252339D01*
Y253226D01*
X284998Y254084D01*
X284554Y254853D01*
X283927Y255480D01*
X283158Y255924D01*
X282780Y256025D01*
Y262213D01*
X282957Y262261D01*
X283664Y262669D01*
X284241Y263246D01*
X284649Y263953D01*
X284860Y264741D01*
Y265558D01*
X284649Y266346D01*
X284241Y267053D01*
X283664Y267630D01*
X282957Y268038D01*
X282169Y268250D01*
D02*
G37*
G36*
X101316Y246687D02*
X99047D01*
Y244616D01*
X101316D01*
Y246687D01*
D02*
G37*
G36*
X98047D02*
X95779D01*
Y244616D01*
X98047D01*
Y246687D01*
D02*
G37*
G36*
X101316Y243616D02*
X99047D01*
Y241544D01*
X101316D01*
Y243616D01*
D02*
G37*
G36*
X98047D02*
X95779D01*
Y241544D01*
X98047D01*
Y243616D01*
D02*
G37*
G36*
X55769Y231422D02*
X53500D01*
Y229350D01*
X55769D01*
Y231422D01*
D02*
G37*
G36*
X52500D02*
X50231D01*
Y229350D01*
X52500D01*
Y231422D01*
D02*
G37*
G36*
X55769Y228350D02*
X53500D01*
Y226279D01*
X55769D01*
Y228350D01*
D02*
G37*
G36*
X52500D02*
X50231D01*
Y226279D01*
X52500D01*
Y228350D01*
D02*
G37*
G36*
X83393Y220547D02*
X81493D01*
X81498Y220520D01*
X81797Y220073D01*
X82244Y219775D01*
X82771Y219670D01*
X83393D01*
Y220547D01*
D02*
G37*
G36*
X302650Y223637D02*
X297906D01*
Y218500D01*
X298424D01*
X298678Y218119D01*
Y217483D01*
X298922Y216895D01*
X299372Y216444D01*
X299960Y216201D01*
X300596D01*
X301184Y216444D01*
X301635Y216895D01*
X301878Y217483D01*
Y218119D01*
X302133Y218500D01*
X302650D01*
Y223637D01*
D02*
G37*
G36*
X278275Y215233D02*
X276376D01*
Y213637D01*
X278275D01*
Y215233D01*
D02*
G37*
G36*
X275376D02*
X273477D01*
Y213637D01*
X275376D01*
Y215233D01*
D02*
G37*
G36*
X192850Y216602D02*
X190287D01*
Y213447D01*
X192850D01*
Y216602D01*
D02*
G37*
G36*
X78239Y215949D02*
X75085D01*
Y213385D01*
X78239D01*
Y215949D01*
D02*
G37*
G36*
X74085D02*
X70930D01*
Y213385D01*
X74085D01*
Y215949D01*
D02*
G37*
G36*
X278275Y212637D02*
X276376D01*
Y211040D01*
X278275D01*
Y212637D01*
D02*
G37*
G36*
X275376D02*
X273477D01*
Y211040D01*
X275376D01*
Y212637D01*
D02*
G37*
G36*
X78239Y212385D02*
X75085D01*
Y209821D01*
X78239D01*
Y212385D01*
D02*
G37*
G36*
X74085D02*
X70930D01*
Y209821D01*
X74085D01*
Y212385D01*
D02*
G37*
G36*
X117148Y212051D02*
X113994D01*
Y209487D01*
X117148D01*
Y212051D01*
D02*
G37*
G36*
X112994D02*
X109840D01*
Y209487D01*
X112994D01*
Y212051D01*
D02*
G37*
G36*
X309978Y224201D02*
X309162D01*
X308373Y223990D01*
X307667Y223582D01*
X307089Y223004D01*
X306681Y222298D01*
X306470Y221509D01*
Y220693D01*
X306681Y219904D01*
X307089Y219198D01*
X307667Y218620D01*
X307917Y218476D01*
X307783Y217976D01*
X303099D01*
Y215712D01*
X302930D01*
X302540Y215634D01*
X302210Y215413D01*
X301533Y214737D01*
X301057D01*
X300469Y214493D01*
X300019Y214043D01*
X299775Y213455D01*
Y212819D01*
X299939Y212423D01*
X299673Y211923D01*
X297106D01*
Y208228D01*
X296051Y207172D01*
X295550Y207379D01*
Y211923D01*
X294198D01*
Y212668D01*
X294375Y212715D01*
X295082Y213123D01*
X295659Y213701D01*
X296068Y214407D01*
X296279Y215196D01*
Y216012D01*
X296068Y216801D01*
X295659Y217508D01*
X295167Y218000D01*
X295250Y218350D01*
X295346Y218500D01*
X296351D01*
Y223637D01*
X291607D01*
Y222088D01*
X287389D01*
X287333Y222298D01*
X286925Y223004D01*
X286348Y223582D01*
X285641Y223990D01*
X284853Y224201D01*
X284036D01*
X283248Y223990D01*
X282541Y223582D01*
X281964Y223004D01*
X281556Y222298D01*
X281345Y221509D01*
Y220693D01*
X281556Y219904D01*
X281964Y219198D01*
X282541Y218620D01*
X283248Y218212D01*
X284036Y218001D01*
X284853D01*
X285641Y218212D01*
X286348Y218620D01*
X286925Y219198D01*
X287333Y219904D01*
X287372Y220049D01*
X289517D01*
X289709Y219587D01*
X289051Y218930D01*
X288830Y218599D01*
X288753Y218209D01*
Y216460D01*
X288640Y215604D01*
X288753Y214749D01*
Y170642D01*
X288830Y170252D01*
X289051Y169921D01*
X289051Y169921D01*
X289286Y169687D01*
X302196Y156776D01*
X302527Y156555D01*
X302917Y156478D01*
X304872D01*
Y153951D01*
Y150430D01*
X301916D01*
Y147827D01*
X306259D01*
Y147327D01*
X306760D01*
Y144223D01*
X309783D01*
Y143494D01*
X309003D01*
X308215Y143283D01*
X307508Y142875D01*
X306930Y142297D01*
X306522Y141590D01*
X306311Y140802D01*
Y139986D01*
X306522Y139197D01*
X306930Y138490D01*
X307508Y137913D01*
X308215Y137505D01*
X309003Y137294D01*
X309819D01*
X310608Y137505D01*
X311315Y137913D01*
X311892Y138490D01*
X312300Y139197D01*
X312511Y139986D01*
Y140802D01*
X312300Y141590D01*
X311892Y142297D01*
X311700Y142489D01*
X311745Y142555D01*
X311822Y142945D01*
Y173403D01*
X311745Y173793D01*
X311524Y174124D01*
X311172Y174476D01*
X310842Y174697D01*
X310451Y174774D01*
X310403D01*
Y178553D01*
X310607Y178593D01*
X310938Y178814D01*
X311524Y179400D01*
X311745Y179731D01*
X311822Y180121D01*
Y195359D01*
X311745Y195749D01*
X311524Y196080D01*
X311507Y196097D01*
Y197281D01*
X312564D01*
Y201828D01*
X311507D01*
Y218654D01*
X312051Y219198D01*
X312459Y219904D01*
X312670Y220693D01*
Y221509D01*
X312459Y222298D01*
X312051Y223004D01*
X311473Y223582D01*
X310767Y223990D01*
X309978Y224201D01*
D02*
G37*
G36*
X13135Y198570D02*
X8786D01*
Y193630D01*
X13135D01*
Y195080D01*
X13750D01*
X14087Y194744D01*
X14675Y194500D01*
X15311D01*
X15899Y194744D01*
X16349Y195194D01*
X16593Y195782D01*
Y196418D01*
X16349Y197006D01*
X15899Y197456D01*
X15311Y197700D01*
X14675D01*
X14087Y197456D01*
X13750Y197120D01*
X13135D01*
Y198570D01*
D02*
G37*
G36*
X271626Y195745D02*
X269358D01*
Y193082D01*
X271626D01*
Y195745D01*
D02*
G37*
G36*
X213544Y198047D02*
X204694D01*
Y191547D01*
X213544D01*
Y198047D01*
D02*
G37*
G36*
X203694D02*
X194844D01*
Y191547D01*
X203694D01*
Y198047D01*
D02*
G37*
G36*
X284193Y209631D02*
X283377D01*
X282588Y209420D01*
X281881Y209012D01*
X281304Y208434D01*
X280896Y207727D01*
X280685Y206939D01*
Y206123D01*
X280896Y205334D01*
X281304Y204627D01*
X281881Y204050D01*
X282588Y203642D01*
X282765Y203595D01*
Y201828D01*
X281708D01*
Y197281D01*
X282405D01*
Y195545D01*
X280856D01*
Y189620D01*
X285993D01*
Y195545D01*
X284444D01*
Y197281D01*
X285861D01*
Y201828D01*
X284804D01*
Y203595D01*
X284981Y203642D01*
X285688Y204050D01*
X286265Y204627D01*
X286673Y205334D01*
X286885Y206123D01*
Y206939D01*
X286673Y207727D01*
X286265Y208434D01*
X285688Y209012D01*
X284981Y209420D01*
X284193Y209631D01*
D02*
G37*
G36*
X174123Y190189D02*
X167118D01*
Y187615D01*
X174123D01*
Y190189D01*
D02*
G37*
G36*
X166118D02*
X159112D01*
Y187615D01*
X166118D01*
Y190189D01*
D02*
G37*
G36*
X13428Y190975D02*
X9078D01*
Y186625D01*
X13428D01*
Y187780D01*
X94264D01*
X94601Y187444D01*
X95189Y187200D01*
X95825D01*
X96413Y187444D01*
X96864Y187894D01*
X97107Y188482D01*
Y189118D01*
X96864Y189706D01*
X96413Y190156D01*
X95825Y190400D01*
X95189D01*
X94601Y190156D01*
X94264Y189820D01*
X13428D01*
Y190975D01*
D02*
G37*
G36*
X8214Y198570D02*
X3865D01*
Y193630D01*
X5020D01*
Y190975D01*
X3172D01*
Y186625D01*
X7522D01*
Y190975D01*
X7059D01*
Y193630D01*
X8214D01*
Y198570D01*
D02*
G37*
G36*
X154171Y189115D02*
X146981D01*
Y185666D01*
X154171D01*
Y189115D01*
D02*
G37*
G36*
X187762Y186875D02*
X185494D01*
Y185000D01*
X187762D01*
Y186875D01*
D02*
G37*
G36*
X184494D02*
X182225D01*
Y185000D01*
X184494D01*
Y186875D01*
D02*
G37*
G36*
X213544Y190547D02*
X204694D01*
Y184047D01*
X213544D01*
Y184197D01*
Y190547D01*
D02*
G37*
G36*
X203694D02*
X194844D01*
Y184047D01*
X203694D01*
Y190547D01*
D02*
G37*
G36*
X238550Y186850D02*
X232250D01*
Y183400D01*
X238550D01*
Y186850D01*
D02*
G37*
G36*
X231250D02*
X224950D01*
Y183400D01*
X231250D01*
Y186850D01*
D02*
G37*
G36*
X187762Y184000D02*
X185494D01*
Y182125D01*
X187762D01*
Y182825D01*
Y184000D01*
D02*
G37*
G36*
X184494D02*
X182225D01*
Y182125D01*
X184494D01*
Y184000D01*
D02*
G37*
G36*
X154171Y184666D02*
X146981D01*
Y181216D01*
X154171D01*
Y184666D01*
D02*
G37*
G36*
X238550Y182400D02*
X232250D01*
Y178950D01*
X238550D01*
Y182400D01*
D02*
G37*
G36*
X231250D02*
X224950D01*
Y178950D01*
X231250D01*
Y182400D01*
D02*
G37*
G36*
X204973Y183447D02*
X203973D01*
Y183247D01*
X191378D01*
Y177889D01*
X189867Y176378D01*
X189837Y176408D01*
X189249Y176651D01*
X188612D01*
X188024Y176408D01*
X187562Y176653D01*
X187562Y176823D01*
Y180769D01*
X182425D01*
Y176420D01*
X184076D01*
Y174645D01*
X179099Y169668D01*
X177454D01*
Y171318D01*
X173104D01*
Y166182D01*
X177454D01*
Y167832D01*
X179479D01*
X179830Y167902D01*
X180128Y168101D01*
X184994Y172967D01*
X185458Y172502D01*
X185756Y172303D01*
X186107Y172233D01*
X187176D01*
X187368Y171772D01*
X185214Y169618D01*
X185015Y169321D01*
X184946Y168970D01*
Y166934D01*
X184851Y166839D01*
X180260D01*
Y162096D01*
X186184D01*
Y165577D01*
X186512Y165905D01*
X186711Y166203D01*
X186781Y166554D01*
Y168589D01*
X189225Y171034D01*
X191646D01*
X191998Y171103D01*
X192050Y171139D01*
X192254Y171069D01*
X192528Y170856D01*
Y166888D01*
X188767D01*
Y163326D01*
X193117D01*
Y164484D01*
X193942Y165310D01*
X194442Y165147D01*
Y165147D01*
X200957D01*
Y170087D01*
X200957Y170087D01*
X200957D01*
X200957Y170087D01*
X201065Y170542D01*
X203563Y173040D01*
X203762Y173337D01*
X203832Y173689D01*
Y175806D01*
X203973Y176247D01*
X204973D01*
Y179847D01*
Y183447D01*
D02*
G37*
G36*
X171548Y171318D02*
X167199D01*
Y170351D01*
X166737Y170106D01*
X166149Y170350D01*
X165512D01*
X164924Y170106D01*
X164474Y169656D01*
X164230Y169068D01*
Y168432D01*
X164474Y167844D01*
X164924Y167394D01*
X165512Y167150D01*
X166149D01*
X166737Y167394D01*
X167199Y167149D01*
Y166182D01*
X171548D01*
Y171318D01*
D02*
G37*
G36*
X93318Y172800D02*
X92682D01*
X92094Y172556D01*
X91655Y172118D01*
X80500D01*
X80149Y172048D01*
X79851Y171849D01*
X78660Y170658D01*
X78461Y170360D01*
X78391Y170009D01*
Y167135D01*
X77331D01*
Y161211D01*
X81287D01*
Y167135D01*
X80227D01*
Y169629D01*
X80880Y170282D01*
X91655D01*
X92094Y169844D01*
X92682Y169600D01*
X93318D01*
X93906Y169844D01*
X94356Y170294D01*
X94600Y170882D01*
Y171518D01*
X94356Y172106D01*
X93906Y172556D01*
X93318Y172800D01*
D02*
G37*
G36*
X34243Y167335D02*
X32565D01*
Y164673D01*
X34243D01*
Y167335D01*
D02*
G37*
G36*
X76763D02*
X75085D01*
Y164673D01*
X76763D01*
Y167335D01*
D02*
G37*
G36*
X124007D02*
X122329D01*
Y164673D01*
X124007D01*
Y167335D01*
D02*
G37*
G36*
X121329D02*
X119651D01*
Y164673D01*
X121329D01*
Y167335D01*
D02*
G37*
G36*
X31565D02*
X29887D01*
Y164673D01*
X31565D01*
Y167335D01*
D02*
G37*
G36*
X74085D02*
X72407D01*
Y164673D01*
X74085D01*
Y167335D01*
D02*
G37*
G36*
X149702Y164824D02*
X147433D01*
Y162753D01*
X149702D01*
Y164824D01*
D02*
G37*
G36*
X146433D02*
X144165D01*
Y162753D01*
X146433D01*
Y164824D01*
D02*
G37*
G36*
X137005Y163853D02*
X136369D01*
X135781Y163609D01*
X135331Y163159D01*
X135087Y162571D01*
Y162329D01*
X135077Y162319D01*
X130464D01*
Y163380D01*
X124540D01*
Y159424D01*
X130464D01*
Y160484D01*
X134660D01*
Y157595D01*
X130464D01*
Y158655D01*
X124540D01*
Y154699D01*
X130464D01*
Y155760D01*
X134660D01*
Y154960D01*
X143340D01*
Y155760D01*
X144365D01*
Y153582D01*
X149502D01*
Y158325D01*
X147653D01*
X147582Y158431D01*
X147284Y158630D01*
X146933Y158700D01*
X146582Y158630D01*
X146284Y158431D01*
X146178Y158325D01*
X144365D01*
Y157595D01*
X143340D01*
Y160490D01*
X137841D01*
X137805Y160549D01*
X137688Y160990D01*
X138043Y161346D01*
X138287Y161934D01*
Y162571D01*
X138043Y163159D01*
X137593Y163609D01*
X137005Y163853D01*
D02*
G37*
G36*
X119082Y167135D02*
X115126D01*
Y162549D01*
X114819Y162300D01*
X114358Y162501D01*
Y167135D01*
X110402D01*
Y161211D01*
X113175D01*
X113367Y160749D01*
X112318Y159700D01*
X112182D01*
X111594Y159456D01*
X111144Y159006D01*
X110900Y158418D01*
Y157782D01*
X111144Y157194D01*
X111594Y156744D01*
X112182Y156500D01*
X112818D01*
X113406Y156744D01*
X113856Y157194D01*
X114100Y157782D01*
Y158418D01*
X113963Y158750D01*
X116424Y161211D01*
X119082D01*
Y167135D01*
D02*
G37*
G36*
X201157Y163988D02*
X198200D01*
Y161818D01*
X201157D01*
Y163988D01*
D02*
G37*
G36*
X197200D02*
X194242D01*
Y161818D01*
X197200D01*
Y163988D01*
D02*
G37*
G36*
X109633Y167135D02*
X105677D01*
Y161211D01*
X109633D01*
Y167135D01*
D02*
G37*
G36*
X104909D02*
X100953D01*
Y161211D01*
X104909D01*
Y167135D01*
D02*
G37*
G36*
X98525Y170736D02*
X97888D01*
X97300Y170492D01*
X96850Y170042D01*
X96607Y169454D01*
Y168818D01*
X96850Y168229D01*
X97187Y167893D01*
Y167135D01*
X96229D01*
Y161211D01*
X100185D01*
Y167135D01*
X99226D01*
Y167893D01*
X99563Y168229D01*
X99807Y168818D01*
Y169454D01*
X99563Y170042D01*
X99113Y170492D01*
X98525Y170736D01*
D02*
G37*
G36*
X70179D02*
X69542D01*
X68954Y170492D01*
X68504Y170042D01*
X68260Y169454D01*
Y168818D01*
X68504Y168229D01*
X68841Y167893D01*
Y167135D01*
X67882D01*
Y161211D01*
X71838D01*
Y167135D01*
X70880D01*
Y167893D01*
X71217Y168229D01*
X71460Y168818D01*
Y169454D01*
X71217Y170042D01*
X70767Y170492D01*
X70179Y170736D01*
D02*
G37*
G36*
X65518Y170800D02*
X64882D01*
X64294Y170556D01*
X63844Y170106D01*
X63600Y169518D01*
Y168882D01*
X63844Y168294D01*
X64116Y168021D01*
Y167135D01*
X63158D01*
Y161211D01*
X67114D01*
Y167135D01*
X66155D01*
Y167893D01*
X66556Y168294D01*
X66800Y168882D01*
Y169518D01*
X66556Y170106D01*
X66106Y170556D01*
X65518Y170800D01*
D02*
G37*
G36*
X62389Y167135D02*
X58434D01*
Y161211D01*
X62389D01*
Y167135D01*
D02*
G37*
G36*
X57665D02*
X53709D01*
Y161211D01*
X57665D01*
Y167135D01*
D02*
G37*
G36*
X52940D02*
X48985D01*
Y161211D01*
X52940D01*
Y167135D01*
D02*
G37*
G36*
X48216D02*
X44260D01*
Y161211D01*
X48216D01*
Y167135D01*
D02*
G37*
G36*
X43492D02*
X39536D01*
Y161211D01*
X43492D01*
Y167135D01*
D02*
G37*
G36*
X38767D02*
X34811D01*
Y161211D01*
X38767D01*
Y167135D01*
D02*
G37*
G36*
X124007Y163673D02*
X122329D01*
Y161011D01*
X124007D01*
Y163673D01*
D02*
G37*
G36*
X121329D02*
X119651D01*
Y161011D01*
X121329D01*
Y163673D01*
D02*
G37*
G36*
X76763D02*
X75085D01*
Y161011D01*
X76763D01*
Y163673D01*
D02*
G37*
G36*
X74085D02*
X72407D01*
Y161011D01*
X74085D01*
Y163673D01*
D02*
G37*
G36*
X34243D02*
X32565D01*
Y161011D01*
X34243D01*
Y163673D01*
D02*
G37*
G36*
X31565D02*
X29887D01*
Y161011D01*
X31565D01*
Y163673D01*
D02*
G37*
G36*
X209154Y163200D02*
X206000D01*
Y160637D01*
X209154D01*
Y163200D01*
D02*
G37*
G36*
X205000D02*
X201845D01*
Y160637D01*
X205000D01*
Y163200D01*
D02*
G37*
G36*
X149702Y161753D02*
X147433D01*
Y159681D01*
X149702D01*
Y161753D01*
D02*
G37*
G36*
X146433D02*
X144165D01*
Y159681D01*
X146433D01*
Y161753D01*
D02*
G37*
G36*
X201157Y160818D02*
X198200D01*
Y158648D01*
X201157D01*
Y160818D01*
D02*
G37*
G36*
X197200D02*
X194242D01*
Y158648D01*
X197200D01*
Y160818D01*
D02*
G37*
G36*
X209154Y159637D02*
X206000D01*
Y157073D01*
X209154D01*
Y159637D01*
D02*
G37*
G36*
X205000D02*
X201845D01*
Y157073D01*
X205000D01*
Y159637D01*
D02*
G37*
G36*
X186384Y158771D02*
X183722D01*
Y156700D01*
X186384D01*
Y158771D01*
D02*
G37*
G36*
X182722D02*
X180060D01*
Y156700D01*
X182722D01*
Y158771D01*
D02*
G37*
G36*
X193117Y161770D02*
X188767D01*
Y158208D01*
X189728D01*
X189842Y157708D01*
X189585Y157451D01*
X189342Y156863D01*
Y156227D01*
X189585Y155639D01*
X190035Y155189D01*
X190623Y154945D01*
X191260D01*
X191848Y155189D01*
X192298Y155639D01*
X192542Y156227D01*
Y156863D01*
X192298Y157451D01*
X192042Y157708D01*
X192156Y158208D01*
X193117D01*
Y161770D01*
D02*
G37*
G36*
X186384Y155700D02*
X183722D01*
Y153628D01*
X186384D01*
Y155700D01*
D02*
G37*
G36*
X182722D02*
X180060D01*
Y153628D01*
X182722D01*
Y155700D01*
D02*
G37*
G36*
X268277Y159639D02*
X261762D01*
Y150959D01*
X268277D01*
Y159639D01*
D02*
G37*
G36*
X130464Y153931D02*
X124540D01*
Y149975D01*
X130464D01*
Y151035D01*
X133016D01*
X134660Y149391D01*
Y145607D01*
X134660Y145214D01*
X134238Y144929D01*
X131290Y147877D01*
X130992Y148076D01*
X130641Y148146D01*
X130464D01*
Y149206D01*
X124540D01*
Y145250D01*
X130464D01*
Y145454D01*
X130926Y145645D01*
X137715Y138857D01*
X138012Y138658D01*
X138364Y138588D01*
X140834D01*
X141272Y138149D01*
X141860Y137906D01*
X142497D01*
X143085Y138149D01*
X143535Y138599D01*
X143779Y139187D01*
Y139824D01*
X143535Y140412D01*
X143085Y140862D01*
X142497Y141105D01*
X141860D01*
X141272Y140862D01*
X140834Y140423D01*
X138744D01*
X134471Y144695D01*
X134757Y145117D01*
X135120Y145117D01*
X143340D01*
Y148154D01*
X143640Y148213D01*
X143865Y148363D01*
X144365Y148220D01*
Y147538D01*
X149502D01*
Y152281D01*
X144365D01*
Y151096D01*
X144065Y151036D01*
X143769Y150839D01*
X143340Y150648D01*
Y150648D01*
X143340Y150648D01*
X135998D01*
X134045Y152602D01*
X133747Y152801D01*
X133396Y152870D01*
X130464D01*
Y153931D01*
D02*
G37*
G36*
X305760Y146827D02*
X301916D01*
Y144223D01*
X305760D01*
Y146827D01*
D02*
G37*
G36*
X149702Y146182D02*
X147433D01*
Y144110D01*
X149702D01*
Y146182D01*
D02*
G37*
G36*
X146433D02*
X144165D01*
Y144110D01*
X146433D01*
Y146182D01*
D02*
G37*
G36*
X61577Y146645D02*
X57341D01*
Y142408D01*
X61577D01*
Y146645D01*
D02*
G37*
G36*
X47608D02*
X43371D01*
Y142408D01*
X47608D01*
Y146645D01*
D02*
G37*
G36*
X149702Y143110D02*
X147433D01*
Y141039D01*
X149702D01*
Y143110D01*
D02*
G37*
G36*
X146433D02*
X144165D01*
Y141039D01*
X146433D01*
Y143110D01*
D02*
G37*
G36*
X112337Y140597D02*
X108100D01*
Y136360D01*
X112337D01*
Y140597D01*
D02*
G37*
G36*
X107100D02*
X102863D01*
Y136360D01*
X107100D01*
Y140597D01*
D02*
G37*
G36*
X101097D02*
X96860D01*
Y136360D01*
X101097D01*
Y140597D01*
D02*
G37*
G36*
X95860D02*
X91623D01*
Y136360D01*
X95860D01*
Y140597D01*
D02*
G37*
G36*
X112337Y134322D02*
X108100D01*
Y130085D01*
X112337D01*
Y134322D01*
D02*
G37*
G36*
X101097D02*
X96860D01*
Y130085D01*
X101097D01*
Y134322D01*
D02*
G37*
G36*
X107100D02*
X102863D01*
Y130085D01*
X107100D01*
Y134322D01*
D02*
G37*
G36*
X95860D02*
X91623D01*
Y130085D01*
X95860D01*
Y134322D01*
D02*
G37*
G36*
X47608Y132817D02*
X43371D01*
Y128580D01*
X47608D01*
Y132817D01*
D02*
G37*
G36*
X289845Y127143D02*
X288755D01*
X287701Y126861D01*
X286756Y126315D01*
X285984Y125544D01*
X285439Y124599D01*
X285284Y124020D01*
X270935D01*
X270599Y124356D01*
X270010Y124600D01*
X269374D01*
X268786Y124356D01*
X268336Y123906D01*
X268092Y123318D01*
Y122682D01*
X268336Y122094D01*
X268786Y121644D01*
X269374Y121400D01*
X270010D01*
X270599Y121644D01*
X270935Y121980D01*
X285284D01*
X285439Y121401D01*
X285984Y120456D01*
X286756Y119685D01*
X287701Y119139D01*
X288755Y118857D01*
X289845D01*
X290899Y119139D01*
X291844Y119685D01*
X292616Y120456D01*
X293161Y121401D01*
X293316Y121980D01*
X306634D01*
X306681Y121803D01*
X307089Y121097D01*
X307667Y120519D01*
X308373Y120111D01*
X309162Y119900D01*
X309978D01*
X310767Y120111D01*
X311473Y120519D01*
X312051Y121097D01*
X312459Y121803D01*
X312670Y122592D01*
Y123408D01*
X312459Y124197D01*
X312051Y124903D01*
X311473Y125481D01*
X310767Y125889D01*
X309978Y126100D01*
X309162D01*
X308373Y125889D01*
X307667Y125481D01*
X307089Y124903D01*
X306681Y124197D01*
X306634Y124020D01*
X293316D01*
X293161Y124599D01*
X292616Y125544D01*
X291844Y126315D01*
X290899Y126861D01*
X289845Y127143D01*
D02*
G37*
G36*
X130464Y125584D02*
X124540D01*
Y121628D01*
X130464D01*
Y125584D01*
D02*
G37*
G36*
X139318Y120600D02*
X138682D01*
X138094Y120356D01*
X137644Y119906D01*
X137400Y119318D01*
Y118682D01*
X137617Y118158D01*
X137616Y118155D01*
Y116065D01*
X134972D01*
Y115177D01*
X130464D01*
Y116135D01*
X124540D01*
Y112180D01*
X130464D01*
Y113138D01*
X134972D01*
Y108738D01*
X141904D01*
Y108538D01*
X145166D01*
Y112402D01*
Y116265D01*
X141904D01*
Y116065D01*
X139452D01*
Y117455D01*
X139906Y117644D01*
X140356Y118094D01*
X140600Y118682D01*
Y119318D01*
X140356Y119906D01*
X139906Y120356D01*
X139318Y120600D01*
D02*
G37*
G36*
X289845Y117143D02*
X288755D01*
X287701Y116861D01*
X286756Y116315D01*
X285984Y115544D01*
X285439Y114599D01*
X285269Y113966D01*
X270882D01*
X270599Y114250D01*
X270010Y114493D01*
X269374D01*
X268786Y114250D01*
X268336Y113799D01*
X268092Y113211D01*
Y112575D01*
X268336Y111987D01*
X268786Y111537D01*
X269374Y111293D01*
X270010D01*
X270599Y111537D01*
X270989Y111927D01*
X285298D01*
X285439Y111401D01*
X285984Y110456D01*
X286756Y109685D01*
X287701Y109139D01*
X288755Y108857D01*
X289845D01*
X290899Y109139D01*
X291844Y109685D01*
X292616Y110456D01*
X293161Y111401D01*
X293316Y111980D01*
X306835D01*
X306911Y111697D01*
X307319Y110990D01*
X307897Y110412D01*
X308603Y110004D01*
X309392Y109793D01*
X310208D01*
X310997Y110004D01*
X311703Y110412D01*
X312281Y110990D01*
X312689Y111697D01*
X312900Y112485D01*
Y113301D01*
X312689Y114090D01*
X312281Y114796D01*
X311703Y115374D01*
X310997Y115782D01*
X310208Y115993D01*
X309392D01*
X308603Y115782D01*
X307897Y115374D01*
X307319Y114796D01*
X306911Y114090D01*
X306892Y114020D01*
X293316D01*
X293161Y114599D01*
X292616Y115544D01*
X291844Y116315D01*
X290899Y116861D01*
X289845Y117143D01*
D02*
G37*
G36*
X149428Y116265D02*
X146166D01*
Y112902D01*
X149428D01*
Y116265D01*
D02*
G37*
G36*
X34243Y114579D02*
X32565D01*
Y111917D01*
X34243D01*
Y114579D01*
D02*
G37*
G36*
X76763D02*
X75085D01*
Y111917D01*
X76763D01*
Y114579D01*
D02*
G37*
G36*
X31565D02*
X29887D01*
Y111917D01*
X31565D01*
Y114579D01*
D02*
G37*
G36*
X74085D02*
X72407D01*
Y111917D01*
X74085D01*
Y114579D01*
D02*
G37*
G36*
X149428Y111902D02*
X146166D01*
Y108538D01*
X149428D01*
Y111902D01*
D02*
G37*
G36*
X57665Y114380D02*
X53709D01*
Y108455D01*
X57665D01*
Y114380D01*
D02*
G37*
G36*
X52940D02*
X48985D01*
Y108455D01*
X52940D01*
Y114380D01*
D02*
G37*
G36*
X38767D02*
X34811D01*
Y108455D01*
X38767D01*
Y114380D01*
D02*
G37*
G36*
X124007Y110917D02*
X122329D01*
Y108255D01*
X124007D01*
Y110917D01*
D02*
G37*
G36*
X109833D02*
X108156D01*
Y108255D01*
X109833D01*
Y110917D01*
D02*
G37*
G36*
X76763D02*
X75085D01*
Y108255D01*
X76763D01*
Y110917D01*
D02*
G37*
G36*
X74085D02*
X72407D01*
Y108255D01*
X74085D01*
Y110917D01*
D02*
G37*
G36*
X34243D02*
X32565D01*
Y108255D01*
X34243D01*
Y110917D01*
D02*
G37*
G36*
X31565D02*
X29887D01*
Y108255D01*
X31565D01*
Y110917D01*
D02*
G37*
G36*
X289872Y107343D02*
X289800D01*
Y103500D01*
X293643D01*
Y103572D01*
X293347Y104676D01*
X292776Y105667D01*
X291967Y106475D01*
X290977Y107047D01*
X289872Y107343D01*
D02*
G37*
G36*
X288800D02*
X288728D01*
X287624Y107047D01*
X286633Y106475D01*
X285824Y105667D01*
X285253Y104676D01*
X284957Y103572D01*
Y103500D01*
X288800D01*
Y107343D01*
D02*
G37*
G36*
X67739Y105063D02*
X64477D01*
Y101700D01*
X67739D01*
Y105063D01*
D02*
G37*
G36*
X293643Y102500D02*
X289800D01*
Y98657D01*
X289872D01*
X290977Y98953D01*
X291967Y99524D01*
X292776Y100333D01*
X293347Y101324D01*
X293643Y102428D01*
Y102500D01*
D02*
G37*
G36*
X288800D02*
X284957D01*
Y102428D01*
X285253Y101324D01*
X285824Y100333D01*
X286633Y99524D01*
X287624Y98953D01*
X288728Y98657D01*
X288800D01*
Y102500D01*
D02*
G37*
G36*
X67739Y100700D02*
X64477D01*
Y97337D01*
X67739D01*
Y100700D01*
D02*
G37*
G36*
X62389Y114380D02*
X58434D01*
Y108455D01*
X59392D01*
Y107333D01*
X59086Y107027D01*
X58865Y106697D01*
X58788Y106306D01*
Y104863D01*
X53284D01*
Y97537D01*
X55826D01*
Y86218D01*
X53576Y83969D01*
X50078D01*
Y78831D01*
X50940D01*
X51147Y78332D01*
X51093Y78278D01*
X50850Y77690D01*
Y77053D01*
X51093Y76465D01*
X51430Y76129D01*
Y60672D01*
X17155Y26397D01*
X16997Y26489D01*
X16208Y26700D01*
X15392D01*
X14603Y26489D01*
X13897Y26081D01*
X13319Y25503D01*
X12911Y24797D01*
X12700Y24008D01*
Y23192D01*
X12911Y22403D01*
X13319Y21697D01*
X13897Y21119D01*
X14603Y20711D01*
X15392Y20500D01*
X16208D01*
X16997Y20711D01*
X17703Y21119D01*
X18281Y21697D01*
X18689Y22403D01*
X18900Y23192D01*
Y24008D01*
X18689Y24797D01*
X18597Y24955D01*
X53171Y59529D01*
X53392Y59859D01*
X53469Y60250D01*
Y76129D01*
X53806Y76465D01*
X54050Y77053D01*
Y77690D01*
X53806Y78278D01*
X53752Y78332D01*
X53960Y78831D01*
X54821D01*
Y82330D01*
X57566Y85075D01*
X57787Y85406D01*
X57865Y85796D01*
Y97537D01*
X60216D01*
Y97337D01*
X63477D01*
Y101200D01*
Y105063D01*
X60827D01*
Y105884D01*
X61132Y106190D01*
X61353Y106520D01*
X61431Y106911D01*
Y108455D01*
X62389D01*
Y114380D01*
D02*
G37*
G36*
X293643Y97343D02*
X289800D01*
Y93500D01*
X293643D01*
Y97343D01*
D02*
G37*
G36*
X288800D02*
X284957D01*
Y93500D01*
X288800D01*
Y97343D01*
D02*
G37*
G36*
X293643Y92500D02*
X289800D01*
Y88657D01*
X293643D01*
Y92500D01*
D02*
G37*
G36*
X288800D02*
X284957D01*
Y88657D01*
X288800D01*
Y92500D01*
D02*
G37*
G36*
X227600Y84610D02*
X224839D01*
Y82144D01*
X227600D01*
Y84610D01*
D02*
G37*
G36*
X243570Y161031D02*
X239024D01*
Y157076D01*
X239666D01*
Y143972D01*
X239790Y143347D01*
X240143Y142818D01*
X251115Y131846D01*
X251644Y131493D01*
X252269Y131369D01*
X254094D01*
Y108979D01*
X258321D01*
Y107582D01*
X258321Y107582D01*
X258406Y107153D01*
X258649Y106789D01*
X263383Y102055D01*
Y57137D01*
X258568Y52322D01*
X245996D01*
X244669Y53648D01*
X244876Y54148D01*
X245070Y54148D01*
X258379D01*
Y63932D01*
X248213D01*
X239801Y72345D01*
X239437Y72588D01*
X239007Y72674D01*
X239007Y72674D01*
X216001D01*
X214899Y73776D01*
X214894Y73801D01*
X214651Y74165D01*
X214651Y74165D01*
X214519Y74297D01*
Y76983D01*
X214433Y77412D01*
X214190Y77776D01*
X214190Y77776D01*
X213604Y78362D01*
X213440Y78472D01*
X213092Y78828D01*
Y80279D01*
X213593Y80460D01*
X215758Y78295D01*
Y73666D01*
X218858D01*
Y78666D01*
X218190D01*
X218028Y78908D01*
X215205Y81732D01*
Y82344D01*
X220707D01*
X221078Y82144D01*
Y82144D01*
X223839D01*
Y85110D01*
X224339D01*
Y85610D01*
X227600D01*
Y88075D01*
X227400D01*
Y90310D01*
X224139D01*
Y91310D01*
X227400D01*
Y93775D01*
X223871D01*
Y97010D01*
X223680Y97469D01*
X223221Y97659D01*
X214912D01*
Y99076D01*
X222065D01*
X222184Y99125D01*
X222313D01*
X222405Y99217D01*
X222524Y99266D01*
X222573Y99385D01*
X222665Y99477D01*
X222694Y99548D01*
X222961Y99815D01*
X223311Y99960D01*
X223689D01*
X224039Y99815D01*
X224306Y99548D01*
X224335Y99477D01*
X224427Y99385D01*
X224476Y99266D01*
X224595Y99217D01*
X224687Y99125D01*
X224816D01*
X224935Y99076D01*
X226926D01*
X227261Y99215D01*
X238626Y87850D01*
Y81167D01*
X238627Y81164D01*
X238626Y81160D01*
X238722Y80935D01*
X238816Y80708D01*
X238820Y80707D01*
X238821Y80703D01*
X239179Y80353D01*
X239183Y80352D01*
X239184Y80348D01*
X239413Y80260D01*
X239640Y80168D01*
X239644Y80170D01*
X239648Y80169D01*
X244159Y80273D01*
X244659Y79857D01*
Y78772D01*
X258379D01*
Y80302D01*
X258506Y80455D01*
X258879Y80643D01*
X258944Y80617D01*
X258948Y80618D01*
X258952Y80617D01*
X260818Y80660D01*
X261039Y80758D01*
X261262Y80850D01*
X261265Y80858D01*
X261273Y80861D01*
X261360Y81086D01*
X261453Y81309D01*
Y95590D01*
X261262Y96049D01*
X229615Y127696D01*
X229496Y127746D01*
X229404Y127837D01*
X229275D01*
X229156Y127887D01*
X229036Y127837D01*
X228907D01*
X228494Y128113D01*
Y131479D01*
X228310D01*
X228176Y131679D01*
Y147944D01*
X227986Y148403D01*
X227527Y148593D01*
X200776D01*
X199317Y150052D01*
X199198Y150102D01*
X199107Y150193D01*
X198977D01*
X198858Y150243D01*
X198739Y150193D01*
X198609D01*
X198147Y150002D01*
X198056Y149911D01*
X197937Y149861D01*
X197887Y149742D01*
X197796Y149650D01*
Y149521D01*
X197747Y149402D01*
Y143038D01*
X197835Y142825D01*
X197910Y142607D01*
X197929Y142598D01*
X197937Y142579D01*
X198150Y142491D01*
X198357Y142390D01*
X198845Y142360D01*
X199084Y141944D01*
Y139807D01*
X180292D01*
Y140343D01*
X175092D01*
Y135093D01*
X174092D01*
Y140343D01*
X168893D01*
Y139807D01*
X155911D01*
X155452Y139617D01*
X153483Y137648D01*
X153293Y137189D01*
X153483Y136730D01*
X153751Y136462D01*
Y98341D01*
X153289Y98150D01*
X151643Y99795D01*
X151312Y100016D01*
X150922Y100094D01*
X132613D01*
X132284Y100594D01*
X132403Y100882D01*
Y101518D01*
X132160Y102106D01*
X131710Y102556D01*
X131502Y102642D01*
X131602Y103142D01*
X137786D01*
X138123Y102805D01*
X138711Y102562D01*
X139347D01*
X139936Y102805D01*
X140385Y103255D01*
X140629Y103844D01*
Y104480D01*
X140385Y105068D01*
X139936Y105518D01*
X139347Y105762D01*
X138711D01*
X138123Y105518D01*
X137786Y105182D01*
X123099D01*
X120488Y107793D01*
X120679Y108255D01*
X121329D01*
Y111417D01*
X121829D01*
Y111917D01*
X124007D01*
Y114579D01*
X123814D01*
X123607Y115079D01*
X123756Y115229D01*
X124000Y115817D01*
Y116454D01*
X123756Y117042D01*
X123334Y117464D01*
X123345Y117601D01*
X123472Y117964D01*
X124540D01*
Y116904D01*
X130464D01*
Y120860D01*
X124540D01*
Y119799D01*
X122596D01*
X117753Y124642D01*
X117455Y124841D01*
X117104Y124911D01*
X112337D01*
Y129085D01*
X107600D01*
X102863D01*
Y124911D01*
X101097D01*
Y129085D01*
X96360D01*
X91623D01*
Y124911D01*
X91018D01*
X90579Y125349D01*
X89991Y125593D01*
X89354D01*
X88766Y125349D01*
X88316Y124899D01*
X88072Y124311D01*
Y123675D01*
X88316Y123087D01*
X88766Y122637D01*
X89354Y122393D01*
X89991D01*
X90579Y122637D01*
X91018Y123075D01*
X116724D01*
X120270Y119530D01*
X119986Y119106D01*
X119518Y119300D01*
X118882D01*
X118294Y119056D01*
X117957Y118720D01*
X116336D01*
X116260Y118860D01*
X116182Y119220D01*
X116556Y119594D01*
X116800Y120182D01*
Y120818D01*
X116556Y121406D01*
X116106Y121856D01*
X115518Y122100D01*
X114882D01*
X114294Y121856D01*
X113957Y121520D01*
X73234D01*
X72844Y121442D01*
X72513Y121221D01*
X65672Y114380D01*
X63158D01*
Y108455D01*
X67114D01*
Y112898D01*
X67421Y113147D01*
X67882Y112946D01*
Y108455D01*
X68943D01*
Y107875D01*
X68504Y107436D01*
X68260Y106848D01*
Y106211D01*
X68504Y105623D01*
X68954Y105173D01*
X69542Y104929D01*
X70179D01*
X70767Y105173D01*
X71217Y105623D01*
X71460Y106211D01*
Y106848D01*
X71217Y107436D01*
X70778Y107875D01*
Y108455D01*
X71838D01*
Y114380D01*
X69209D01*
X69018Y114841D01*
X73657Y119480D01*
X113836D01*
X114062Y119220D01*
X113866Y118720D01*
X84607D01*
X84217Y118642D01*
X83886Y118421D01*
X79845Y114380D01*
X77331D01*
Y108455D01*
X81287D01*
Y112898D01*
X81594Y113147D01*
X82055Y112946D01*
Y108455D01*
X86011D01*
Y112898D01*
X86319Y113147D01*
X86780Y112946D01*
Y108455D01*
X87738D01*
Y94442D01*
X87816Y94052D01*
X88037Y93721D01*
X89979Y91779D01*
X90310Y91558D01*
X90700Y91480D01*
X149057D01*
X149394Y91144D01*
X149982Y90900D01*
X150618D01*
X151206Y91144D01*
X151656Y91594D01*
X151900Y92182D01*
Y92818D01*
X151656Y93406D01*
X151206Y93856D01*
X150618Y94100D01*
X149982D01*
X149394Y93856D01*
X149057Y93520D01*
X91122D01*
X89777Y94864D01*
Y108455D01*
X90736D01*
Y114380D01*
X88621D01*
X88354Y114880D01*
X88407Y114960D01*
X103513D01*
X103572Y114880D01*
X103321Y114380D01*
X100953D01*
Y108455D01*
X103289D01*
Y108020D01*
X103367Y107630D01*
X103588Y107299D01*
X104200Y106687D01*
Y106082D01*
X104444Y105494D01*
X104894Y105044D01*
X105482Y104800D01*
X106118D01*
X106706Y105044D01*
X107156Y105494D01*
X107400Y106082D01*
Y106718D01*
X107156Y107306D01*
X106708Y107755D01*
X106708Y107763D01*
X106809Y108255D01*
X107156D01*
Y111417D01*
X107656D01*
Y111917D01*
X109833D01*
X109834Y114194D01*
X109902Y114227D01*
X110402Y113913D01*
Y108455D01*
X112916D01*
X113430Y107941D01*
X113430Y107941D01*
X120777Y100594D01*
X120630Y100140D01*
X120594Y100094D01*
X99907D01*
X99226Y100775D01*
Y108455D01*
X100185D01*
Y114380D01*
X96229D01*
Y108455D01*
X97187D01*
Y100352D01*
X97265Y99962D01*
X97486Y99631D01*
X98588Y98529D01*
X98381Y98029D01*
X95813D01*
X94502Y99340D01*
Y108455D01*
X95460D01*
Y114380D01*
X91504D01*
Y108455D01*
X92463D01*
Y98918D01*
X92540Y98527D01*
X92761Y98197D01*
X94670Y96289D01*
X95000Y96068D01*
X95390Y95990D01*
X148915D01*
X149323Y95582D01*
X149911Y95339D01*
X150548D01*
X151136Y95582D01*
X151586Y96033D01*
X151653Y96195D01*
X152243Y96312D01*
X153380Y95174D01*
Y69995D01*
X152245D01*
X151786Y69805D01*
X147741Y65759D01*
X147551Y65300D01*
Y64800D01*
X147741Y64341D01*
X148551Y63531D01*
Y35300D01*
X148741Y34841D01*
X149200Y34651D01*
X151131D01*
X151250Y34700D01*
X151379D01*
X151470Y34791D01*
X151590Y34841D01*
X151618Y34909D01*
X151761Y35062D01*
X152134Y35188D01*
X152404Y35033D01*
X152683Y34958D01*
Y31876D01*
X152244Y31437D01*
X152000Y30849D01*
Y30212D01*
X152244Y29624D01*
X152417Y29452D01*
X152209Y28951D01*
X151327D01*
Y24996D01*
X155873D01*
Y28951D01*
X154991D01*
X154784Y29452D01*
X154957Y29624D01*
X155200Y30212D01*
Y30849D01*
X154957Y31437D01*
X154518Y31876D01*
Y34958D01*
X154797Y35033D01*
X155067Y35188D01*
X155439Y35062D01*
X155583Y34909D01*
X155611Y34841D01*
X155730Y34791D01*
X155822Y34700D01*
X155951D01*
X156070Y34651D01*
X161229D01*
X161342Y34697D01*
X161464Y34695D01*
X161562Y34789D01*
X161688Y34841D01*
X161756Y34877D01*
X162096Y34988D01*
X162328Y34945D01*
X162822Y34660D01*
X163101Y34585D01*
Y31931D01*
X162662Y31492D01*
X162418Y30904D01*
Y30268D01*
X162662Y29680D01*
X163101Y29241D01*
Y28478D01*
X161745D01*
Y24522D01*
X166291D01*
Y28478D01*
X164936D01*
Y29241D01*
X165375Y29680D01*
X165618Y30268D01*
Y30904D01*
X165375Y31492D01*
X164936Y31931D01*
Y34585D01*
X165215Y34660D01*
X165708Y34945D01*
X165940Y34988D01*
X166281Y34877D01*
X166349Y34841D01*
X166474Y34789D01*
X166572Y34695D01*
X166695Y34697D01*
X166808Y34651D01*
X167621D01*
X167828Y34151D01*
X167572Y33894D01*
X167164Y33187D01*
X166952Y32399D01*
Y31583D01*
X167164Y30794D01*
X167572Y30088D01*
X168149Y29510D01*
X168856Y29102D01*
X169135Y29027D01*
Y28224D01*
X168912Y28002D01*
X168292D01*
X167704Y27758D01*
X167254Y27308D01*
X167010Y26720D01*
Y26083D01*
X167254Y25495D01*
X167692Y25056D01*
Y15690D01*
X167762Y15339D01*
X167961Y15041D01*
X170184Y12819D01*
X169801Y12156D01*
X169509Y11065D01*
Y9935D01*
X169801Y8844D01*
X170366Y7865D01*
X171165Y7066D01*
X172144Y6502D01*
X173235Y6209D01*
X174365D01*
X175456Y6502D01*
X176435Y7066D01*
X177234Y7865D01*
X177798Y8844D01*
X178091Y9935D01*
Y11065D01*
X177798Y12156D01*
X177234Y13135D01*
X176435Y13934D01*
X175456Y14499D01*
X174365Y14791D01*
X173235D01*
X172144Y14499D01*
X171482Y14116D01*
X169528Y16070D01*
Y25056D01*
X169967Y25495D01*
X170210Y26083D01*
Y26704D01*
X170701Y27195D01*
X170900Y27493D01*
X170970Y27844D01*
Y29027D01*
X171249Y29102D01*
X171956Y29510D01*
X172533Y30088D01*
X172941Y30794D01*
X173152Y31583D01*
Y32399D01*
X172941Y33187D01*
X172533Y33894D01*
X172277Y34151D01*
X172484Y34651D01*
X174192D01*
Y33723D01*
X180992D01*
X187792D01*
Y36192D01*
X188254Y36384D01*
X189278Y35359D01*
Y32495D01*
X189356Y32105D01*
X189577Y31774D01*
X198627Y22724D01*
X198958Y22503D01*
X199348Y22425D01*
X269317D01*
Y22325D01*
X270543D01*
Y19558D01*
X270366Y19511D01*
X269659Y19103D01*
X269082Y18526D01*
X268674Y17819D01*
X268463Y17030D01*
Y16214D01*
X268674Y15426D01*
X269082Y14719D01*
X269659Y14141D01*
X270366Y13733D01*
X271155Y13522D01*
X271971D01*
X272760Y13733D01*
X273466Y14141D01*
X274044Y14719D01*
X274452Y15426D01*
X274663Y16214D01*
Y17030D01*
X274452Y17819D01*
X274044Y18526D01*
X273466Y19103D01*
X272760Y19511D01*
X272583Y19558D01*
Y23445D01*
X272505Y23835D01*
X272486Y23864D01*
Y25888D01*
X270562D01*
X269469Y26981D01*
Y29688D01*
X269969Y29895D01*
X270528Y29335D01*
X270597Y29289D01*
X270651Y29235D01*
X270982Y29014D01*
X271372Y28937D01*
X273400D01*
X273791Y29014D01*
X273824Y29037D01*
X277365D01*
X277755Y29114D01*
X278086Y29335D01*
X288081Y39330D01*
X288302Y39661D01*
X288380Y40051D01*
Y46238D01*
X296381Y54239D01*
X296901Y53939D01*
X297955Y53657D01*
X299045D01*
X300099Y53939D01*
X301044Y54484D01*
X301816Y55256D01*
X302361Y56201D01*
X302643Y57254D01*
Y58346D01*
X302361Y59399D01*
X301816Y60344D01*
X301044Y61115D01*
X300099Y61661D01*
X299045Y61943D01*
X297955D01*
X296901Y61661D01*
X295956Y61115D01*
X295184Y60344D01*
X294639Y59399D01*
X294357Y58346D01*
Y57254D01*
X294639Y56201D01*
X294939Y55681D01*
X286639Y47381D01*
X286418Y47050D01*
X286340Y46660D01*
Y40473D01*
X283957Y38089D01*
X283812Y38087D01*
X283358Y38518D01*
X283358Y38606D01*
Y39456D01*
X282034D01*
Y38133D01*
X282863D01*
X282973Y38133D01*
X283404Y37679D01*
X283401Y37534D01*
X276943Y31076D01*
X273786D01*
Y31756D01*
X272386D01*
Y32756D01*
X273786D01*
Y33906D01*
X274368D01*
Y35606D01*
X270418D01*
X266468D01*
Y33906D01*
X267249D01*
Y30356D01*
X267430D01*
Y26559D01*
X267507Y26169D01*
X267728Y25838D01*
X268639Y24927D01*
X268448Y24464D01*
X234578D01*
Y28749D01*
X235040Y28940D01*
X235260Y28720D01*
X235719Y28530D01*
X238385D01*
X238585Y28396D01*
Y25896D01*
X248369D01*
Y39616D01*
X245122D01*
X244846Y40030D01*
Y40159D01*
X244895Y40278D01*
X244846Y40398D01*
Y40527D01*
X244754Y40618D01*
X244705Y40737D01*
X234941Y50501D01*
X234822Y50551D01*
X234730Y50642D01*
X234601D01*
X234482Y50691D01*
X234362Y50642D01*
X234233D01*
X233858Y51028D01*
Y53983D01*
X233917Y54007D01*
X234107Y54466D01*
Y58832D01*
X236313D01*
X244738Y50407D01*
X244738Y50407D01*
X245102Y50164D01*
X245531Y50078D01*
X259033D01*
X259033Y50078D01*
X259462Y50164D01*
X259826Y50407D01*
X265298Y55879D01*
X265298Y55879D01*
X265541Y56243D01*
X265627Y56672D01*
X265627Y56672D01*
Y102520D01*
X265627Y102520D01*
X265541Y102949D01*
X265298Y103313D01*
X265298Y103313D01*
X260564Y108047D01*
Y108979D01*
X266694D01*
Y131369D01*
X285458D01*
X285984Y130456D01*
X286756Y129684D01*
X287701Y129139D01*
X288755Y128857D01*
X289845D01*
X290899Y129139D01*
X291844Y129684D01*
X292616Y130456D01*
X293161Y131401D01*
X293344Y132082D01*
X306585D01*
X306660Y131803D01*
X307068Y131097D01*
X307645Y130519D01*
X308352Y130111D01*
X309140Y129900D01*
X309957D01*
X310745Y130111D01*
X311452Y130519D01*
X312029Y131097D01*
X312437Y131803D01*
X312649Y132592D01*
Y133408D01*
X312437Y134197D01*
X312029Y134903D01*
X311452Y135481D01*
X310745Y135889D01*
X309957Y136100D01*
X309140D01*
X308352Y135889D01*
X307645Y135481D01*
X307068Y134903D01*
X306660Y134197D01*
X306585Y133918D01*
X293344D01*
X293161Y134599D01*
X292616Y135544D01*
X291844Y136316D01*
X290899Y136861D01*
X289845Y137143D01*
X288755D01*
X287701Y136861D01*
X286756Y136316D01*
X285984Y135544D01*
X285458Y134631D01*
X252944D01*
X242928Y144647D01*
Y157076D01*
X243570D01*
Y161031D01*
D02*
G37*
G36*
X229058Y78866D02*
X227808D01*
Y76666D01*
X229058D01*
Y78866D01*
D02*
G37*
G36*
X224058D02*
X222808D01*
Y76666D01*
X224058D01*
Y78866D01*
D02*
G37*
G36*
X226808D02*
X225558D01*
Y76666D01*
X226808D01*
Y78866D01*
D02*
G37*
G36*
X221808D02*
X220558D01*
Y76666D01*
X221808D01*
Y78866D01*
D02*
G37*
G36*
X41922Y76368D02*
X39850D01*
Y74100D01*
X41922D01*
Y76368D01*
D02*
G37*
G36*
X38850D02*
X36779D01*
Y74100D01*
X38850D01*
Y76368D01*
D02*
G37*
G36*
X233858Y78666D02*
X230758D01*
Y73666D01*
X233858D01*
Y78666D01*
D02*
G37*
G36*
X229058Y75666D02*
X227808D01*
Y73466D01*
X229058D01*
Y75666D01*
D02*
G37*
G36*
X226808D02*
X225558D01*
Y73466D01*
X226808D01*
Y75666D01*
D02*
G37*
G36*
X224058D02*
X222808D01*
Y73466D01*
X224058D01*
Y75666D01*
D02*
G37*
G36*
X221808D02*
X220558D01*
Y73466D01*
X221808D01*
Y75666D01*
D02*
G37*
G36*
X41922Y73100D02*
X39850D01*
Y70832D01*
X41922D01*
Y73100D01*
D02*
G37*
G36*
X38850D02*
X36779D01*
Y70832D01*
X38850D01*
Y73100D01*
D02*
G37*
G36*
X299045Y71943D02*
X297955D01*
X296901Y71661D01*
X295956Y71115D01*
X295184Y70344D01*
X294639Y69399D01*
X294484Y68820D01*
X289695D01*
X289305Y68742D01*
X288974Y68521D01*
X270041Y49588D01*
X268117D01*
Y49000D01*
X267617Y48964D01*
X267306Y49275D01*
X266718Y49518D01*
X266082D01*
X265494Y49275D01*
X265044Y48825D01*
X264800Y48237D01*
Y47600D01*
X265044Y47012D01*
X265494Y46562D01*
X266082Y46318D01*
X266718D01*
X267306Y46562D01*
X267617Y46873D01*
X268117Y46836D01*
Y46025D01*
X268117Y46025D01*
X268117D01*
X267943Y45590D01*
X267728Y45375D01*
X267507Y45044D01*
X267430Y44654D01*
Y41856D01*
X267249D01*
Y40976D01*
X265673D01*
X265625Y41153D01*
X265217Y41860D01*
X264640Y42437D01*
X263933Y42845D01*
X263145Y43056D01*
X262328D01*
X261540Y42845D01*
X260833Y42437D01*
X260256Y41860D01*
X259848Y41153D01*
X259636Y40365D01*
Y39548D01*
X259848Y38760D01*
X260256Y38053D01*
X260833Y37476D01*
X261540Y37068D01*
X262328Y36856D01*
X263145D01*
X263933Y37068D01*
X264640Y37476D01*
X265217Y38053D01*
X265625Y38760D01*
X265673Y38937D01*
X267249D01*
Y38306D01*
X266468D01*
Y36606D01*
X269918D01*
Y38306D01*
X269649D01*
Y41856D01*
X269469D01*
Y44232D01*
X270423Y45185D01*
X270644Y45516D01*
X270721Y45906D01*
Y46025D01*
X271286D01*
Y47908D01*
X271593Y48158D01*
X272054Y47957D01*
Y46025D01*
X274970D01*
Y45588D01*
X275214Y45000D01*
X275664Y44550D01*
X276252Y44306D01*
X276888D01*
X277476Y44550D01*
X277926Y45000D01*
X278170Y45588D01*
Y46225D01*
X277926Y46813D01*
X277476Y47263D01*
X277355Y47313D01*
X277283Y47679D01*
X277061Y48010D01*
X276544Y48527D01*
X276213Y48748D01*
X275823Y48826D01*
X275223D01*
Y49588D01*
X273578D01*
X273387Y50049D01*
X290118Y66780D01*
X294484D01*
X294639Y66201D01*
X295184Y65256D01*
X295956Y64485D01*
X296901Y63939D01*
X297955Y63657D01*
X299045D01*
X300099Y63939D01*
X301044Y64485D01*
X301816Y65256D01*
X302361Y66201D01*
X302643Y67255D01*
Y68345D01*
X302361Y69399D01*
X301816Y70344D01*
X301044Y71115D01*
X300099Y71661D01*
X299045Y71943D01*
D02*
G37*
G36*
X8247Y51736D02*
X6668D01*
Y49369D01*
X8247D01*
Y51736D01*
D02*
G37*
G36*
X5668D02*
X4088D01*
Y49369D01*
X5668D01*
Y51736D01*
D02*
G37*
G36*
X8247Y48369D02*
X6668D01*
Y46002D01*
X8247D01*
Y48369D01*
D02*
G37*
G36*
X5668D02*
X4088D01*
Y46002D01*
X5668D01*
Y48369D01*
D02*
G37*
G36*
X299045Y51943D02*
X297955D01*
X296901Y51661D01*
X295956Y51116D01*
X295184Y50344D01*
X294639Y49399D01*
X294357Y48346D01*
Y47254D01*
X294639Y46201D01*
X294939Y45681D01*
X292579Y43321D01*
X292358Y42990D01*
X292280Y42600D01*
Y29959D01*
X291944Y29623D01*
X291700Y29035D01*
Y28398D01*
X291944Y27810D01*
X291980Y27773D01*
X292000Y27694D01*
X291884Y27162D01*
X291397Y26881D01*
X290819Y26303D01*
X290411Y25597D01*
X290200Y24808D01*
Y23992D01*
X290411Y23203D01*
X290819Y22497D01*
X291397Y21919D01*
X292103Y21511D01*
X292892Y21300D01*
X293708D01*
X294497Y21511D01*
X295203Y21919D01*
X295781Y22497D01*
X296189Y23203D01*
X296400Y23992D01*
Y24808D01*
X296189Y25597D01*
X295781Y26303D01*
X295203Y26881D01*
X294716Y27162D01*
X294600Y27694D01*
X294620Y27773D01*
X294656Y27810D01*
X294900Y28398D01*
Y29035D01*
X294656Y29623D01*
X294320Y29959D01*
Y33457D01*
X298000D01*
Y37800D01*
Y42143D01*
X294992D01*
X294785Y42643D01*
X296381Y44239D01*
X296901Y43939D01*
X297955Y43657D01*
X299045D01*
X300099Y43939D01*
X301044Y44484D01*
X301816Y45256D01*
X302361Y46201D01*
X302643Y47254D01*
Y48346D01*
X302361Y49399D01*
X301816Y50344D01*
X301044Y51116D01*
X300099Y51661D01*
X299045Y51943D01*
D02*
G37*
G36*
X280018Y45400D02*
X279382D01*
X278794Y45156D01*
X278344Y44706D01*
X278100Y44118D01*
Y43482D01*
X278142Y43379D01*
X277664Y42901D01*
X277443Y42570D01*
X277365Y42180D01*
Y41580D01*
X276761D01*
Y40976D01*
X273586D01*
Y41856D01*
X271186D01*
Y38306D01*
X270918D01*
Y36606D01*
X274368D01*
Y38306D01*
X273586D01*
Y38937D01*
X276761D01*
Y38333D01*
X279711D01*
Y38133D01*
X281034D01*
Y39956D01*
Y41780D01*
X280311D01*
X280211Y42280D01*
X280606Y42444D01*
X281056Y42894D01*
X281300Y43482D01*
Y44118D01*
X281056Y44706D01*
X280606Y45156D01*
X280018Y45400D01*
D02*
G37*
G36*
X283358Y41780D02*
X282034D01*
Y40456D01*
X283358D01*
Y41780D01*
D02*
G37*
G36*
X302843Y42143D02*
X299000D01*
Y38300D01*
X302843D01*
Y42143D01*
D02*
G37*
G36*
Y37300D02*
X299000D01*
Y33457D01*
X302843D01*
Y37300D01*
D02*
G37*
G36*
X8247Y35398D02*
X6668D01*
Y33031D01*
X8247D01*
Y35398D01*
D02*
G37*
G36*
X5668D02*
X4088D01*
Y33031D01*
X5668D01*
Y35398D01*
D02*
G37*
G36*
X8247Y32031D02*
X6668D01*
Y29664D01*
X8247D01*
Y32031D01*
D02*
G37*
G36*
X5668D02*
X4088D01*
Y29664D01*
X5668D01*
Y32031D01*
D02*
G37*
G36*
X187792Y32723D02*
X181492D01*
Y29273D01*
X187792D01*
Y32723D01*
D02*
G37*
G36*
X180492D02*
X174192D01*
Y29273D01*
X180492D01*
Y32723D01*
D02*
G37*
G36*
X308142Y28200D02*
X307458D01*
X306796Y28023D01*
X306204Y27681D01*
X305719Y27196D01*
X305377Y26604D01*
X305200Y25942D01*
Y25258D01*
X305377Y24596D01*
X305719Y24004D01*
X306204Y23519D01*
X306796Y23177D01*
X307458Y23000D01*
X308142D01*
X308804Y23177D01*
X309396Y23519D01*
X309880Y24004D01*
X310223Y24596D01*
X310400Y25258D01*
Y25942D01*
X310223Y26604D01*
X309880Y27196D01*
X309396Y27681D01*
X308804Y28023D01*
X308142Y28200D01*
D02*
G37*
G36*
X6842Y26500D02*
X6158D01*
X5496Y26323D01*
X4904Y25980D01*
X4420Y25496D01*
X4077Y24904D01*
X3900Y24242D01*
Y23558D01*
X4077Y22896D01*
X4420Y22304D01*
X4904Y21820D01*
X5496Y21477D01*
X6158Y21300D01*
X6842D01*
X7504Y21477D01*
X8096Y21820D01*
X8580Y22304D01*
X8923Y22896D01*
X9100Y23558D01*
Y24242D01*
X8923Y24904D01*
X8580Y25496D01*
X8096Y25980D01*
X7504Y26323D01*
X6842Y26500D01*
D02*
G37*
G36*
X276423Y25888D02*
X273254D01*
Y22325D01*
X274848D01*
X274881Y22162D01*
X275102Y21831D01*
X275692Y21241D01*
X275682Y21218D01*
Y20582D01*
X275926Y19994D01*
X276376Y19544D01*
X276964Y19300D01*
X277601D01*
X278189Y19544D01*
X278639Y19994D01*
X278882Y20582D01*
Y21218D01*
X278639Y21806D01*
X278189Y22256D01*
X277601Y22500D01*
X277317D01*
X276842Y22974D01*
Y23122D01*
X276765Y23512D01*
X276544Y23843D01*
X276423Y23964D01*
Y25888D01*
D02*
G37*
G36*
X21100Y18682D02*
Y15900D01*
X23882D01*
X23675Y16674D01*
X23241Y17426D01*
X22626Y18041D01*
X21874Y18475D01*
X21100Y18682D01*
D02*
G37*
G36*
X20100D02*
X19326Y18475D01*
X18574Y18041D01*
X17959Y17426D01*
X17525Y16674D01*
X17318Y15900D01*
X20100D01*
Y18682D01*
D02*
G37*
G36*
X23882Y14900D02*
X21100D01*
Y12118D01*
X21874Y12325D01*
X22626Y12759D01*
X23241Y13374D01*
X23675Y14126D01*
X23882Y14900D01*
D02*
G37*
G36*
X20100D02*
X17318D01*
X17525Y14126D01*
X17959Y13374D01*
X18574Y12759D01*
X19326Y12325D01*
X20100Y12118D01*
Y14900D01*
D02*
G37*
G36*
X58291Y14991D02*
X54300D01*
Y11000D01*
X58291D01*
Y14991D01*
D02*
G37*
G36*
X53300D02*
X49309D01*
Y11000D01*
X53300D01*
Y14991D01*
D02*
G37*
G36*
X244365Y14791D02*
X243235D01*
X242144Y14499D01*
X241165Y13934D01*
X240366Y13135D01*
X239802Y12156D01*
X239509Y11065D01*
Y9935D01*
X239802Y8844D01*
X240366Y7865D01*
X241165Y7066D01*
X242144Y6502D01*
X243235Y6209D01*
X244365D01*
X245456Y6502D01*
X246435Y7066D01*
X247234Y7865D01*
X247798Y8844D01*
X248091Y9935D01*
Y11065D01*
X247798Y12156D01*
X247234Y13135D01*
X246435Y13934D01*
X245456Y14499D01*
X244365Y14791D01*
D02*
G37*
G36*
X234365D02*
X233235D01*
X232144Y14499D01*
X231165Y13934D01*
X230366Y13135D01*
X229802Y12156D01*
X229509Y11065D01*
Y9935D01*
X229802Y8844D01*
X230366Y7865D01*
X231165Y7066D01*
X232144Y6502D01*
X233235Y6209D01*
X234365D01*
X235456Y6502D01*
X236435Y7066D01*
X237234Y7865D01*
X237799Y8844D01*
X238091Y9935D01*
Y11065D01*
X237799Y12156D01*
X237234Y13135D01*
X236435Y13934D01*
X235456Y14499D01*
X234365Y14791D01*
D02*
G37*
G36*
X224365D02*
X223235D01*
X222144Y14499D01*
X221165Y13934D01*
X220366Y13135D01*
X219801Y12156D01*
X219509Y11065D01*
Y9935D01*
X219801Y8844D01*
X220366Y7865D01*
X221165Y7066D01*
X222144Y6502D01*
X223235Y6209D01*
X224365D01*
X225456Y6502D01*
X226435Y7066D01*
X227234Y7865D01*
X227799Y8844D01*
X228091Y9935D01*
Y11065D01*
X227799Y12156D01*
X227234Y13135D01*
X226435Y13934D01*
X225456Y14499D01*
X224365Y14791D01*
D02*
G37*
G36*
X214365D02*
X213235D01*
X212144Y14499D01*
X211165Y13934D01*
X210366Y13135D01*
X209802Y12156D01*
X209509Y11065D01*
Y9935D01*
X209802Y8844D01*
X210366Y7865D01*
X211165Y7066D01*
X212144Y6502D01*
X213235Y6209D01*
X214365D01*
X215456Y6502D01*
X216435Y7066D01*
X217234Y7865D01*
X217798Y8844D01*
X218091Y9935D01*
Y11065D01*
X217798Y12156D01*
X217234Y13135D01*
X216435Y13934D01*
X215456Y14499D01*
X214365Y14791D01*
D02*
G37*
G36*
X204365D02*
X203235D01*
X202144Y14499D01*
X201165Y13934D01*
X200366Y13135D01*
X199802Y12156D01*
X199509Y11065D01*
Y9935D01*
X199802Y8844D01*
X200366Y7865D01*
X201165Y7066D01*
X202144Y6502D01*
X203235Y6209D01*
X204365D01*
X205456Y6502D01*
X206435Y7066D01*
X207234Y7865D01*
X207799Y8844D01*
X208091Y9935D01*
Y11065D01*
X207799Y12156D01*
X207234Y13135D01*
X206435Y13934D01*
X205456Y14499D01*
X204365Y14791D01*
D02*
G37*
G36*
X194365D02*
X193235D01*
X192144Y14499D01*
X191165Y13934D01*
X190366Y13135D01*
X189802Y12156D01*
X189509Y11065D01*
Y9935D01*
X189802Y8844D01*
X190366Y7865D01*
X191165Y7066D01*
X192144Y6502D01*
X193235Y6209D01*
X194365D01*
X195456Y6502D01*
X196435Y7066D01*
X197234Y7865D01*
X197799Y8844D01*
X198091Y9935D01*
Y11065D01*
X197799Y12156D01*
X197234Y13135D01*
X196435Y13934D01*
X195456Y14499D01*
X194365Y14791D01*
D02*
G37*
G36*
X174401Y23157D02*
X173584D01*
X172796Y22946D01*
X172089Y22538D01*
X171512Y21961D01*
X171104Y21254D01*
X170893Y20465D01*
Y19649D01*
X171104Y18861D01*
X171512Y18154D01*
X172089Y17576D01*
X172796Y17168D01*
X173584Y16957D01*
X174401D01*
X175189Y17168D01*
X175439Y17313D01*
X176779Y15973D01*
X177076Y15774D01*
X177428Y15704D01*
X182438D01*
X182866Y15277D01*
Y14692D01*
X182144Y14499D01*
X181165Y13934D01*
X180366Y13135D01*
X179801Y12156D01*
X179509Y11065D01*
Y9935D01*
X179801Y8844D01*
X180366Y7865D01*
X181165Y7066D01*
X182144Y6502D01*
X183235Y6209D01*
X184365D01*
X185456Y6502D01*
X186435Y7066D01*
X187234Y7865D01*
X187799Y8844D01*
X188091Y9935D01*
Y11065D01*
X187799Y12156D01*
X187234Y13135D01*
X186435Y13934D01*
X185456Y14499D01*
X184701Y14701D01*
Y15277D01*
X185140Y15716D01*
X185383Y16304D01*
Y16940D01*
X185140Y17528D01*
X184689Y17978D01*
X184101Y18222D01*
X183465D01*
X182877Y17978D01*
X182438Y17540D01*
X177808D01*
X176737Y18610D01*
X176881Y18861D01*
X177093Y19649D01*
Y20465D01*
X176881Y21254D01*
X176473Y21961D01*
X175896Y22538D01*
X175189Y22946D01*
X174401Y23157D01*
D02*
G37*
G36*
X166291Y23950D02*
X161745D01*
Y19995D01*
X162882D01*
Y14696D01*
X162144Y14499D01*
X161165Y13934D01*
X160366Y13135D01*
X159801Y12156D01*
X159509Y11065D01*
Y9935D01*
X159801Y8844D01*
X160366Y7865D01*
X161165Y7066D01*
X162144Y6502D01*
X163235Y6209D01*
X164365D01*
X165456Y6502D01*
X166435Y7066D01*
X167234Y7865D01*
X167798Y8844D01*
X168091Y9935D01*
Y11065D01*
X167798Y12156D01*
X167234Y13135D01*
X166435Y13934D01*
X165456Y14499D01*
X164718Y14696D01*
Y19995D01*
X166291D01*
Y23950D01*
D02*
G37*
G36*
X155873Y24424D02*
X151327D01*
Y20468D01*
X152682D01*
Y14643D01*
X152144Y14499D01*
X151165Y13934D01*
X150366Y13135D01*
X149802Y12156D01*
X149509Y11065D01*
Y9935D01*
X149802Y8844D01*
X150366Y7865D01*
X151165Y7066D01*
X152144Y6502D01*
X153235Y6209D01*
X154365D01*
X155456Y6502D01*
X156435Y7066D01*
X157234Y7865D01*
X157799Y8844D01*
X158091Y9935D01*
Y11065D01*
X157799Y12156D01*
X157234Y13135D01*
X156435Y13934D01*
X155456Y14499D01*
X154518Y14750D01*
Y20468D01*
X155873D01*
Y24424D01*
D02*
G37*
G36*
X144365Y14791D02*
X143235D01*
X142144Y14499D01*
X141165Y13934D01*
X140366Y13135D01*
X139802Y12156D01*
X139509Y11065D01*
Y9935D01*
X139802Y8844D01*
X140366Y7865D01*
X141165Y7066D01*
X142144Y6502D01*
X143235Y6209D01*
X144365D01*
X145456Y6502D01*
X146435Y7066D01*
X147234Y7865D01*
X147799Y8844D01*
X148091Y9935D01*
Y11065D01*
X147799Y12156D01*
X147234Y13135D01*
X146435Y13934D01*
X145456Y14499D01*
X144365Y14791D01*
D02*
G37*
G36*
X134365D02*
X133235D01*
X132144Y14499D01*
X131165Y13934D01*
X130366Y13135D01*
X129801Y12156D01*
X129509Y11065D01*
Y9935D01*
X129801Y8844D01*
X130366Y7865D01*
X131165Y7066D01*
X132144Y6502D01*
X133235Y6209D01*
X134365D01*
X135456Y6502D01*
X136435Y7066D01*
X137234Y7865D01*
X137799Y8844D01*
X138091Y9935D01*
Y11065D01*
X137799Y12156D01*
X137234Y13135D01*
X136435Y13934D01*
X135456Y14499D01*
X134365Y14791D01*
D02*
G37*
G36*
X124191Y28069D02*
X123375D01*
X122586Y27857D01*
X121879Y27449D01*
X121302Y26872D01*
X120894Y26165D01*
X120683Y25377D01*
Y24560D01*
X120894Y23772D01*
X121302Y23065D01*
X121879Y22488D01*
X122586Y22080D01*
X122865Y22005D01*
Y20214D01*
X122426Y19775D01*
X122183Y19187D01*
Y18550D01*
X122426Y17962D01*
X122865Y17523D01*
Y14692D01*
X122144Y14499D01*
X121165Y13934D01*
X120366Y13135D01*
X119801Y12156D01*
X119509Y11065D01*
Y9935D01*
X119801Y8844D01*
X120366Y7865D01*
X121165Y7066D01*
X122144Y6502D01*
X123235Y6209D01*
X124365D01*
X125456Y6502D01*
X126435Y7066D01*
X127234Y7865D01*
X127798Y8844D01*
X128091Y9935D01*
Y11065D01*
X127798Y12156D01*
X127234Y13135D01*
X126435Y13934D01*
X125456Y14499D01*
X124700Y14701D01*
Y17523D01*
X125139Y17962D01*
X125383Y18550D01*
Y19187D01*
X125139Y19775D01*
X124700Y20214D01*
Y22005D01*
X124979Y22080D01*
X125686Y22488D01*
X126263Y23065D01*
X126671Y23772D01*
X126883Y24560D01*
Y25377D01*
X126671Y26165D01*
X126263Y26872D01*
X125686Y27449D01*
X124979Y27857D01*
X124191Y28069D01*
D02*
G37*
G36*
X114191D02*
X113375D01*
X112586Y27857D01*
X111879Y27449D01*
X111302Y26872D01*
X110894Y26165D01*
X110683Y25377D01*
Y24560D01*
X110894Y23772D01*
X111302Y23065D01*
X111879Y22488D01*
X112586Y22080D01*
X112865Y22005D01*
Y20214D01*
X112426Y19775D01*
X112183Y19187D01*
Y18550D01*
X112426Y17962D01*
X112865Y17523D01*
Y14692D01*
X112144Y14499D01*
X111165Y13934D01*
X110366Y13135D01*
X109801Y12156D01*
X109509Y11065D01*
Y9935D01*
X109801Y8844D01*
X110366Y7865D01*
X111165Y7066D01*
X112144Y6502D01*
X113235Y6209D01*
X114365D01*
X115456Y6502D01*
X116435Y7066D01*
X117234Y7865D01*
X117798Y8844D01*
X118091Y9935D01*
Y11065D01*
X117798Y12156D01*
X117234Y13135D01*
X116435Y13934D01*
X115456Y14499D01*
X114700Y14701D01*
Y17523D01*
X115139Y17962D01*
X115383Y18550D01*
Y19187D01*
X115139Y19775D01*
X114700Y20214D01*
Y22005D01*
X114979Y22080D01*
X115686Y22488D01*
X116263Y23065D01*
X116671Y23772D01*
X116883Y24560D01*
Y25377D01*
X116671Y26165D01*
X116263Y26872D01*
X115686Y27449D01*
X114979Y27857D01*
X114191Y28069D01*
D02*
G37*
G36*
X104124D02*
X103308D01*
X102520Y27857D01*
X101813Y27449D01*
X101235Y26872D01*
X100827Y26165D01*
X100616Y25377D01*
Y24560D01*
X100827Y23772D01*
X101235Y23065D01*
X101813Y22488D01*
X102520Y22080D01*
X102798Y22005D01*
Y20047D01*
X102426Y19675D01*
X102183Y19087D01*
Y18450D01*
X102426Y17862D01*
X102865Y17423D01*
Y14692D01*
X102144Y14499D01*
X101165Y13934D01*
X100366Y13135D01*
X99801Y12156D01*
X99509Y11065D01*
Y9935D01*
X99801Y8844D01*
X100366Y7865D01*
X101165Y7066D01*
X102144Y6502D01*
X103235Y6209D01*
X104365D01*
X105456Y6502D01*
X106435Y7066D01*
X107234Y7865D01*
X107799Y8844D01*
X108091Y9935D01*
Y11065D01*
X107799Y12156D01*
X107234Y13135D01*
X106435Y13934D01*
X105456Y14499D01*
X104700Y14701D01*
Y17423D01*
X105139Y17862D01*
X105383Y18450D01*
Y19087D01*
X105139Y19675D01*
X104689Y20125D01*
X104634Y20148D01*
Y22005D01*
X104913Y22080D01*
X105620Y22488D01*
X106197Y23065D01*
X106605Y23772D01*
X106816Y24560D01*
Y25377D01*
X106605Y26165D01*
X106197Y26872D01*
X105620Y27449D01*
X104913Y27857D01*
X104124Y28069D01*
D02*
G37*
G36*
X94291Y28569D02*
X93475D01*
X92686Y28357D01*
X91979Y27949D01*
X91402Y27372D01*
X90994Y26665D01*
X90783Y25877D01*
Y25060D01*
X90994Y24272D01*
X91402Y23565D01*
X91979Y22988D01*
X92686Y22580D01*
X92965Y22505D01*
Y20162D01*
X92876Y20125D01*
X92426Y19675D01*
X92183Y19087D01*
Y18450D01*
X92426Y17862D01*
X92865Y17423D01*
Y14692D01*
X92144Y14499D01*
X91165Y13934D01*
X90366Y13135D01*
X89802Y12156D01*
X89509Y11065D01*
Y9935D01*
X89802Y8844D01*
X90366Y7865D01*
X91165Y7066D01*
X92144Y6502D01*
X93235Y6209D01*
X94365D01*
X95456Y6502D01*
X96435Y7066D01*
X97234Y7865D01*
X97799Y8844D01*
X98091Y9935D01*
Y11065D01*
X97799Y12156D01*
X97234Y13135D01*
X96435Y13934D01*
X95456Y14499D01*
X94700Y14701D01*
Y17423D01*
X95139Y17862D01*
X95383Y18450D01*
Y19087D01*
X95139Y19675D01*
X94800Y20014D01*
Y22505D01*
X95079Y22580D01*
X95786Y22988D01*
X96363Y23565D01*
X96771Y24272D01*
X96983Y25060D01*
Y25877D01*
X96771Y26665D01*
X96363Y27372D01*
X95786Y27949D01*
X95079Y28357D01*
X94291Y28569D01*
D02*
G37*
G36*
X83991D02*
X83175D01*
X82386Y28357D01*
X81679Y27949D01*
X81102Y27372D01*
X80694Y26665D01*
X80483Y25877D01*
Y25060D01*
X80694Y24272D01*
X81102Y23565D01*
X81679Y22988D01*
X82386Y22580D01*
X82665Y22505D01*
Y20114D01*
X82326Y19775D01*
X82083Y19187D01*
Y18550D01*
X82326Y17962D01*
X82776Y17512D01*
X82865Y17475D01*
Y14692D01*
X82144Y14499D01*
X81165Y13934D01*
X80366Y13135D01*
X79801Y12156D01*
X79509Y11065D01*
Y9935D01*
X79801Y8844D01*
X80366Y7865D01*
X81165Y7066D01*
X82144Y6502D01*
X83235Y6209D01*
X84365D01*
X85456Y6502D01*
X86435Y7066D01*
X87234Y7865D01*
X87799Y8844D01*
X88091Y9935D01*
Y11065D01*
X87799Y12156D01*
X87234Y13135D01*
X86435Y13934D01*
X85456Y14499D01*
X84700Y14701D01*
Y17623D01*
X85039Y17962D01*
X85283Y18550D01*
Y19187D01*
X85039Y19775D01*
X84589Y20225D01*
X84500Y20262D01*
Y22505D01*
X84779Y22580D01*
X85486Y22988D01*
X86063Y23565D01*
X86471Y24272D01*
X86683Y25060D01*
Y25877D01*
X86471Y26665D01*
X86063Y27372D01*
X85486Y27949D01*
X84779Y28357D01*
X83991Y28569D01*
D02*
G37*
G36*
X74365Y14791D02*
X73235D01*
X72144Y14499D01*
X71165Y13934D01*
X70366Y13135D01*
X69801Y12156D01*
X69509Y11065D01*
Y9935D01*
X69801Y8844D01*
X70366Y7865D01*
X71165Y7066D01*
X72144Y6502D01*
X73235Y6209D01*
X74365D01*
X75456Y6502D01*
X76435Y7066D01*
X77234Y7865D01*
X77798Y8844D01*
X78091Y9935D01*
Y11065D01*
X77798Y12156D01*
X77234Y13135D01*
X76435Y13934D01*
X75456Y14499D01*
X74365Y14791D01*
D02*
G37*
G36*
X64018Y19300D02*
X63382D01*
X62794Y19056D01*
X62344Y18606D01*
X62100Y18018D01*
Y17382D01*
X62344Y16794D01*
X62794Y16344D01*
X62832Y16328D01*
Y14683D01*
X62144Y14499D01*
X61165Y13934D01*
X60366Y13135D01*
X59802Y12156D01*
X59509Y11065D01*
Y9935D01*
X59802Y8844D01*
X60366Y7865D01*
X61165Y7066D01*
X62144Y6502D01*
X63235Y6209D01*
X64365D01*
X65456Y6502D01*
X66435Y7066D01*
X67234Y7865D01*
X67799Y8844D01*
X68091Y9935D01*
Y11065D01*
X67799Y12156D01*
X67234Y13135D01*
X66435Y13934D01*
X65456Y14499D01*
X64668Y14710D01*
Y16405D01*
X65056Y16794D01*
X65300Y17382D01*
Y18018D01*
X65056Y18606D01*
X64606Y19056D01*
X64018Y19300D01*
D02*
G37*
G36*
X58291Y10000D02*
X54300D01*
Y6009D01*
X58291D01*
Y10000D01*
D02*
G37*
G36*
X53300D02*
X49309D01*
Y6009D01*
X53300D01*
Y10000D01*
D02*
G37*
G36*
X261950Y18760D02*
X260650D01*
X259375Y18506D01*
X258174Y18009D01*
X257093Y17287D01*
X256173Y16367D01*
X255451Y15286D01*
X254954Y14085D01*
X254700Y12810D01*
Y11510D01*
X254954Y10235D01*
X255451Y9034D01*
X256173Y7953D01*
X257093Y7034D01*
X258174Y6311D01*
X259375Y5814D01*
X260650Y5560D01*
X261950D01*
X263225Y5814D01*
X264426Y6311D01*
X265507Y7034D01*
X266426Y7953D01*
X267149Y9034D01*
X267646Y10235D01*
X267900Y11510D01*
Y12810D01*
X267646Y14085D01*
X267149Y15286D01*
X266426Y16367D01*
X265507Y17287D01*
X264426Y18009D01*
X263225Y18506D01*
X261950Y18760D01*
D02*
G37*
G36*
X36950D02*
X35650D01*
X34375Y18506D01*
X33174Y18009D01*
X32093Y17287D01*
X31174Y16367D01*
X30451Y15286D01*
X29954Y14085D01*
X29700Y12810D01*
Y11510D01*
X29954Y10235D01*
X30451Y9034D01*
X31174Y7953D01*
X32093Y7034D01*
X33174Y6311D01*
X34375Y5814D01*
X35650Y5560D01*
X36950D01*
X38225Y5814D01*
X39426Y6311D01*
X40507Y7034D01*
X41427Y7953D01*
X42149Y9034D01*
X42646Y10235D01*
X42900Y11510D01*
Y12810D01*
X42646Y14085D01*
X42149Y15286D01*
X41427Y16367D01*
X40507Y17287D01*
X39426Y18009D01*
X38225Y18506D01*
X36950Y18760D01*
D02*
G37*
G36*
X306466Y16939D02*
X304952D01*
X303467Y16643D01*
X302068Y16064D01*
X300809Y15223D01*
X299738Y14152D01*
X298897Y12893D01*
X298317Y11494D01*
X298022Y10009D01*
Y8495D01*
X298317Y7010D01*
X298897Y5611D01*
X299738Y4352D01*
X300809Y3281D01*
X302068Y2440D01*
X303467Y1861D01*
X304952Y1565D01*
X306466D01*
X307951Y1861D01*
X309350Y2440D01*
X310609Y3281D01*
X311679Y4352D01*
X312520Y5611D01*
X313100Y7010D01*
X313395Y8495D01*
Y10009D01*
X313100Y11494D01*
X312520Y12893D01*
X311679Y14152D01*
X310609Y15223D01*
X309350Y16064D01*
X307951Y16643D01*
X306466Y16939D01*
D02*
G37*
G36*
X10009D02*
X8495D01*
X7010Y16643D01*
X5611Y16064D01*
X4352Y15223D01*
X3281Y14152D01*
X2440Y12893D01*
X1861Y11494D01*
X1565Y10009D01*
Y8495D01*
X1861Y7010D01*
X2440Y5611D01*
X3281Y4352D01*
X4352Y3281D01*
X5611Y2440D01*
X7010Y1861D01*
X8495Y1565D01*
X10009D01*
X11494Y1861D01*
X12893Y2440D01*
X14152Y3281D01*
X15223Y4352D01*
X16064Y5611D01*
X16643Y7010D01*
X16939Y8495D01*
Y10009D01*
X16643Y11494D01*
X16064Y12893D01*
X15223Y14152D01*
X14152Y15223D01*
X12893Y16064D01*
X11494Y16643D01*
X10009Y16939D01*
D02*
G37*
%LPD*%
G36*
X258900Y271647D02*
Y264890D01*
X256731D01*
Y265750D01*
X253051D01*
Y261991D01*
X256731D01*
Y262850D01*
X258900D01*
Y259720D01*
X256731D01*
Y260750D01*
X253051D01*
Y256991D01*
X256731D01*
Y257680D01*
X258900D01*
Y254720D01*
X256731D01*
Y255750D01*
X253051D01*
Y251991D01*
X256731D01*
Y252680D01*
X258900D01*
Y249720D01*
X256731D01*
Y250750D01*
X253051D01*
Y246991D01*
X256731D01*
Y247680D01*
X258900D01*
Y233281D01*
X258838Y233131D01*
X250497D01*
X250495Y233630D01*
X250495Y233631D01*
Y236180D01*
X247745D01*
X244995D01*
Y233631D01*
X244995Y233630D01*
X244993Y233131D01*
X243253D01*
X243251Y233630D01*
X243251Y233631D01*
Y236180D01*
X240501D01*
X237751D01*
Y233631D01*
X237751Y233630D01*
X237749Y233131D01*
X211573D01*
Y260768D01*
X222453Y271647D01*
X258900Y271647D01*
D02*
G37*
%LPC*%
G36*
X235395Y265950D02*
X233855D01*
Y265150D01*
X235395D01*
Y265950D01*
D02*
G37*
G36*
X232855D02*
X231315D01*
Y264370D01*
X232855D01*
Y265950D01*
D02*
G37*
G36*
Y263370D02*
X231315D01*
Y261791D01*
X232855D01*
Y263370D01*
D02*
G37*
G36*
Y260950D02*
X231315D01*
Y259370D01*
X232855D01*
Y260950D01*
D02*
G37*
G36*
Y258370D02*
X231315D01*
Y256791D01*
X232855D01*
Y258370D01*
D02*
G37*
G36*
Y255950D02*
X231315D01*
Y254370D01*
X232855D01*
Y255950D01*
D02*
G37*
G36*
Y253370D02*
X231315D01*
Y251791D01*
X232855D01*
Y253370D01*
D02*
G37*
G36*
Y250950D02*
X231315D01*
Y249370D01*
X232855D01*
Y250950D01*
D02*
G37*
G36*
X235395Y247591D02*
X233855D01*
Y246791D01*
X235395D01*
Y247591D01*
D02*
G37*
G36*
X232855Y248370D02*
X231315D01*
Y246791D01*
X232855D01*
Y248370D01*
D02*
G37*
G36*
X229194Y257397D02*
X223194D01*
Y246447D01*
X229194D01*
Y257397D01*
D02*
G37*
G36*
X222194D02*
X216194D01*
Y246447D01*
X222194D01*
Y257397D01*
D02*
G37*
G36*
X243251Y239730D02*
X241001D01*
Y237180D01*
X243251D01*
Y239730D01*
D02*
G37*
G36*
X240001D02*
X237751D01*
Y237180D01*
X240001D01*
Y239730D01*
D02*
G37*
G36*
X250495D02*
X248245D01*
Y237180D01*
X250495D01*
Y239730D01*
D02*
G37*
G36*
X247245D02*
X244995D01*
Y237180D01*
X247245D01*
Y239730D01*
D02*
G37*
G36*
X229194Y245447D02*
X223194D01*
Y234497D01*
X229194D01*
Y245447D01*
D02*
G37*
G36*
X222194D02*
X216194D01*
Y234497D01*
X222194D01*
Y245447D01*
D02*
G37*
%LPD*%
G36*
X193350Y231048D02*
X186426Y224124D01*
Y214378D01*
X185622Y213573D01*
X185160Y213764D01*
Y217442D01*
X181808D01*
Y213984D01*
X181308D01*
Y213484D01*
X177457D01*
Y211605D01*
X176995Y211414D01*
X166574Y221835D01*
X153117D01*
X148449Y226504D01*
Y239004D01*
X150593D01*
Y234862D01*
X164713D01*
Y239454D01*
X164713Y239454D01*
X164713D01*
X164882Y239893D01*
X166159Y241170D01*
X166349Y241630D01*
Y257197D01*
X166381Y257218D01*
X166881Y256951D01*
Y256791D01*
X168421D01*
Y258870D01*
Y260950D01*
X167074D01*
X166881Y260950D01*
X166574Y261322D01*
Y267213D01*
X193350D01*
Y231048D01*
D02*
G37*
G36*
X92576Y242740D02*
X93164Y242496D01*
X93800D01*
X93900Y242538D01*
X94400Y242203D01*
Y231800D01*
X93936Y231490D01*
X93900Y231495D01*
X93627Y231903D01*
X93180Y232202D01*
X93153Y232207D01*
Y229807D01*
X92153D01*
Y232207D01*
X92126Y232202D01*
X91679Y231903D01*
X91145Y232006D01*
X91133Y232014D01*
X90684Y232103D01*
X90235Y232014D01*
X89978Y232433D01*
X89938Y232617D01*
X90182Y233205D01*
Y233841D01*
X89938Y234429D01*
X89488Y234879D01*
X88900Y235123D01*
X88264D01*
X87675Y234879D01*
X87226Y234429D01*
X86982Y233841D01*
Y233205D01*
X87226Y232617D01*
X87229Y232613D01*
X86997Y232138D01*
X86666Y232181D01*
X86461Y232556D01*
Y237235D01*
X81324D01*
Y232492D01*
X82873D01*
Y230276D01*
X82951Y229886D01*
X83172Y229555D01*
X83641Y229086D01*
X83971Y228865D01*
X84361Y228787D01*
X85040D01*
X85049Y228770D01*
X84732Y228270D01*
X79102D01*
Y230838D01*
X75604D01*
X73715Y232727D01*
X74024Y233125D01*
X76230D01*
Y235992D01*
X76730D01*
Y236492D01*
X79499D01*
Y238813D01*
X79499Y238859D01*
X79299Y239276D01*
X79299Y239359D01*
Y240980D01*
X81324D01*
Y238791D01*
X86461D01*
Y243100D01*
X92216D01*
X92576Y242740D01*
D02*
G37*
G36*
X165700Y241630D02*
X163724Y239654D01*
X146009D01*
X144909Y238554D01*
X145100Y238363D01*
Y192843D01*
X141172Y188915D01*
X138991D01*
Y186734D01*
X129746Y177489D01*
X109697D01*
Y198150D01*
X121829Y210282D01*
Y223991D01*
X123761Y223991D01*
X124178Y223791D01*
X124224Y223791D01*
X125856D01*
Y226264D01*
X126356D01*
D01*
X125856D01*
Y228737D01*
X124224D01*
X124178Y228737D01*
X123761Y228537D01*
X123678Y228537D01*
X121829D01*
Y236558D01*
X122109Y237044D01*
X122334Y237884D01*
Y238753D01*
X122109Y239592D01*
X121829Y240078D01*
Y264234D01*
X126394Y268800D01*
X165700D01*
Y241630D01*
D02*
G37*
G36*
X271854Y219485D02*
X269970D01*
Y220987D01*
X268713D01*
Y221805D01*
X268643Y222156D01*
X268444Y222454D01*
X267820Y223077D01*
Y223698D01*
X267577Y224286D01*
X267126Y224736D01*
X266538Y224980D01*
X265902D01*
X265314Y224736D01*
X264864Y224286D01*
X264620Y223698D01*
Y223061D01*
X264864Y222473D01*
X265314Y222023D01*
X265902Y221780D01*
X266454D01*
X266715Y221487D01*
X266579Y220987D01*
X265620D01*
Y216244D01*
X269970D01*
Y217446D01*
X271854D01*
Y204181D01*
X271776Y203993D01*
Y203356D01*
X271854Y203168D01*
Y202255D01*
X271472Y202035D01*
X270895Y201458D01*
X270487Y200751D01*
X270276Y199963D01*
Y199146D01*
X270328Y198950D01*
X270292Y198901D01*
X269897Y198629D01*
X269454Y198812D01*
X268817D01*
X268400Y198640D01*
X267966Y198859D01*
X267900Y198932D01*
Y199810D01*
X267646Y201085D01*
X267149Y202286D01*
X266426Y203367D01*
X265507Y204287D01*
X264426Y205009D01*
X263225Y205506D01*
X261950Y205760D01*
X260650D01*
X259375Y205506D01*
X258174Y205009D01*
X257093Y204287D01*
X256173Y203367D01*
X255451Y202286D01*
X254954Y201085D01*
X254700Y199810D01*
Y198510D01*
X254954Y197235D01*
X255451Y196034D01*
X256173Y194953D01*
X257093Y194033D01*
X258174Y193311D01*
X259375Y192814D01*
X260650Y192560D01*
X261950D01*
X263225Y192814D01*
X264426Y193311D01*
X265507Y194033D01*
X265827Y194354D01*
X266289Y194162D01*
Y189620D01*
X271354D01*
X271427Y189620D01*
X271854Y189445D01*
Y164967D01*
X271498Y164467D01*
X243770D01*
Y165759D01*
X241797D01*
Y163581D01*
X240797D01*
Y165759D01*
X238824D01*
Y164467D01*
X232986Y164467D01*
Y164684D01*
X232916Y165035D01*
X232717Y165333D01*
X226637Y171413D01*
X226339Y171612D01*
X225988Y171682D01*
X225448D01*
X225445Y171691D01*
X224994Y172141D01*
X224406Y172385D01*
X223770D01*
X223182Y172141D01*
X222732Y171691D01*
X222488Y171103D01*
Y170466D01*
X222732Y169878D01*
X223182Y169428D01*
X223770Y169185D01*
X224406D01*
X224994Y169428D01*
X225197Y169631D01*
X225824D01*
X230525Y164929D01*
X230334Y164467D01*
X228604D01*
Y165587D01*
X221728D01*
X220917Y166398D01*
Y168270D01*
X221743D01*
Y171330D01*
X216767D01*
X214068Y174030D01*
Y175806D01*
X214209Y176247D01*
X215209D01*
Y179847D01*
X215709D01*
Y180347D01*
X217209D01*
Y180695D01*
X217671Y180886D01*
X218252Y180306D01*
X218711Y180115D01*
X221573D01*
X221735Y180083D01*
X221872Y179992D01*
X227272Y174592D01*
X227731Y174402D01*
X240501D01*
X240960Y174592D01*
X241150Y175051D01*
Y189400D01*
X240960Y189859D01*
X231697Y199123D01*
X231238Y199313D01*
X217009D01*
Y205647D01*
X215104D01*
X214929Y206147D01*
X215255Y206474D01*
X215498Y207062D01*
Y207698D01*
X215255Y208286D01*
X214805Y208736D01*
X214217Y208980D01*
X214300Y209446D01*
X217783D01*
Y212218D01*
X217832Y212251D01*
X217864Y212282D01*
X218611D01*
X219050Y211844D01*
X219638Y211600D01*
X220274D01*
X220862Y211844D01*
X221312Y212294D01*
X221556Y212882D01*
Y213518D01*
X221312Y214106D01*
X220862Y214556D01*
X220274Y214800D01*
X219638D01*
X219050Y214556D01*
X218611Y214118D01*
X217783D01*
Y216354D01*
X212056D01*
Y209446D01*
X213497D01*
X213580Y208980D01*
X212992Y208736D01*
X212542Y208286D01*
X212001Y208287D01*
X211948Y208415D01*
X211498Y208865D01*
X211000Y209071D01*
X210697Y209446D01*
Y216354D01*
X204969D01*
Y213817D01*
X204683D01*
X204332Y213748D01*
X204034Y213549D01*
X203963Y213477D01*
X203501Y213668D01*
Y216602D01*
X200937D01*
Y212947D01*
X200437D01*
Y212447D01*
X197373D01*
Y209293D01*
X197373Y209293D01*
X197373D01*
X197263Y208816D01*
X196912Y208591D01*
X196474Y208772D01*
Y227402D01*
X196658Y227586D01*
X237223D01*
Y221480D01*
X244123D01*
X251023D01*
Y227586D01*
X271854D01*
Y219485D01*
D02*
G37*
G36*
X121179Y233749D02*
Y228737D01*
X119651D01*
Y226764D01*
X121829D01*
Y225764D01*
X119651D01*
Y223791D01*
X121179D01*
Y216572D01*
X117648D01*
X117148Y216574D01*
X117148Y217072D01*
Y219138D01*
X113494D01*
X109840D01*
X109840Y216574D01*
X109341Y216572D01*
X96856D01*
X96649Y217072D01*
X96864Y217287D01*
X97107Y217875D01*
Y218511D01*
X96864Y219099D01*
X96589Y219373D01*
X96603Y219548D01*
X96769Y219901D01*
X97078Y219963D01*
X97175Y220028D01*
X98359D01*
Y217168D01*
X102708D01*
Y222108D01*
X98359D01*
X97987Y222417D01*
X97941Y222516D01*
X95507D01*
Y223516D01*
X97907D01*
X97902Y223543D01*
X97603Y223990D01*
Y224010D01*
X97902Y224457D01*
X97907Y224484D01*
X95507D01*
Y225484D01*
X97907D01*
X97902Y225512D01*
X97603Y225958D01*
X97705Y226491D01*
X97714Y226504D01*
X97803Y226953D01*
X97714Y227402D01*
X97459Y227783D01*
X97078Y228037D01*
X96629Y228127D01*
X96527D01*
Y231170D01*
X97916Y232559D01*
X98079D01*
X98469Y232637D01*
X98800Y232858D01*
X99268Y233326D01*
X99489Y233657D01*
X99567Y234047D01*
Y234210D01*
X100417Y235061D01*
X119867D01*
X121179Y233749D01*
D02*
G37*
G36*
X95541Y219869D02*
X95625Y219814D01*
X95942Y219425D01*
X95950Y219399D01*
X95940Y219373D01*
X96026Y219166D01*
X96095Y218952D01*
X96119Y218940D01*
X96130Y218914D01*
X96313Y218731D01*
X96458Y218382D01*
Y218004D01*
X96313Y217654D01*
X96189Y217531D01*
X96140Y217412D01*
X96049Y217320D01*
Y217191D01*
X95999Y217072D01*
X96049Y216952D01*
Y216823D01*
X96256Y216323D01*
X96347Y216232D01*
X96396Y216112D01*
X96516Y216063D01*
X96607Y215972D01*
X96736D01*
X96856Y215922D01*
X106756D01*
X107018Y215422D01*
X106934Y215300D01*
X102766D01*
Y213140D01*
X102645Y213059D01*
X101080Y211494D01*
X100923Y211258D01*
X100445Y211332D01*
X100423Y211341D01*
Y215300D01*
X94498D01*
Y213357D01*
X93530D01*
Y213908D01*
X91368D01*
X91176Y214370D01*
X91405Y214599D01*
X91626Y214930D01*
X91704Y215320D01*
Y215550D01*
X92153Y215759D01*
Y218193D01*
X92653D01*
Y218693D01*
X94030D01*
Y219315D01*
X94006Y219439D01*
X94367Y219853D01*
X94429Y219873D01*
X95529D01*
X95541Y219869D01*
D02*
G37*
G36*
X176345Y205872D02*
Y193348D01*
X174123D01*
Y195508D01*
X166618D01*
X159112D01*
Y193348D01*
X158804D01*
X158338Y192882D01*
X151017D01*
X146654Y197245D01*
Y215075D01*
X150083Y215598D01*
X166619D01*
X176345Y205872D01*
D02*
G37*
%LPC*%
G36*
X172679Y265834D02*
X172043D01*
X171455Y265591D01*
X171262Y265397D01*
X170762Y265604D01*
Y265750D01*
X167081D01*
Y261991D01*
X170762D01*
Y262985D01*
X171348D01*
X171455Y262878D01*
X172043Y262634D01*
X172679D01*
X173268Y262878D01*
X173718Y263328D01*
X173961Y263916D01*
Y264552D01*
X173718Y265141D01*
X173268Y265591D01*
X172679Y265834D01*
D02*
G37*
G36*
X169421Y260950D02*
Y259370D01*
X170961D01*
Y260950D01*
X169421D01*
D02*
G37*
G36*
X170961Y258370D02*
X169421D01*
Y256791D01*
X170961D01*
Y258370D01*
D02*
G37*
G36*
Y255950D02*
X169421D01*
Y254370D01*
X170961D01*
Y255950D01*
D02*
G37*
G36*
X168421D02*
X166881D01*
Y254370D01*
X168421D01*
Y255950D01*
D02*
G37*
G36*
X170961Y253370D02*
X169421D01*
Y251791D01*
X170961D01*
Y253370D01*
D02*
G37*
G36*
X168421D02*
X166881D01*
Y251791D01*
X168421D01*
Y253370D01*
D02*
G37*
G36*
X170961Y250950D02*
X169421D01*
Y249370D01*
X170961D01*
Y250950D01*
D02*
G37*
G36*
X168421D02*
X166881D01*
Y249370D01*
X168421D01*
Y250950D01*
D02*
G37*
G36*
X170961Y248370D02*
X169421D01*
Y246791D01*
X170961D01*
Y248370D01*
D02*
G37*
G36*
X168421D02*
X166881D01*
Y246791D01*
X168421D01*
Y248370D01*
D02*
G37*
G36*
X190994Y257397D02*
X184994D01*
Y246447D01*
X190994D01*
Y257397D01*
D02*
G37*
G36*
X183994D02*
X177994D01*
Y246447D01*
X183994D01*
Y257397D01*
D02*
G37*
G36*
X190994Y245447D02*
X184994D01*
Y234497D01*
X190994D01*
Y245447D01*
D02*
G37*
G36*
X183994D02*
X177994D01*
Y234497D01*
X183994D01*
Y245447D01*
D02*
G37*
G36*
X164713Y233862D02*
X158153D01*
Y229270D01*
X164713D01*
Y233862D01*
D02*
G37*
G36*
X157153D02*
X150593D01*
Y229270D01*
X157153D01*
Y233862D01*
D02*
G37*
G36*
X180808Y217442D02*
X177457D01*
Y214484D01*
X180808D01*
Y217442D01*
D02*
G37*
G36*
X79499Y235492D02*
X77230D01*
Y233125D01*
X79499D01*
Y235492D01*
D02*
G37*
G36*
X149425Y265950D02*
X147885D01*
Y265150D01*
X149425D01*
Y265950D01*
D02*
G37*
G36*
X146885D02*
X145345D01*
Y264370D01*
X146885D01*
Y265950D01*
D02*
G37*
G36*
Y263370D02*
X145345D01*
Y261791D01*
X146885D01*
Y263370D01*
D02*
G37*
G36*
Y260950D02*
X145345D01*
Y259370D01*
X146885D01*
Y260950D01*
D02*
G37*
G36*
Y258370D02*
X145345D01*
Y256791D01*
X146885D01*
Y258370D01*
D02*
G37*
G36*
X131520Y258295D02*
X126580D01*
Y256313D01*
X126080Y256106D01*
X125983Y256203D01*
X125395Y256446D01*
X124759D01*
X124170Y256203D01*
X123720Y255753D01*
X123477Y255165D01*
Y254528D01*
X123720Y253940D01*
X124170Y253490D01*
X124759Y253246D01*
X125395D01*
X125983Y253490D01*
X126080Y253587D01*
X126580Y253380D01*
Y251780D01*
X131520D01*
Y258295D01*
D02*
G37*
G36*
X138020Y258495D02*
X135850D01*
Y255537D01*
X138020D01*
Y258495D01*
D02*
G37*
G36*
X134850D02*
X132679D01*
Y255537D01*
X134850D01*
Y258495D01*
D02*
G37*
G36*
X146885Y255950D02*
X145345D01*
Y254370D01*
X146885D01*
Y255950D01*
D02*
G37*
G36*
Y253370D02*
X145345D01*
Y251791D01*
X146885D01*
Y253370D01*
D02*
G37*
G36*
X138020Y254537D02*
X135850D01*
Y251580D01*
X138020D01*
Y254537D01*
D02*
G37*
G36*
X134850D02*
X132679D01*
Y251580D01*
X134850D01*
Y254537D01*
D02*
G37*
G36*
X146885Y250950D02*
X145345D01*
Y249370D01*
X146885D01*
Y250950D01*
D02*
G37*
G36*
X149425Y247591D02*
X147885D01*
Y246791D01*
X149425D01*
Y247591D01*
D02*
G37*
G36*
X146885Y248370D02*
X145345D01*
Y246791D01*
X146885D01*
Y248370D01*
D02*
G37*
G36*
X126856Y228737D02*
Y226764D01*
X128534D01*
Y228737D01*
X126856D01*
D02*
G37*
G36*
X128534Y225764D02*
X126856D01*
Y223791D01*
X128534D01*
Y225764D01*
D02*
G37*
G36*
X132123Y189115D02*
X124934D01*
Y185666D01*
X132123D01*
Y189115D01*
D02*
G37*
G36*
X123933D02*
X116744D01*
Y185666D01*
X123933D01*
Y189115D01*
D02*
G37*
G36*
X132123Y184666D02*
X124934D01*
Y181216D01*
X132123D01*
Y184666D01*
D02*
G37*
G36*
X123933D02*
X116744D01*
Y181216D01*
X123933D01*
Y184666D01*
D02*
G37*
G36*
X199937Y216602D02*
X197373D01*
Y213447D01*
X199937D01*
Y216602D01*
D02*
G37*
G36*
X233386Y214717D02*
X231668D01*
Y213000D01*
X233386D01*
Y214717D01*
D02*
G37*
G36*
X270170Y214494D02*
X268295D01*
Y212423D01*
X270170D01*
Y214494D01*
D02*
G37*
G36*
X267295D02*
X265420D01*
Y212423D01*
X267295D01*
Y214494D01*
D02*
G37*
G36*
X267795Y211923D02*
D01*
D01*
D01*
D02*
G37*
G36*
X233386Y212000D02*
X231668D01*
Y210283D01*
X233386D01*
Y212000D01*
D02*
G37*
G36*
X227590Y218466D02*
X226954D01*
X226365Y218222D01*
X225915Y217772D01*
X225672Y217184D01*
Y216547D01*
X225915Y215959D01*
X226314Y215561D01*
Y214517D01*
X225214D01*
Y210483D01*
X228951D01*
Y210283D01*
X230668D01*
Y212500D01*
Y214717D01*
X228951D01*
Y214517D01*
X228149D01*
Y215497D01*
X228178Y215509D01*
X228628Y215959D01*
X228872Y216547D01*
Y217184D01*
X228628Y217772D01*
X228178Y218222D01*
X227590Y218466D01*
D02*
G37*
G36*
X251023Y220480D02*
X244623D01*
Y209930D01*
X251023D01*
Y220480D01*
D02*
G37*
G36*
X243623D02*
X237223D01*
Y209930D01*
X243623D01*
Y220480D01*
D02*
G37*
G36*
X270170Y211423D02*
X268295D01*
Y209351D01*
X270170D01*
Y211423D01*
D02*
G37*
G36*
X267295D02*
X265420D01*
Y209351D01*
X267295D01*
Y211423D01*
D02*
G37*
G36*
X231068Y205717D02*
X229351D01*
Y205517D01*
X225614D01*
Y204418D01*
X224039D01*
X223600Y204856D01*
X223012Y205100D01*
X222375D01*
X221787Y204856D01*
X221337Y204406D01*
X221094Y203818D01*
Y203182D01*
X221337Y202594D01*
X221787Y202144D01*
X222375Y201900D01*
X223012D01*
X223600Y202144D01*
X224039Y202582D01*
X225614D01*
Y201483D01*
X229351D01*
Y201283D01*
X231068D01*
Y203500D01*
Y205717D01*
D02*
G37*
G36*
X233786D02*
X232068D01*
Y204000D01*
X233786D01*
Y205717D01*
D02*
G37*
G36*
Y203000D02*
X232068D01*
Y201283D01*
X233786D01*
Y203000D01*
D02*
G37*
G36*
X258850Y186850D02*
X252550D01*
Y183400D01*
X258850D01*
Y186850D01*
D02*
G37*
G36*
X251550D02*
X245250D01*
Y183400D01*
X251550D01*
Y186850D01*
D02*
G37*
G36*
X258850Y182400D02*
X252550D01*
Y178950D01*
X258850D01*
Y182400D01*
D02*
G37*
G36*
X251550D02*
X245250D01*
Y178950D01*
X251550D01*
Y182400D01*
D02*
G37*
G36*
X217209Y179347D02*
X216209D01*
Y176247D01*
X217209D01*
Y179347D01*
D02*
G37*
G36*
X268277Y183143D02*
X261762D01*
Y174463D01*
X268277D01*
Y183143D01*
D02*
G37*
G36*
X116490Y229028D02*
X113828D01*
Y226366D01*
X116490D01*
Y229028D01*
D02*
G37*
G36*
X112828D02*
X110166D01*
Y226366D01*
X112828D01*
Y229028D01*
D02*
G37*
G36*
X116490Y225366D02*
X110166D01*
Y223066D01*
X109840Y222702D01*
X109840Y222339D01*
Y220138D01*
X113494D01*
X117148D01*
Y222702D01*
X116989D01*
X116490Y222704D01*
X116490Y223201D01*
Y225366D01*
D02*
G37*
G36*
X108022Y228828D02*
X102098D01*
Y222904D01*
X104435D01*
Y222108D01*
X103280D01*
Y217168D01*
X107630D01*
Y222108D01*
X106474D01*
Y222904D01*
X108022D01*
Y228828D01*
D02*
G37*
G36*
X94030Y217693D02*
X93153D01*
Y215793D01*
X93180Y215798D01*
X93627Y216097D01*
X93925Y216544D01*
X94030Y217071D01*
Y217693D01*
D02*
G37*
G36*
X164713Y214830D02*
X158153D01*
Y210238D01*
X164713D01*
Y214830D01*
D02*
G37*
G36*
X157153D02*
X150593D01*
Y210238D01*
X157153D01*
Y214830D01*
D02*
G37*
G36*
X164713Y209238D02*
X158153D01*
Y204646D01*
X164713D01*
Y209238D01*
D02*
G37*
G36*
X157153D02*
X150593D01*
Y204646D01*
X157153D01*
Y209238D01*
D02*
G37*
G36*
X174123Y199082D02*
X167118D01*
Y196508D01*
X174123D01*
Y199082D01*
D02*
G37*
G36*
X166118D02*
X159112D01*
Y196508D01*
X166118D01*
Y199082D01*
D02*
G37*
%LPD*%
G36*
X307645Y188042D02*
X309783D01*
Y184482D01*
X304872D01*
Y179935D01*
Y176296D01*
X304372Y176089D01*
X303913Y176549D01*
Y188042D01*
X306645D01*
Y191893D01*
X307645D01*
Y188042D01*
D02*
G37*
G36*
X292159Y173998D02*
X292237Y173608D01*
X292458Y173277D01*
X300297Y165438D01*
X300628Y165217D01*
X301018Y165139D01*
X304872D01*
Y163028D01*
X304672D01*
Y161055D01*
X307638D01*
Y160055D01*
X304672D01*
Y158517D01*
X303340D01*
X290792Y171065D01*
Y206292D01*
X290807Y206786D01*
X292159D01*
Y173998D01*
D02*
G37*
G36*
X199084Y135506D02*
X201220D01*
Y130308D01*
X199594D01*
Y129799D01*
X198353D01*
Y130308D01*
X194594D01*
Y129799D01*
X193353D01*
Y130308D01*
X189594D01*
Y126628D01*
X193353D01*
Y127556D01*
X194594D01*
Y126628D01*
X198353D01*
Y127556D01*
X199594D01*
Y126628D01*
X201767D01*
X202130Y126265D01*
X201939Y125803D01*
X187493D01*
Y126628D01*
X188353D01*
Y130308D01*
X184594D01*
Y126628D01*
X185454D01*
Y125252D01*
X185532Y124862D01*
X185753Y124531D01*
X186222Y124063D01*
X186552Y123842D01*
X186844Y123784D01*
X202753D01*
Y123764D01*
X202905D01*
X203523Y123145D01*
Y108972D01*
X202753D01*
Y106892D01*
X201974D01*
Y104892D01*
X203523D01*
Y104103D01*
X197080Y97659D01*
X190692D01*
Y97741D01*
X183493D01*
Y96741D01*
X183009Y96702D01*
X180287D01*
Y97463D01*
X175170D01*
Y97463D01*
X170033D01*
Y94161D01*
X169533Y93954D01*
X167997Y95489D01*
Y99381D01*
X162073D01*
Y94638D01*
X165965D01*
X168610Y91993D01*
X168941Y91772D01*
X169331Y91694D01*
X170052D01*
Y91167D01*
X168142D01*
Y87710D01*
X167642D01*
Y87210D01*
X164972D01*
Y85059D01*
X164645Y84994D01*
X164314Y84773D01*
X164313Y84772D01*
X163813Y84979D01*
Y90967D01*
X158873D01*
Y88726D01*
X158373Y88626D01*
X158106Y88893D01*
X157518Y89136D01*
X156882D01*
X156294Y88893D01*
X155920Y88519D01*
X155560Y88596D01*
X155420Y88672D01*
Y95597D01*
X155342Y95987D01*
X155121Y96317D01*
X154400Y97039D01*
Y136731D01*
X153942Y137189D01*
X155911Y139157D01*
X169093D01*
Y130043D01*
X173573D01*
Y126553D01*
X173136Y126116D01*
X172892Y125528D01*
Y124891D01*
X173136Y124303D01*
X173586Y123853D01*
X174174Y123610D01*
X174811D01*
X175399Y123853D01*
X175849Y124303D01*
X176093Y124891D01*
Y125528D01*
X175849Y126116D01*
X175612Y126353D01*
Y130043D01*
X180093D01*
Y139157D01*
X199084D01*
Y135506D01*
D02*
G37*
G36*
X200507Y147944D02*
X227527D01*
Y131679D01*
X222694D01*
Y120729D01*
X228694D01*
Y127046D01*
X229156Y127237D01*
X260803Y95590D01*
Y81309D01*
X258937Y81266D01*
X258579Y81615D01*
Y83164D01*
X244459D01*
Y80930D01*
X239633Y80818D01*
X239275Y81167D01*
Y88119D01*
X227297Y100097D01*
X226926Y99725D01*
X224935D01*
X224856Y99916D01*
X224406Y100366D01*
X223818Y100610D01*
X223182D01*
X222594Y100366D01*
X222144Y99916D01*
X222065Y99725D01*
X214912D01*
Y103073D01*
X214834Y103463D01*
X214614Y103794D01*
X211712Y106695D01*
Y108971D01*
X214914Y112172D01*
X215135Y112503D01*
X215194Y112800D01*
X215694Y112751D01*
Y108779D01*
X221694D01*
Y120229D01*
Y131679D01*
X215694D01*
Y120229D01*
X215194Y120180D01*
X215135Y120477D01*
X214914Y120808D01*
X211235Y124487D01*
Y135506D01*
X213473D01*
Y142809D01*
X206958D01*
Y135506D01*
X209196D01*
Y124064D01*
X209273Y123674D01*
X209494Y123343D01*
X213173Y119665D01*
Y113315D01*
X209971Y110114D01*
X209751Y109783D01*
X209673Y109393D01*
Y106273D01*
X209751Y105882D01*
X209971Y105552D01*
X212873Y102650D01*
Y99741D01*
X205892D01*
X205563Y100104D01*
Y123567D01*
X205485Y123958D01*
X205264Y124288D01*
X204543Y125009D01*
Y127453D01*
X204028Y127968D01*
X201474D01*
Y128968D01*
X203553D01*
Y130508D01*
X201869D01*
Y135306D01*
X205799D01*
Y138657D01*
X202341D01*
Y139157D01*
X201841D01*
Y143009D01*
X198884D01*
Y143009D01*
X198396Y143038D01*
Y149402D01*
X198858Y149593D01*
X200507Y147944D01*
D02*
G37*
G36*
X223221Y93575D02*
X221078D01*
X220707Y93775D01*
Y93775D01*
X217946D01*
Y90810D01*
X216946D01*
Y93775D01*
X214912D01*
Y97010D01*
X223221D01*
Y93575D01*
D02*
G37*
G36*
X203523Y96639D02*
X203576Y96375D01*
X203363Y95996D01*
X203249Y95875D01*
X191492D01*
Y77575D01*
X205093D01*
Y94234D01*
X205500Y94662D01*
X206093D01*
Y92064D01*
X205892D01*
Y91064D01*
X209492D01*
Y90064D01*
X205892D01*
Y89064D01*
X206093D01*
Y84146D01*
Y81587D01*
Y79028D01*
Y76469D01*
Y73910D01*
X211235D01*
X211426Y73448D01*
X210694Y72715D01*
X210451Y72351D01*
X210365Y71922D01*
X210366Y71922D01*
Y69790D01*
X205333D01*
Y63253D01*
X213652D01*
Y69790D01*
X212609D01*
Y71458D01*
X213327Y72176D01*
X214743Y70759D01*
X214743Y70759D01*
X215107Y70516D01*
X215536Y70430D01*
X215700Y69984D01*
X215710Y69930D01*
X215698Y69925D01*
X215508Y69466D01*
Y54466D01*
X215698Y54007D01*
X215758Y53983D01*
Y50516D01*
X215298Y50326D01*
X215108Y49866D01*
Y47282D01*
X215298Y46823D01*
X215758Y46632D01*
X217348D01*
X223664Y40316D01*
X223457Y39816D01*
X219354D01*
Y33256D01*
X223946D01*
Y39327D01*
X224446Y39534D01*
X233928Y30052D01*
Y24464D01*
X227090D01*
X227081Y24473D01*
X199761D01*
X195424Y28811D01*
X195615Y29273D01*
X200792D01*
Y33223D01*
Y37173D01*
X200124D01*
Y51257D01*
X199934Y51716D01*
X198461Y53189D01*
X198002Y53379D01*
X197517D01*
Y54769D01*
X195300D01*
Y55769D01*
X197517D01*
Y57486D01*
X196355D01*
Y60338D01*
X198904D01*
Y62410D01*
X196726D01*
Y62910D01*
X196226D01*
Y65481D01*
X196199D01*
X195766Y65743D01*
X195717Y65863D01*
Y65992D01*
X195626Y66083D01*
X195576Y66202D01*
X191974Y69805D01*
X191515Y69995D01*
X189166D01*
Y71641D01*
X185997D01*
Y68079D01*
X186562D01*
Y66364D01*
X182672D01*
Y60075D01*
X182135D01*
X181313Y60897D01*
Y66364D01*
X178012D01*
Y67390D01*
X180250D01*
Y71159D01*
X180712Y71351D01*
X182060Y70002D01*
Y68079D01*
X185229D01*
Y71641D01*
X183305D01*
X180250Y74696D01*
Y76610D01*
X181902D01*
X182292Y76687D01*
X182384Y76749D01*
X183009D01*
X183493Y76710D01*
Y75710D01*
X190692D01*
Y76710D01*
X190492D01*
Y81587D01*
Y84146D01*
Y86705D01*
Y89264D01*
Y91823D01*
Y94382D01*
Y97010D01*
X203523D01*
Y96639D01*
D02*
G37*
G36*
X157738Y88342D02*
X157914Y88167D01*
X157975Y88142D01*
X158012Y88086D01*
X158198Y88049D01*
X158373Y87977D01*
X158673Y87587D01*
Y84252D01*
X160843D01*
Y87710D01*
X161843D01*
Y84252D01*
X163871D01*
X164065Y84172D01*
X164134D01*
X164187Y84136D01*
X164250Y84149D01*
X164313Y84123D01*
X164432Y84172D01*
X164561D01*
X164610Y84220D01*
X164675Y84233D01*
X164731Y84271D01*
X165172Y84452D01*
X165172Y84452D01*
X165172Y84452D01*
X170112D01*
X170173Y83977D01*
Y83634D01*
X170100Y83164D01*
X164372D01*
Y76255D01*
X170100D01*
Y78690D01*
X172113D01*
X172315Y78443D01*
Y73875D01*
X172393Y73485D01*
X172614Y73154D01*
X173735Y72033D01*
Y69995D01*
X155420D01*
Y87450D01*
X155700Y87785D01*
X155920Y87869D01*
X156090Y87940D01*
X156272Y87973D01*
X156313Y88032D01*
X156379Y88059D01*
X156661Y88342D01*
X157011Y88487D01*
X157389D01*
X157738Y88342D01*
D02*
G37*
G36*
X195117Y65743D02*
X194926Y65281D01*
X194748D01*
Y60538D01*
X195706D01*
Y57286D01*
X193283D01*
Y55909D01*
X191255D01*
Y56907D01*
X187221D01*
Y55909D01*
X184473D01*
Y57162D01*
X179927D01*
X179927Y53252D01*
X179727Y52835D01*
X179727Y52789D01*
Y51157D01*
X184673D01*
Y52789D01*
X184673Y52835D01*
X184473Y53252D01*
X184473Y53335D01*
Y53870D01*
X187221D01*
Y48935D01*
X187603D01*
X187738Y48728D01*
X187852Y48435D01*
X187638Y47918D01*
Y47282D01*
X187882Y46694D01*
X188332Y46244D01*
X188920Y46000D01*
X189556D01*
X190145Y46244D01*
X190595Y46694D01*
X190838Y47282D01*
Y47918D01*
X190624Y48435D01*
X190738Y48728D01*
X190873Y48935D01*
X191255D01*
Y53870D01*
X193283D01*
Y49314D01*
X194280D01*
Y48787D01*
X193944Y48450D01*
X193700Y47862D01*
Y47226D01*
X193944Y46638D01*
X194394Y46187D01*
X194982Y45944D01*
X195618D01*
X196206Y46187D01*
X196656Y46638D01*
X196900Y47226D01*
Y47862D01*
X196656Y48450D01*
X196320Y48787D01*
Y49314D01*
X197317D01*
Y52729D01*
X198002D01*
X199475Y51257D01*
Y36973D01*
X194692D01*
Y35300D01*
X191317D01*
Y35782D01*
X191240Y36172D01*
X191019Y36503D01*
X187839Y39682D01*
X187508Y39903D01*
X187118Y39981D01*
X184635D01*
X179621Y44995D01*
X179291Y45216D01*
X178901Y45294D01*
X166446D01*
X155420Y56319D01*
Y69345D01*
X173735D01*
Y67390D01*
X175973D01*
Y66364D01*
X175585D01*
Y63929D01*
X174745D01*
Y65108D01*
X170951D01*
Y60711D01*
X174745D01*
Y61890D01*
X175585D01*
Y59455D01*
X179871D01*
X180992Y58334D01*
X181323Y58113D01*
X181713Y58036D01*
X189238D01*
X189628Y58113D01*
X189959Y58334D01*
X191613Y59989D01*
X191834Y60319D01*
X191878Y60538D01*
X193192D01*
Y65281D01*
X189236D01*
Y60538D01*
X189236Y60538D01*
X189236D01*
X188927Y60186D01*
X188900Y60159D01*
X188400Y60277D01*
Y64380D01*
X188523Y64565D01*
X188601Y64955D01*
Y68079D01*
X189166D01*
Y69345D01*
X191515D01*
X195117Y65743D01*
D02*
G37*
G36*
X153380Y55897D02*
X153458Y55507D01*
X153679Y55176D01*
X165302Y43553D01*
X165633Y43332D01*
X166023Y43254D01*
X178478D01*
X183492Y38241D01*
X183823Y38019D01*
X184213Y37942D01*
X186696D01*
X187165Y37473D01*
X186958Y36973D01*
X179649D01*
Y37850D01*
X179985Y38187D01*
X180229Y38775D01*
Y39412D01*
X179985Y40000D01*
X179535Y40450D01*
X178947Y40693D01*
X178311D01*
X177723Y40450D01*
X177273Y40000D01*
X177029Y39412D01*
Y38775D01*
X177273Y38187D01*
X177610Y37850D01*
Y36973D01*
X174392D01*
Y35300D01*
X166808D01*
X166588Y35800D01*
X166907Y36352D01*
X167118Y37140D01*
Y37957D01*
X166907Y38745D01*
X166499Y39452D01*
X165922Y40029D01*
X165215Y40437D01*
X164426Y40649D01*
X163610D01*
X162822Y40437D01*
X162115Y40029D01*
X161538Y39452D01*
X161129Y38745D01*
X160918Y37957D01*
Y37140D01*
X161129Y36352D01*
X161448Y35800D01*
X161229Y35300D01*
X156070D01*
X155863Y35800D01*
X156081Y36018D01*
X156489Y36725D01*
X156700Y37513D01*
Y38329D01*
X156489Y39118D01*
X156081Y39825D01*
X155504Y40402D01*
X154797Y40810D01*
X154008Y41021D01*
X153192D01*
X152404Y40810D01*
X151697Y40402D01*
X151120Y39825D01*
X150712Y39118D01*
X150500Y38329D01*
Y37513D01*
X150712Y36725D01*
X151120Y36018D01*
X151338Y35800D01*
X151131Y35300D01*
X149200D01*
Y63800D01*
X148200Y64800D01*
Y65300D01*
X152245Y69345D01*
X153380D01*
Y55897D01*
D02*
G37*
G36*
X233458Y54466D02*
X230558D01*
Y53066D01*
X232308D01*
Y52566D01*
X232808D01*
Y49866D01*
X234058D01*
Y49866D01*
X234482Y50042D01*
X244246Y40278D01*
X244054Y39816D01*
X243977D01*
Y32756D01*
X243477D01*
Y32256D01*
X238385D01*
Y29179D01*
X235719D01*
X217617Y47282D01*
X215758D01*
Y49866D01*
X216808D01*
Y52566D01*
X217308D01*
Y53066D01*
X219058D01*
Y54466D01*
X216158D01*
Y69466D01*
X233458D01*
Y54466D01*
D02*
G37*
%LPC*%
G36*
X180292Y118143D02*
X175092D01*
Y113393D01*
X180292D01*
Y118143D01*
D02*
G37*
G36*
X174092D02*
X168893D01*
Y113393D01*
X174092D01*
Y118143D01*
D02*
G37*
G36*
X180292Y112393D02*
X175092D01*
Y107643D01*
X180292D01*
Y112393D01*
D02*
G37*
G36*
X174092D02*
X168893D01*
Y107643D01*
X174092D01*
Y112393D01*
D02*
G37*
G36*
X185194Y108972D02*
X184394D01*
Y107432D01*
X185194D01*
Y108972D01*
D02*
G37*
G36*
X200974Y106432D02*
X199394D01*
Y104892D01*
X200974D01*
Y106432D01*
D02*
G37*
G36*
X198553D02*
X196974D01*
Y104892D01*
X198553D01*
Y106432D01*
D02*
G37*
G36*
X195974D02*
X194394D01*
Y104892D01*
X195974D01*
Y106432D01*
D02*
G37*
G36*
X193553D02*
X191974D01*
Y104892D01*
X193553D01*
Y106432D01*
D02*
G37*
G36*
X190974D02*
X189394D01*
Y104892D01*
X190974D01*
Y106432D01*
D02*
G37*
G36*
X188553D02*
X186974D01*
Y104892D01*
X188553D01*
Y106432D01*
D02*
G37*
G36*
X185974D02*
X184394D01*
Y104892D01*
X185974D01*
Y106432D01*
D02*
G37*
G36*
X165312Y110742D02*
X164675D01*
X164087Y110498D01*
X163637Y110048D01*
X163394Y109460D01*
Y108823D01*
X163637Y108235D01*
X163724Y108149D01*
X163516Y107649D01*
X162073D01*
Y102906D01*
X167997D01*
Y107649D01*
X166471D01*
X166264Y108149D01*
X166350Y108235D01*
X166594Y108823D01*
Y109460D01*
X166350Y110048D01*
X165900Y110498D01*
X165312Y110742D01*
D02*
G37*
G36*
X180487Y103569D02*
X178218D01*
Y101694D01*
X180487D01*
Y103569D01*
D02*
G37*
G36*
Y100694D02*
X178218D01*
Y98819D01*
X180487D01*
Y100694D01*
D02*
G37*
G36*
X172711Y106210D02*
X172074D01*
X171486Y105966D01*
X171036Y105516D01*
X170792Y104928D01*
Y104291D01*
X170968Y103869D01*
X170717Y103369D01*
X170033D01*
Y99019D01*
X174950D01*
Y98819D01*
X177218D01*
Y101194D01*
Y103569D01*
X174950D01*
Y103369D01*
X174068D01*
X173817Y103869D01*
X173993Y104291D01*
Y104928D01*
X173749Y105516D01*
X173299Y105966D01*
X172711Y106210D01*
D02*
G37*
G36*
X190692Y99741D02*
X187592D01*
Y98741D01*
X190692D01*
Y99741D01*
D02*
G37*
G36*
X186592D02*
X183493D01*
Y98741D01*
X186592D01*
Y99741D01*
D02*
G37*
G36*
X167142Y91167D02*
X164972D01*
Y88210D01*
X167142D01*
Y91167D01*
D02*
G37*
G36*
X205799Y143009D02*
X202841D01*
Y139657D01*
X205799D01*
Y143009D01*
D02*
G37*
G36*
X228694Y119729D02*
X222694D01*
Y108779D01*
X228694D01*
Y119729D01*
D02*
G37*
G36*
X258579Y88756D02*
X252019D01*
Y84164D01*
X258579D01*
Y88756D01*
D02*
G37*
G36*
X251019D02*
X244459D01*
Y84164D01*
X251019D01*
Y88756D01*
D02*
G37*
G36*
X190692Y74710D02*
X187592D01*
Y73710D01*
X190692D01*
Y74710D01*
D02*
G37*
G36*
X186592D02*
X183493D01*
Y73710D01*
X186592D01*
Y74710D01*
D02*
G37*
G36*
X198904Y65481D02*
X197226D01*
Y63410D01*
X198904D01*
Y65481D01*
D02*
G37*
G36*
X213652Y58166D02*
X205333D01*
Y51629D01*
X208473D01*
Y50409D01*
X208136Y50073D01*
X207892Y49485D01*
Y48848D01*
X208136Y48260D01*
X208586Y47810D01*
X209174Y47566D01*
X209811D01*
X210399Y47810D01*
X210849Y48260D01*
X211092Y48848D01*
Y49485D01*
X210849Y50073D01*
X210512Y50409D01*
Y51629D01*
X213652D01*
Y58166D01*
D02*
G37*
G36*
X208092Y37173D02*
X201792D01*
Y33723D01*
X208092D01*
Y37173D01*
D02*
G37*
G36*
X218354Y39816D02*
X213761D01*
Y33256D01*
X218354D01*
Y39816D01*
D02*
G37*
G36*
X208092Y32723D02*
X201792D01*
Y29273D01*
X208092D01*
Y32723D01*
D02*
G37*
G36*
X223946Y32256D02*
X219354D01*
Y25697D01*
X223946D01*
Y32256D01*
D02*
G37*
G36*
X218354D02*
X213761D01*
Y25697D01*
X218354D01*
Y32256D01*
D02*
G37*
G36*
X163213Y83364D02*
X160649D01*
Y80210D01*
X163213D01*
Y83364D01*
D02*
G37*
G36*
X159649D02*
X157085D01*
Y80210D01*
X159649D01*
Y83364D01*
D02*
G37*
G36*
X163213Y79210D02*
X160649D01*
Y76055D01*
X163213D01*
Y79210D01*
D02*
G37*
G36*
X159649D02*
X157085D01*
Y76055D01*
X159649D01*
Y79210D01*
D02*
G37*
G36*
X169416Y65108D02*
X165623D01*
Y64220D01*
X164943D01*
X164606Y64556D01*
X164018Y64800D01*
X163382D01*
X162794Y64556D01*
X162344Y64106D01*
X162100Y63518D01*
Y62882D01*
X162344Y62294D01*
X162794Y61844D01*
X163382Y61600D01*
X164018D01*
X164606Y61844D01*
X164943Y62180D01*
X165623D01*
Y60711D01*
X169416D01*
Y65108D01*
D02*
G37*
G36*
X184673Y50157D02*
X182700D01*
Y48479D01*
X184673D01*
Y50157D01*
D02*
G37*
G36*
X181700D02*
X179727D01*
Y48479D01*
X181700D01*
Y50157D01*
D02*
G37*
G36*
X229058Y54466D02*
X225558D01*
Y53066D01*
X227308D01*
X229058D01*
Y54466D01*
D02*
G37*
G36*
X224058D02*
X220558D01*
Y53066D01*
X222308D01*
X224058D01*
Y54466D01*
D02*
G37*
G36*
X231808Y52066D02*
X230558D01*
Y49866D01*
X231808D01*
Y52066D01*
D02*
G37*
G36*
X229058D02*
X227808D01*
Y49866D01*
X229058D01*
Y52066D01*
D02*
G37*
G36*
X226808D02*
X225558D01*
Y49866D01*
X226808D01*
Y52066D01*
D02*
G37*
G36*
X224058D02*
X222808D01*
Y49866D01*
X224058D01*
Y52066D01*
D02*
G37*
G36*
X221808D02*
X220558D01*
Y49866D01*
X221808D01*
Y52066D01*
D02*
G37*
G36*
X219058D02*
X217808D01*
Y49866D01*
X219058D01*
Y52066D01*
D02*
G37*
G36*
X242977Y39816D02*
X238385D01*
Y33256D01*
X242977D01*
Y39816D01*
D02*
G37*
G36*
X14500Y248276D02*
X11346D01*
Y245713D01*
X14500D01*
Y248276D01*
D02*
G37*
G36*
X5300Y248182D02*
Y245400D01*
X8082D01*
X7875Y246174D01*
X7441Y246926D01*
X6826Y247541D01*
X6074Y247975D01*
X5300Y248182D01*
D02*
G37*
G36*
X14500Y244713D02*
X11346D01*
Y242149D01*
X14500D01*
Y244713D01*
D02*
G37*
G36*
X8082Y244400D02*
X5300D01*
Y241618D01*
X6074Y241825D01*
X6826Y242259D01*
X7441Y242874D01*
X7875Y243626D01*
X8082Y244400D01*
D02*
G37*
G36*
X12768Y229839D02*
X10598D01*
Y227965D01*
X12768D01*
Y229839D01*
D02*
G37*
G36*
X9598D02*
X7428D01*
Y227965D01*
X9598D01*
Y229839D01*
D02*
G37*
G36*
X36524Y229505D02*
X34354D01*
Y227630D01*
X36524D01*
Y229505D01*
D02*
G37*
G36*
X33354D02*
X31184D01*
Y227630D01*
X33354D01*
Y229505D01*
D02*
G37*
%LPD*%
D12*
X298891Y197990D02*
X299478Y197404D01*
X295335Y197990D02*
X298891D01*
X164018Y26500D02*
Y37549D01*
X193150Y218766D02*
X193350Y218565D01*
Y212947D02*
Y218565D01*
X222694Y203500D02*
X222694Y203500D01*
X227631D01*
X227232Y216825D02*
X227272Y216866D01*
X241909Y218766D02*
X244123Y220980D01*
X202092Y218766D02*
X241909D01*
X200437Y217111D02*
X202092Y218766D01*
X227232Y212500D02*
Y216825D01*
X215109Y154751D02*
X218237D01*
X258738Y220980D02*
X267795Y211923D01*
X266220Y223380D02*
X267795Y221805D01*
Y218616D02*
Y221805D01*
X280523Y213137D02*
X280551Y213109D01*
X267795Y218616D02*
X267945Y218465D01*
X275876Y213137D02*
X280523D01*
X289300Y133000D02*
X309548D01*
X168610Y26402D02*
X170052Y27844D01*
X168610Y15690D02*
Y26402D01*
Y15690D02*
X173800Y10500D01*
X170052Y27844D02*
Y31991D01*
X183783Y10500D02*
Y16622D01*
X177428D02*
X183783D01*
X173993Y20057D02*
X177428Y16622D01*
X63750Y10550D02*
X63800Y10500D01*
X63750Y10550D02*
Y17650D01*
X63700Y17700D02*
X63750Y17650D01*
X46500Y8200D02*
X48800Y10500D01*
X53800D01*
X83583Y18969D02*
Y25469D01*
Y18969D02*
X83683Y18868D01*
X153600Y26444D02*
Y30531D01*
X153600Y10700D02*
X153800Y10500D01*
X153600Y10700D02*
Y22446D01*
X163800Y21754D02*
X164018Y21972D01*
X163800Y10500D02*
Y21754D01*
X83783Y10768D02*
Y18768D01*
X93783Y11768D02*
Y18768D01*
Y11768D02*
X93883Y11868D01*
X103783Y10768D02*
Y18768D01*
X113783Y10768D02*
Y18868D01*
X298500Y37800D02*
X301100Y35200D01*
Y25600D02*
Y35200D01*
X292025Y247006D02*
X292193Y246837D01*
X291856Y252782D02*
X292025Y252614D01*
X271854Y259618D02*
X271855Y259616D01*
Y252784D02*
X271856Y252782D01*
X271855Y252784D02*
Y259616D01*
X291828Y252811D02*
X291856Y252782D01*
X281808Y252830D02*
X281856Y252782D01*
X291800Y265093D02*
X291856Y265150D01*
X254891Y248870D02*
X255061Y248700D01*
X254891Y253870D02*
X255061Y253700D01*
X254891Y258870D02*
X255061Y258700D01*
X153600Y30531D02*
Y37921D01*
X83683Y18868D02*
X83783Y18768D01*
X113783Y18868D02*
Y24969D01*
X123783Y18868D02*
Y24969D01*
X93883Y18868D02*
Y25469D01*
X103716Y18835D02*
Y24969D01*
X93783Y18768D02*
X93883Y18868D01*
X103716Y18835D02*
X103783Y18768D01*
X123783Y10768D02*
Y18868D01*
X244123Y220980D02*
X258738D01*
X231169Y212500D02*
X231445Y212224D01*
X238323Y211030D02*
X244123Y216866D01*
X232576Y205399D02*
X238207Y211030D01*
X238323D01*
X231445Y212224D02*
X235367D01*
X207020Y206965D02*
X208032Y205953D01*
Y202247D02*
Y205953D01*
X207020Y206965D02*
Y207344D01*
X203783Y209903D02*
Y212000D01*
X205447Y202274D02*
Y205947D01*
X203820Y207344D02*
X204050D01*
X205447Y205947D01*
X201920Y206557D02*
Y208131D01*
X203033Y209244D02*
X203125D01*
X202530Y202631D02*
Y205947D01*
X203125Y209244D02*
X203783Y209903D01*
X202530Y202631D02*
X202914Y202247D01*
X201920Y208131D02*
X203033Y209244D01*
X201920Y206557D02*
X202530Y205947D01*
X205447Y202274D02*
X205473Y202247D01*
X221611Y164687D02*
X223059Y163238D01*
X220000Y166018D02*
X221330Y164687D01*
X220000Y166018D02*
Y169800D01*
X223059Y162958D02*
Y163238D01*
X221330Y164687D02*
X221611D01*
X220185Y152804D02*
X223500D01*
X125077Y254846D02*
X125268Y255037D01*
X129050D01*
X224109Y170764D02*
X225988D01*
X224088Y170785D02*
X224109Y170764D01*
X225988D02*
X232068Y164684D01*
X231668Y152804D02*
X232068Y153204D01*
Y164684D01*
X225368Y152804D02*
X231668D01*
X224657Y152093D02*
X225368Y152804D01*
X232084Y169400D02*
X241297D01*
X221637Y179847D02*
X232084Y169400D01*
X215709Y179847D02*
X221637D01*
X184613Y206364D02*
X186159D01*
X184360Y206110D02*
X184613Y206364D01*
X186159D02*
X186426Y206632D01*
X181308Y206110D02*
X184360D01*
X190998Y204747D02*
X192278D01*
X187270Y208475D02*
X190998Y204747D01*
X192278D02*
X192678Y204347D01*
X187270Y208475D02*
Y212730D01*
X192678Y202247D02*
Y204347D01*
X168238Y209738D02*
X169897Y208079D01*
X198051Y207281D02*
Y207380D01*
X197796Y202247D02*
Y207026D01*
X198051Y207281D01*
X244123Y216830D02*
X249923Y211030D01*
X249923D02*
X252050Y208903D01*
Y182900D02*
Y208903D01*
X249923Y211030D02*
X249923D01*
X232576Y204508D02*
Y205399D01*
X231569Y203500D02*
X232576Y204508D01*
X200437Y212947D02*
Y217111D01*
X210591Y202247D02*
Y207509D01*
X210591Y207509D02*
X210591Y207509D01*
X203783Y212000D02*
X204683Y212900D01*
X157653Y209738D02*
X168238D01*
X213150Y206632D02*
X213898Y207380D01*
X213150Y202247D02*
Y206632D01*
X183812Y164467D02*
X185284Y165939D01*
Y165975D02*
X185863Y166554D01*
X183222Y164467D02*
X183812D01*
X185284Y165939D02*
Y165975D01*
X185863Y166554D02*
Y168970D01*
X184994Y174265D02*
Y178595D01*
X186107Y173151D02*
X190371D01*
X184994Y174265D02*
X186107Y173151D01*
X179479Y168750D02*
X184994Y174265D01*
X175279Y168750D02*
X179479D01*
X190371Y173151D02*
X191420Y174200D01*
X193150D02*
X194845Y175895D01*
X191420Y174200D02*
X193150D01*
X191646Y171951D02*
X192440Y172745D01*
X195242D01*
X185863Y168970D02*
X188845Y171951D01*
X191646D01*
X195242Y172745D02*
X197796Y175299D01*
X194845Y175895D02*
Y176047D01*
X195237Y176439D01*
Y179847D01*
X197796Y175299D02*
Y179847D01*
X182980Y150821D02*
X183222Y151062D01*
Y156200D01*
X198051Y170785D02*
X200010D01*
X197700Y167617D02*
Y170433D01*
X198051Y170785D01*
X200010D02*
X202914Y173689D01*
Y179847D01*
X205473Y174645D02*
Y179847D01*
X205420Y174592D02*
X205473Y174645D01*
X197700Y156788D02*
X197796Y156692D01*
X197700Y156788D02*
Y161318D01*
X205500Y155583D02*
X205643Y155440D01*
X205500Y155583D02*
Y160137D01*
X212457Y156490D02*
X213539D01*
X210591Y158356D02*
X212457Y156490D01*
X213539D02*
X215109Y154920D01*
X210591Y158356D02*
Y179847D01*
X218237Y154751D02*
X220185Y152804D01*
X213100Y161050D02*
Y165901D01*
X217000Y169800D01*
X213150Y173650D02*
X217000Y169800D01*
X213150Y173650D02*
Y179847D01*
X241297Y169400D02*
Y172147D01*
Y169400D02*
X241548D01*
X241900Y169049D01*
X241297Y163581D02*
X241900Y164184D01*
Y169049D01*
X181308Y213984D02*
X181720Y213573D01*
X186426D01*
X187270Y212730D01*
X204683Y212900D02*
X207833D01*
X217183D02*
X217484Y213200D01*
X219956D01*
X214920Y212900D02*
X217183D01*
X200355Y212865D02*
X200437Y212947D01*
X200355Y202247D02*
Y212865D01*
X157653Y204972D02*
X166618Y196008D01*
X157653Y204972D02*
Y209738D01*
X127502Y161402D02*
X135457D01*
X136308Y162253D02*
X136687D01*
X135457Y161402D02*
X136308Y162253D01*
X139000Y156677D02*
X145828D01*
X137425Y147883D02*
X138604Y149061D01*
X143289D02*
X144416Y150188D01*
X146654D02*
X146933Y149909D01*
X138604Y149061D02*
X143289D01*
X144416Y150188D02*
X146654D01*
X135560Y149748D02*
X137425Y147883D01*
X135560Y149748D02*
Y149789D01*
X127502Y151953D02*
X133396D01*
X135560Y149789D01*
X127502Y156677D02*
X139000D01*
X145828D02*
X146933Y157782D01*
X127502Y147228D02*
X130641D01*
X138364Y139506D02*
X142179D01*
X130641Y147228D02*
X138364Y139506D01*
X139222Y133600D02*
X142300D01*
X127596Y142410D02*
X130413D01*
X127502Y142504D02*
X127596Y142410D01*
X130413D02*
X139222Y133600D01*
X82117Y241897D02*
X82655Y241360D01*
X138534Y118155D02*
X139000Y118621D01*
X138534Y112402D02*
Y118155D01*
X139000Y118621D02*
Y119000D01*
X76730Y241897D02*
X82117D01*
X38169Y215685D02*
X40827D01*
X43484Y218342D01*
X117104Y123993D02*
X122215Y118882D01*
X89672Y123993D02*
X117104D01*
X224139Y90810D02*
Y97992D01*
X223500Y98631D02*
Y99010D01*
Y98631D02*
X224139Y97992D01*
X92653Y218193D02*
Y221047D01*
X89700Y224000D02*
X92653Y221047D01*
X88716Y229807D02*
X90684D01*
X222308Y76166D02*
X227308D01*
X15177Y85796D02*
X21900D01*
X13282Y83900D02*
X15177Y85796D01*
X13000Y83900D02*
X13282D01*
X13000Y78900D02*
X21900D01*
X22100Y79100D01*
X13000Y63900D02*
X26600Y77500D01*
Y83300D01*
X27800Y84500D02*
X35650D01*
X38950Y81200D01*
X6168Y57068D02*
X13000Y63900D01*
X26600Y83300D02*
X27800Y84500D01*
X13000Y78900D02*
X13371Y79271D01*
X8000Y73900D02*
Y78900D01*
X6168Y56200D02*
Y57068D01*
X64347Y153853D02*
X81632D01*
X124528Y109355D02*
X126424Y107459D01*
X122907Y109355D02*
X124528D01*
X121829Y110433D02*
X122907Y109355D01*
X121829Y110433D02*
Y111417D01*
X117104Y163189D02*
Y164173D01*
X112768Y158853D02*
X117104Y163189D01*
X112768Y158368D02*
Y158853D01*
X112500Y158100D02*
X112768Y158368D01*
X69860Y106529D02*
Y111417D01*
X34500Y150800D02*
X78966D01*
X122081Y139157D02*
X126124D01*
X111438Y149800D02*
X122081Y139157D01*
X79966Y149800D02*
X111438D01*
X78966Y150800D02*
X79966Y149800D01*
X126124Y139157D02*
X127502Y137779D01*
X80500Y151953D02*
X84253D01*
X93482Y161182D01*
X81632Y153853D02*
X88900Y161121D01*
X118339Y137206D02*
Y139506D01*
X124767Y130777D02*
X125056D01*
X127502Y128331D01*
X78604Y145934D02*
X111910D01*
X118339Y137206D02*
X124767Y130777D01*
X111910Y145934D02*
X118339Y139506D01*
X61150Y128480D02*
X78604Y145934D01*
X41514Y148600D02*
X110941D01*
X126124Y134433D02*
X127502Y133055D01*
X110941Y148600D02*
X125108Y134433D01*
X126124D01*
X43960Y107459D02*
Y114152D01*
X58288Y128480D02*
X61150D01*
X43960Y114152D02*
X58288Y128480D01*
X46150Y81400D02*
Y105269D01*
X43960Y107459D02*
X46150Y105269D01*
X14632Y32531D02*
Y48869D01*
X30879Y73305D02*
Y79428D01*
X14632Y57059D02*
X30879Y73305D01*
Y79428D02*
X32650Y81200D01*
X14632Y48869D02*
Y57059D01*
X80500Y171200D02*
X93000D01*
X79309Y170009D02*
X80500Y171200D01*
X79309Y164173D02*
Y170009D01*
X93482Y161182D02*
Y164173D01*
X122215Y118882D02*
X127502D01*
X73234Y156677D02*
X79309D01*
X84034Y161402D01*
Y164173D01*
X88900Y161121D02*
Y164031D01*
X88758Y164173D02*
X88900Y164031D01*
D13*
X259033Y51200D02*
X264505Y56672D01*
X245531Y51200D02*
X259033D01*
X264505Y56672D02*
Y102520D01*
X259442Y107582D02*
X264505Y102520D01*
X10098Y215568D02*
X10866Y214799D01*
X10015Y227547D02*
X10098Y227465D01*
X224873Y59954D02*
X236777D01*
X245531Y51200D01*
X224416Y60411D02*
X224873Y59954D01*
X259442Y107582D02*
Y119278D01*
X260394Y120229D01*
X212811Y77569D02*
X213397Y76983D01*
X209492Y77769D02*
X209693Y77569D01*
X212811D01*
X213397Y73833D02*
Y76983D01*
X215536Y71552D02*
X239007D01*
X213858Y73231D02*
X215536Y71552D01*
X213858Y73231D02*
Y73372D01*
X213397Y73833D02*
X213858Y73372D01*
X209492Y66522D02*
X211487Y68516D01*
Y71922D02*
X213397Y73833D01*
X239007Y71552D02*
X251519Y59040D01*
X211487Y68516D02*
Y71922D01*
X204287Y126284D02*
X210693Y119878D01*
X203698Y126284D02*
X204287D01*
X201683Y128298D02*
X203698Y126284D01*
X201683Y128298D02*
Y128678D01*
X191893D02*
X196474D01*
X201683D01*
X210693Y114147D02*
Y119878D01*
X202810Y147228D02*
X221419D01*
X222447Y146200D01*
Y122005D02*
Y146200D01*
X202341Y146760D02*
X202810Y147228D01*
X202341Y129335D02*
Y139157D01*
Y146760D01*
X222447Y122005D02*
X251519Y92933D01*
X201683Y128678D02*
X202341Y129335D01*
X201474Y128468D02*
X201683Y128678D01*
X251519Y83664D02*
Y92933D01*
X206641Y103201D02*
Y110095D01*
X210693Y114147D01*
X206641Y103201D02*
X209492Y100350D01*
Y98241D02*
Y100350D01*
X27185Y222740D02*
X27815Y222110D01*
X21886Y227882D02*
X22500Y227268D01*
D16*
X289772Y216407D02*
G03*
X289772Y214801I3407J-803D01*
G01*
X107656Y110433D02*
X111517Y106572D01*
X114151Y108662D02*
X114151D01*
X121613Y101200D02*
X130803D01*
X114151Y108662D02*
X121613Y101200D01*
X113413Y106572D02*
X113642Y106342D01*
X111517Y106572D02*
X113413D01*
X112380Y110433D02*
X114151Y108662D01*
X122677Y104162D02*
X139029D01*
X118684Y108155D02*
X122677Y104162D01*
X117104Y110433D02*
X118082Y109455D01*
X118215D02*
X118684Y108986D01*
X117104Y110433D02*
Y111417D01*
X118082Y109455D02*
X118215D01*
X118684Y108155D02*
Y108986D01*
X293179Y173998D02*
Y209354D01*
Y215604D01*
Y173998D02*
X301018Y166159D01*
X299472Y169685D02*
X299940Y169216D01*
X299380Y197404D02*
X299478D01*
X305472Y169216D02*
X307638D01*
X299940D02*
X305472D01*
X299472Y169685D02*
Y175217D01*
Y197330D01*
X306364Y166159D02*
X307638Y164886D01*
X301018Y166159D02*
X306364D01*
X299472Y175217D02*
X305472Y169216D01*
X268786Y33156D02*
X270350Y31592D01*
X268449Y26559D02*
Y31758D01*
X270350Y30955D02*
Y31592D01*
X268449Y31758D02*
Y32256D01*
Y31758D02*
X268649Y31558D01*
X270350Y30955D02*
X271249Y30056D01*
X268449Y26559D02*
X270902Y24106D01*
X289772Y216407D02*
Y218209D01*
X292607Y219912D02*
X292632Y219937D01*
Y221069D02*
X293979D01*
X291476Y219912D02*
X292607D01*
X292632Y219937D02*
Y221069D01*
X284477D02*
X293979D01*
X289772Y218209D02*
X291476Y219912D01*
X201394Y32491D02*
X218432D01*
X200494Y33391D02*
X201394Y32491D01*
X273786Y33156D02*
X275043Y34413D01*
X272586Y33156D02*
X273786D01*
X275043Y34413D02*
X275368D01*
X295800Y205400D02*
Y205480D01*
X299478Y209158D01*
Y209354D01*
X190298Y32495D02*
Y35782D01*
X199348Y23445D02*
X270240D01*
X190298Y32495D02*
X199348Y23445D01*
X287360Y40051D02*
Y46660D01*
X277365Y30056D02*
X287360Y40051D01*
X271249Y30056D02*
X271272D01*
X271372Y29956D02*
X273400D01*
X273500Y30056D01*
X277365D01*
X271272D02*
X271372Y29956D01*
X95390Y97010D02*
X150159D01*
X154400Y55897D02*
Y95597D01*
X150159Y97010D02*
X150229Y96939D01*
X154400Y55897D02*
X166023Y44274D01*
X150922Y99074D02*
X154400Y95597D01*
X166023Y44274D02*
X178901D01*
X184213Y38961D01*
X187118D01*
X190298Y35782D01*
X270240Y23445D02*
X270902Y24106D01*
X99484Y99074D02*
X150922D01*
X98207Y100352D02*
X99484Y99074D01*
X200494Y33391D02*
Y51679D01*
X198424Y53749D02*
X200494Y51679D01*
X127502Y114157D02*
X136778D01*
X98207Y100352D02*
Y111417D01*
X287360Y46660D02*
X298500Y57800D01*
X271563Y16622D02*
Y23445D01*
X270902Y24106D02*
X271563Y23445D01*
X307145Y191893D02*
X307472Y191567D01*
Y186954D02*
Y191567D01*
X302893Y206531D02*
X305667Y209305D01*
X302893Y176126D02*
Y206531D01*
Y176126D02*
X305472Y173547D01*
X310217Y179535D02*
X310803Y180121D01*
Y195359D01*
X310488Y195674D02*
X310803Y195359D01*
X305044Y196545D02*
Y199229D01*
X305369Y199555D01*
X307429Y204201D02*
X309411Y202219D01*
X305044Y204201D02*
X307429D01*
X300278Y217801D02*
Y221069D01*
X310803Y142945D02*
Y173403D01*
X310268Y141281D02*
X310803Y140746D01*
X307845Y173755D02*
X310451D01*
X310268Y141281D02*
Y142411D01*
X310451Y173755D02*
X310803Y173403D01*
X310268Y142411D02*
X310803Y142945D01*
X307638Y173547D02*
X307845Y173755D01*
X310412Y219068D02*
Y221318D01*
X310488Y221394D01*
X310412Y219068D02*
X310488Y218993D01*
X310488Y199555D02*
X310488Y199555D01*
Y218993D01*
X309411Y200631D02*
Y202219D01*
X305019Y147327D02*
X306259D01*
X303116Y149230D02*
X305019Y147327D01*
X303116Y149230D02*
Y149352D01*
X300378Y152090D02*
X303116Y149352D01*
X307199Y160994D02*
X307638Y160555D01*
X302249Y160994D02*
X307199D01*
X268926Y197002D02*
X269135Y197212D01*
X268926Y195012D02*
Y197002D01*
X268858Y192582D02*
Y194945D01*
X268926Y195012D01*
X295335Y202449D02*
X299335D01*
X278667Y203675D02*
X278706Y203714D01*
X278667Y199555D02*
Y203675D01*
X273376Y199555D02*
Y203675D01*
X267945Y218465D02*
X275876D01*
X283785Y199555D02*
Y206531D01*
X283425Y199195D02*
X283785Y199555D01*
X283425Y192582D02*
Y199195D01*
X302930Y214692D02*
X304755D01*
X305472Y173547D02*
X307638D01*
X301375Y213137D02*
X302930Y214692D01*
X304755D02*
X305667Y215604D01*
X309787Y179535D02*
X310217D01*
X310488Y195674D02*
Y199555D01*
X308130Y177878D02*
X309787Y179535D01*
X307638Y177878D02*
X308130D01*
X289772Y170642D02*
Y214801D01*
Y170642D02*
X290007Y170408D01*
X306364Y157497D02*
X307638Y156224D01*
X290007Y170408D02*
X302917Y157497D01*
X306364D01*
X15772Y212023D02*
X20795Y206999D01*
X56058D02*
X58382Y209323D01*
X20795Y206999D02*
X56058D01*
X178629Y35586D02*
X180992Y33223D01*
X178629Y35586D02*
Y39093D01*
X269702Y47806D02*
X289695Y67800D01*
X298500D01*
X266400Y47918D02*
X269590D01*
X269702Y47806D01*
Y45906D02*
Y47806D01*
X262737Y39956D02*
X268449D01*
X275823Y22552D02*
X277282Y21092D01*
Y20900D02*
Y21092D01*
X274839Y24106D02*
X275823Y23122D01*
Y22552D02*
Y23122D01*
X273639Y47806D02*
X275823D01*
X279700Y43495D02*
Y43800D01*
X276341Y46136D02*
Y47289D01*
Y46136D02*
X276570Y45906D01*
X268449Y39956D02*
Y44654D01*
X278385Y42180D02*
X279700Y43495D01*
X275823Y47806D02*
X276341Y47289D01*
X272386Y32256D02*
Y32956D01*
X272586Y33156D01*
X270418Y36106D02*
X270687Y36376D01*
X278894D01*
X283694Y42116D02*
X283987D01*
X281535Y39956D02*
X283694Y42116D01*
X272386Y39956D02*
X278385D01*
Y42180D01*
X268449Y44654D02*
X269702Y45906D01*
X293300Y42600D02*
X298500Y47800D01*
X293300Y28716D02*
Y42600D01*
X291800Y252782D02*
Y265093D01*
X292025Y247006D02*
Y252614D01*
X281761Y252782D02*
Y265150D01*
X281856Y246837D02*
Y252782D01*
X301856D02*
X306856D01*
X255061Y248700D02*
X261200D01*
X255061Y253700D02*
X261200D01*
X255061Y258700D02*
X261200D01*
X254891Y263870D02*
X261200D01*
X10098Y227465D02*
Y229598D01*
X11500Y231000D01*
X293300Y24400D02*
Y28716D01*
X196057Y106306D02*
X196892Y107142D01*
X186287Y106536D02*
X186892Y107142D01*
X189238Y98241D02*
Y100097D01*
X192992Y98241D02*
X201892Y107142D01*
X187931Y103422D02*
X191893Y107384D01*
X187931Y98241D02*
Y103422D01*
X169942Y90010D02*
X172333D01*
X135350Y255037D02*
X156781D01*
X126356Y226264D02*
X135350D01*
X114058D02*
X119565D01*
X215358Y73852D02*
Y77144D01*
X213033Y79469D02*
X215358Y77144D01*
X212452Y79469D02*
X213033D01*
X211593Y80328D02*
X212452Y79469D01*
X209492Y80328D02*
X211593D01*
X215943Y73266D02*
X218672D01*
X215358Y73852D02*
X215943Y73266D01*
X122170Y115906D02*
X122400Y116135D01*
X120028Y115700D02*
X120234Y115906D01*
X122170D01*
X104303Y115980D02*
X104583Y115700D01*
X87611Y115980D02*
X104303D01*
X104583Y115700D02*
X120028D01*
X84034Y112402D02*
X87611Y115980D01*
X84034Y111417D02*
Y112402D01*
X84607Y117700D02*
X119200D01*
X79309Y112402D02*
X84607Y117700D01*
X79309Y111417D02*
Y112402D01*
X98207Y164173D02*
Y169136D01*
X73234Y120500D02*
X115200D01*
X65136Y112402D02*
X73234Y120500D01*
X65136Y111417D02*
Y112402D01*
X82006Y209036D02*
X82475Y208568D01*
X82006Y211870D02*
X85212Y215075D01*
X82475Y208568D02*
X99829D01*
X82006Y209036D02*
Y211870D01*
X186942Y124784D02*
X203327D01*
X186474Y125252D02*
Y128468D01*
X204543Y96639D02*
Y123567D01*
X186474Y125252D02*
X186942Y124784D01*
X203327D02*
X204543Y123567D01*
X165830Y168750D02*
X165830Y168750D01*
X169374D01*
X192810Y208493D02*
X192991D01*
X195237Y206247D01*
Y202247D02*
Y206247D01*
X170296Y264005D02*
X172132D01*
X172361Y264234D01*
X170161Y263870D02*
X170296Y264005D01*
X168921Y263870D02*
X170161D01*
X192298Y165107D02*
X193547Y166357D01*
X190942Y165107D02*
X192298D01*
X194016Y171445D02*
X195797D01*
X193547Y170976D02*
X194016Y171445D01*
X193547Y166357D02*
Y170976D01*
X195797Y171445D02*
X200355Y176003D01*
X192678Y177747D02*
Y179847D01*
X189160Y175281D02*
X190211D01*
X192678Y177747D01*
X188931Y175051D02*
X189160Y175281D01*
X190942Y156545D02*
X190942Y156545D01*
Y159989D01*
X200355Y176003D02*
Y179847D01*
X208032Y169756D02*
Y179847D01*
X205500Y167223D02*
X208032Y169756D01*
X135350Y226264D02*
Y255037D01*
Y195289D02*
Y226264D01*
X124434Y185166D02*
X125226D01*
X135350Y195289D01*
X157685Y255150D02*
X158153Y255619D01*
X156893Y255150D02*
X157685D01*
X158153Y255619D02*
Y256369D01*
X156781Y255037D02*
X156893Y255150D01*
X113328Y225866D02*
X113394Y225932D01*
X113494Y225700D02*
X114058Y226264D01*
X121829Y164173D02*
Y169204D01*
X122400Y169775D01*
Y170100D01*
X147327Y161859D02*
X152087D01*
X146933Y162253D02*
X147327Y161859D01*
X51830Y213975D02*
Y214126D01*
X54882Y210773D02*
Y210924D01*
X51830Y213975D02*
X54882Y210924D01*
X48891Y214005D02*
X51710D01*
X48799Y213913D02*
X48891Y214005D01*
X51710D02*
X51830Y214126D01*
X54788Y214840D02*
X55765D01*
X52171Y217457D02*
X54788Y214840D01*
X75162Y237659D02*
X76730Y236090D01*
X72428Y238592D02*
X73361Y237659D01*
X76730Y235992D02*
Y236090D01*
X73361Y237659D02*
X75162D01*
X72103Y238592D02*
X72428D01*
X39182Y73431D02*
X39350Y73600D01*
X39182Y68400D02*
Y73431D01*
X4259Y83984D02*
X7916D01*
X3268Y84975D02*
X4259Y83984D01*
X2944Y84975D02*
X3268D01*
X52658Y270700D02*
X57400D01*
X14000Y251488D02*
Y256900D01*
X83893Y241163D02*
Y245178D01*
X75282Y220888D02*
Y224516D01*
Y220669D02*
Y220888D01*
X74335Y220464D02*
X75171Y220888D01*
X74174Y220382D02*
X74335Y220464D01*
X75282Y220888D02*
X76091D01*
X75171D02*
X75282D01*
X76450Y222050D02*
X78372Y223972D01*
X80079Y221105D02*
X83835D01*
X83893Y221047D01*
X79851Y221333D02*
X80079Y221105D01*
X80422Y223972D02*
X81379Y223016D01*
X83893D01*
X78372Y223972D02*
X80422D01*
X76091Y220888D02*
X77039Y221835D01*
X75751Y224984D02*
X83893D01*
X72737Y225767D02*
X73131D01*
X70431Y228073D02*
X72737Y225767D01*
X75282Y224516D02*
X75751Y224984D01*
X73131Y225767D02*
X73360Y225538D01*
X47641Y241753D02*
X52065D01*
X47323Y242071D02*
X47641Y241753D01*
X119184Y238468D02*
X123841D01*
X10961Y196100D02*
X14993D01*
X3500Y63900D02*
X8000D01*
X7895Y79005D02*
X8000Y78900D01*
X3605Y79005D02*
X7895D01*
X3500Y79110D02*
X3605Y79005D01*
X180527Y50657D02*
X182200D01*
X178679Y50723D02*
X180461D01*
X180527Y50657D01*
X178449Y50952D02*
X178679Y50723D01*
X70431Y228073D02*
Y228270D01*
X70953Y234047D02*
X76730Y228270D01*
X78047Y226953D01*
X83893D01*
X93482Y244096D02*
X98528D01*
X98547Y244116D01*
X112380Y110433D02*
Y111417D01*
X107656Y110433D02*
Y111417D01*
X64277Y101500D02*
X71100D01*
X63977Y101200D02*
X64277Y101500D01*
X157200Y98241D02*
X157430Y98011D01*
X158128D02*
X167642Y88497D01*
X157430Y98011D02*
X158128D01*
X222194Y120229D02*
X222447Y120483D01*
X210693Y106273D02*
Y109393D01*
X214193Y112893D01*
Y120087D01*
X210215Y124064D02*
X214193Y120087D01*
X210215Y124064D02*
Y139157D01*
X68300Y269700D02*
X73905D01*
X24182Y234047D02*
X24359D01*
X25631Y235319D01*
X28602D01*
X47303Y268538D02*
X49265Y270500D01*
X47303Y268368D02*
Y268538D01*
X49265Y270500D02*
X52858D01*
X20700Y15500D02*
Y20500D01*
X20600Y15400D02*
X20700Y15500D01*
Y20500D02*
X20800Y20600D01*
X184700Y98541D02*
X185000Y98241D01*
X186587D01*
X184231Y100619D02*
X184700Y100150D01*
X179187Y100619D02*
X184231D01*
X184700Y98541D02*
Y100150D01*
X186287Y98541D02*
Y106536D01*
X186587Y98241D02*
X187092D01*
X187931D01*
X189238D02*
X192992D01*
X187931D02*
X189238D01*
Y100097D02*
X196057Y106916D01*
X40610Y268368D02*
X47303D01*
X30500D02*
X32770D01*
X191893Y107142D02*
Y107384D01*
X196057Y106306D02*
Y106916D01*
X186287Y98541D02*
X186587Y98241D01*
X209492Y49166D02*
Y54898D01*
X167642Y87710D02*
Y88497D01*
X90700Y92500D02*
X150300D01*
X88758Y94442D02*
X90700Y92500D01*
X93482Y98918D02*
X95390Y97010D01*
X74585Y107040D02*
X75700Y105925D01*
X74585Y107040D02*
Y111417D01*
X75700Y105600D02*
Y105925D01*
X16000Y219228D02*
X38169D01*
X15772Y219457D02*
X16000Y219228D01*
X15772D02*
Y227654D01*
Y212023D02*
Y219228D01*
X196726Y65576D02*
X205492Y74343D01*
X196726Y62910D02*
Y65576D01*
X205492Y74343D02*
Y88919D01*
X195300Y55269D02*
X196726Y56694D01*
Y62910D01*
X187092Y75210D02*
X196726Y65576D01*
X74585Y164173D02*
Y169136D01*
X32065Y164173D02*
Y169136D01*
X164994Y105319D02*
Y109142D01*
Y105319D02*
X165035Y105277D01*
X167229Y63200D02*
X167520Y62910D01*
X163700Y63200D02*
X167229D01*
X157200Y87536D02*
X159849D01*
X195300Y47544D02*
Y51332D01*
X189238Y47600D02*
Y50952D01*
X80650Y260370D02*
X88000D01*
X23979Y251850D02*
X25117Y250713D01*
X28146D01*
X20593Y248915D02*
X20752Y248756D01*
X20593Y248915D02*
Y253100D01*
X16713Y233000D02*
X21252D01*
X27749Y227294D02*
X27815Y227228D01*
X27749Y227294D02*
Y231638D01*
X53166Y224000D02*
Y228684D01*
X53000Y228850D02*
X53166Y228684D01*
X32460Y213984D02*
X34161Y215685D01*
X32460Y213843D02*
Y213984D01*
X31550Y217457D02*
X38169D01*
X28933Y214840D02*
X31550Y217457D01*
X74585Y164173D02*
X74585Y164173D01*
X151100Y143610D02*
X152129Y142582D01*
X152453D01*
X146933Y143610D02*
X151100D01*
X83893Y230276D02*
X84361Y229807D01*
X83893Y230276D02*
Y234864D01*
X84361Y229807D02*
X86747D01*
X78305Y237923D02*
X87011D01*
X78305Y237566D02*
Y237923D01*
X92653Y229807D02*
Y232281D01*
X76730Y235992D02*
X78305Y237566D01*
X87011Y237923D02*
X92653Y232281D01*
X113523Y208568D02*
Y212523D01*
X113494Y212551D02*
X113523Y212523D01*
X205492Y88919D02*
X206278Y89705D01*
X206533D01*
X207393Y90564D01*
X209492D01*
X7916Y83984D02*
X8000Y83900D01*
X15800Y23600D02*
X52450Y60250D01*
Y77372D01*
Y81400D01*
X289300Y113000D02*
X309693D01*
X309800Y112893D01*
X289300Y123000D02*
X309570D01*
X262737Y39956D02*
X262785Y39908D01*
X15772Y227654D02*
X16000Y227882D01*
X58382Y209323D02*
Y212223D01*
X55765Y214840D02*
X58382Y212223D01*
X48799Y217457D02*
X52171D01*
X72050Y212885D02*
X74585D01*
X69860Y215075D02*
X72050Y212885D01*
X53228Y219228D02*
X60098D01*
X53187Y219269D02*
X53228Y219228D01*
X3031Y32531D02*
X6168D01*
X2900Y49000D02*
X3031Y48869D01*
X6168D01*
X196820Y53749D02*
X198424D01*
X195300Y55269D02*
X196820Y53749D01*
X182495Y54889D02*
X189238D01*
X182200Y55185D02*
X182495Y54889D01*
X194921D02*
X195300Y55269D01*
X189238Y54889D02*
X194921D01*
X145666Y117666D02*
X145700Y117700D01*
X145666Y112402D02*
Y117666D01*
X11253Y188800D02*
X95507D01*
X104309Y108020D02*
X105800Y106529D01*
Y106400D02*
Y106529D01*
X104309Y108020D02*
Y110039D01*
X102931Y111417D02*
X104309Y110039D01*
X5347Y188800D02*
X6039Y189492D01*
Y196100D01*
X45650Y80899D02*
X46150Y81400D01*
X45650Y73600D02*
Y80899D01*
X38950Y81200D02*
X39150Y81400D01*
X46150D01*
X52450D02*
X56845Y85796D01*
Y101200D01*
X59807Y106306D02*
X60411Y106911D01*
X59807Y104162D02*
Y106306D01*
X60411Y106911D02*
Y111417D01*
X56845Y101200D02*
X59807Y104162D01*
X32065Y107097D02*
Y111417D01*
X88758Y94442D02*
Y111417D01*
X93482Y98918D02*
Y111417D01*
X178449Y62319D02*
X181713Y59055D01*
X189238D01*
X190893Y60710D01*
Y62588D01*
X191214Y62910D01*
X289247Y112946D02*
X289300Y113000D01*
X269692Y112893D02*
X269746Y112946D01*
X289247D01*
X269692Y123000D02*
X289300D01*
X297133Y93000D02*
X297200Y92933D01*
X289300Y93000D02*
X297133D01*
X297200Y103500D02*
X297400Y103700D01*
X289800Y103500D02*
X297200D01*
X289300Y103000D02*
X289800Y103500D01*
X48799Y219228D02*
X48820Y219249D01*
X53166D01*
X53187Y219269D01*
X69860Y164173D02*
Y169136D01*
X65136Y164173D02*
Y169136D01*
X65200Y169200D01*
X160693Y79710D02*
X165035Y84052D01*
X160149Y79710D02*
X160693D01*
X165035Y97010D02*
X169331Y92713D01*
X165035Y84052D02*
X169926D01*
X177718Y95288D02*
X178112Y95682D01*
X172602Y95288D02*
X172602Y95288D01*
X187582Y64955D02*
Y69860D01*
X178463Y77629D02*
X181902D01*
X182041Y77769D02*
X187092D01*
X182006Y79252D02*
X183082Y80328D01*
X182612Y85110D02*
X182923D01*
X181426Y80652D02*
X183361Y82587D01*
X173564Y80652D02*
X181426D01*
X179142Y84310D02*
X180101Y85269D01*
X182923Y85110D02*
X183259Y85446D01*
X176992Y76159D02*
X177345D01*
X172621Y79710D02*
X173564Y80652D01*
X173335Y78443D02*
X174144Y79252D01*
X167642Y87710D02*
X169942Y90010D01*
X169926Y84052D02*
X170184Y84310D01*
X172333Y88972D02*
Y90010D01*
X170184Y84310D02*
X172843D01*
X178112Y95682D02*
X187092D01*
X179187Y90564D02*
X187092D01*
X180511Y93123D02*
X187092D01*
X180570Y88005D02*
X187092D01*
X176992Y69860D02*
Y70217D01*
X173335Y73875D02*
Y78443D01*
X177345Y76159D02*
X183644Y69860D01*
X173335Y73875D02*
X176992Y70217D01*
X183082Y80328D02*
X187092D01*
X176992Y76159D02*
X178463Y77629D01*
X181902D02*
X182041Y77769D01*
X183361Y82587D02*
X186793D01*
X187092Y82887D01*
X174144Y79252D02*
X182006D01*
X183259Y85446D02*
X187092D01*
X167236Y79710D02*
X172621D01*
X169331Y92713D02*
X180101D01*
Y85269D02*
Y87536D01*
X172602Y95288D02*
X177718D01*
X177452Y90010D02*
X178633D01*
X180101Y92713D02*
X180511Y93123D01*
X178633Y90010D02*
X179187Y90564D01*
X180101Y87536D02*
X180570Y88005D01*
X174592Y112893D02*
X183082D01*
X177718Y101751D02*
X180511Y104543D01*
X172326D02*
X172392Y104610D01*
Y101403D02*
X172602Y101194D01*
X172392Y101403D02*
Y104610D01*
X159849Y80810D02*
Y86216D01*
X161343Y87710D01*
X172848Y62910D02*
X178449D01*
X213424Y93123D02*
X213893Y93592D01*
X209492Y93123D02*
X213424D01*
X209492Y90564D02*
X217200D01*
X209492Y80328D02*
Y82887D01*
X212452Y84587D02*
X212707D01*
X214185Y83108D01*
Y81309D02*
Y83108D01*
X209492Y85446D02*
X211593D01*
X213893Y93592D02*
Y103073D01*
X210693Y106273D02*
X213893Y103073D01*
X205500Y95682D02*
X209492D01*
X204543Y96639D02*
X205500Y95682D01*
X176992Y64366D02*
Y69860D01*
X185536Y62910D02*
X187582Y64955D01*
X178449Y62319D02*
Y62910D01*
X174493Y125210D02*
X174592Y125310D01*
Y135093D01*
X221572Y76166D02*
X222308D01*
X209492Y88005D02*
X213397D01*
X214185Y81309D02*
X217308Y78187D01*
X214193Y85578D02*
X217177D01*
X211593Y85446D02*
X212452Y84587D01*
X214193Y85578D02*
Y87210D01*
X213397Y88005D02*
X214193Y87210D01*
X217308Y76166D02*
Y78187D01*
X218672Y73266D02*
X221572Y76166D01*
X222308Y83344D02*
X224073Y85110D01*
X222308Y76166D02*
Y83344D01*
X224073Y85110D02*
X224339D01*
X217177Y85578D02*
X217646Y85110D01*
X228724Y85578D02*
X229192Y86047D01*
Y90810D01*
X224339Y85110D02*
X224808Y85578D01*
X224139Y90810D02*
X229192D01*
X224808Y85578D02*
X228724D01*
X217200Y90564D02*
X217446Y90810D01*
X91355Y211438D02*
X92255Y212338D01*
X97460D01*
X70431Y234047D02*
X70953D01*
X88658Y229865D02*
Y233447D01*
Y229865D02*
X88716Y229807D01*
X88582Y233523D02*
X88658Y233447D01*
X99829Y208568D02*
X101801Y210540D01*
Y210773D01*
X103366Y212338D01*
X105728D01*
X85212Y215075D02*
X86945D01*
X88298Y216428D01*
Y216572D01*
X88716Y216989D01*
Y218193D01*
X99124Y221047D02*
X100533Y219638D01*
X100065Y224984D02*
X100533Y225453D01*
X95507Y224984D02*
X100065D01*
X95507Y223016D02*
X100065D01*
X95976Y233579D02*
X98079D01*
X95507Y221047D02*
X99124D01*
X95507Y226953D02*
Y233110D01*
X95976Y233579D01*
X98079D02*
X98547Y234047D01*
X100065Y223016D02*
X100533Y223484D01*
Y225453D02*
Y231169D01*
Y223484D02*
Y225453D01*
X89008Y214308D02*
X89672D01*
X86434Y211733D02*
X89008Y214308D01*
X89672D02*
X90684Y215320D01*
X86434Y211438D02*
Y211733D01*
X92653Y218193D02*
X95507D01*
X88658Y218135D02*
X88716Y218193D01*
X90684Y215320D02*
Y218193D01*
X83893Y218264D02*
X86676D01*
X86747Y218193D01*
X101002Y231638D02*
X112926D01*
X113394Y219738D02*
X113494Y219638D01*
X109663Y219738D02*
X113394D01*
X112926Y231638D02*
X113394Y231169D01*
X105455Y219638D02*
Y225472D01*
X113328Y225866D02*
X113494Y225700D01*
Y219638D02*
Y225700D01*
X105060Y225866D02*
X105455Y225472D01*
X113394Y225932D02*
Y231169D01*
X98547Y234047D02*
Y237817D01*
X100533Y231169D02*
X101002Y231638D01*
X105728Y212338D02*
X109194Y215804D01*
Y219269D02*
X109663Y219738D01*
X109194Y215804D02*
Y219269D01*
X20593Y243348D02*
X27249D01*
X52831Y235319D02*
X53000Y235150D01*
X46902Y235319D02*
X52831D01*
X37034Y268368D02*
X40610D01*
X52658Y270700D02*
X52858Y270500D01*
X32770Y268368D02*
X34902Y270500D01*
X37034Y268368D01*
X31752Y259116D02*
Y264431D01*
X29781Y266403D02*
X31752Y264431D01*
X56161Y259116D02*
Y264431D01*
X60098Y268368D01*
X54882Y257837D02*
X56161Y259116D01*
X49075Y257837D02*
X54882D01*
X33259Y211813D02*
X35359Y213913D01*
X38169D01*
X25885Y214799D02*
X28871Y211813D01*
X33259D01*
X19134Y214799D02*
X25885D01*
X34161Y215685D02*
X38169D01*
X10098Y215568D02*
Y222543D01*
X22500Y222740D02*
X27185D01*
X16000Y227882D02*
X21886D01*
X22500Y227563D02*
Y228000D01*
X33854Y227130D02*
Y231000D01*
X27815Y222110D02*
X27913Y222209D01*
X33854D01*
X35063Y221000D01*
X38169D01*
X46902Y224669D02*
X48799Y222772D01*
X46902Y224669D02*
Y229020D01*
X38169Y222772D02*
X40402Y225004D01*
Y229020D01*
X34902Y235319D02*
X40402D01*
X13752Y244153D02*
X14268Y243638D01*
X20752D01*
X20845Y243545D01*
X33751Y243348D02*
X33854Y243452D01*
Y250713D01*
X33751Y243348D02*
X37384D01*
X39449Y241283D01*
X33854Y250713D02*
X38839Y255697D01*
Y257837D01*
X44945Y244454D02*
X47323Y246831D01*
X45689Y238945D02*
X46158D01*
X46902Y235319D02*
Y238201D01*
X44945Y239688D02*
Y244454D01*
Y239688D02*
X45689Y238945D01*
X46158D02*
X46902Y238201D01*
X47323Y246831D02*
Y248764D01*
X40402Y235319D02*
X41516Y236433D01*
Y243348D02*
Y246697D01*
Y243348D02*
X41827Y243037D01*
X41516Y236433D02*
Y239377D01*
X41827Y239688D02*
Y243037D01*
X41516Y239377D02*
X41827Y239688D01*
X39449Y248764D02*
X41516Y246697D01*
X43957Y252130D02*
Y257837D01*
Y252130D02*
X47323Y248764D01*
X41398Y250713D02*
Y257837D01*
X39449Y248764D02*
X41398Y250713D01*
D19*
X157653Y234362D02*
D03*
Y209738D02*
D03*
X251519Y83664D02*
D03*
Y59040D02*
D03*
D20*
X270418Y36106D02*
D03*
D21*
X272386Y32256D02*
D03*
X268449D02*
D03*
Y39956D02*
D03*
X272386D02*
D03*
D22*
X32065Y111417D02*
D03*
X36789D02*
D03*
X41514D02*
D03*
X46238D02*
D03*
X50963D02*
D03*
X55687D02*
D03*
X60411D02*
D03*
X65136D02*
D03*
X69860D02*
D03*
X74585D02*
D03*
X79309D02*
D03*
X84034D02*
D03*
X88758D02*
D03*
X93482D02*
D03*
X98207D02*
D03*
X102931D02*
D03*
X107656D02*
D03*
X112380D02*
D03*
X117104D02*
D03*
X121829D02*
D03*
Y164173D02*
D03*
X117104D02*
D03*
X112380D02*
D03*
X107656D02*
D03*
X98207D02*
D03*
X93482D02*
D03*
X88758D02*
D03*
X84034D02*
D03*
X79309D02*
D03*
X74585D02*
D03*
X69860D02*
D03*
X65136D02*
D03*
X60411D02*
D03*
X55687D02*
D03*
X50963D02*
D03*
X46238D02*
D03*
X41514D02*
D03*
X36789D02*
D03*
X32065D02*
D03*
X102931D02*
D03*
D23*
X127502Y114157D02*
D03*
Y123606D02*
D03*
Y128331D02*
D03*
Y133055D02*
D03*
Y137779D02*
D03*
Y142504D02*
D03*
Y147228D02*
D03*
Y151953D02*
D03*
Y156677D02*
D03*
Y161402D02*
D03*
Y118882D02*
D03*
D24*
X107600Y129585D02*
D03*
X96360D02*
D03*
X107600Y141097D02*
D03*
X96360D02*
D03*
X56840Y133317D02*
D03*
X48108D02*
D03*
X56840Y141908D02*
D03*
X48108D02*
D03*
D27*
X283785Y199555D02*
D03*
X278667D02*
D03*
X310488D02*
D03*
X305369D02*
D03*
D28*
X86434Y211438D02*
D03*
X91355D02*
D03*
X10961Y196100D02*
D03*
X6039D02*
D03*
X100533Y219638D02*
D03*
X105455D02*
D03*
D29*
X164018Y26500D02*
D03*
Y21972D02*
D03*
X22500Y222740D02*
D03*
Y227268D02*
D03*
X182200Y55185D02*
D03*
Y50657D02*
D03*
X241297Y159054D02*
D03*
Y163581D02*
D03*
X153600Y26974D02*
D03*
Y22446D02*
D03*
D30*
X196726Y62910D02*
D03*
X191214D02*
D03*
D31*
X184994Y178595D02*
D03*
Y184500D02*
D03*
X177718Y101194D02*
D03*
Y95288D02*
D03*
X172602Y95288D02*
D03*
Y101194D02*
D03*
D32*
X190942Y165107D02*
D03*
Y159989D02*
D03*
D33*
X83893Y234864D02*
D03*
Y241163D02*
D03*
X146933Y155953D02*
D03*
Y162253D02*
D03*
X53000Y235150D02*
D03*
Y228850D02*
D03*
X146933Y149909D02*
D03*
Y143610D02*
D03*
X40402Y235319D02*
D03*
Y229020D02*
D03*
X46902Y235319D02*
D03*
Y229020D02*
D03*
X305667Y209305D02*
D03*
Y215604D02*
D03*
X98547Y237817D02*
D03*
Y244116D02*
D03*
D34*
X6168Y32531D02*
D03*
Y48869D02*
D03*
X14632D02*
D03*
Y32531D02*
D03*
D35*
X240501Y236680D02*
D03*
X247745D02*
D03*
D36*
X244123Y220980D02*
D03*
D37*
X232308Y76166D02*
D03*
Y52566D02*
D03*
X227308D02*
D03*
X222308D02*
D03*
X217308D02*
D03*
Y76166D02*
D03*
X222308D02*
D03*
X227308D02*
D03*
D38*
X113783Y24969D02*
D03*
X4800Y244900D02*
D03*
X60098Y219228D02*
D03*
X73905Y269700D02*
D03*
X54882Y210773D02*
D03*
X70431Y234047D02*
D03*
X273376Y199555D02*
D03*
X283785Y206531D02*
D03*
X309411Y140394D02*
D03*
X284444Y221101D02*
D03*
X293179Y215604D02*
D03*
X309570Y221101D02*
D03*
X15800Y23600D02*
D03*
X20600Y15400D02*
D03*
X21900Y85796D02*
D03*
X22100Y79100D02*
D03*
X6168Y56200D02*
D03*
X271563Y16622D02*
D03*
X262737Y39956D02*
D03*
X291856Y265150D02*
D03*
X123783Y24969D02*
D03*
X309548Y133000D02*
D03*
X119034Y238318D02*
D03*
X281761Y265150D02*
D03*
X153600Y37921D02*
D03*
X293300Y24400D02*
D03*
X309570Y123000D02*
D03*
X164018Y37549D02*
D03*
X309800Y112893D02*
D03*
X170052Y31991D02*
D03*
X93883Y25469D02*
D03*
X83583D02*
D03*
X173993Y20057D02*
D03*
X103716Y24969D02*
D03*
D39*
X39449Y241283D02*
D03*
Y248764D02*
D03*
X47323D02*
D03*
D40*
Y242071D02*
D03*
D41*
X192678Y179847D02*
D03*
X195237D02*
D03*
X197796D02*
D03*
X200355D02*
D03*
X202914D02*
D03*
X205473D02*
D03*
X208032D02*
D03*
X210591D02*
D03*
X213150D02*
D03*
X215709D02*
D03*
X215709Y202247D02*
D03*
X213150D02*
D03*
X210591D02*
D03*
X208032D02*
D03*
X205473D02*
D03*
X202914D02*
D03*
X200355D02*
D03*
X197796D02*
D03*
X195237D02*
D03*
X192678D02*
D03*
D42*
X204194Y191047D02*
D03*
D43*
X265019Y155299D02*
D03*
Y178803D02*
D03*
D44*
X283425Y192582D02*
D03*
X268858D02*
D03*
D45*
X307145Y191893D02*
D03*
D46*
X307638Y182208D02*
D03*
Y177878D02*
D03*
Y173547D02*
D03*
Y169216D02*
D03*
Y164886D02*
D03*
Y160555D02*
D03*
Y156224D02*
D03*
D47*
Y152090D02*
D03*
D48*
X306259Y147327D02*
D03*
D49*
X184494Y245947D02*
D03*
X222694D02*
D03*
X260394Y120229D02*
D03*
X222194D02*
D03*
D50*
X47303Y268368D02*
D03*
X40610D02*
D03*
D51*
X60098D02*
D03*
X27815D02*
D03*
D52*
X56161Y259116D02*
D03*
X31752D02*
D03*
D53*
X49075Y257837D02*
D03*
X46516D02*
D03*
X43957D02*
D03*
X41398D02*
D03*
X38839D02*
D03*
D54*
X274839Y24106D02*
D03*
X270902D02*
D03*
X187582Y69860D02*
D03*
X183644D02*
D03*
X273639Y47806D02*
D03*
X269702D02*
D03*
D55*
X183222Y156200D02*
D03*
Y164467D02*
D03*
X165035Y105277D02*
D03*
Y97010D02*
D03*
D56*
X267795Y211923D02*
D03*
Y218616D02*
D03*
D57*
X220000Y169800D02*
D03*
X217000D02*
D03*
D58*
X275876Y218465D02*
D03*
Y213137D02*
D03*
D59*
X166618Y190689D02*
D03*
Y196008D02*
D03*
D60*
X5347Y188800D02*
D03*
X11253D02*
D03*
D61*
X105728Y212338D02*
D03*
X97460D02*
D03*
X113328Y225866D02*
D03*
X105060D02*
D03*
X19134Y214799D02*
D03*
X10866D02*
D03*
D62*
X209492Y66522D02*
D03*
Y54898D02*
D03*
D63*
X278385Y39956D02*
D03*
X281535D02*
D03*
D64*
X33751Y243348D02*
D03*
X27249D02*
D03*
D65*
X138534Y112402D02*
D03*
X145666D02*
D03*
X56845Y101200D02*
D03*
X63977D02*
D03*
D67*
X38169Y222772D02*
D03*
Y221000D02*
D03*
Y219228D02*
D03*
Y217457D02*
D03*
Y215685D02*
D03*
Y213913D02*
D03*
X48799D02*
D03*
Y215685D02*
D03*
Y217457D02*
D03*
Y219228D02*
D03*
Y221000D02*
D03*
Y222772D02*
D03*
D68*
X43484Y218342D02*
D03*
D69*
X252050Y182900D02*
D03*
X231750D02*
D03*
X201292Y33223D02*
D03*
X180992D02*
D03*
D70*
X299478Y197404D02*
D03*
Y202522D02*
D03*
X16000Y227882D02*
D03*
Y233000D02*
D03*
X20752Y248756D02*
D03*
Y243638D02*
D03*
X27815Y227228D02*
D03*
Y222110D02*
D03*
D71*
X76730Y235992D02*
D03*
Y241897D02*
D03*
D72*
X224339Y85110D02*
D03*
X217646D02*
D03*
X224139Y90810D02*
D03*
X217446D02*
D03*
D73*
X28146Y250713D02*
D03*
X33854D02*
D03*
D74*
X224657Y163117D02*
D03*
Y152093D02*
D03*
D75*
X205500Y167223D02*
D03*
Y160137D02*
D03*
X74585Y219972D02*
D03*
Y212885D02*
D03*
X15000Y245213D02*
D03*
Y252299D02*
D03*
X113494Y212551D02*
D03*
Y219638D02*
D03*
D76*
X181308Y213984D02*
D03*
Y206110D02*
D03*
D77*
X172843Y84310D02*
D03*
X179142D02*
D03*
X129050Y255037D02*
D03*
X135350D02*
D03*
X161343Y87710D02*
D03*
X167642D02*
D03*
D78*
X197700Y167617D02*
D03*
Y161318D02*
D03*
X215109Y154920D02*
D03*
Y161219D02*
D03*
X176992Y69860D02*
D03*
Y76159D02*
D03*
D79*
X207833Y212900D02*
D03*
X214920D02*
D03*
X160149Y79710D02*
D03*
X167236D02*
D03*
X178449Y62910D02*
D03*
X185536D02*
D03*
X200437Y212947D02*
D03*
X193350D02*
D03*
D80*
X231569Y203500D02*
D03*
X227631D02*
D03*
X231169Y212500D02*
D03*
X227232D02*
D03*
D81*
X174592Y135093D02*
D03*
Y112893D02*
D03*
D82*
X124434Y185166D02*
D03*
X146481D02*
D03*
D83*
X139000Y157725D02*
D03*
Y147883D02*
D03*
D84*
X34902Y235319D02*
D03*
X28602D02*
D03*
X45650Y73600D02*
D03*
X39350D02*
D03*
X300278Y221069D02*
D03*
X293979D02*
D03*
X293179Y209354D02*
D03*
X299478D02*
D03*
X46150Y81400D02*
D03*
X52450D02*
D03*
X32650Y81200D02*
D03*
X38950D02*
D03*
X76730Y228270D02*
D03*
X70431D02*
D03*
D85*
X210215Y139157D02*
D03*
X202341D02*
D03*
D86*
X189238Y54889D02*
D03*
Y50952D02*
D03*
X195300Y55269D02*
D03*
Y51332D02*
D03*
D87*
X218853Y32756D02*
D03*
X243477D02*
D03*
D88*
X10098Y222543D02*
D03*
Y227465D02*
D03*
X33854Y222209D02*
D03*
Y227130D02*
D03*
D89*
X126356Y226264D02*
D03*
X121829D02*
D03*
D90*
X172033Y90095D02*
D03*
X177152D02*
D03*
D91*
X172848Y62910D02*
D03*
X167520D02*
D03*
D93*
X187092Y98241D02*
D03*
Y95682D02*
D03*
Y93123D02*
D03*
Y90564D02*
D03*
Y88005D02*
D03*
Y85446D02*
D03*
Y82887D02*
D03*
Y80328D02*
D03*
Y77769D02*
D03*
Y75210D02*
D03*
X209492Y75210D02*
D03*
Y77769D02*
D03*
Y80328D02*
D03*
Y82887D02*
D03*
Y88005D02*
D03*
Y90564D02*
D03*
Y93123D02*
D03*
Y98241D02*
D03*
Y85446D02*
D03*
Y95682D02*
D03*
D94*
X198293Y86725D02*
D03*
D95*
X169374Y168750D02*
D03*
X175279D02*
D03*
D171*
X83893Y226953D02*
D03*
Y224984D02*
D03*
Y223016D02*
D03*
Y221047D02*
D03*
X95507D02*
D03*
Y223016D02*
D03*
Y224984D02*
D03*
Y226953D02*
D03*
D172*
X86747Y218193D02*
D03*
X88716D02*
D03*
X90684D02*
D03*
X92653D02*
D03*
Y229807D02*
D03*
X90684D02*
D03*
X88716D02*
D03*
X86747D02*
D03*
D173*
X89700Y224000D02*
D03*
D174*
X307800Y25600D02*
D03*
X6039Y254500D02*
D03*
X6500Y23900D02*
D03*
D175*
X233355Y248870D02*
D03*
Y253870D02*
D03*
Y258870D02*
D03*
Y263870D02*
D03*
X254891D02*
D03*
Y258870D02*
D03*
Y253870D02*
D03*
Y248870D02*
D03*
X147385D02*
D03*
Y253870D02*
D03*
Y258870D02*
D03*
Y263870D02*
D03*
X168921D02*
D03*
Y258870D02*
D03*
Y253870D02*
D03*
Y248870D02*
D03*
D176*
X201474Y128468D02*
D03*
X196474D02*
D03*
X191474D02*
D03*
X186474D02*
D03*
Y106932D02*
D03*
X191474D02*
D03*
X196474D02*
D03*
X201474D02*
D03*
D177*
X252269Y133000D02*
X289300D01*
X241297Y143972D02*
X252269Y133000D01*
X241297Y143972D02*
Y159054D01*
X289300Y133000D02*
X289800Y133500D01*
X69855Y222407D02*
X71027Y221235D01*
X67997Y224701D02*
X68684D01*
X69855Y223530D01*
X71027Y221235D02*
X73321D01*
X69855Y222407D02*
Y223530D01*
X66331Y226367D02*
X67997Y224701D01*
X66331Y226367D02*
Y237796D01*
X80547Y252012D02*
X99642D01*
X66331Y237796D02*
X80547Y252012D01*
X99642D02*
X108000Y260370D01*
D178*
X289300Y123000D02*
D03*
Y113000D02*
D03*
Y103000D02*
D03*
Y133000D02*
D03*
X298500Y67800D02*
D03*
Y57800D02*
D03*
Y47800D02*
D03*
X98000Y260370D02*
D03*
X108000D02*
D03*
D179*
X289300Y93000D02*
D03*
X298500Y37800D02*
D03*
D180*
X88000Y260370D02*
D03*
D181*
X271856Y252782D02*
D03*
X281856D02*
D03*
X291856D02*
D03*
D182*
X301856D02*
D03*
D183*
X53800Y10500D02*
D03*
D184*
X63800D02*
D03*
X83800D02*
D03*
X93800D02*
D03*
X103800D02*
D03*
X113800D02*
D03*
X123800D02*
D03*
X133800D02*
D03*
X143800D02*
D03*
X153800D02*
D03*
X163800D02*
D03*
X173800D02*
D03*
X183800D02*
D03*
X193800D02*
D03*
X203800D02*
D03*
X213800D02*
D03*
X223800D02*
D03*
X233800D02*
D03*
X243800D02*
D03*
X73800D02*
D03*
D185*
X8000Y83900D02*
D03*
Y78900D02*
D03*
X13000Y83900D02*
D03*
Y78900D02*
D03*
Y68900D02*
D03*
Y73900D02*
D03*
X8000Y68900D02*
D03*
Y73900D02*
D03*
Y63900D02*
D03*
X13000D02*
D03*
D186*
X261300Y199160D02*
D03*
X36300Y12160D02*
D03*
Y199160D02*
D03*
X261300Y12160D02*
D03*
D187*
X305709Y9252D02*
D03*
Y266339D02*
D03*
X9252Y9252D02*
D03*
Y266339D02*
D03*
D188*
X113642Y106342D02*
D03*
X295335Y197990D02*
D03*
X275368Y34413D02*
D03*
X295800Y205400D02*
D03*
X150229Y96939D02*
D03*
X160220Y52906D02*
D03*
X178738Y46391D02*
D03*
X185021Y40982D02*
D03*
X158128Y60319D02*
D03*
X164018Y30586D02*
D03*
X193150Y218766D02*
D03*
X222694Y203500D02*
D03*
X227272Y216866D02*
D03*
X307472Y186954D02*
D03*
X305044Y196545D02*
D03*
Y204201D02*
D03*
X300278Y217801D02*
D03*
X302249Y160994D02*
D03*
X269135Y197212D02*
D03*
X300378Y152090D02*
D03*
X295335Y202449D02*
D03*
X278706Y203714D02*
D03*
X273376Y203675D02*
D03*
X266220Y223380D02*
D03*
X280551Y213109D02*
D03*
X301375Y213137D02*
D03*
X168610Y26402D02*
D03*
X178629Y39093D02*
D03*
X63700Y17700D02*
D03*
X46500Y8200D02*
D03*
X83683Y18868D02*
D03*
X183783Y16622D02*
D03*
X93783Y18768D02*
D03*
X103783D02*
D03*
X113783Y18868D02*
D03*
X266400Y47918D02*
D03*
X278894Y36376D02*
D03*
X277282Y20900D02*
D03*
X283987Y42116D02*
D03*
X276570Y45906D02*
D03*
X279700Y43800D02*
D03*
X301100Y25600D02*
D03*
X292193Y246837D02*
D03*
X281856D02*
D03*
X306856Y252782D02*
D03*
X271854Y259618D02*
D03*
X261200Y263870D02*
D03*
Y253700D02*
D03*
Y258700D02*
D03*
Y248700D02*
D03*
X11500Y231000D02*
D03*
X153600Y30531D02*
D03*
X123783Y18868D02*
D03*
X293300Y28716D02*
D03*
X207020Y207344D02*
D03*
X203820D02*
D03*
X122400Y116135D02*
D03*
X119200Y117700D02*
D03*
X98207Y169136D02*
D03*
X115200Y120500D02*
D03*
X125077Y254846D02*
D03*
X157153Y114535D02*
D03*
Y120076D02*
D03*
Y126353D02*
D03*
X162524D02*
D03*
Y120076D02*
D03*
Y114535D02*
D03*
X165830Y168750D02*
D03*
X136778Y206632D02*
D03*
X131520Y206999D02*
D03*
X126424D02*
D03*
X136778Y212223D02*
D03*
X131520Y212000D02*
D03*
X126580Y212223D02*
D03*
X224088Y170785D02*
D03*
X186426Y206632D02*
D03*
X169897Y208079D02*
D03*
X192810Y208493D02*
D03*
X198051Y207380D02*
D03*
X210591Y207509D02*
D03*
X172361Y264234D02*
D03*
X213898Y207380D02*
D03*
X188931Y175051D02*
D03*
X190942Y156545D02*
D03*
X182980Y150821D02*
D03*
X205420Y174592D02*
D03*
X197796Y156692D02*
D03*
X205643Y155440D02*
D03*
X219956Y213200D02*
D03*
X122400Y170100D02*
D03*
X136687Y162253D02*
D03*
X152087Y161859D02*
D03*
X51830Y214126D02*
D03*
X72103Y238592D02*
D03*
X39182Y68400D02*
D03*
X2944Y84975D02*
D03*
X79851Y221333D02*
D03*
X73360Y225538D02*
D03*
X4144Y183300D02*
D03*
X10258D02*
D03*
X16372D02*
D03*
X22486D02*
D03*
X4144Y91590D02*
D03*
X10258D02*
D03*
X16372D02*
D03*
X22486D02*
D03*
X28600D02*
D03*
Y97704D02*
D03*
Y103818D02*
D03*
Y109932D02*
D03*
Y116046D02*
D03*
Y122160D02*
D03*
Y128274D02*
D03*
Y134388D02*
D03*
Y140502D02*
D03*
Y146616D02*
D03*
Y152730D02*
D03*
Y158844D02*
D03*
Y164958D02*
D03*
Y171072D02*
D03*
X52065Y241753D02*
D03*
X83859Y245213D02*
D03*
X124634Y238936D02*
D03*
X14993Y196100D02*
D03*
X3500Y63900D02*
D03*
Y79110D02*
D03*
X80650Y260370D02*
D03*
X28600Y183300D02*
D03*
Y177186D02*
D03*
X139000Y119000D02*
D03*
X169250Y56907D02*
D03*
X194280Y41514D02*
D03*
X170951Y41856D02*
D03*
X169250Y48728D02*
D03*
X178449Y50952D02*
D03*
X107600Y141097D02*
D03*
X96360D02*
D03*
Y129585D02*
D03*
X89672Y123993D02*
D03*
X48108Y133317D02*
D03*
Y141908D02*
D03*
X56840D02*
D03*
Y133317D02*
D03*
X107600Y129585D02*
D03*
X71100Y101500D02*
D03*
X223500Y99010D02*
D03*
X157200Y98241D02*
D03*
X34902Y270500D02*
D03*
X52858D02*
D03*
X68300Y269700D02*
D03*
X24182Y234047D02*
D03*
X20800Y20600D02*
D03*
X209492Y49166D02*
D03*
X150300Y92500D02*
D03*
X139029Y104162D02*
D03*
X130803Y101200D02*
D03*
X142300Y133600D02*
D03*
X142179Y139506D02*
D03*
X75700Y105600D02*
D03*
X14000Y256900D02*
D03*
X74585Y169136D02*
D03*
X32065D02*
D03*
X64347Y153853D02*
D03*
X126424Y107459D02*
D03*
X164994Y109142D02*
D03*
X163700Y63200D02*
D03*
X157200Y87536D02*
D03*
X195300Y47544D02*
D03*
X189238Y47600D02*
D03*
X23979Y251850D02*
D03*
X20593Y253100D02*
D03*
X21252Y233000D02*
D03*
X27749Y231638D02*
D03*
X53166Y224000D02*
D03*
X28933Y214840D02*
D03*
X32460Y213843D02*
D03*
X112500Y158100D02*
D03*
X152453Y142582D02*
D03*
X113523Y208568D02*
D03*
X52450Y77372D02*
D03*
X69860Y106529D02*
D03*
Y215075D02*
D03*
X34500Y150800D02*
D03*
X80500Y151953D02*
D03*
X41514Y148600D02*
D03*
X3031Y32531D02*
D03*
X2900Y49000D02*
D03*
X145700Y117700D02*
D03*
X93000Y171200D02*
D03*
X95507Y188800D02*
D03*
X105800Y106400D02*
D03*
X32065Y107097D02*
D03*
X73234Y156677D02*
D03*
X269692Y112893D02*
D03*
Y123000D02*
D03*
X297200Y92933D02*
D03*
X297400Y103700D02*
D03*
X53187Y219269D02*
D03*
X69860Y169136D02*
D03*
X65200Y169200D02*
D03*
X180511Y104543D02*
D03*
X172392Y104610D02*
D03*
X183082Y112893D02*
D03*
X182612Y85110D02*
D03*
X174493Y125210D02*
D03*
X93482Y244096D02*
D03*
X88582Y233523D02*
D03*
X95507Y218193D02*
D03*
X83893Y218264D02*
D03*
X20252Y237887D02*
D03*
X33854Y231000D02*
D03*
X15000Y237887D02*
D03*
X10098Y238000D02*
D03*
M02*
